<svg width="664" height="500" viewBox="0 0 664 500" fill="none" xmlns="http://www.w3.org/2000/svg">
<path d="M510.346 77.4174C509.534 76.6978 508.645 77.0576 507.775 77.3917C507.097 77.6552 506.393 77.8544 505.715 78.1178C485.494 85.9759 465.587 94.5793 446.064 104.069C419.305 117.074 393.391 131.627 368.296 147.626C361.548 151.925 355.01 156.564 348.376 161.049C344.154 163.574 339.772 165.88 335.755 168.707C332.729 170.834 330.574 170.603 327.561 168.489C279.469 134.654 228.088 106.768 174.169 83.5214C168.975 81.279 163.684 79.3065 158.145 78.1114C153.526 77.1155 153.334 77.3596 154.85 81.9408C169.16 125.208 179.19 169.472 185.101 214.661C188.773 242.726 190.628 270.94 191.101 299.237C191.146 302.044 192.125 303.786 194.441 305.283C201.644 309.941 208.795 314.683 215.851 319.56C240.371 336.516 263.47 355.258 285.277 375.607C300.585 389.89 315.048 405.003 328.904 420.706C331.508 423.662 333.299 423.771 335.678 420.976C346.828 407.849 359.539 396.271 371.859 384.313C385.683 370.91 399.046 357.019 414.719 345.614C425.926 337.46 436.609 328.587 447.529 320.035C447.868 319.913 448.245 319.849 448.539 319.662C456.113 314.754 463.694 309.851 471.248 304.897C473.327 303.535 474.178 301.408 474.191 299.005C474.261 285.557 474.978 272.148 475.829 258.732C476.539 247.52 477.524 236.327 478.803 225.179C480.959 206.321 483.774 187.546 487.413 168.907C492.601 142.351 498.57 115.995 507.167 90.3065C508.299 86.9268 509.54 83.5857 510.717 80.2189C511.063 79.2358 511.242 78.2142 510.353 77.4174H510.346Z" fill="url(#paint0_linear_1370_66630)"/>
<mask id="mask0_1370_66630" style="mask-type:luminance" maskUnits="userSpaceOnUse" x="154" y="77" width="357" height="347">
<path d="M510.344 77.4179C509.532 76.6983 508.642 77.0581 507.772 77.3922C507.094 77.6556 506.391 77.8548 505.713 78.1183C485.492 85.9763 465.585 94.5798 446.061 104.07C419.303 117.075 393.389 131.628 368.294 147.627C361.545 151.925 355.007 156.564 348.374 161.049C344.152 163.574 339.77 165.881 335.753 168.708C332.727 170.835 330.571 170.603 327.558 168.489C279.466 134.654 228.086 106.768 174.166 83.5219C168.972 81.2795 163.682 79.3069 158.142 78.1118C153.524 77.1159 153.332 77.3601 154.848 81.9413C169.158 125.209 179.188 169.473 185.099 214.661C188.771 242.727 190.626 270.94 191.099 299.237C191.144 302.045 192.123 303.786 194.438 305.283C201.641 309.941 208.793 314.683 215.849 319.56C240.368 336.516 263.467 355.259 285.275 375.608C300.582 389.891 315.046 405.003 328.902 420.706C331.505 423.662 333.296 423.771 335.676 420.976C346.826 407.85 359.536 396.271 371.857 384.314C385.681 370.911 399.044 357.019 414.716 345.614C425.924 337.461 436.607 328.588 447.526 320.036C447.865 319.913 448.243 319.849 448.537 319.663C456.111 314.754 463.691 309.852 471.246 304.898C473.325 303.535 474.176 301.409 474.189 299.006C474.259 285.558 474.975 272.148 475.826 258.732C476.536 247.52 477.521 236.327 478.801 225.18C480.956 206.321 483.771 187.547 487.411 168.907C492.599 142.352 498.567 115.995 507.165 90.307C508.297 86.9273 509.538 83.5861 510.715 80.2193C511.06 79.2362 511.24 78.2146 510.35 77.4179H510.344Z" fill="white"/>
</mask>
<g mask="url(#mask0_1370_66630)">
<path d="M517.438 71.4099C517.438 71.4099 448.198 80.9642 175.158 278.489L176.757 312.633C176.757 312.633 331.87 421.503 331.87 425.538C331.87 429.573 480.847 304.949 480.847 304.949L517.438 71.4099Z" fill="url(#paint1_linear_1370_66630)"/>
</g>
<defs>
<linearGradient id="paint0_linear_1370_66630" x1="154.006" y1="250" x2="510.992" y2="250" gradientUnits="userSpaceOnUse">
<stop stop-color="#B4AF9D"/>
<stop offset="0.99" stop-color="#75736A"/>
</linearGradient>
<linearGradient id="paint1_linear_1370_66630" x1="100.41" y1="385.778" x2="429.628" y2="246.587" gradientUnits="userSpaceOnUse">
<stop stop-color="#295F70"/>
<stop offset="1" stop-color="#002C38"/>
</linearGradient>
</defs>
</svg>
