<svg width="357" height="346" viewBox="0 0 357 346" fill="none" xmlns="http://www.w3.org/2000/svg">
<path d="M356.346 0.417442C355.534 -0.302186 354.645 0.0576324 353.775 0.391746C353.097 0.655181 352.393 0.854357 351.715 1.11779C331.494 8.97588 311.587 17.5793 292.064 27.0694C265.305 40.0741 239.391 54.6273 214.296 70.6262C207.548 74.9247 201.01 79.5637 194.376 84.0486C190.154 86.5737 185.772 88.8804 181.755 91.7075C178.729 93.8342 176.574 93.6029 173.561 91.489C125.469 57.6536 74.0885 29.768 20.1688 6.52143C14.9745 4.27902 9.68426 2.30647 4.14453 1.11137C-0.474052 0.115457 -0.665956 0.35962 0.850115 4.94083C15.16 48.2085 25.1904 92.4721 31.1012 137.661C34.773 165.726 36.6281 193.94 37.1015 222.237C37.1463 225.044 38.125 226.786 40.4407 228.283C47.6436 232.941 54.7954 237.683 61.8512 242.56C86.3706 259.516 109.47 278.258 131.277 298.607C146.585 312.89 161.048 328.003 174.904 343.706C177.508 346.662 179.299 346.771 181.678 343.976C192.828 330.849 205.539 319.271 217.859 307.313C231.683 293.91 245.046 280.019 260.719 268.614C271.926 260.46 282.609 251.587 293.529 243.035C293.868 242.913 294.245 242.849 294.539 242.662C302.113 237.754 309.694 232.851 317.248 227.897C319.327 226.535 320.178 224.408 320.191 222.005C320.261 208.557 320.978 195.148 321.829 181.732C322.539 170.52 323.524 159.327 324.803 148.179C326.959 129.321 329.774 110.546 333.413 91.9067C338.601 65.3511 344.57 38.9947 353.167 13.3065C354.299 9.92682 355.54 6.58569 356.717 3.21885C357.063 2.23579 357.242 1.21417 356.353 0.417442H356.346Z" fill="url(#paint0_linear_1370_66632)"/>
<mask id="mask0_1370_66632" style="mask-type:luminance" maskUnits="userSpaceOnUse" x="0" y="0" width="357" height="347">
<path d="M356.344 0.4179C355.532 -0.301728 354.642 0.0580902 353.772 0.392203C353.094 0.655639 352.391 0.854815 351.713 1.11825C331.492 8.97634 311.585 17.5798 292.061 27.0699C265.303 40.0746 239.389 54.6278 214.294 70.6267C207.545 74.9252 201.007 79.5642 194.374 84.049C190.152 86.5742 185.77 88.8808 181.753 91.7079C178.727 93.8347 176.571 93.6034 173.558 91.4895C125.466 57.6541 74.0861 29.7685 20.1664 6.52189C14.9721 4.27948 9.68182 2.30693 4.14209 1.11183C-0.476493 0.115914 -0.668397 0.360078 0.847674 4.94129C15.1576 48.209 25.188 92.4725 31.0987 137.661C34.7705 165.727 36.6257 193.94 37.099 222.237C37.1438 225.045 38.1225 226.786 40.4382 228.283C47.6412 232.941 54.7929 237.683 61.8487 242.56C86.3681 259.516 109.467 278.259 131.275 298.608C146.582 312.891 161.046 328.003 174.902 343.706C177.505 346.662 179.296 346.771 181.676 343.976C192.826 330.85 205.536 319.271 217.857 307.314C231.681 293.911 245.044 280.019 260.716 268.614C271.924 260.461 282.607 251.588 293.526 243.036C293.865 242.913 294.243 242.849 294.537 242.663C302.111 237.754 309.691 232.852 317.246 227.898C319.325 226.535 320.176 224.409 320.189 222.006C320.259 208.558 320.975 195.148 321.826 181.732C322.536 170.52 323.521 159.327 324.801 148.18C326.956 129.321 329.771 110.547 333.411 91.9071C338.599 65.3515 344.567 38.9951 353.165 13.307C354.297 9.92728 355.538 6.58615 356.715 3.21931C357.06 2.23625 357.24 1.21463 356.35 0.4179H356.344Z" fill="white"/>
</mask>
<g mask="url(#mask0_1370_66632)">
<path d="M363.438 -5.59012C363.438 -5.59012 294.198 3.96421 21.1577 201.489L22.7569 235.633C22.7569 235.633 177.87 344.503 177.87 348.538C177.87 352.573 326.847 227.949 326.847 227.949L363.438 -5.59012Z" fill="url(#paint1_linear_1370_66632)"/>
</g>
<defs>
<linearGradient id="paint0_linear_1370_66632" x1="0.00572033" y1="173" x2="356.992" y2="173" gradientUnits="userSpaceOnUse">
<stop stop-color="#B4AF9D"/>
<stop offset="0.99" stop-color="#75736A"/>
</linearGradient>
<linearGradient id="paint1_linear_1370_66632" x1="-53.5903" y1="308.778" x2="275.628" y2="169.587" gradientUnits="userSpaceOnUse">
<stop stop-color="#295F70"/>
<stop offset="1" stop-color="#002C38"/>
</linearGradient>
</defs>
</svg>
