<svg id="Layer_1" data-name="Layer 1" xmlns="http://www.w3.org/2000/svg" viewBox="0 0 192 192"><path d="M29.39,91.18a1.83,1.83,0,0,0-.13-.75,1.23,1.23,0,0,0-.41-.49,1.21,1.21,0,0,0-.43-.15,5.6,5.6,0,0,0-.64,0H14.49V86.08l5-3.21,5-3.2c.17.46.33.88.47,1.24l.46,1.21L19,86.24H29c.41,0,.78,0,1.11,0a6.06,6.06,0,0,1,.86.11,2.15,2.15,0,0,1,1.58,1,4.68,4.68,0,0,1,.48,2.39v6.7H12.93V92.94l16.46,0Z" style="fill:#353535"/><path d="M40.74,98.46a7.75,7.75,0,0,1-.11,1.37,3.19,3.19,0,0,1-.35,1,2,2,0,0,1-.61.66,2.62,2.62,0,0,1-.9.37h0a7.39,7.39,0,0,1-.9.11c-.34,0-.72,0-1.16,0H34.63V98.52h.81a4.54,4.54,0,0,0,1.14-.08v0a.5.5,0,0,0,.37-.31,2,2,0,0,0,.11-.76V85.76h3.69Z" style="fill:#353535"/><path d="M47,96.45c-.46,0-.87,0-1.23,0a9.08,9.08,0,0,1-.92-.12h0a2.6,2.6,0,0,1-.89-.38,1.91,1.91,0,0,1-.59-.67,3.2,3.2,0,0,1-.33-1,7.79,7.79,0,0,1-.1-1.36v-12h3.67V91.85c0,.6.23,1,.7,1.09h.82v3.51Z" style="fill:#353535"/><path d="M62.18,92.94h1.5v3.51H48V92.94h1.46V88.11A4.78,4.78,0,0,1,50,85.73a2.1,2.1,0,0,1,1.54-1,7.76,7.76,0,0,1,.86-.12c.34,0,.72,0,1.16,0h4.63c.36,0,.7,0,1,0s.61.07.88.12a2.24,2.24,0,0,1,1.64,1,4.57,4.57,0,0,1,.5,2.4Zm-7-10.17H51.46v-3h3.68Zm3.37,6.43a1.42,1.42,0,0,0-.17-.74,1.1,1.1,0,0,0-.48-.4H54.09c-.62.06-.93.43-.93,1.14v2.68c0,.18,0,.33,0,.45a1.26,1.26,0,0,0,.09.31.47.47,0,0,0,.18.19,1,1,0,0,0,.32.11h3.88a1,1,0,0,0,.75-.38,1.65,1.65,0,0,0,.11-.68Zm1.84-6.43H56.66v-3h3.69Z" style="fill:#353535"/><path d="M63.67,96.46V93h1.47V88.11q0-2.92,1.86-3.33a9.32,9.32,0,0,1,2.15-.19h8.69v3.47H69.46a1.07,1.07,0,0,0-.68,1.14V93h9.06v3.47Z" style="fill:#353535"/><path d="M87,96.52a8,8,0,0,1,.11-1.39,3.2,3.2,0,0,1,.34-1,2,2,0,0,1,.61-.65,2.87,2.87,0,0,1,.9-.36v0a7.11,7.11,0,0,1,1-.12c.38,0,.84,0,1.37,0V88.11c0-1.94.61-3,1.85-3.33a9.77,9.77,0,0,1,2.17-.19h9.1V93h1.31v3.47H92.3l-.74,0a2.19,2.19,0,0,0-.39,0,.49.49,0,0,0-.36.31,2.07,2.07,0,0,0-.11.76V102H87ZM95,93h5.79V89.2a1.07,1.07,0,0,0-.68-1.14H95.63A1.06,1.06,0,0,0,95,89.2Z" style="fill:#353535"/><path d="M112.07,75.21a2.81,2.81,0,0,1,.27.55c.06.2.12.4.17.59a3.21,3.21,0,0,1,.07.68c0,.13,0,.25,0,.36a3.22,3.22,0,0,1-.23,1,2,2,0,0,1-.51.71,1.2,1.2,0,0,1-.79.27,1,1,0,0,1-.58-.14,5.47,5.47,0,0,1-.43-.36l-.23.36a2.38,2.38,0,0,1-.34.38,2,2,0,0,1-.48.33,1.84,1.84,0,0,1-.62.17l-.2,0a1.26,1.26,0,0,1-.67-.17,1.22,1.22,0,0,1-.48-.55,2,2,0,0,1-.17-.77,2.11,2.11,0,0,1,0-.25,3.45,3.45,0,0,1,0-.57A3.87,3.87,0,0,1,107,77a2.63,2.63,0,0,1,.22-.49,0,0,0,0,0,0,0l.06,0,.18-.14.18-.14.06,0s0,0,0,0a4,4,0,0,0-.2.71,2.81,2.81,0,0,0-.06.56.86.86,0,0,0,0,.22,1.24,1.24,0,0,0,.21.62.61.61,0,0,0,.53.23h.05a.89.89,0,0,0,.68-.25,1.6,1.6,0,0,0,.37-.58,3.9,3.9,0,0,0,.19-.69,2,2,0,0,1,.2-.59l0,0,0,0,.14-.11.16-.14h.08a1.59,1.59,0,0,0-.08.51,1.15,1.15,0,0,0,0,.33,1.29,1.29,0,0,0,.3.62A.91.91,0,0,0,111,78h.09a1.09,1.09,0,0,0,.62-.22.5.5,0,0,0,.09-.31v0a1.56,1.56,0,0,0-.08-.41,1.85,1.85,0,0,0-.17-.42,2.87,2.87,0,0,0-.21-.36l.38-.53Z" style="fill:#353535"/><path d="M112.7,91.85a1.49,1.49,0,0,0,.16.73,1,1,0,0,0,.51.4h2.26v3.47h-.95a2.49,2.49,0,0,1-2.4-1.77,3.43,3.43,0,0,1-.67,1.12,1.74,1.74,0,0,1-.89.52,3.73,3.73,0,0,1-.79.1c-.33,0-.75,0-1.24,0h-3.12V93l.78,0,.93,0,.79,0a1,1,0,0,0,.37-.05l-.08.05a.89.89,0,0,0,.51-.38,1.54,1.54,0,0,0,.14-.71V84.59h3.69Zm-2.76,9.46h-3.68v-3h3.68Zm5.22,0h-3.67v-3h3.67Z" style="fill:#353535"/><path d="M115.52,92.94H117l0-4.83a7.05,7.05,0,0,1,.11-1.39,2.94,2.94,0,0,1,.35-1,1.9,1.9,0,0,1,.64-.65,2.76,2.76,0,0,1,.93-.32,7.43,7.43,0,0,1,.86-.12c.33,0,.7,0,1.11,0h8.69l0,8.32a4.39,4.39,0,0,1-.51,2.37,2.48,2.48,0,0,1-1.55,1,4.5,4.5,0,0,1-.84.1c-.33,0-.7,0-1.13,0H115.52ZM122,82.77h-3.69v-3H122Zm.28,5.29a7,7,0,0,0-.73,0,2.5,2.5,0,0,0-.41,0,.54.54,0,0,0-.3.34,1.82,1.82,0,0,0-.11.72l0,2.68a4.11,4.11,0,0,0,0,.55.67.67,0,0,0,.13.32.52.52,0,0,0,.28.16,2.48,2.48,0,0,0,.47.07h2.82c.86,0,1.36-.16,1.51-.48a1,1,0,0,0,0-.24,2.12,2.12,0,0,0,0-.38l0-3.82Zm4.94-5.29h-3.67v-3h3.67Z" style="fill:#353535"/><path d="M19.85,116.79l-.92-.86a3.8,3.8,0,0,1-2,.51,3.5,3.5,0,0,1-2.71-1.09,4.15,4.15,0,0,1-1-2.95,4.31,4.31,0,0,1,1-3,3.48,3.48,0,0,1,2.71-1.11,3.5,3.5,0,0,1,2.73,1.11,4.35,4.35,0,0,1,1,3,4.29,4.29,0,0,1-.82,2.73l.85.79ZM17,114.16l.82-.87.84.77a3.3,3.3,0,0,0,.37-1.67,3.19,3.19,0,0,0-.56-2,2,2,0,0,0-3.09,0,3.19,3.19,0,0,0-.56,2,3.12,3.12,0,0,0,.55,2,1.87,1.87,0,0,0,1.55.71h0a1.84,1.84,0,0,0,.83-.18Z" style="fill:#353535"/><path d="M23.83,116.23l2.74-7.75h1.87l2.75,7.75H29.47L29,114.66H26l-.52,1.57Zm3.65-6-1,3.11h2.06Z" style="fill:#353535"/><path d="M34.72,116.23v-7.75h5.7v1.37H36.33v1.65h3.79v1.34H36.33v2H40.6v1.37Z" style="fill:#353535"/><path d="M44.4,116.23v-7.75h5.7v1.37H46v1.65h3.79v1.34H46v2h4.26v1.37Z" style="fill:#353535"/><path d="M55.51,116.23H54v-7.75h2.37l1.42,6.14,1.39-6.14h2.34v7.75H60v-6.51l-1.45,6.51H57l-1.46-6.66Z" style="fill:#353535"/><path d="M70.52,116.23l2.74-7.75h1.87l2.75,7.75H76.16l-.52-1.57H72.7l-.52,1.57Zm3.65-6-1,3.11h2.06Z" style="fill:#353535"/><path d="M87.71,116.79l-.93-.86a3.74,3.74,0,0,1-2,.51,3.53,3.53,0,0,1-2.72-1.09,4.19,4.19,0,0,1-1-2.95,4.36,4.36,0,0,1,1-3,3.89,3.89,0,0,1,5.44,0,4.36,4.36,0,0,1,1,3,4.29,4.29,0,0,1-.82,2.73l.84.79Zm-2.86-2.63.82-.87.85.77a3.3,3.3,0,0,0,.37-1.67,3.26,3.26,0,0,0-.56-2,2,2,0,0,0-3.1,0,3.26,3.26,0,0,0-.56,2,3.12,3.12,0,0,0,.56,2,1.87,1.87,0,0,0,1.55.71h0a1.92,1.92,0,0,0,.84-.18Z" style="fill:#353535"/><path d="M91.68,116.23l2.74-7.75H96.3l2.75,7.75H97.33l-.53-1.57H93.86l-.51,1.57Zm3.66-6-1,3.11h2.06Z" style="fill:#353535"/><path d="M102.57,116.23v-7.75h3.91a2.64,2.64,0,0,1,1.78.59,2,2,0,0,1,.68,1.57,1.82,1.82,0,0,1-.76,1.63,1.9,1.9,0,0,1-.45.23,1.58,1.58,0,0,1,.26.13,1.45,1.45,0,0,1,.69,1.33l0,1.27a1.61,1.61,0,0,0,.08.54.49.49,0,0,0,.26.25v.2h-1.78a1.43,1.43,0,0,1-.12-.51c0-.27,0-.55,0-.86v-.72a.9.9,0,0,0-.31-.74,1.69,1.69,0,0,0-1-.22h-1.61v3.06Zm1.62-4.36h1.88a1.46,1.46,0,0,0,.94-.26.93.93,0,0,0,.31-.77,1,1,0,0,0-.3-.77,1.33,1.33,0,0,0-.89-.26h-1.94Z" style="fill:#353535"/><path d="M112.25,116.23l2.74-7.75h1.88l2.74,7.75h-1.72l-.52-1.57h-2.94l-.51,1.57Zm3.65-6-1,3.11h2.06Z" style="fill:#353535"/><path d="M123.25,116.23v-7.75h1.62v3.21l3-3.21h2.07l-3.1,3.17,3.31,4.58H128l-2.33-3.41-.79.8v2.61Z" style="fill:#353535"/><polygon points="179.07 81.25 174.74 81.25 179.07 85.66 179.07 81.25" style="fill:#353535"/><polygon points="179.07 116.24 174.74 116.24 179.07 111.83 179.07 116.24" style="fill:#353535"/><polygon points="144.11 81.25 148.45 81.25 144.11 85.66 144.11 81.25" style="fill:#353535"/><polygon points="144.11 116.24 148.45 116.24 144.11 111.83 144.11 116.24" style="fill:#353535"/><rect x="155.96" y="93.13" width="11.71" height="11.71" transform="translate(-22.6 143.41) rotate(-45)" style="fill:#353535"/><polygon points="161.82 98.99 161.82 90.7 170.1 98.99 161.82 98.99" style="fill:#353535;opacity:0.78"/><polygon points="153.53 98.99 161.82 98.99 161.82 107.27 153.53 98.99" style="fill:#353535;opacity:0.78"/></svg>