<svg width="131" height="95" viewBox="0 0 131 95" fill="none" xmlns="http://www.w3.org/2000/svg">
<path d="M58.2588 37.7734C56.9849 39.2284 55.6805 40.6659 54.3455 42.0857L46.8604 25.5305C46.2954 24.2887 46.9613 22.8528 48.3459 22.3328C49.7306 21.8128 51.3108 22.4073 51.8743 23.6554L58.2588 37.7734Z" fill="#295F70"/>
<path d="M69.3403 68.7664C69.042 68.8784 68.7274 68.9413 68.409 68.9526C67.3099 68.9899 66.2575 68.4171 65.8166 67.4469L56.1925 46.1651L56.1738 46.12C56.5992 45.673 57.0291 45.2197 57.4591 44.7618L57.4855 44.7339C58.3657 43.8025 59.252 42.8571 60.1322 41.9087L70.8321 65.5702C71.3925 66.8167 70.7281 68.2495 69.3403 68.7664Z" fill="#295F70"/>
<path d="M37.5855 63.7896C37.5932 65.6725 37.6119 66.739 37.6445 66.9734C37.9166 68.7109 38.6778 69.5791 39.9279 69.5781C40.5938 69.5781 41.1852 69.2987 41.7006 68.7523C42.216 68.2059 42.4767 67.4654 42.4767 66.5387V59.6279C40.9353 61.0203 39.3039 62.464 37.5855 63.7896ZM37.4427 31.7209C34.099 27.3807 30.0802 25.2111 25.3861 25.2122C20.6505 25.2122 16.6073 27.3817 13.2565 31.7209C10.273 35.5892 8.57012 40.6093 8.24414 45.8762C8.36988 46.5996 9.33074 47.8259 9.6412 48.394C10.1457 49.3254 10.6626 50.2568 11.2059 51.1726C12.273 53.0011 13.466 54.7532 14.7762 56.4162C15.2776 57.0449 15.8084 57.6814 16.3688 58.2992L16.42 58.355C16.9742 58.9434 17.5439 59.5037 18.1276 60.0253C17.6239 59.539 17.1569 59.016 16.7305 58.4606C14.3669 55.3964 13.1882 51.6911 13.1944 47.3447C13.2006 42.9983 14.384 39.278 16.7445 36.1837C19.1143 33.0905 21.9969 31.5439 25.3923 31.5439C28.7421 31.5439 31.6004 33.0905 33.9671 36.1837C35.9851 38.8304 36.9879 41.8604 37.3992 45.1311C37.6403 47.0435 37.7987 48.9632 37.8742 50.8901C37.941 52.5495 37.8168 55.0347 37.8401 56.9363C39.4141 55.7896 40.9612 54.5861 42.4814 53.3256V47.3447C42.4773 41.269 40.7977 36.0611 37.4427 31.7209Z" fill="#295F70"/>
<path d="M41.1883 79.2985C41.0705 79.1779 40.9294 79.0825 40.7735 79.0182C40.6177 78.9539 40.4503 78.922 40.2818 78.9244H39.2479C39.1018 78.9244 38.9616 78.8664 38.8583 78.763C38.7549 78.6597 38.6969 78.5195 38.6969 78.3733C38.6956 78.2924 38.7071 78.2117 38.731 78.1343C38.7798 77.963 38.8827 77.8122 39.0244 77.7043C39.1668 77.5984 39.339 77.5403 39.5165 77.5382H39.9977C40.1776 77.5371 40.3528 77.5955 40.496 77.7043C40.6425 77.8081 40.7476 77.9604 40.7925 78.1343L40.808 78.1529C40.8133 78.1788 40.8272 78.2022 40.8475 78.2191C40.8678 78.236 40.8933 78.2455 40.9197 78.2461C40.9403 78.2449 40.9606 78.2413 40.9803 78.2352L41.418 78.1032C41.4449 78.0992 41.4695 78.0858 41.4874 78.0653C41.5053 78.0448 41.5154 78.0187 41.5158 77.9915C41.5172 77.9734 41.5172 77.9552 41.5158 77.9372L41.5003 77.9185C41.4099 77.5952 41.213 77.3119 40.9415 77.1144C40.6737 76.9111 40.3463 76.8019 40.0101 76.804H39.5196C39.1868 76.8053 38.8634 76.9142 38.5975 77.1144C38.3234 77.3136 38.1239 77.5989 38.0309 77.9247C37.9858 78.07 37.9623 78.2212 37.9611 78.3733C37.9585 78.5422 37.9906 78.7099 38.0555 78.8658C38.1204 79.0217 38.2167 79.1627 38.3383 79.2799C38.4565 79.4014 38.5983 79.4974 38.755 79.562C38.9117 79.6266 39.08 79.6584 39.2495 79.6555H40.2833C40.3553 79.6557 40.4265 79.6701 40.4929 79.6978C40.5593 79.7256 40.6196 79.7661 40.6703 79.8171C40.7211 79.8682 40.7612 79.9287 40.7886 79.9952C40.8159 80.0618 40.8299 80.1331 40.8297 80.205C40.8307 80.2861 40.8186 80.3668 40.794 80.4441C40.7478 80.6174 40.6431 80.7693 40.4975 80.8741C40.3542 80.9827 40.1791 81.0411 39.9992 81.0402H39.5211C39.344 81.0393 39.1719 80.981 39.0306 80.8741C38.8875 80.7667 38.7829 80.6158 38.7326 80.4441L38.7233 80.4208C38.7121 80.3869 38.6897 80.3578 38.6596 80.3385C38.6402 80.3278 38.6182 80.3224 38.596 80.323H38.5525L38.1132 80.4612C38.0863 80.4652 38.0617 80.4787 38.0438 80.4991C38.0259 80.5196 38.0158 80.5457 38.0154 80.5729C38.0134 80.59 38.0134 80.6072 38.0154 80.6242L38.0247 80.6552C38.1171 80.9767 38.3144 81.2581 38.5851 81.4546C38.8534 81.657 39.1805 81.766 39.5165 81.7651H39.9977C40.3338 81.7665 40.661 81.6574 40.9291 81.4546C41.2006 81.2572 41.3975 80.9739 41.4879 80.6506C41.5343 80.5034 41.5579 80.35 41.5577 80.1957C41.5595 80.029 41.5277 79.8637 41.4643 79.7095C41.4008 79.5554 41.3069 79.4156 41.1883 79.2985Z" fill="#295F70"/>
<path d="M46.9552 76.8071H46.4895C46.4712 76.8043 46.4525 76.8058 46.4348 76.8115C46.4172 76.8171 46.4011 76.8268 46.3879 76.8398C46.3746 76.8527 46.3646 76.8686 46.3585 76.8861C46.3524 76.9036 46.3505 76.9222 46.3529 76.9406V79.6649C46.3534 79.9369 46.2732 80.2029 46.1222 80.4292C45.9713 80.6555 45.7565 80.8318 45.5052 80.9358C45.2538 81.0397 44.9772 81.0667 44.7106 81.0131C44.4439 80.9596 44.1991 80.828 44.0074 80.6351C43.8764 80.5102 43.7727 80.3595 43.7029 80.1925C43.6332 80.0255 43.5989 79.8458 43.6022 79.6649V76.9406C43.605 76.9227 43.6036 76.9044 43.5981 76.8871C43.5926 76.8699 43.5832 76.8541 43.5705 76.8412C43.5578 76.8282 43.5423 76.8184 43.5252 76.8125C43.5081 76.8065 43.4898 76.8047 43.4718 76.8071H43.0061C42.9881 76.8048 42.9698 76.8066 42.9526 76.8126C42.9355 76.8185 42.9199 76.8283 42.9071 76.8412C42.8943 76.8541 42.8847 76.8698 42.879 76.887C42.8733 76.9043 42.8717 76.9226 42.8742 76.9406V79.6649C42.8891 80.2143 43.1178 80.7361 43.5117 81.1194C43.9055 81.5027 44.4334 81.7172 44.983 81.7172C45.5326 81.7172 46.0605 81.5027 46.4543 81.1194C46.8482 80.7361 47.0769 80.2143 47.0918 79.6649V76.9406C47.0945 76.9222 47.0928 76.9034 47.0868 76.8857C47.0809 76.868 47.0708 76.852 47.0575 76.839C47.0442 76.826 47.028 76.8163 47.0102 76.8108C46.9924 76.8052 46.9735 76.804 46.9552 76.8071Z" fill="#295F70"/>
<path d="M51.9533 77.4219C51.5626 77.0332 51.0354 76.8127 50.4844 76.8075C49.9333 76.8022 49.402 77.0127 49.004 77.394C48.8073 77.577 48.6491 77.7975 48.5388 78.0424C48.4284 78.2874 48.3681 78.5519 48.3613 78.8205V83.3222C48.359 83.34 48.3608 83.3581 48.3667 83.3751C48.3725 83.3921 48.3822 83.4075 48.3949 83.4201C48.4077 83.4327 48.4232 83.4422 48.4403 83.4479C48.4574 83.4535 48.4755 83.4551 48.4933 83.4526H48.959C48.9768 83.4555 48.995 83.4542 49.0122 83.4487C49.0293 83.4432 49.045 83.4337 49.0577 83.4209C49.0705 83.4082 49.08 83.3925 49.0855 83.3754C49.091 83.3582 49.0923 83.34 49.0894 83.3222V81.2545C49.4685 81.5904 49.9582 81.7745 50.4647 81.7714C51.0243 81.7706 51.5608 81.5479 51.9566 81.1522C52.3523 80.7565 52.575 80.22 52.5758 79.6603V78.9152C52.5796 78.637 52.5263 78.3609 52.4192 78.1041C52.3122 77.8473 52.1536 77.6151 51.9533 77.4219ZM51.8462 79.6603C51.8454 80.0261 51.6998 80.3766 51.4411 80.6352C51.1825 80.8938 50.832 81.0395 50.4662 81.0403C50.2853 81.0432 50.1058 81.0088 49.9388 80.9391C49.7719 80.8693 49.6211 80.7659 49.4961 80.6352C49.3655 80.509 49.2622 80.3574 49.1925 80.1897C49.1228 80.022 49.0883 79.8419 49.0909 79.6603V78.9152C49.1029 78.5578 49.2533 78.2191 49.5104 77.9706C49.7674 77.722 50.111 77.583 50.4686 77.583C50.8261 77.583 51.1697 77.722 51.4268 77.9706C51.6838 78.2191 51.8342 78.5578 51.8462 78.9152V79.6603Z" fill="#295F70"/>
<path d="M57.4348 77.4218C57.1457 77.1334 56.779 76.9352 56.3793 76.8514C55.9796 76.7677 55.5642 76.8019 55.1836 76.9499C54.803 77.0979 54.4736 77.3534 54.2356 77.6852C53.9976 78.017 53.8611 78.4109 53.8428 78.8188V83.3205C53.8404 83.3384 53.8423 83.3567 53.8482 83.3738C53.8541 83.391 53.8639 83.4065 53.8769 83.4191C53.8898 83.4318 53.9056 83.4413 53.9228 83.4468C53.9401 83.4523 53.9584 83.4537 53.9763 83.4509H54.442C54.4597 83.4535 54.4778 83.4519 54.4948 83.4463C54.5118 83.4406 54.5273 83.4311 54.54 83.4184C54.5526 83.4058 54.5622 83.3903 54.5678 83.3733C54.5734 83.3563 54.575 83.3382 54.5724 83.3205V81.2544C54.9513 81.5905 55.4412 81.7746 55.9477 81.7713C56.5071 81.7696 57.0431 81.5467 57.4387 81.1511C57.8342 80.7556 58.0572 80.2196 58.0588 79.6602V78.9151C58.0623 78.6367 58.0087 78.3607 57.9014 78.1038C57.7941 77.847 57.6353 77.6149 57.4348 77.4218ZM57.323 79.6602C57.323 80.0253 57.178 80.3756 56.9198 80.6338C56.6616 80.892 56.3113 81.037 55.9462 81.037C55.581 81.037 55.2308 80.892 54.9726 80.6338C54.7144 80.3756 54.5693 80.0253 54.5693 79.6602V78.9151C54.5709 78.5507 54.7163 78.2016 54.9738 77.9438C55.2313 77.686 55.5802 77.5402 55.9446 77.5382C56.126 77.5354 56.3059 77.5699 56.4734 77.6396C56.6408 77.7093 56.7921 77.8127 56.9179 77.9433C57.049 78.0684 57.1528 78.2194 57.2225 78.3867C57.2923 78.5539 57.3265 78.7339 57.323 78.9151V79.6602Z" fill="#295F70"/>
<path d="M60.024 74.5549H59.5583C59.4698 74.5549 59.4279 74.6015 59.4279 74.6915V81.6396C59.4254 81.6574 59.427 81.6755 59.4326 81.6926C59.4382 81.7096 59.4477 81.7251 59.4604 81.7379C59.473 81.7507 59.4884 81.7604 59.5054 81.7662C59.5224 81.772 59.5405 81.7739 59.5583 81.7715H60.024C60.0418 81.7739 60.0599 81.772 60.0769 81.7662C60.0939 81.7604 60.1093 81.7507 60.122 81.7379C60.1346 81.7251 60.1441 81.7096 60.1497 81.6926C60.1554 81.6755 60.157 81.6574 60.1544 81.6396V74.6915C60.1544 74.6015 60.1109 74.5549 60.024 74.5549Z" fill="#295F70"/>
<path d="M62.1878 74.5611H61.6135C61.6009 74.5593 61.5879 74.5605 61.5758 74.5645C61.5637 74.5686 61.5527 74.5754 61.5436 74.5844C61.5346 74.5934 61.5278 74.6045 61.5237 74.6166C61.5197 74.6287 61.5185 74.6416 61.5204 74.6543V75.4413C61.5185 75.4539 61.5197 75.4668 61.5237 75.479C61.5278 75.4911 61.5346 75.5021 61.5436 75.5112C61.5527 75.5202 61.5637 75.527 61.5758 75.531C61.5879 75.5351 61.6009 75.5362 61.6135 75.5344H62.1878C62.2453 75.5344 62.2763 75.5049 62.2763 75.4413V74.6481C62.2763 74.5922 62.2468 74.5611 62.1878 74.5611ZM62.1335 76.5884H61.6678C61.6497 76.5857 61.6311 76.5872 61.6136 76.5927C61.5961 76.5983 61.5801 76.6079 61.5669 76.6206C61.5537 76.6334 61.5436 76.649 61.5374 76.6663C61.5312 76.6836 61.5291 76.7021 61.5312 76.7204V81.6396C61.5291 81.6578 61.5312 81.6763 61.5374 81.6936C61.5436 81.7109 61.5537 81.7265 61.5669 81.7393C61.5801 81.7521 61.5961 81.7616 61.6136 81.7672C61.6311 81.7728 61.6497 81.7743 61.6678 81.7715H62.1335C62.1515 81.7741 62.1698 81.7724 62.1871 81.7667C62.2043 81.761 62.22 81.7514 62.2329 81.7386C62.2459 81.7258 62.2557 81.7103 62.2616 81.6931C62.2675 81.6759 62.2693 81.6576 62.267 81.6396V76.7204C62.2693 76.7024 62.2675 76.684 62.2616 76.6669C62.2557 76.6497 62.2459 76.6341 62.2329 76.6213C62.22 76.6086 62.2043 76.599 62.1871 76.5932C62.1698 76.5875 62.1515 76.5859 62.1335 76.5884Z" fill="#295F70"/>
<path d="M67.1414 77.422C66.8461 77.1279 66.4703 76.9279 66.0615 76.8471C65.6526 76.7664 65.229 76.8085 64.8441 76.9683C64.4592 77.128 64.1302 77.3982 63.8987 77.7447C63.6672 78.0912 63.5434 78.4985 63.5432 78.9153V79.6604C63.5393 79.9382 63.5924 80.2139 63.6992 80.4705C63.806 80.7271 63.9642 80.959 64.1641 81.1521C64.356 81.3522 64.5871 81.5106 64.843 81.6175C65.0988 81.7243 65.3739 81.7772 65.6512 81.773C66.0345 81.7751 66.4108 81.6703 66.7378 81.4703C67.0649 81.2739 67.333 80.9929 67.5139 80.6569C67.5234 80.6387 67.5287 80.6185 67.5294 80.5979C67.5292 80.5828 67.5255 80.568 67.5186 80.5545C67.5133 80.5367 67.504 80.5205 67.4913 80.507C67.4787 80.4935 67.463 80.4832 67.4456 80.4769L67.0218 80.2797C67.0017 80.2711 66.9801 80.2664 66.9582 80.2658C66.9346 80.267 66.9118 80.2746 66.8921 80.2877C66.8725 80.3008 66.8567 80.319 66.8464 80.3403C66.7354 80.5595 66.5637 80.7421 66.3518 80.8665C66.1399 80.9909 65.8967 81.0518 65.6512 81.0419C65.4703 81.0448 65.2907 81.0104 65.1238 80.9407C64.9568 80.8709 64.8061 80.7675 64.681 80.6368C64.5504 80.5106 64.4471 80.359 64.3775 80.1913C64.3078 80.0236 64.2732 79.8435 64.2758 79.6619V79.5548H67.3959C67.4435 79.5557 67.4907 79.5466 67.5345 79.5281C67.5784 79.5097 67.6179 79.4823 67.6505 79.4477C67.6847 79.4139 67.7117 79.3735 67.7299 79.3289C67.748 79.2844 67.7569 79.2366 67.7561 79.1885V78.9168C67.7607 78.6389 67.7085 78.363 67.6028 78.106C67.4972 77.849 67.3401 77.6162 67.1414 77.422ZM64.2805 78.819C64.2886 78.6471 64.3306 78.4785 64.4041 78.3229C64.4776 78.1673 64.5812 78.0279 64.7089 77.9125C64.9637 77.6731 65.3001 77.5399 65.6496 77.5399C65.9992 77.5399 66.3356 77.6731 66.5903 77.9125C66.719 78.0271 66.8234 78.1664 66.8973 78.3221C66.9711 78.4779 67.013 78.6468 67.0203 78.819H64.2805Z" fill="#295F70"/>
<path d="M72.2835 79.2987C72.166 79.1776 72.0249 79.0819 71.869 79.0176C71.7131 78.9532 71.5456 78.9216 71.3769 78.9246H70.3446C70.1985 78.9241 70.0584 78.866 69.9549 78.7628C69.8514 78.6596 69.7928 78.5197 69.792 78.3735C69.7912 78.2924 69.8032 78.2117 69.8277 78.1344C69.876 77.9633 69.9784 77.8125 70.1196 77.7045C70.2625 77.5995 70.4344 77.5415 70.6116 77.5384H71.0944C71.2733 77.5373 71.4475 77.5957 71.5896 77.7045C71.737 77.808 71.8431 77.9603 71.8892 78.1344L71.9031 78.1531C71.9259 78.2152 71.9632 78.2462 72.0149 78.2462C72.0349 78.2456 72.0547 78.2424 72.0739 78.2369L72.5116 78.1049C72.5387 78.1012 72.5634 78.0878 72.5814 78.0673C72.5994 78.0468 72.6093 78.0205 72.6094 77.9932C72.6108 77.9751 72.6108 77.9569 72.6094 77.9388L72.5955 77.9202C72.5039 77.597 72.3066 77.3139 72.0351 77.1161C71.7671 76.9132 71.4398 76.8041 71.1037 76.8057H70.6101C70.1989 76.8126 69.8067 76.9805 69.5179 77.2734C69.2291 77.5662 69.0667 77.9606 69.0656 78.3719C69.0631 78.5405 69.095 78.7078 69.1593 78.8637C69.2237 79.0196 69.319 79.1607 69.4397 79.2785C69.5586 79.3994 69.7008 79.495 69.8576 79.5596C70.0145 79.6242 70.1828 79.6563 70.3524 79.6541H71.3847C71.4567 79.6541 71.528 79.6684 71.5945 79.696C71.661 79.7237 71.7214 79.7642 71.7721 79.8153C71.8229 79.8663 71.8631 79.9269 71.8904 79.9936C71.9177 80.0602 71.9315 80.1316 71.9311 80.2036C71.9322 80.2845 71.9212 80.3651 71.8985 80.4427C71.8491 80.6178 71.7405 80.7703 71.5911 80.8742C71.4487 80.9823 71.2747 81.0407 71.096 81.0403H70.6178C70.4398 81.0392 70.2667 80.981 70.1242 80.8742C69.981 80.7672 69.8768 80.6162 69.8277 80.4442L69.8169 80.421C69.8057 80.387 69.7833 80.358 69.7532 80.3387C69.7343 80.328 69.7129 80.3226 69.6911 80.3232H69.6477L69.2084 80.4613C69.1815 80.4651 69.1569 80.4785 69.1392 80.4991C69.1215 80.5196 69.1119 80.5459 69.1121 80.5731C69.1107 80.5901 69.1107 80.6073 69.1121 80.6243L69.1214 80.6554C69.2155 80.9765 69.4131 81.2575 69.6834 81.4548C69.9515 81.6574 70.2787 81.7665 70.6147 81.7652H71.0944C71.4304 81.7663 71.7576 81.6572 72.0258 81.4548C72.2973 81.257 72.4946 80.9739 72.5861 80.6507C72.6306 80.5031 72.6536 80.35 72.6544 80.1959C72.656 80.0291 72.624 79.8637 72.5603 79.7095C72.4965 79.5554 72.4024 79.4156 72.2835 79.2987Z" fill="#295F70"/>
<path d="M80.3789 80.7189L79.994 80.4613C79.9703 80.446 79.943 80.4374 79.9148 80.4364C79.8931 80.4375 79.872 80.4439 79.8534 80.455C79.8347 80.4661 79.819 80.4816 79.8077 80.5001L79.682 80.6879C79.6286 80.7643 79.5624 80.831 79.4864 80.885C79.352 80.9858 79.1886 81.0403 79.0207 81.0403C78.9175 81.0422 78.815 81.0228 78.7196 80.9832C78.6243 80.9437 78.5381 80.8849 78.4665 80.8105C78.3926 80.7373 78.3342 80.6499 78.2947 80.5537C78.2553 80.4574 78.2356 80.3542 78.2368 80.2501V77.5383H80.0995C80.1173 77.5413 80.1356 77.5399 80.1527 77.5344C80.1699 77.5289 80.1855 77.5194 80.1983 77.5067C80.211 77.4939 80.2206 77.4783 80.2261 77.4611C80.2316 77.4439 80.2329 77.4257 80.2299 77.4079V76.9422C80.2327 76.9243 80.2313 76.906 80.2258 76.8888C80.2203 76.8715 80.2109 76.8557 80.1982 76.8428C80.1855 76.8298 80.17 76.82 80.1529 76.8141C80.1358 76.8082 80.1175 76.8063 80.0995 76.8087H78.2368V74.6868C78.2389 74.6685 78.2368 74.65 78.2306 74.6327C78.2244 74.6154 78.2143 74.5998 78.2011 74.587C78.1879 74.5743 78.1719 74.5647 78.1544 74.5591C78.1369 74.5535 78.1184 74.5521 78.1002 74.5548H77.6345C77.6166 74.5522 77.5983 74.5538 77.5811 74.5595C77.5639 74.5652 77.5483 74.5749 77.5354 74.5877C77.5226 74.6005 77.513 74.6161 77.5073 74.6333C77.5016 74.6505 77.5 74.6688 77.5026 74.6868V76.8072H76.5712C76.5529 76.8044 76.5342 76.8059 76.5165 76.8115C76.4989 76.8172 76.4828 76.8269 76.4696 76.8398C76.4563 76.8528 76.4463 76.8686 76.4402 76.8861C76.4341 76.9036 76.4322 76.9223 76.4346 76.9407V77.4064C76.4346 77.4948 76.4796 77.5368 76.5712 77.5368H77.5026V80.2533C77.4994 80.4536 77.5372 80.6524 77.6135 80.8377C77.6898 81.0229 77.8031 81.1906 77.9465 81.3305C78.201 81.5838 78.5372 81.7384 78.8952 81.7669C79.2531 81.7953 79.6095 81.6957 79.9008 81.4858C80.047 81.3808 80.1736 81.251 80.2749 81.1024L80.4084 80.9114C80.4238 80.8867 80.4318 80.8582 80.4317 80.8292C80.4329 80.8078 80.4287 80.7866 80.4194 80.7673C80.4102 80.748 80.3963 80.7314 80.3789 80.7189Z" fill="#295F70"/>
<path d="M84.8498 77.7697L84.7178 77.5803C84.6038 77.4064 84.4579 77.2558 84.2878 77.1363C83.9926 76.9198 83.6356 76.8039 83.2695 76.8057C82.8052 76.8085 82.3607 76.9943 82.0323 77.3226C81.704 77.6509 81.5183 78.0954 81.5154 78.5598V81.6411C81.5133 81.6593 81.5154 81.6778 81.5216 81.6951C81.5278 81.7124 81.5379 81.728 81.5511 81.7408C81.5643 81.7536 81.5803 81.7631 81.5978 81.7687C81.6153 81.7743 81.6339 81.7757 81.652 81.773H82.1177C82.1355 81.7753 82.1537 81.7735 82.1706 81.7677C82.1876 81.7619 82.2031 81.7522 82.2157 81.7394C82.2283 81.7266 82.2378 81.7111 82.2434 81.694C82.2491 81.677 82.2507 81.6588 82.2481 81.6411V78.5582C82.2501 78.2884 82.3583 78.0301 82.5491 77.8393C82.7399 77.6485 82.9981 77.5404 83.268 77.5384C83.4804 77.5344 83.688 77.6016 83.8578 77.7293C83.9594 77.7984 84.0473 77.8858 84.1171 77.987L84.2444 78.1779C84.2535 78.1936 84.2661 78.2071 84.2811 78.2173C84.2961 78.2275 84.3133 78.2342 84.3313 78.2369H84.3561C84.3799 78.2371 84.4032 78.2301 84.4229 78.2167L84.8125 77.959C84.832 77.9479 84.8486 77.9322 84.8607 77.9133C84.8729 77.8943 84.8803 77.8728 84.8824 77.8504C84.8806 77.8206 84.8691 77.7923 84.8498 77.7697Z" fill="#295F70"/>
<path d="M89.5675 77.394C89.1702 77.0113 88.6386 76.7998 88.0871 76.805C87.5355 76.8103 87.008 77.0318 86.6181 77.422C86.4188 77.6158 86.261 77.8481 86.1542 78.1048C86.0475 78.3615 85.9941 78.6373 85.9972 78.9153V79.6604C85.996 80.0647 86.1114 80.4609 86.3294 80.8015C86.5475 81.142 86.859 81.4126 87.2268 81.5808C87.5946 81.7489 88.003 81.8076 88.4032 81.7497C88.8034 81.6919 89.1785 81.52 89.4836 81.2546V81.6395C89.4809 81.6571 89.4822 81.675 89.4876 81.692C89.4929 81.7089 89.5021 81.7244 89.5144 81.7372C89.5268 81.75 89.5419 81.7597 89.5587 81.7657C89.5754 81.7716 89.5933 81.7736 89.6109 81.7715H90.0766C90.0943 81.7736 90.1121 81.7716 90.1289 81.7657C90.1456 81.7597 90.1608 81.75 90.1731 81.7372C90.1854 81.7244 90.1947 81.7089 90.2 81.692C90.2053 81.675 90.2067 81.6571 90.2039 81.6395V78.8175C90.1886 78.2774 89.9598 77.7655 89.5675 77.394ZM89.4883 79.6604C89.4875 80.0261 89.3418 80.3766 89.0832 80.6352C88.8246 80.8939 88.4741 81.0395 88.1083 81.0403C87.9276 81.0434 87.7483 81.009 87.5815 80.9393C87.4148 80.8696 87.2644 80.766 87.1397 80.6352C87.0088 80.5092 86.9053 80.3577 86.8356 80.19C86.7659 80.0222 86.7315 79.842 86.7345 79.6604V78.9153C86.7343 78.7346 86.7697 78.5558 86.8386 78.3888C86.9076 78.2219 87.0087 78.0702 87.1363 77.9423C87.2638 77.8144 87.4153 77.713 87.5821 77.6437C87.7489 77.5744 87.9277 77.5386 88.1083 77.5384C88.2894 77.5359 88.4691 77.5702 88.6367 77.639C88.8042 77.7078 88.9561 77.8098 89.0831 77.9389C89.2142 78.065 89.3178 78.2168 89.3875 78.3848C89.4572 78.5528 89.4915 78.7334 89.4883 78.9153V79.6604Z" fill="#295F70"/>
<path d="M95.5714 74.5548H95.1057C95.0878 74.5526 95.0697 74.5544 95.0526 74.5602C95.0356 74.5661 95.0201 74.5757 95.0074 74.5885C94.9946 74.6012 94.985 74.6167 94.9791 74.6337C94.9733 74.6508 94.9715 74.6689 94.9737 74.6868V77.3257C94.668 77.0623 94.2931 76.8921 93.8936 76.8354C93.494 76.7786 93.0866 76.8376 92.7196 77.0054C92.3526 77.1732 92.0414 77.4428 91.823 77.7821C91.6046 78.1215 91.4881 78.5163 91.4873 78.9199V79.6696C91.5022 80.2198 91.7313 80.7425 92.1257 81.1264C92.5201 81.5102 93.0488 81.725 93.5992 81.725C94.1496 81.725 94.6783 81.5102 95.0727 81.1264C95.4671 80.7425 95.6962 80.2198 95.7111 79.6696V74.6868C95.7133 74.6682 95.7112 74.6494 95.7048 74.6318C95.6985 74.6143 95.6881 74.5984 95.6745 74.5856C95.6609 74.5728 95.6445 74.5633 95.6266 74.558C95.6087 74.5526 95.5898 74.5516 95.5714 74.5548ZM94.9706 79.665C94.9686 80.0288 94.8233 80.3772 94.5661 80.6347C94.309 80.8921 93.9607 81.0379 93.5969 81.0403C93.4161 81.0407 93.2371 81.0054 93.0701 80.9364C92.903 80.8675 92.7512 80.7662 92.6234 80.6384C92.4957 80.5106 92.3944 80.3588 92.3254 80.1918C92.2564 80.0247 92.2211 79.8457 92.2215 79.665V78.9152C92.2202 78.6431 92.3 78.3767 92.4506 78.15C92.6012 77.9233 92.8159 77.7466 93.0673 77.6424C93.3187 77.5382 93.5954 77.5112 93.8622 77.5648C94.1291 77.6184 94.3739 77.7502 94.5655 77.9435C94.6966 78.0686 94.8004 78.2195 94.8701 78.3868C94.9398 78.5541 94.9741 78.734 94.9706 78.9152V79.665Z" fill="#295F70"/>
<path d="M97.7397 74.5611H97.1731C97.1604 74.5593 97.1475 74.5605 97.1354 74.5645C97.1233 74.5686 97.1122 74.5754 97.1032 74.5844C97.0942 74.5934 97.0873 74.6045 97.0833 74.6166C97.0793 74.6287 97.0781 74.6416 97.0799 74.6543V75.4413C97.0781 75.4539 97.0793 75.4668 97.0833 75.479C97.0873 75.4911 97.0942 75.5021 97.1032 75.5112C97.1122 75.5202 97.1233 75.527 97.1354 75.531C97.1475 75.5351 97.1604 75.5362 97.1731 75.5344H97.7474C97.808 75.5344 97.8359 75.5049 97.8359 75.4413V74.6481C97.8281 74.5922 97.794 74.5611 97.7397 74.5611ZM97.6853 76.5884H97.2196C97.1281 76.5884 97.0815 76.6319 97.0815 76.7204V81.6396C97.0815 81.7265 97.1281 81.7715 97.2196 81.7715H97.6853C97.7033 81.7741 97.7216 81.7724 97.7389 81.7667C97.7561 81.761 97.7718 81.7514 97.7848 81.7386C97.7977 81.7258 97.8075 81.7103 97.8134 81.6931C97.8193 81.6759 97.8211 81.6576 97.8188 81.6396V76.7204C97.8211 76.7024 97.8193 76.684 97.8134 76.6669C97.8075 76.6497 97.7977 76.6341 97.7848 76.6213C97.7718 76.6086 97.7561 76.599 97.7389 76.5932C97.7216 76.5875 97.7033 76.5859 97.6853 76.5884Z" fill="#295F70"/>
<path d="M102.693 77.4266C102.502 77.2261 102.271 77.0674 102.015 76.9606C101.759 76.8537 101.484 76.801 101.207 76.8057C100.648 76.8078 100.112 77.0308 99.7163 77.4262C99.3206 77.8216 99.0972 78.3574 99.0947 78.9168V81.6411C99.0924 81.659 99.0943 81.6771 99.1001 81.6942C99.1059 81.7112 99.1156 81.7267 99.1283 81.7394C99.141 81.7522 99.1565 81.7618 99.1736 81.7676C99.1906 81.7735 99.2088 81.7753 99.2266 81.773H99.6923C99.7777 81.773 99.8181 81.728 99.8181 81.6411V78.9153C99.8197 78.5498 99.9659 78.1998 100.225 77.9418C100.484 77.6838 100.834 77.5388 101.2 77.5384C101.38 77.5355 101.56 77.5701 101.727 77.6398C101.894 77.7095 102.045 77.8129 102.17 77.9435C102.299 78.0697 102.402 78.2209 102.471 78.3879C102.541 78.555 102.576 78.7344 102.573 78.9153V81.6395C102.571 81.6574 102.573 81.6756 102.579 81.6926C102.585 81.7096 102.594 81.7251 102.607 81.7379C102.62 81.7506 102.635 81.7603 102.652 81.7661C102.669 81.7719 102.687 81.7738 102.705 81.7715H103.171C103.189 81.7738 103.207 81.772 103.224 81.7662C103.241 81.7603 103.256 81.7507 103.269 81.7379C103.282 81.7251 103.291 81.7096 103.297 81.6925C103.302 81.6755 103.304 81.6573 103.301 81.6395V78.9153C103.307 78.6387 103.257 78.3638 103.152 78.1077C103.047 77.8516 102.891 77.6198 102.693 77.4266Z" fill="#295F70"/>
<path d="M108.181 77.4125C107.886 77.1179 107.51 76.9174 107.101 76.8364C106.691 76.7553 106.268 76.7973 105.882 76.9572C105.497 77.117 105.168 77.3874 104.936 77.7342C104.705 78.0811 104.581 78.4888 104.581 78.9058V79.2566C104.583 79.8145 104.806 80.349 105.2 80.7433C105.595 81.1377 106.13 81.3599 106.688 81.3616C107.195 81.3675 107.686 81.185 108.066 80.8493V81.3398C108.066 81.6127 107.985 81.8794 107.833 82.1062C107.682 82.3331 107.466 82.5098 107.214 82.614C106.962 82.7182 106.684 82.7453 106.417 82.6917C106.149 82.6381 105.904 82.5064 105.711 82.3131L105.556 82.147C105.546 82.1349 105.533 82.1251 105.519 82.1184C105.505 82.1117 105.489 82.1082 105.474 82.1082H105.464C105.447 82.1072 105.429 82.1101 105.413 82.1168C105.397 82.1236 105.383 82.1339 105.371 82.147L105.044 82.4792C105.03 82.4902 105.018 82.504 105.01 82.5198C105.001 82.5356 104.997 82.553 104.996 82.5708C104.999 82.6067 105.017 82.6399 105.044 82.6639L105.21 82.83C105.503 83.121 105.876 83.3191 106.282 83.3997C106.687 83.4803 107.107 83.4398 107.49 83.2833C107.873 83.1267 108.201 82.861 108.433 82.5193C108.666 82.1776 108.793 81.7749 108.799 81.3616V78.9058C108.803 78.6279 108.751 78.3521 108.644 78.0952C108.538 77.8384 108.38 77.6061 108.181 77.4125ZM108.066 79.2566C108.069 79.4373 108.035 79.6166 107.966 79.7835C107.897 79.9504 107.794 80.1013 107.664 80.2268C107.537 80.3566 107.385 80.4592 107.217 80.5284C107.049 80.5975 106.869 80.6317 106.688 80.6289C106.324 80.6281 105.975 80.4833 105.717 80.2262C105.459 79.9692 105.314 79.6206 105.312 79.2566V78.9058C105.31 78.7248 105.345 78.5453 105.415 78.3782C105.484 78.2111 105.587 78.06 105.717 77.9341C105.842 77.8034 105.993 77.6999 106.16 77.6302C106.327 77.5605 106.507 77.526 106.688 77.529C107.053 77.529 107.403 77.674 107.662 77.9321C107.92 78.1903 108.066 78.5405 108.066 78.9058V79.2566Z" fill="#295F70"/>
<path d="M116.142 77.4219C115.848 77.126 115.471 76.9244 115.062 76.8426C114.652 76.7608 114.227 76.8025 113.842 76.9625C113.456 77.1225 113.126 77.3936 112.895 77.7412C112.663 78.0889 112.54 78.4975 112.541 78.9152V79.6603C112.541 80.219 112.763 80.7548 113.158 81.1504C113.552 81.5461 114.087 81.7694 114.646 81.7714C115.029 81.7726 115.405 81.6679 115.733 81.4687C116.06 81.2729 116.328 80.9917 116.509 80.6553C116.518 80.637 116.522 80.6168 116.523 80.5963C116.523 80.5813 116.52 80.5665 116.513 80.5529C116.508 80.535 116.499 80.5186 116.486 80.5051C116.474 80.4916 116.458 80.4813 116.44 80.4753L116.015 80.2781C115.995 80.269 115.973 80.2642 115.951 80.2641C115.928 80.2654 115.905 80.273 115.885 80.2861C115.866 80.2992 115.85 80.3174 115.84 80.3387C115.729 80.5582 115.558 80.7412 115.346 80.8657C115.135 80.9902 114.891 81.0508 114.646 81.0403C114.281 81.0386 113.932 80.8925 113.674 80.6339C113.417 80.3753 113.272 80.0252 113.272 79.6603V79.5532H116.392C116.439 79.5544 116.486 79.5455 116.53 79.527C116.573 79.5085 116.612 79.4809 116.644 79.4461C116.679 79.4126 116.706 79.3724 116.725 79.3278C116.744 79.2832 116.753 79.2352 116.752 79.1869V78.9152C116.757 78.638 116.705 78.3627 116.6 78.106C116.496 77.8493 116.34 77.6166 116.142 77.4219ZM113.278 78.819C113.302 78.4718 113.457 78.1467 113.712 77.9093C113.966 77.6719 114.301 77.5398 114.649 77.5399C115 77.5348 115.338 77.6688 115.59 77.9124C115.719 78.0269 115.823 78.1662 115.896 78.322C115.97 78.4777 116.011 78.6468 116.018 78.819H113.278Z" fill="#295F70"/>
<path d="M121.285 79.2985C121.168 79.1779 121.026 79.0825 120.871 79.0182C120.715 78.9539 120.547 78.922 120.379 78.9244H119.345C119.273 78.9248 119.201 78.9109 119.134 78.8833C119.067 78.8558 119.006 78.8152 118.954 78.7639C118.903 78.7127 118.863 78.6518 118.835 78.5847C118.808 78.5177 118.794 78.4458 118.794 78.3734C118.793 78.2924 118.804 78.2117 118.828 78.1343C118.876 77.9632 118.979 77.8124 119.12 77.7043C119.263 77.5987 119.436 77.5406 119.614 77.5382H120.095C120.275 77.5371 120.45 77.5955 120.593 77.7043C120.74 77.8081 120.845 77.9604 120.89 78.1343L120.905 78.1529C120.91 78.1788 120.924 78.2022 120.945 78.2191C120.965 78.236 120.99 78.2456 121.017 78.2461C121.038 78.2453 121.059 78.2417 121.079 78.2352L121.518 78.1033C121.545 78.0992 121.569 78.0857 121.587 78.0652C121.605 78.0447 121.614 78.0186 121.614 77.9915C121.616 77.9734 121.616 77.9553 121.614 77.9372L121.599 77.9185C121.508 77.5951 121.31 77.3118 121.039 77.1145C120.771 76.9106 120.443 76.8014 120.107 76.804H119.604C119.271 76.8051 118.948 76.914 118.682 77.1145C118.413 77.3153 118.218 77.6006 118.13 77.9248C118.084 78.0701 118.061 78.2212 118.06 78.3734C118.057 78.5423 118.089 78.7099 118.154 78.8658C118.219 79.0218 118.315 79.1627 118.437 79.2799C118.555 79.4014 118.697 79.4974 118.854 79.562C119.01 79.6266 119.179 79.6584 119.348 79.6556H120.382C120.527 79.6568 120.666 79.7152 120.768 79.818C120.87 79.9209 120.928 80.06 120.928 80.2051C120.929 80.2861 120.917 80.3668 120.893 80.4441C120.846 80.6174 120.742 80.7693 120.596 80.8741C120.453 80.9827 120.278 81.0411 120.098 81.0402H119.62C119.442 81.0387 119.269 80.9799 119.127 80.8726C118.985 80.7652 118.881 80.615 118.831 80.4441L118.822 80.4208C118.811 80.3869 118.788 80.3578 118.758 80.3386C118.739 80.328 118.717 80.3226 118.695 80.323H118.651L118.21 80.4612C118.184 80.4656 118.159 80.4792 118.142 80.4996C118.124 80.52 118.114 80.546 118.114 80.573C118.112 80.59 118.112 80.6072 118.114 80.6242L118.123 80.6552C118.215 80.9766 118.412 81.2581 118.682 81.4547C118.951 81.6562 119.278 81.7651 119.614 81.7651H120.095C120.431 81.7671 120.758 81.6579 121.026 81.4547C121.298 81.2573 121.496 80.974 121.587 80.6506C121.632 80.5033 121.656 80.35 121.656 80.1958C121.658 80.0289 121.626 79.8635 121.562 79.7094C121.498 79.5552 121.404 79.4155 121.285 79.2985Z" fill="#295F70"/>
<path d="M126.901 80.7189L126.511 80.4659C126.488 80.4506 126.46 80.442 126.432 80.4411C126.41 80.442 126.39 80.4483 126.371 80.4595C126.353 80.4706 126.337 80.4861 126.326 80.5047L126.199 80.6926C126.147 80.7697 126.08 80.8365 126.004 80.8897C125.869 80.9905 125.706 81.0449 125.538 81.0449C125.434 81.0467 125.332 81.0272 125.236 80.9877C125.141 80.9482 125.054 80.8895 124.982 80.8152C124.908 80.7419 124.85 80.6546 124.81 80.5583C124.771 80.4621 124.751 80.3588 124.752 80.2548V77.5383H126.615C126.633 77.5412 126.651 77.5398 126.668 77.5343C126.686 77.5288 126.701 77.5193 126.714 77.5066C126.727 77.4939 126.737 77.4783 126.742 77.4612C126.748 77.444 126.75 77.4258 126.747 77.4079V76.9422C126.75 76.9242 126.748 76.9059 126.742 76.8887C126.737 76.8714 126.727 76.8557 126.714 76.8428C126.701 76.8299 126.686 76.8201 126.669 76.8142C126.651 76.8083 126.633 76.8064 126.615 76.8087H124.752V74.6868C124.755 74.6685 124.752 74.65 124.746 74.6327C124.74 74.6154 124.73 74.5998 124.717 74.587C124.704 74.5743 124.688 74.5647 124.67 74.5591C124.653 74.5535 124.634 74.5521 124.616 74.5548H124.15C124.132 74.5525 124.114 74.5544 124.097 74.5602C124.08 74.566 124.065 74.5757 124.052 74.5884C124.039 74.6012 124.029 74.6166 124.024 74.6337C124.018 74.6507 124.016 74.6689 124.018 74.6868V76.8072H123.087C123.069 76.8044 123.05 76.8059 123.032 76.8115C123.015 76.8172 122.998 76.8269 122.985 76.8398C122.972 76.8528 122.962 76.8686 122.956 76.8861C122.95 76.9036 122.948 76.9223 122.95 76.9407V77.4064C122.95 77.4948 122.997 77.5368 123.087 77.5368H124.018V80.2533C124.015 80.4535 124.053 80.6523 124.13 80.8374C124.206 81.0226 124.319 81.1904 124.462 81.3305C124.717 81.5839 125.053 81.7386 125.412 81.767C125.77 81.7955 126.126 81.6958 126.418 81.4858C126.564 81.3796 126.69 81.25 126.794 81.1024L126.924 80.9114C126.939 80.8867 126.947 80.8582 126.947 80.8292C126.949 80.8084 126.946 80.7875 126.938 80.7682C126.93 80.749 126.917 80.7321 126.901 80.7189Z" fill="#295F70"/>
<path d="M78.3156 18.6677L76.2169 29.2062L73.6106 26.6015C73.4445 26.4338 73.2753 26.2677 73.1092 26.1016C73.0254 26.0209 72.9431 25.9464 72.8608 25.8564C72.8608 25.9588 67.9556 31.2894 67.4946 31.8032C65.1693 34.3903 62.845 36.9775 60.5217 39.5646L59.5577 40.6341C58.2569 42.0829 56.9551 43.5266 55.6522 44.965C54.9754 45.7194 54.3027 46.4754 53.6342 47.2329C52.9419 48.0122 52.248 48.7909 51.5526 49.5691C51.0869 50.0938 50.6212 50.6123 50.1462 51.1307C47.8752 53.6268 45.4894 56.0251 43.2603 58.5553C42.7946 59.0784 42.8722 59.0334 42.4981 59.6155L42.4857 59.6279C40.9458 61.025 39.3144 62.464 37.596 63.7896C33.529 66.9252 28.9823 69.4182 23.9809 69.0767C18.6596 68.7243 14.501 65.2193 11.8389 60.7999C24.7725 75.885 36.7391 58.5491 37.7869 56.9735L37.8288 56.9425C39.4028 55.7959 40.95 54.5923 42.4702 53.3319C46.6594 49.8363 50.624 46.0801 54.3405 42.0855C55.6713 40.6667 56.9758 39.2293 58.2538 37.7733C61.9405 33.5821 65.4145 29.2605 68.6852 25.0119C69.1649 24.391 69.6538 23.7499 70.2375 23.2408L67.6172 20.6221L78.3156 18.6677Z" fill="url(#paint0_linear_41_52152)"/>
<path d="M57.4562 44.7617C57.0371 45.2274 56.6164 45.7009 56.1895 46.1588L56.1709 46.1138C56.5962 45.6729 57.0262 45.2196 57.4562 44.7617Z" fill="url(#paint1_linear_41_52152)"/>
<path d="M37.7878 56.9798C36.74 58.5554 24.7734 75.8914 11.8397 60.8062C10.6526 58.8257 9.75017 56.6879 9.15891 54.4558C8.92574 53.5446 8.74024 52.6218 8.60319 51.6912C8.36231 50.0462 8.23678 48.3864 8.22754 46.7239C8.22754 46.55 8.22754 46.3746 8.22754 46.2023C8.22754 46.0988 8.23375 45.9953 8.24617 45.8918C8.3719 46.6152 9.33277 47.8415 9.64323 48.4097C10.1477 49.341 10.6646 50.2724 11.2079 51.1883C12.275 53.0168 13.468 54.7689 14.7782 56.4319C15.2796 57.0606 15.8105 57.697 16.3708 58.3148L16.4221 58.3707C18.4928 60.6386 20.992 62.6224 24.109 62.9406C26.9419 63.2293 29.7314 62.1055 32.2213 60.6851L32.2414 60.6743C32.9679 60.2598 33.668 59.819 34.3355 59.3828C35.4966 58.6066 36.6473 57.8057 37.7878 56.9798Z" fill="url(#paint2_linear_41_52152)"/>
<path d="M8.24421 45.8764C8.23697 45.9799 8.23076 46.0834 8.22559 46.1869C8.22559 46.0316 8.22559 45.8764 8.22559 45.7212C8.22712 45.7734 8.23335 45.8253 8.24421 45.8764Z" fill="url(#paint3_linear_41_52152)"/>
<path d="M73.606 26.6015C70.77 30.2323 65.5264 36.1093 60.1291 41.9087C59.2489 42.8571 58.3626 43.8009 57.4824 44.7338L57.456 44.7618C57.026 45.2197 56.596 45.6729 56.1707 46.12L56.1894 46.165C53.4118 49.2179 50.523 52.1641 47.5229 55.0037C47.5087 55.019 47.4937 55.0335 47.4779 55.0472C44.9104 57.5976 43.0508 59.3191 42.4873 59.6156C42.8614 59.0335 42.7978 59.0785 43.2495 58.5554C45.477 56.0252 47.8644 53.6269 50.1354 51.1308C50.6011 50.6123 51.0777 50.0939 51.5418 49.5692C52.2383 48.793 52.9321 48.0143 53.6234 47.233C54.295 46.4755 54.9677 45.7195 55.6414 44.9651C56.9412 43.5163 58.243 42.0727 59.5469 40.6342L60.5109 39.5647C62.8342 36.9776 65.1585 34.3904 67.4838 31.8033C67.9495 31.2895 72.8501 25.9589 72.8501 25.8564C72.9323 25.9387 73.0146 26.021 73.0984 26.1017C73.2676 26.2678 73.4399 26.4339 73.606 26.6015Z" fill="url(#paint4_linear_41_52152)"/>
<path d="M85.6029 14.5185C84.9801 13.9531 84.1653 13.6461 83.3242 13.6601C82.9017 13.6557 82.4832 13.7421 82.097 13.9136C81.7108 14.085 81.366 14.3373 81.0858 14.6536C80.4922 15.2694 80.1625 16.0926 80.1668 16.9479C80.1571 17.353 80.2341 17.7555 80.3926 18.1284C80.551 18.5013 80.7874 18.8361 81.0858 19.1102C81.7174 19.6944 82.5544 20.0052 83.4142 19.9748C83.8365 19.9798 84.2549 19.8935 84.6407 19.7218C85.0265 19.55 85.3706 19.2969 85.6495 18.9798C86.2445 18.3659 86.5755 17.5435 86.5716 16.6886C86.5796 16.278 86.4969 15.8706 86.3295 15.4955C86.162 15.1204 85.914 14.7868 85.6029 14.5185Z" fill="#295F70"/>
<path d="M86.5665 26.2182V68.3177C86.5665 68.993 86.2234 69.5596 85.542 70.0066C84.8583 70.4568 84.0554 70.692 83.2368 70.6819H83.0816C82.3386 70.6685 81.6241 70.3937 81.0636 69.9057C80.4655 69.3883 80.1669 68.7917 80.168 68.116V26.0148C80.168 25.3861 80.4784 24.8335 81.0993 24.3616C81.7401 23.8844 82.5219 23.6347 83.3207 23.6522C84.1416 23.6416 84.9409 23.9159 85.5824 24.4284C86.239 24.9484 86.5665 25.5429 86.5665 26.2182Z" fill="#295F70"/>
<path d="M97.8117 45.2491C98.5599 41.533 100.391 38.4848 103.304 36.1046C106.104 33.7645 109.647 32.4987 113.296 32.5343H119.005C119.414 32.5418 119.821 32.4663 120.2 32.3123C120.579 32.1584 120.923 31.9292 121.211 31.6387C121.503 31.3581 121.734 31.0204 121.89 30.6465C122.046 30.2726 122.124 29.8705 122.117 29.4655C122.116 29.0403 122.027 28.62 121.856 28.2309C121.685 27.8417 121.435 27.4921 121.122 27.2038C120.827 26.8935 120.471 26.6464 120.078 26.4775C119.684 26.3086 119.26 26.2214 118.831 26.2212H113.209C107.096 26.2212 101.877 28.3835 97.5524 32.7082C93.2278 37.0329 91.0654 42.2511 91.0654 48.363V51.7377H115.545C114.795 55.2435 112.835 58.3733 110.008 60.578C107.124 62.8743 103.864 64.022 100.229 64.0209H94.5239C94.101 64.008 93.6798 64.0808 93.2858 64.235C92.8917 64.3892 92.533 64.6216 92.2312 64.9182C91.9389 65.1987 91.7076 65.5365 91.5516 65.9104C91.3957 66.2843 91.3184 66.6863 91.3247 67.0914C91.317 67.5243 91.4019 67.9538 91.5734 68.3513C91.745 68.7488 91.9994 69.1051 92.3197 69.3965C92.9298 69.9983 93.7539 70.3333 94.6108 70.3279H100.32C106.375 70.3279 111.565 68.1656 115.89 63.8409C120.214 59.5162 122.377 54.2969 122.377 48.183V45.2491H97.8117Z" fill="#295F70"/>
<defs>
<linearGradient id="paint0_linear_41_52152" x1="11.8389" y1="43.8908" x2="78.3156" y2="43.8908" gradientUnits="userSpaceOnUse">
<stop offset="0.33" stop-color="#DC6C10"/>
<stop offset="0.47" stop-color="#DD7214"/>
<stop offset="0.66" stop-color="#DF831E"/>
<stop offset="0.88" stop-color="#E2A02F"/>
<stop offset="0.95" stop-color="#E3AA35"/>
</linearGradient>
<linearGradient id="paint1_linear_41_52152" x1="55.9458" y1="45.5937" x2="57.8303" y2="45.3143" gradientUnits="userSpaceOnUse">
<stop offset="0.33" stop-color="#DC6C10"/>
<stop offset="0.47" stop-color="#DD7214"/>
<stop offset="0.66" stop-color="#DF831E"/>
<stop offset="0.88" stop-color="#E2A02F"/>
<stop offset="0.95" stop-color="#E3AA35"/>
</linearGradient>
<linearGradient id="paint2_linear_41_52152" x1="8.22443" y1="56.4024" x2="37.7878" y2="56.4024" gradientUnits="userSpaceOnUse">
<stop offset="0.33" stop-color="#DC6C10"/>
<stop offset="0.47" stop-color="#DD7214"/>
<stop offset="0.66" stop-color="#DF831E"/>
<stop offset="0.88" stop-color="#E2A02F"/>
<stop offset="0.95" stop-color="#E3AA35"/>
</linearGradient>
<linearGradient id="paint3_linear_41_52152" x1="8.19144" y1="45.9649" x2="8.26284" y2="45.9556" gradientUnits="userSpaceOnUse">
<stop offset="0.33" stop-color="#DC6C10"/>
<stop offset="0.47" stop-color="#DD7214"/>
<stop offset="0.66" stop-color="#DF831E"/>
<stop offset="0.88" stop-color="#E2A02F"/>
<stop offset="0.95" stop-color="#E3AA35"/>
</linearGradient>
<linearGradient id="paint4_linear_41_52152" x1="42.4873" y1="42.7345" x2="73.606" y2="42.7345" gradientUnits="userSpaceOnUse">
<stop offset="0.33" stop-color="#DC6C10"/>
<stop offset="0.47" stop-color="#DD7214"/>
<stop offset="0.66" stop-color="#DF831E"/>
<stop offset="0.88" stop-color="#E2A02F"/>
<stop offset="0.95" stop-color="#E3AA35"/>
</linearGradient>
</defs>
</svg>
