<svg width="41" height="40" viewBox="0 0 41 40" fill="none" xmlns="http://www.w3.org/2000/svg">
<path d="M34.3357 27.2568C29.4869 24.9096 28.7141 21.2856 28.6797 21.0168C28.6381 20.6912 28.5909 20.4352 28.9501 20.104C29.2965 19.784 30.8333 18.8328 31.2597 18.5352C31.9645 18.0424 32.2749 17.5504 32.0461 16.9456C31.8861 16.5272 31.4965 16.3696 31.0861 16.3696C30.9567 16.37 30.8276 16.3845 30.7013 16.4128C29.9269 16.5808 29.1749 16.9688 28.7397 17.0736C28.6874 17.0871 28.6337 17.0944 28.5797 17.0952C28.3477 17.0952 28.2597 16.992 28.2821 16.7128C28.3365 15.8664 28.4517 14.2144 28.3181 12.6712C28.1349 10.548 27.4501 9.49603 26.6381 8.56563C26.2453 8.11443 24.4213 6.17603 20.9013 6.17603C17.3813 6.17603 15.5597 8.11443 15.1693 8.56003C14.3549 9.49043 13.6709 10.5424 13.4893 12.6656C13.3557 14.2088 13.4757 15.86 13.5253 16.7072C13.5413 16.9728 13.4597 17.0896 13.2277 17.0896C13.1737 17.0887 13.12 17.0815 13.0677 17.068C12.6333 16.9632 11.8813 16.5752 11.1069 16.4072C10.9806 16.3789 10.8516 16.3644 10.7221 16.364C10.3101 16.364 9.92213 16.524 9.76213 16.94C9.53333 17.5448 9.84213 18.0368 10.5493 18.5296C10.9757 18.8272 12.5125 19.7776 12.8589 20.0984C13.2173 20.4296 13.1709 20.6856 13.1293 21.0112C13.0949 21.284 12.3213 24.908 7.47333 27.2512C7.18933 27.3888 6.70613 27.68 7.55813 28.1504C8.89573 28.8896 9.78613 28.8104 10.4781 29.256C11.0653 29.6344 10.7181 30.4504 11.1453 30.7448C11.6701 31.1072 13.2213 30.7192 15.2253 31.3808C16.9053 31.9344 17.9261 33.4984 20.9053 33.4984C23.8845 33.4984 24.9349 31.9272 26.5853 31.3808C28.5853 30.7192 30.1397 31.1072 30.6653 30.7448C31.0917 30.4504 30.7453 29.6344 31.3325 29.256C32.0245 28.8104 32.9141 28.8896 34.2525 28.1504C35.1029 27.6856 34.6197 27.3944 34.3357 27.2568Z" fill="#003540"/>
<path d="M36.4454 26.9808C36.2278 26.3888 35.8134 26.072 35.3414 25.8096C35.2526 25.7576 35.171 25.716 35.1014 25.684C34.9606 25.6112 34.8166 25.5408 34.6734 25.4664C33.2022 24.6864 32.0534 23.7024 31.2566 22.536C31.0303 22.2076 30.834 21.8596 30.6702 21.496C30.6022 21.3016 30.6054 21.1912 30.6542 21.0904C30.7026 21.0127 30.7666 20.946 30.8422 20.8944C31.095 20.7272 31.3558 20.5576 31.5326 20.4432C31.8478 20.2392 32.0974 20.0776 32.2582 19.9632C32.8622 19.5408 33.2846 19.092 33.5486 18.5904C33.7327 18.2438 33.8402 17.8617 33.8635 17.4699C33.8868 17.0782 33.8255 16.686 33.6838 16.32C33.2838 15.2672 32.2894 14.6136 31.0846 14.6136C30.8304 14.6134 30.577 14.6402 30.3286 14.6936C30.2622 14.708 30.1958 14.7232 30.131 14.74C30.1422 14.02 30.1262 13.26 30.0622 12.512C29.835 9.8824 28.9142 8.504 27.9542 7.4048C27.3394 6.71599 26.6153 6.13324 25.811 5.68C24.3542 4.848 22.7022 4.4256 20.9014 4.4256C19.1006 4.4256 17.4566 4.848 15.9982 5.68C15.1918 6.13338 14.4663 6.7173 13.851 7.408C12.891 8.5072 11.9702 9.888 11.743 12.5152C11.679 13.2632 11.663 14.0272 11.6734 14.7432C11.6086 14.7264 11.543 14.7112 11.4766 14.6968C11.2281 14.6434 10.9747 14.6166 10.7206 14.6168C9.51495 14.6168 8.51895 15.2704 8.12055 16.3232C7.97815 16.6893 7.91623 17.0818 7.93901 17.474C7.96179 17.8662 8.06872 18.2488 8.25255 18.596C8.51735 19.0976 8.93975 19.5464 9.54375 19.9688C9.70375 20.0808 9.95415 20.2424 10.2694 20.4488C10.4398 20.5592 10.6886 20.7208 10.9326 20.8824C11.0179 20.9376 11.0905 21.0104 11.1454 21.096C11.1966 21.2008 11.1982 21.3136 11.1222 21.5216C10.9605 21.8775 10.7675 22.2183 10.5454 22.54C9.76615 23.68 8.65095 24.6464 7.22695 25.42C6.47255 25.82 5.68855 26.0872 5.35735 26.9872C5.10775 27.6664 5.27095 28.4392 5.90535 29.0904C6.13818 29.3334 6.40823 29.5379 6.70535 29.696C7.32359 30.0358 7.98098 30.2988 8.66295 30.4792C8.80369 30.5155 8.9373 30.5753 9.05815 30.656C9.28935 30.8584 9.25655 31.1632 9.56455 31.6096C9.71916 31.8403 9.91562 32.04 10.1438 32.1984C10.7902 32.6448 11.5166 32.6728 12.2862 32.7024C12.9814 32.7288 13.7694 32.7592 14.6694 33.056C15.0422 33.1792 15.4294 33.4176 15.8782 33.696C16.9558 34.3584 18.431 35.2648 20.8998 35.2648C23.3686 35.2648 24.8542 34.3536 25.9398 33.6888C26.3854 33.4152 26.7702 33.1792 27.1326 33.0592C28.0326 32.7616 28.8206 32.732 29.5158 32.7056C30.2854 32.676 31.0118 32.648 31.6582 32.2016C31.9283 32.0132 32.1535 31.7673 32.3174 31.4816C32.539 31.1048 32.5334 30.8416 32.7414 30.6576C32.8547 30.5807 32.9802 30.5234 33.1126 30.488C33.8038 30.307 34.4702 30.0415 35.0966 29.6976C35.4122 29.5282 35.6964 29.3058 35.9366 29.04L35.9446 29.0304C36.5398 28.3936 36.6894 27.6432 36.4454 26.9808ZM34.251 28.16C32.9126 28.8992 32.023 28.82 31.331 29.2656C30.743 29.644 31.091 30.46 30.6638 30.7544C30.139 31.1168 28.5878 30.7288 26.5838 31.3904C24.931 31.9368 23.8766 33.508 20.9038 33.508C17.931 33.508 16.9014 31.94 15.2214 31.3864C13.2214 30.7248 11.667 31.1128 11.1414 30.7504C10.715 30.456 11.0614 29.64 10.4742 29.2616C9.78135 28.816 8.89175 28.8952 7.55415 28.16C6.70215 27.6896 7.18535 27.3984 7.46935 27.2608C12.3174 24.9136 13.091 21.2896 13.1254 21.0208C13.167 20.6952 13.2134 20.4392 12.855 20.108C12.5086 19.788 10.9718 18.8368 10.5454 18.5392C9.83975 18.0464 9.52935 17.5544 9.75815 16.9496C9.91815 16.5312 10.3086 16.3736 10.7182 16.3736C10.8476 16.374 10.9766 16.3885 11.103 16.4168C11.8774 16.5848 12.6294 16.9728 13.0638 17.0776C13.1161 17.091 13.1698 17.0983 13.2238 17.0992C13.4558 17.0992 13.5374 16.9824 13.5214 16.7168C13.4718 15.8696 13.3518 14.2184 13.4854 12.6752C13.6686 10.552 14.3526 9.5 15.1654 8.5696C15.5558 8.1224 17.3902 6.184 20.8982 6.184C24.4062 6.184 26.2454 8.1144 26.6358 8.56C27.4494 9.4904 28.1342 10.5424 28.3158 12.6656C28.4494 14.2088 28.3342 15.8608 28.2798 16.7072C28.2614 16.9864 28.3454 17.0896 28.5774 17.0896C28.6314 17.0887 28.6851 17.0815 28.7374 17.068C29.1726 16.9632 29.9246 16.5752 30.699 16.4072C30.8253 16.3789 30.9543 16.3644 31.0838 16.364C31.4958 16.364 31.8838 16.524 32.0438 16.94C32.2726 17.5448 31.9638 18.0368 31.2574 18.5296C30.831 18.8272 29.2942 19.7776 28.9478 20.0984C28.5886 20.4296 28.6358 20.6856 28.6774 21.0112C28.7118 21.284 29.4846 24.908 34.3334 27.2512C34.6198 27.3944 35.103 27.6856 34.251 28.16Z" fill="#003540"/>
</svg>
