<svg width="664" height="500" viewBox="0 0 664 500" fill="none" xmlns="http://www.w3.org/2000/svg">
<path d="M511.302 77.4199C510.485 76.6957 509.592 77.0578 508.713 77.3968C508.028 77.6587 507.319 77.859 506.641 78.121C486.309 85.9871 466.293 94.6006 446.663 104.1C419.751 117.12 393.703 131.689 368.464 147.699C361.676 152.006 355.104 156.644 348.432 161.135C344.187 163.662 339.78 165.974 335.743 168.801C332.7 170.928 330.527 170.696 327.507 168.578C279.147 134.709 227.489 106.789 173.274 83.5217C168.05 81.2798 162.734 79.2997 157.164 78.1056C152.526 77.104 152.326 77.3505 153.851 81.9423C168.243 125.256 178.328 169.564 184.268 214.804C187.958 242.902 189.823 271.146 190.301 299.467C190.347 302.271 191.333 304.02 193.66 305.522C200.902 310.184 208.098 314.929 215.186 319.814C239.84 336.787 263.068 355.547 284.995 375.925C300.388 390.224 314.926 405.348 328.863 421.072C331.483 424.031 333.286 424.139 335.674 421.342C346.884 408.198 359.665 396.611 372.054 384.646C385.952 371.225 399.389 357.319 415.144 345.909C426.408 337.75 437.156 328.859 448.134 320.299C448.473 320.176 448.858 320.115 449.151 319.922C456.771 315.007 464.39 310.099 471.987 305.145C474.075 303.781 474.93 301.655 474.945 299.243C475.015 285.784 475.739 272.355 476.594 258.927C477.311 247.701 478.304 236.499 479.583 225.336C481.756 206.452 484.583 187.661 488.243 169.009C493.459 142.429 499.461 116.042 508.105 90.3247C509.245 86.9425 510.493 83.5911 511.672 80.2243C512.019 79.2381 512.196 78.2134 511.302 77.4199Z" fill="url(#paint0_linear_515_12784)"/>
<mask id="mask0_515_12784" style="mask-type:luminance" maskUnits="userSpaceOnUse" x="153" y="77" width="359" height="347">
<path d="M511.302 77.4199C510.485 76.6957 509.592 77.0578 508.713 77.3968C508.028 77.6587 507.319 77.859 506.641 78.121C486.309 85.9871 466.293 94.6006 446.663 104.1C419.751 117.12 393.703 131.689 368.464 147.699C361.676 152.006 355.104 156.644 348.432 161.135C344.187 163.662 339.78 165.974 335.743 168.801C332.7 170.928 330.527 170.696 327.507 168.578C279.147 134.709 227.489 106.789 173.274 83.5217C168.05 81.2798 162.734 79.2997 157.164 78.1056C152.526 77.104 152.326 77.3505 153.851 81.9423C168.243 125.256 178.328 169.564 184.268 214.804C187.958 242.902 189.823 271.146 190.301 299.467C190.347 302.271 191.333 304.02 193.66 305.522C200.902 310.184 208.098 314.929 215.186 319.814C239.84 336.787 263.068 355.547 284.995 375.925C300.388 390.224 314.926 405.348 328.863 421.072C331.483 424.031 333.286 424.139 335.674 421.342C346.884 408.198 359.665 396.611 372.054 384.646C385.952 371.225 399.389 357.319 415.144 345.909C426.408 337.75 437.156 328.859 448.134 320.299C448.473 320.176 448.858 320.115 449.151 319.922C456.771 315.007 464.39 310.099 471.987 305.145C474.075 303.781 474.93 301.655 474.945 299.243C475.015 285.784 475.739 272.355 476.594 258.927C477.311 247.701 478.304 236.499 479.583 225.336C481.756 206.452 484.583 187.661 488.243 169.009C493.459 142.429 499.461 116.042 508.105 90.3247C509.245 86.9425 510.493 83.5911 511.672 80.2243C512.019 79.2381 512.196 78.2134 511.302 77.4199Z" fill="white"/>
</mask>
<g mask="url(#mask0_515_12784)">
<path d="M518.429 71.4028C518.429 71.4028 452.841 83.9146 178.297 281.647L175.878 312.88C175.878 312.88 331.837 421.866 331.837 425.903C331.837 429.94 481.633 305.191 481.633 305.191L518.429 71.4105V71.4028Z" fill="url(#paint1_linear_515_12784)"/>
<path fill-rule="evenodd" clip-rule="evenodd" d="M612.777 571.5C488.852 532.084 363.572 488.924 245.38 445.48C150.601 410.694 136.509 303.928 219.023 245.744C376.461 134.625 549.909 19.4215 714.443 -78.9398C861.25 -166.808 979.388 -58.7853 915.211 127.452C902.622 164.017 884.64 202.924 862.529 243.025L862.29 243.379C800.085 355.97 706.207 475.01 612.769 571.5H612.777Z" fill="url(#paint2_linear_515_12784)"/>
<path fill-rule="evenodd" clip-rule="evenodd" d="M308.971 368.598C270.827 410.486 282.822 462.398 335.212 480.935C304.371 469.995 273.816 459.024 243.815 447.976C149.036 413.191 134.945 306.424 217.459 248.241C230.279 239.381 243.322 230.151 256.104 220.967C341.044 161.806 417.995 227.978 353.34 317.734C339.842 336.478 322.908 353.066 308.979 368.606L308.971 368.598Z" fill="url(#paint3_linear_515_12784)"/>
<path fill-rule="evenodd" clip-rule="evenodd" d="M506.402 276.701C503.367 149.895 361.668 150.981 249.077 225.528C258.777 219.033 268.438 212.215 278.138 205.713C308.924 185.99 351.537 165.041 394.312 156.127C521.842 129.84 572.621 229.149 543.414 358.259C526.441 432.906 487.411 509.171 442.818 573.441C424.598 567.362 406.67 561.253 388.742 555.136C440.114 490.296 508.398 369.738 506.395 276.708L506.402 276.701Z" fill="url(#paint4_linear_515_12784)"/>
</g>
<defs>
<linearGradient id="paint0_linear_515_12784" x1="363.679" y1="203.671" x2="138.212" y2="-37.8526" gradientUnits="userSpaceOnUse">
<stop offset="0.25" stop-color="#19738C"/>
<stop offset="0.69" stop-color="#75C8B7"/>
<stop offset="0.99" stop-color="#CDCCAE"/>
</linearGradient>
<linearGradient id="paint1_linear_515_12784" x1="620.434" y1="195.882" x2="31.9838" y2="355.038" gradientUnits="userSpaceOnUse">
<stop stop-color="#753EB7"/>
<stop offset="0.34" stop-color="#2598B9"/>
<stop offset="0.69" stop-color="#5CE2C4"/>
<stop offset="0.99" stop-color="#FFFCD1"/>
</linearGradient>
<linearGradient id="paint2_linear_515_12784" x1="524.916" y1="7.61079" x2="604.495" y2="583.503" gradientUnits="userSpaceOnUse">
<stop offset="0.3" stop-color="#19738C"/>
<stop offset="0.69" stop-color="#75C8B7"/>
<stop offset="0.99" stop-color="#CDCCAE"/>
</linearGradient>
<linearGradient id="paint3_linear_515_12784" x1="130.877" y1="539.781" x2="502.234" y2="81.1642" gradientUnits="userSpaceOnUse">
<stop stop-color="#3041B8"/>
<stop offset="0.34" stop-color="#19738C"/>
<stop offset="0.69" stop-color="#75C8B7"/>
<stop offset="0.99" stop-color="#CDCCAE"/>
</linearGradient>
<linearGradient id="paint4_linear_515_12784" x1="274.155" y1="443.369" x2="655.982" y2="205.335" gradientUnits="userSpaceOnUse">
<stop stop-color="#3041B8"/>
<stop offset="0.34" stop-color="#19738C"/>
<stop offset="0.69" stop-color="#75C8B7"/>
<stop offset="0.99" stop-color="#CDCCAE"/>
</linearGradient>
</defs>
</svg>
