<svg width="218" height="55" viewBox="0 0 218 55" fill="none" xmlns="http://www.w3.org/2000/svg">
<path d="M22.1811 21.1244C22.1811 20.7294 22.1215 20.3949 21.9975 20.13C21.8735 19.8651 21.6991 19.6467 21.4695 19.4841C21.3226 19.3865 21.1298 19.3214 20.9048 19.2889C20.6752 19.2564 20.3998 19.2378 20.0738 19.2378H2.70554V14.3819C4.91847 12.946 7.09009 11.5333 9.21578 10.1393C11.3415 8.74524 13.5039 7.3326 15.7031 5.89673C15.9326 6.51011 16.1392 7.05844 16.3183 7.53706C16.5019 8.01569 16.6993 8.55007 16.9151 9.13558L8.57302 14.5863H21.7128C22.25 14.5863 22.7367 14.6049 23.1682 14.6374C23.5998 14.67 23.9717 14.7211 24.2793 14.7908C25.2526 14.9534 25.9413 15.3809 26.3545 16.0733C26.7677 16.7657 26.9697 17.8205 26.9697 19.2378V28.09H0.65332V23.4571L22.172 23.4757V21.1244H22.1811Z" fill="#B20B43"/>
<path d="M36.9967 30.7527C36.9967 31.4497 36.9508 32.0538 36.8544 32.5649C36.758 33.0761 36.6065 33.5129 36.3999 33.8754C36.1887 34.2378 35.9224 34.5259 35.601 34.7443C35.275 34.9627 34.8848 35.1254 34.4257 35.2369L34.444 35.2183C34.0951 35.288 33.7003 35.3391 33.2595 35.3716C32.8188 35.4042 32.3183 35.4228 31.749 35.4228H29.0173V30.8317H30.0687C30.84 30.8317 31.3359 30.7991 31.5654 30.7294L31.547 30.748C31.7766 30.6923 31.9373 30.5575 32.0337 30.3391C32.1301 30.1207 32.176 29.7861 32.176 29.3354V13.9497H36.9921V30.7527H36.9967Z" fill="#B20B43"/>
<path d="M45.1369 28.09C44.5309 28.09 43.9937 28.0714 43.53 28.0296C43.0663 27.9878 42.6623 27.932 42.3271 27.867H42.3455C41.8864 27.7555 41.5007 27.5882 41.1793 27.3651C40.8625 27.1374 40.6054 26.8447 40.408 26.4822C40.2106 26.1198 40.0683 25.683 39.981 25.1718C39.8938 24.6607 39.8479 24.0612 39.8479 23.3781V7.5603H44.6456V22.0073C44.6456 22.8112 44.9486 23.2991 45.5547 23.4618H46.629V28.0947H45.1369V28.09Z" fill="#B20B43"/>
<path d="M65.0164 23.4619H66.9814V28.0948H46.5371V23.4619H48.4378V17.0678C48.4378 15.6598 48.6444 14.6096 49.0577 13.9126C49.4709 13.2156 50.1412 12.7881 51.0732 12.6208C51.3853 12.5511 51.7572 12.5 52.198 12.4675C52.6387 12.4349 53.1392 12.4163 53.7085 12.4163H59.7596C60.2325 12.4163 60.6732 12.4349 61.0864 12.4675C61.4996 12.5 61.8807 12.5511 62.2296 12.6208C63.2259 12.7834 63.9421 13.2063 64.3737 13.8894C64.8052 14.5725 65.021 15.632 65.021 17.0632V23.4619H65.0164ZM55.825 9.99998H51.0089V5.98511H55.825V9.99998ZM60.2187 18.5037C60.2187 18.0948 60.1452 17.7695 59.9937 17.5325C59.8468 17.2955 59.6356 17.1189 59.3647 17.012H54.4476C53.6396 17.0817 53.231 17.579 53.231 18.5083V22.0539C53.231 22.3002 53.2402 22.5 53.2631 22.658C53.2861 22.816 53.3182 22.9461 53.3733 23.0576C53.4284 23.1691 53.5065 23.2527 53.6075 23.3132C53.7085 23.3736 53.8462 23.4247 54.0207 23.4665H59.1031C59.5759 23.4107 59.8973 23.2435 60.0764 22.9554C60.1728 22.7648 60.2187 22.4628 60.2187 22.0539V18.5037ZM62.629 9.99998H57.8129V5.98511H62.629V9.99998Z" fill="#B20B43"/>
<path d="M66.9585 28.1133V23.5222H68.8822V17.0678C68.8822 14.4841 69.6902 13.0157 71.3109 12.6625C71.9307 12.4999 72.8719 12.4163 74.1253 12.4163H85.4837V17.0074H74.5293C73.937 17.2118 73.6386 17.709 73.6386 18.5036V23.5222H85.4791V28.1133H66.9585Z" fill="#B20B43"/>
<path d="M97.4666 28.1923C97.4666 27.4813 97.5125 26.8679 97.6089 26.3475C97.7053 25.827 97.8522 25.3902 98.0542 25.0371C98.2562 24.6839 98.5179 24.4004 98.8439 24.1867C99.1699 23.9729 99.5601 23.815 100.019 23.7034V23.722C100.368 23.6523 100.795 23.6012 101.296 23.5687C101.796 23.5362 102.388 23.5175 103.077 23.5175V17.0631C103.077 14.4934 103.885 13.025 105.506 12.6579C106.153 12.4953 107.099 12.4116 108.338 12.4116H120.22V23.5175H121.942V28.1086H104.372C103.981 28.1086 103.66 28.1133 103.412 28.1272C103.164 28.1412 102.99 28.1598 102.898 28.1876C102.682 28.2295 102.526 28.3642 102.434 28.5873C102.338 28.815 102.292 29.1495 102.292 29.6003V35.3577H97.4711V28.1923H97.4666ZM107.833 23.5222H115.404V18.5036C115.404 17.7137 115.106 17.2118 114.513 17.0074H108.724C108.132 17.2118 107.833 17.709 107.833 18.5036V23.5222Z" fill="#B20B43"/>
<path d="M130.201 0C130.348 0.232342 130.467 0.478637 130.555 0.73886C130.642 0.999083 130.72 1.2593 130.789 1.51953C130.844 1.82157 130.872 2.11897 130.872 2.42101C130.872 2.58365 130.862 2.74164 130.853 2.89033C130.812 3.35502 130.711 3.77789 130.55 4.15893C130.389 4.53997 130.164 4.85131 129.88 5.09295C129.595 5.32993 129.251 5.45075 128.847 5.45075C128.512 5.45075 128.255 5.39034 128.089 5.26488C127.919 5.14406 127.736 4.98606 127.534 4.79554C127.451 4.9303 127.35 5.0883 127.231 5.26488C127.111 5.44146 126.96 5.61339 126.785 5.77603C126.611 5.93867 126.4 6.08272 126.156 6.20818C125.913 6.33365 125.642 6.408 125.348 6.43124C125.252 6.44518 125.165 6.44981 125.087 6.44981C124.738 6.44981 124.444 6.37547 124.214 6.22212C123.93 6.04554 123.723 5.8039 123.585 5.50651C123.452 5.20446 123.374 4.86525 123.36 4.47956C123.347 4.36804 123.342 4.26116 123.342 4.14964C123.342 3.88941 123.36 3.63848 123.402 3.3922C123.443 3.03904 123.512 2.71376 123.604 2.42101C123.7 2.12826 123.792 1.9145 123.888 1.7751C123.888 1.78904 123.893 1.79369 123.907 1.79369C123.921 1.79369 123.948 1.77975 123.989 1.75187C124.058 1.69611 124.136 1.6357 124.224 1.566C124.311 1.49629 124.389 1.43587 124.458 1.38011C124.499 1.36617 124.527 1.36153 124.54 1.36153C124.554 1.36153 124.559 1.36617 124.559 1.38011C124.449 1.65428 124.361 1.96561 124.297 2.32342C124.242 2.58364 124.214 2.82994 124.214 3.06228C124.214 3.15986 124.219 3.2528 124.233 3.35038C124.26 3.68031 124.352 3.94981 124.517 4.16821C124.651 4.37268 124.88 4.47491 125.206 4.47491H125.266C125.656 4.47491 125.959 4.36339 126.166 4.14499C126.377 3.92658 126.533 3.67101 126.643 3.37826C126.749 3.08551 126.836 2.77881 126.896 2.46747C126.955 2.15149 127.042 1.89591 127.148 1.6868C127.162 1.70075 127.176 1.7054 127.189 1.7054C127.203 1.7054 127.222 1.70075 127.249 1.6868C127.304 1.64498 127.364 1.59387 127.433 1.53347C127.502 1.47306 127.566 1.41265 127.635 1.35688C127.662 1.34294 127.681 1.33829 127.694 1.33829C127.722 1.33829 127.736 1.34294 127.736 1.35688C127.667 1.58923 127.635 1.81692 127.635 2.03532C127.635 2.18402 127.653 2.32806 127.694 2.46747C127.763 2.81134 127.892 3.08086 128.08 3.28532C128.268 3.48978 128.512 3.61525 128.81 3.65242H128.929C129.187 3.65242 129.457 3.55484 129.737 3.36432C129.82 3.2528 129.857 3.11804 129.857 2.9554V2.91358C129.843 2.737 129.811 2.55576 129.756 2.36989C129.701 2.18402 129.627 2.00279 129.535 1.81692C129.439 1.63104 129.347 1.47306 129.251 1.33365C129.425 1.08737 129.591 0.85503 129.747 0.636629C129.903 0.436815 130.054 0.218401 130.201 0Z" fill="#B20B43"/>
<path d="M131.032 22.0073C131.032 22.4162 131.101 22.7415 131.243 22.9785C131.386 23.2155 131.606 23.3921 131.9 23.499H134.857V28.09H133.622C132.166 28.09 131.119 27.3094 130.486 25.7527C130.243 26.3661 129.949 26.8586 129.604 27.2257C129.26 27.5928 128.874 27.8252 128.438 27.9228C128.181 27.9925 127.837 28.0343 127.405 28.0575C126.974 28.0761 126.432 28.09 125.785 28.09H121.717V23.499C121.974 23.499 122.309 23.4943 122.731 23.4804C123.149 23.4665 123.553 23.4525 123.948 23.4386C124.338 23.4246 124.683 23.4107 124.981 23.3968C125.28 23.3828 125.44 23.3642 125.468 23.3363L125.367 23.3968C125.679 23.2852 125.895 23.1179 126.023 22.8949C126.152 22.6672 126.216 22.3605 126.216 21.9609V12.4116H131.032V22.0073ZM127.428 34.5259H122.612V30.4878H127.428V34.5259ZM134.251 34.5259H129.453V30.4878H134.251V34.5259Z" fill="#B20B43"/>
<path d="M134.714 23.4619H136.679L136.698 17.0678C136.698 16.3569 136.744 15.7435 136.84 15.223C136.936 14.7026 137.088 14.2658 137.304 13.9033C137.52 13.5409 137.795 13.2574 138.135 13.053C138.47 12.8485 138.879 12.7044 139.351 12.6208C139.664 12.5511 140.035 12.5 140.476 12.4675C140.917 12.4349 141.399 12.4163 141.922 12.4163H153.281L153.263 23.4201C153.263 24.8141 153.042 25.855 152.592 26.5427C152.147 27.2304 151.472 27.6951 150.568 27.9275C150.269 27.9972 149.906 28.039 149.475 28.0622C149.043 28.0808 148.552 28.0948 147.996 28.0948H134.714V23.4619ZM143.18 9.99998H138.36V5.98511H143.18V9.99998ZM143.543 17.0074C143.153 17.0074 142.836 17.0167 142.593 17.0399C142.349 17.0632 142.175 17.0864 142.065 17.1096C141.904 17.1654 141.771 17.3095 141.67 17.5511C141.569 17.7881 141.518 18.1087 141.518 18.5037L141.5 22.0492C141.5 22.3513 141.514 22.5929 141.541 22.7788C141.569 22.9647 141.624 23.1087 141.716 23.2109C141.803 23.3132 141.927 23.3875 142.079 23.4247C142.235 23.4665 142.441 23.4944 142.694 23.5083H146.38C147.501 23.5083 148.153 23.2946 148.345 22.8717C148.373 22.802 148.396 22.6998 148.414 22.565C148.433 22.4303 148.446 22.2583 148.446 22.0539L148.465 17.012H143.543V17.0074ZM149.998 9.99998H145.2V5.98511H149.998V9.99998Z" fill="#B20B43"/>
<path d="M9.71172 55L8.49967 53.8616C7.77427 54.3123 6.90654 54.5353 5.88731 54.5353C4.39979 54.5353 3.21526 54.0521 2.33377 53.0902C1.45227 52.1283 1.01611 50.8272 1.01611 49.1869C1.01611 47.5093 1.45686 46.1803 2.33377 45.1952C3.21067 44.2101 4.39519 43.7222 5.88731 43.7222C7.37943 43.7222 8.56853 44.2147 9.44544 45.1952C10.3223 46.1803 10.7585 47.5093 10.7585 49.1869C10.7585 50.6692 10.4004 51.8681 9.68877 52.7928L10.7906 53.843L9.71172 55ZM5.97913 51.5149L7.04887 50.3671L8.15991 51.3848C8.48129 50.8132 8.64199 50.0744 8.64199 49.1729C8.64199 48.0344 8.39866 47.1469 7.90741 46.5056C7.42075 45.8644 6.74585 45.5437 5.88272 45.5437C5.02417 45.5437 4.34928 45.8644 3.85803 46.5056C3.36677 47.1469 3.12344 48.0344 3.12344 49.1729C3.12344 50.2835 3.36677 51.1524 3.85343 51.7798C4.34009 52.4071 5.01499 52.7184 5.88272 52.7184H5.92404C6.32805 52.7184 6.69535 52.6394 7.01673 52.4861L5.97913 51.5149Z" fill="#333333"/>
<path d="M14.9043 54.2565L18.4854 44.0056H20.9416L24.5273 54.2565H22.2777L21.5982 52.1748H17.7554L17.0805 54.2565H14.9043ZM19.6791 46.2872L18.3385 50.409H21.0335L19.6791 46.2872Z" fill="#333333"/>
<path d="M29.1323 54.2565V44.0056H36.5837V45.8272H31.2442V48.0065H36.1935V49.7677H31.2442V52.4396H36.8179V54.2612H29.1323V54.2565Z" fill="#333333"/>
<path d="M41.7854 54.2565V44.0056H49.2368V45.8272H43.8973V48.0065H48.8466V49.7677H43.8973V52.4396H49.471V54.2612H41.7854V54.2565Z" fill="#333333"/>
<path d="M56.3072 54.2565H54.3376V44.0056H57.4367L59.2823 52.1329L61.105 44.0056H64.1627V54.2565H62.1931V45.6413L60.2923 54.2565H58.2171L56.3164 45.4461V54.2565H56.3072Z" fill="#333333"/>
<path d="M75.9111 54.2565L79.4922 44.0056H81.9485L85.5341 54.2565H83.2845L82.605 52.1748H78.7622L78.0873 54.2565H75.9111ZM80.6859 46.2872L79.3453 50.409H82.0403L80.6859 46.2872Z" fill="#333333"/>
<path d="M98.3758 55L97.1637 53.8616C96.4383 54.3123 95.5706 54.5353 94.5514 54.5353C93.0638 54.5353 91.8793 54.0521 90.9978 53.0902C90.1163 52.1283 89.6802 50.8272 89.6802 49.1869C89.6802 47.5093 90.1209 46.1803 90.9978 45.1952C91.8793 44.2101 93.0593 43.7222 94.5514 43.7222C96.0435 43.7222 97.2326 44.2147 98.1095 45.1952C98.9864 46.1803 99.4226 47.5093 99.4226 49.1869C99.4226 50.6692 99.0645 51.8681 98.3528 52.7928L99.4547 53.843L98.3758 55ZM94.6432 51.5149L95.7129 50.3671L96.824 51.3848C97.1454 50.8132 97.306 50.0744 97.306 49.1729C97.306 48.0344 97.0627 47.1469 96.5715 46.5056C96.0848 45.8644 95.4099 45.5437 94.5468 45.5437C93.6882 45.5437 93.0133 45.8644 92.5221 46.5056C92.0308 47.1469 91.7875 48.0344 91.7875 49.1729C91.7875 50.2835 92.0308 51.1524 92.5175 51.7798C93.0042 52.4071 93.6791 52.7184 94.5468 52.7184H94.5881C94.9921 52.7184 95.3594 52.6394 95.6808 52.4861L94.6432 51.5149Z" fill="#333333"/>
<path d="M103.568 54.2565L107.149 44.0056H109.605L113.191 54.2565H110.941L110.262 52.1748H106.419L105.744 54.2565H103.568ZM108.343 46.2872L107.002 50.409H109.697L108.343 46.2872Z" fill="#333333"/>
<path d="M117.796 54.2565V44.0056H122.897C123.861 44.0056 124.642 44.2658 125.234 44.7909C125.826 45.316 126.12 46.0038 126.12 46.8588C126.12 47.8439 125.789 48.5642 125.128 49.0242C124.954 49.1404 124.756 49.2426 124.536 49.3309C124.664 49.3774 124.775 49.4331 124.876 49.4982C125.459 49.8467 125.757 50.4322 125.78 51.2547L125.826 52.9368C125.835 53.2668 125.872 53.5038 125.927 53.6478C125.987 53.7872 126.102 53.8987 126.276 53.9824V54.2565H123.939C123.879 54.1497 123.833 53.922 123.792 53.5688C123.751 53.2203 123.732 52.8393 123.723 52.435L123.71 51.487C123.7 51.027 123.563 50.7017 123.306 50.5065C123.048 50.3114 122.617 50.2138 122.015 50.2138H119.908V54.2612H117.796V54.2565ZM119.913 48.4852H122.369C122.911 48.4852 123.324 48.3736 123.595 48.1459C123.87 47.9182 124.008 47.579 124.008 47.1237C124.008 46.6729 123.879 46.3383 123.618 46.1106C123.356 45.883 122.966 45.7714 122.452 45.7714H119.917V48.4852H119.913Z" fill="#333333"/>
<path d="M130.44 54.2565L134.021 44.0056H136.478L140.063 54.2565H137.814L137.134 52.1748H133.291L132.616 54.2565H130.44ZM135.22 46.2872L133.879 50.409H136.574L135.22 46.2872Z" fill="#333333"/>
<path d="M144.82 54.2565V44.0056H146.936V48.2528L150.816 44.0056H153.515L149.466 48.1971L153.781 54.2565H151.008L147.96 49.7444L146.931 50.8086V54.2565H144.82Z" fill="#333333"/>
<path d="M217.758 7.98779H212.093L217.758 13.8242V7.98779Z" fill="#333333"/>
<path d="M217.758 54.2751H212.093L217.758 48.4387V54.2751Z" fill="#333333"/>
<path d="M172.077 7.98779H177.742L172.077 13.8242V7.98779Z" fill="#333333"/>
<path d="M172.077 54.2751H177.742L172.077 48.4387V54.2751Z" fill="#333333"/>
<path d="M195.209 20.4986L184.385 31.4534L195.209 42.4081L206.032 31.4533L195.209 20.4986Z" fill="#B20B43"/>
<path opacity="0.78" d="M195.212 31.4497V20.4971L206.033 31.4497H195.212Z" fill="#A00D46"/>
<path opacity="0.78" d="M184.386 31.4497H195.212V42.407L184.386 31.4497Z" fill="#A00D46"/>
</svg>
