<svg width="95" height="95" viewBox="0 0 95 95" fill="none" xmlns="http://www.w3.org/2000/svg">
<path d="M39.6941 34.7384C39.9656 34.5271 40.2672 34.3466 40.5688 34.1653C39.9355 34.497 39.3623 34.8897 38.8794 35.4327C38.638 35.7043 38.4266 36.0059 38.2461 36.3376C38.6688 35.7344 39.151 35.1913 39.6941 34.7384Z" fill="#203B72"/>
<path d="M58.1281 58.6925V58.6323C58.1281 58.6624 58.098 58.6925 58.1281 58.6925Z" fill="#203B72"/>
<path d="M61.658 15.8523H49.5597C46.9955 16.1539 44.2801 16.6669 42.3793 18.4165C41.1728 19.5027 40.3582 21.0409 39.9655 22.61C39.5736 24.2091 39.5427 25.8685 39.694 27.4977C39.7842 28.3123 39.9053 29.127 40.1167 29.8814C40.2679 30.4546 40.9313 31.3895 40.5695 31.9936C40.5094 32.0838 40.4183 32.1749 40.3582 32.235C39.4834 32.9895 38.5785 33.7131 37.9444 34.709C37.22 35.8553 36.9184 37.2431 36.9793 38.5106C36.9793 39.0838 37.0395 39.6268 37.1305 40.1699C37.1305 40.2602 37.1606 40.3211 37.1606 40.4114C37.2509 38.7821 37.6435 37.4244 38.307 36.3383C38.4882 36.0065 38.6988 35.7049 38.9403 35.4334C39.4232 34.8602 39.9663 34.4984 40.6297 34.1659C42.0476 33.3513 43.737 32.9895 45.3362 32.8383C47.2069 32.6269 49.0776 32.5968 50.9475 32.718C52.4556 32.8082 54.628 32.748 55.8352 33.744C56.5295 34.3171 57.0417 35.3431 57.0718 36.248C57.0718 36.3383 57.1019 37.6358 57.1019 37.787C57.1019 38.9333 56.167 39.8992 54.9897 39.8992H43.0728V44.3943C46.3614 44.8471 49.0467 45.2991 51.0678 45.782C51.3093 45.8422 51.5507 45.9024 51.7922 45.9633C53.3613 46.3552 54.5979 46.8381 55.5336 47.3812C55.6848 47.291 55.8954 47.23 56.0767 47.1999C59.5466 46.6268 62.2311 43.3683 63.2872 40.1398C63.5888 39.2049 63.74 38.239 63.7701 37.2439C63.8002 35.1618 63.1669 33.0204 61.8994 31.331C60.5116 29.5204 58.5507 28.6155 56.3482 28.4042C54.9304 28.253 52.3662 28.2838 51.0085 28.0424C49.5003 27.7708 47.4784 27.0465 47.4483 25.2367C47.4182 24.0603 48.4442 23.0945 49.5906 23.0945C51.2198 23.0945 52.8792 23.1245 54.5084 23.1245L61.5075 23.4262C63.6498 23.5164 65.4595 21.7969 65.4595 19.6246C65.4595 17.5425 63.7701 15.8531 61.658 15.8531V15.8523Z" fill="#0A9CA5"/>
<path d="M58.4897 56.4299C58.4597 56.6714 58.4296 56.9429 58.3995 57.1844C58.3393 57.6673 58.2483 58.1494 58.128 58.6323C58.128 58.6624 58.0979 58.6925 58.0979 58.7226C58.0678 58.8429 58.0377 58.934 58.0076 59.0543C57.4044 60.8949 56.167 62.1917 54.5686 63.2477C54.4174 63.3681 54.2369 63.429 54.1158 63.5795C53.8743 63.8811 54.206 64.1225 54.3272 64.3941C54.4784 64.7559 54.689 65.1185 54.78 65.4802C54.9312 65.9632 55.0215 66.4453 55.1117 66.9282C55.5946 70.1566 54.8702 73.7769 52.5475 76.1598C52.3963 76.311 52.2459 76.4615 52.0947 76.6127C49.5906 78.8752 46.1207 79.0866 42.8322 79.1468H33.4493C31.3071 79.1468 29.5575 77.3972 29.5575 75.255C29.5575 73.1127 31.3071 71.3631 33.4493 71.3631H43.5565C44.733 71.3631 45.7289 70.3981 45.6988 69.2209C45.6988 68.6477 45.4874 68.1648 45.0655 67.7729C44.6126 67.3502 43.9492 67.381 43.376 67.3502C39.424 67.1087 35.1395 67.5014 32.1225 64.4542C32.0322 64.364 31.9111 64.2429 31.8209 64.1526C27.9892 59.899 28.925 50.5463 35.1095 48.8869C36.7387 48.4642 38.4281 48.4341 39.9671 47.9219C40.0273 47.952 40.0875 47.982 40.1484 48.0121C40.2086 48.0422 40.2687 48.0723 40.2996 48.1024C40.3598 48.1325 40.3899 48.1625 40.4508 48.1926C40.5411 48.2227 40.6321 48.2829 40.7224 48.313C40.7825 48.343 40.8427 48.3731 40.9037 48.3731C40.9939 48.4032 41.0549 48.4333 41.1451 48.4634C41.2053 48.4935 41.2655 48.5235 41.3565 48.5536C41.4167 48.5837 41.5077 48.6138 41.598 48.6439C41.6882 48.674 41.7492 48.704 41.8394 48.7341C42.0207 48.7943 42.2012 48.8545 42.4126 48.9154C42.5329 48.9455 42.654 48.9756 42.7443 49.0057C42.8045 49.0057 42.8345 49.0358 42.8955 49.0358C42.9857 49.0658 43.0768 49.0959 43.167 49.0959C43.3483 49.1561 43.5288 49.1862 43.7101 49.2471C43.9215 49.3073 44.163 49.3675 44.4044 49.3983C46.4865 49.8512 49.2621 50.3333 52.7612 50.8162V54.708C52.4897 54.8284 52.2182 54.8893 51.9165 54.8893H39.3354C38.4606 54.9796 37.8573 55.6739 37.5557 56.4885C37.5256 56.6088 37.4655 56.73 37.4354 56.8503C37.1939 57.8153 37.224 58.9625 37.5866 59.9275C37.6167 59.9877 37.6467 60.0787 37.6768 60.1389C37.7069 60.199 37.737 60.2592 37.7671 60.3202C37.7972 60.4104 37.8573 60.4714 37.9183 60.5616C37.9484 60.5917 37.9484 60.6218 37.9785 60.6519C38.0085 60.682 38.0085 60.712 38.0386 60.7421C38.0988 60.8324 38.159 60.8933 38.2199 60.9535C38.25 60.9836 38.3102 61.0437 38.3402 61.1047C38.4004 61.1649 38.4915 61.2559 38.5516 61.3161C38.6118 61.3462 38.6419 61.4063 38.672 61.4364C38.7622 61.4966 38.8532 61.5568 38.9435 61.6177C38.9736 61.6478 39.0337 61.6779 39.0638 61.708C39.215 61.7982 39.3354 61.8592 39.4866 61.9193C40.5727 62.3722 41.7792 62.4323 42.9565 62.6136C44.2239 62.7949 45.5207 62.8551 46.7881 62.8551C48.2361 62.8551 49.684 62.7949 51.1328 62.5835C51.9775 62.4632 53.0336 62.2819 53.9084 61.9201C54.5116 61.7088 54.9945 61.5282 55.236 61.377C55.3872 61.2868 55.5376 61.1957 55.6587 61.1055C56.353 60.6226 56.8953 59.9592 57.3181 59.2047C57.4083 59.0535 57.4693 58.9031 57.5595 58.7519C57.8912 58.0275 58.1327 57.2437 58.2839 56.4893C58.3441 56.2478 58.3742 56.0064 58.4042 55.795C58.4343 55.6747 58.4644 55.5535 58.4945 55.4633V55.4332C58.5246 55.3129 58.5847 55.1918 58.5847 55.1015C58.5246 55.4633 58.5547 55.9462 58.4945 56.4291L58.4897 56.4299Z" fill="#203B72"/>
<path d="M39.9956 47.8918C40.9005 48.4048 42.1379 48.8569 43.6761 49.2195C42.107 48.8577 40.9005 48.4048 39.9956 47.8918Z" fill="white"/>
<path d="M38.3064 61.0462C38.2763 61.0161 38.2161 60.956 38.186 60.895C38.2161 60.9552 38.2462 61.0154 38.3064 61.0462Z" fill="white"/>
<path d="M38.0046 60.7144C37.9745 60.6543 37.9444 60.6242 37.8843 60.5632C37.9144 60.5933 37.9144 60.6234 37.9444 60.6535C37.9444 60.6535 37.9745 60.6836 38.0046 60.7136V60.7144Z" fill="white"/>
<path d="M37.6729 60.1414C37.7029 60.2015 37.733 60.2617 37.7631 60.2926C37.733 60.2324 37.7029 60.2023 37.6729 60.1414Z" fill="white"/>
<path d="M51.7922 45.9611C51.5508 45.9009 51.3093 45.8407 51.0679 45.7798C51.3093 45.84 51.5508 45.9001 51.7922 45.9611Z" fill="white"/>
</svg>
