<svg width="25" height="24" viewBox="0 0 25 24" fill="none" xmlns="http://www.w3.org/2000/svg">
<g clip-path="url(#clip0_125_42431)">
<path d="M24.9014 12C24.9014 5.3726 19.5288 2.67029e-05 12.9014 2.67029e-05C6.27395 2.67029e-05 0.901367 5.3726 0.901367 12C0.901367 17.9896 5.28959 22.954 11.0264 23.8542V15.4688H7.97949V12H11.0264V9.35628C11.0264 6.34878 12.8179 4.68753 15.5589 4.68753C16.8718 4.68753 18.2451 4.9219 18.2451 4.9219V7.87503H16.7319C15.2413 7.87503 14.7764 8.80003 14.7764 9.74902V12H18.1045L17.5725 15.4688H14.7764V23.8542C20.5131 22.954 24.9014 17.9896 24.9014 12Z" fill="#003540"/>
<path d="M17.5725 15.4688L18.1045 12H14.7764V9.74899C14.7764 8.80001 15.2413 7.875 16.7319 7.875H18.2451V4.92188C18.2451 4.92188 16.8718 4.6875 15.5589 4.6875C12.8179 4.6875 11.0264 6.34875 11.0264 9.35625V12H7.97949V15.4688H11.0264V23.8542C11.6373 23.9501 12.2635 24 12.9014 24C13.5392 24 14.1654 23.9501 14.7764 23.8542V15.4688H17.5725Z" fill="white"/>
</g>
<defs>
<clipPath id="clip0_125_42431">
<rect width="24" height="24" fill="white" transform="translate(0.901367)"/>
</clipPath>
</defs>
</svg>
