<svg width="429" height="281" viewBox="0 0 429 281" fill="none" xmlns="http://www.w3.org/2000/svg">
<path d="M278.949 0.151687C278.654 -0.109938 278.331 0.0208749 278.014 0.143338C277.766 0.237969 277.51 0.310334 277.265 0.404964C269.92 3.24666 262.689 6.35834 255.598 9.79009C245.876 14.4938 236.466 19.7569 227.348 25.5405C224.896 27.0963 222.521 28.7719 220.111 30.3945C218.578 31.3074 216.986 32.1424 215.527 33.1638C214.428 33.932 213.643 33.8485 212.552 33.0831C195.081 20.8479 176.42 10.7614 156.834 2.35602C154.947 1.5461 153.026 0.830801 151.014 0.399397C149.339 0.0375739 149.266 0.126637 149.817 1.78545C155.016 17.4329 158.66 33.4394 160.806 49.7826C162.139 59.9332 162.812 70.1366 162.985 80.3678C163.002 81.3809 163.358 82.0127 164.198 82.5554C166.815 84.2393 169.414 85.9538 171.975 87.7184C180.881 93.8499 189.273 100.627 197.194 107.989C202.755 113.155 208.007 118.618 213.042 124.299C213.988 125.367 214.639 125.406 215.502 124.396C219.552 119.648 224.169 115.462 228.645 111.139C233.666 106.291 238.52 101.267 244.211 97.1452C248.28 94.1978 252.163 90.9859 256.129 87.8937C256.252 87.8492 256.391 87.8269 256.497 87.7573C259.249 85.9816 262.002 84.2087 264.746 82.419C265.5 81.9264 265.809 81.1582 265.815 80.2871C265.84 75.4247 266.102 70.5735 266.411 65.7223C266.669 61.6671 267.028 57.6203 267.49 53.5873C268.275 46.7656 269.297 39.9772 270.619 33.239C272.503 23.6368 274.671 14.1041 277.794 4.81364C278.206 3.59179 278.657 2.38107 279.083 1.16479C279.208 0.808535 279.272 0.438362 278.949 0.151687Z" fill="url(#paint0_linear_515_12903)"/>
<mask id="mask0_515_12903" style="mask-type:luminance" maskUnits="userSpaceOnUse" x="149" y="0" width="131" height="126">
<path d="M278.947 0.151687C278.652 -0.109938 278.329 0.0208749 278.012 0.143338C277.764 0.237969 277.508 0.310334 277.263 0.404964C269.918 3.24666 262.687 6.35834 255.596 9.79009C245.874 14.4938 236.464 19.7569 227.346 25.5405C224.894 27.0963 222.519 28.7719 220.109 30.3945C218.576 31.3074 216.984 32.1424 215.525 33.1638C214.426 33.932 213.641 33.8485 212.55 33.0831C195.079 20.8479 176.418 10.7614 156.832 2.35602C154.945 1.5461 153.024 0.830801 151.012 0.399397C149.337 0.0375739 149.264 0.126637 149.815 1.78545C155.014 17.4329 158.658 33.4394 160.804 49.7826C162.137 59.9332 162.81 70.1366 162.983 80.3678C163 81.3809 163.356 82.0127 164.196 82.5554C166.813 84.2393 169.412 85.9538 171.973 87.7184C180.879 93.8499 189.271 100.627 197.192 107.989C202.753 113.155 208.005 118.618 213.04 124.299C213.986 125.367 214.637 125.406 215.5 124.396C219.55 119.648 224.167 115.462 228.643 111.139C233.664 106.291 238.518 101.267 244.209 97.1452C248.278 94.1978 252.161 90.9859 256.127 87.8937C256.25 87.8492 256.389 87.8269 256.495 87.7573C259.247 85.9816 262 84.2087 264.744 82.419C265.498 81.9264 265.807 81.1582 265.813 80.2871C265.838 75.4247 266.1 70.5735 266.409 65.7223C266.667 61.6671 267.026 57.6203 267.488 53.5873C268.273 46.7656 269.295 39.9772 270.617 33.239C272.501 23.6368 274.669 14.1041 277.792 4.81364C278.204 3.59179 278.655 2.38107 279.081 1.16479C279.206 0.808535 279.27 0.438362 278.947 0.151687Z" fill="white"/>
</mask>
<g mask="url(#mask0_515_12903)">
<path d="M281.52 -2.02295C281.52 -2.02295 257.827 2.49704 158.645 73.9292L157.771 85.2125C157.771 85.2125 214.113 124.584 214.113 126.043C214.113 127.501 268.228 82.4348 268.228 82.4348L281.52 -2.02017V-2.02295Z" fill="url(#paint1_linear_515_12903)"/>
<path fill-rule="evenodd" clip-rule="evenodd" d="M315.604 178.641C270.836 164.402 225.577 148.81 182.879 133.115C148.64 120.549 143.549 81.9786 173.358 60.9595C230.234 20.8167 292.893 -20.8013 352.332 -56.3351C405.367 -88.0781 448.045 -49.0541 424.861 18.2254C420.313 31.4348 413.817 45.4902 405.829 59.977L405.743 60.105C383.271 100.779 349.357 143.783 315.602 178.641H315.604Z" fill="url(#paint2_linear_515_12903)"/>
<path fill-rule="evenodd" clip-rule="evenodd" d="M205.851 105.342C192.071 120.474 196.405 139.228 215.331 145.924C204.189 141.972 193.151 138.009 182.313 134.017C148.073 121.451 142.983 82.8808 172.791 61.8616C177.423 58.6609 182.135 55.3266 186.752 52.0089C217.438 30.6363 245.237 54.5417 221.88 86.9666C217.003 93.7382 210.886 99.7306 205.854 105.344L205.851 105.342Z" fill="url(#paint3_linear_515_12903)"/>
<path fill-rule="evenodd" clip-rule="evenodd" d="M277.174 72.1431C276.078 26.3335 224.888 26.726 184.214 53.6567C187.718 51.3104 191.208 48.8473 194.712 46.4982C205.834 39.3731 221.228 31.8054 236.681 28.5852C282.752 19.0887 301.097 54.9648 290.545 101.607C284.414 128.573 270.314 156.125 254.204 179.343C247.622 177.147 241.145 174.94 234.669 172.73C253.227 149.306 277.895 105.754 277.172 72.1459L277.174 72.1431Z" fill="url(#paint4_linear_515_12903)"/>
</g>
<path d="M162.403 127.567H178.732L191.638 159.544H180.903L178.24 152.616H162.86L160.196 159.544H149.5L162.406 127.567H162.403ZM175.384 145.229L171.691 135.713H169.406L165.712 145.229H175.381H175.384Z" fill="#00555C"/>
<path d="M198.912 127.567L203.975 149.493H204.621L209.341 127.567H223.577L228.298 149.493H228.946L234.009 127.567H244.705L235.799 159.544H221.944L216.92 137.617H216.007L210.983 159.544H197.128L188.222 127.567H198.918H198.912Z" fill="#00555C"/>
<path d="M262.256 127.11C272.838 127.11 278.664 131.068 278.664 138.341H268.46C268.46 135.713 265.719 134.419 261.8 134.419C257.881 134.419 255.975 135.638 255.975 137.428C255.975 139.371 258.638 139.749 261.8 139.977C269.148 140.548 279.195 140.359 279.195 148.809C279.195 156.307 273.37 160 262.599 160C251.293 160 245.468 155.928 245.468 148.619H255.707C255.707 151.322 258.257 152.691 263.244 152.691C267.202 152.691 269.07 151.815 269.07 150.064C269.07 147.743 265.833 147.4 261.647 147.133C254.986 146.716 245.888 146.487 245.888 137.539C245.888 130.915 251.864 127.11 262.256 127.11Z" fill="#00555C"/>
<path d="M172.049 182V167.684H174.9L178.289 177.82C178.602 178.764 178.829 179.471 178.973 179.939C179.135 179.419 179.389 178.654 179.734 177.645L183.162 167.684H185.711V182H183.885V170.018L179.725 182H178.016L173.875 169.812V182H172.049ZM195.311 180.721C194.66 181.274 194.031 181.665 193.426 181.893C192.827 182.12 192.182 182.234 191.492 182.234C190.353 182.234 189.477 181.958 188.865 181.404C188.253 180.844 187.947 180.132 187.947 179.266C187.947 178.758 188.061 178.296 188.289 177.879C188.523 177.456 188.826 177.117 189.197 176.863C189.575 176.609 189.998 176.417 190.467 176.287C190.812 176.196 191.333 176.108 192.029 176.023C193.449 175.854 194.493 175.652 195.164 175.418C195.171 175.177 195.174 175.024 195.174 174.959C195.174 174.243 195.008 173.738 194.676 173.445C194.227 173.048 193.559 172.85 192.674 172.85C191.847 172.85 191.235 172.996 190.838 173.289C190.447 173.576 190.158 174.087 189.969 174.822L188.25 174.588C188.406 173.852 188.663 173.26 189.021 172.811C189.38 172.355 189.897 172.007 190.574 171.766C191.251 171.518 192.036 171.395 192.928 171.395C193.813 171.395 194.533 171.499 195.086 171.707C195.639 171.915 196.046 172.179 196.307 172.498C196.567 172.811 196.749 173.208 196.854 173.689C196.912 173.989 196.941 174.529 196.941 175.311V177.654C196.941 179.288 196.977 180.324 197.049 180.76C197.127 181.189 197.277 181.603 197.498 182H195.662C195.48 181.635 195.363 181.209 195.311 180.721ZM195.164 176.795C194.526 177.055 193.569 177.277 192.293 177.459C191.57 177.563 191.059 177.68 190.76 177.811C190.46 177.941 190.229 178.133 190.066 178.387C189.904 178.634 189.822 178.911 189.822 179.217C189.822 179.686 189.998 180.076 190.35 180.389C190.708 180.701 191.229 180.857 191.912 180.857C192.589 180.857 193.191 180.711 193.719 180.418C194.246 180.118 194.633 179.712 194.881 179.197C195.07 178.8 195.164 178.214 195.164 177.439V176.795ZM199.656 182V171.629H201.238V173.201C201.642 172.465 202.013 171.98 202.352 171.746C202.697 171.512 203.074 171.395 203.484 171.395C204.077 171.395 204.679 171.583 205.291 171.961L204.686 173.592C204.256 173.338 203.826 173.211 203.396 173.211C203.012 173.211 202.667 173.328 202.361 173.562C202.055 173.79 201.837 174.109 201.707 174.52C201.512 175.145 201.414 175.828 201.414 176.57V182H199.656ZM206.346 182V167.684H208.104V175.848L212.264 171.629H214.539L210.574 175.477L214.939 182H212.771L209.344 176.697L208.104 177.889V182H206.346ZM223.436 178.66L225.252 178.885C224.965 179.946 224.435 180.77 223.66 181.355C222.885 181.941 221.896 182.234 220.691 182.234C219.174 182.234 217.97 181.769 217.078 180.838C216.193 179.9 215.75 178.589 215.75 176.902C215.75 175.158 216.199 173.803 217.098 172.84C217.996 171.876 219.161 171.395 220.594 171.395C221.98 171.395 223.113 171.867 223.992 172.811C224.871 173.755 225.311 175.083 225.311 176.795C225.311 176.899 225.307 177.055 225.301 177.264H217.566C217.632 178.403 217.954 179.275 218.533 179.881C219.113 180.486 219.835 180.789 220.701 180.789C221.346 180.789 221.896 180.62 222.352 180.281C222.807 179.943 223.169 179.402 223.436 178.66ZM217.664 175.818H223.455C223.377 174.946 223.156 174.292 222.791 173.855C222.231 173.178 221.505 172.84 220.613 172.84C219.806 172.84 219.126 173.11 218.572 173.65C218.025 174.191 217.723 174.913 217.664 175.818ZM231.307 180.428L231.561 181.98C231.066 182.085 230.623 182.137 230.232 182.137C229.594 182.137 229.1 182.036 228.748 181.834C228.396 181.632 228.149 181.368 228.006 181.043C227.863 180.711 227.791 180.018 227.791 178.963V172.996H226.502V171.629H227.791V169.061L229.539 168.006V171.629H231.307V172.996H229.539V179.061C229.539 179.562 229.568 179.884 229.627 180.027C229.692 180.171 229.793 180.285 229.93 180.369C230.073 180.454 230.275 180.496 230.535 180.496C230.73 180.496 230.988 180.473 231.307 180.428ZM233.045 169.705V167.684H234.803V169.705H233.045ZM233.045 182V171.629H234.803V182H233.045ZM237.488 182V171.629H239.07V173.104C239.832 171.964 240.932 171.395 242.371 171.395C242.996 171.395 243.569 171.508 244.09 171.736C244.617 171.958 245.011 172.251 245.271 172.615C245.532 172.98 245.714 173.413 245.818 173.914C245.883 174.24 245.916 174.809 245.916 175.623V182H244.158V175.691C244.158 174.975 244.09 174.441 243.953 174.09C243.816 173.732 243.572 173.449 243.221 173.24C242.876 173.025 242.469 172.918 242 172.918C241.251 172.918 240.604 173.156 240.057 173.631C239.516 174.106 239.246 175.008 239.246 176.336V182H237.488ZM248.299 182.859L250.008 183.113C250.079 183.641 250.278 184.025 250.604 184.266C251.04 184.591 251.635 184.754 252.391 184.754C253.204 184.754 253.833 184.591 254.275 184.266C254.718 183.94 255.018 183.484 255.174 182.898C255.265 182.54 255.307 181.788 255.301 180.643C254.533 181.548 253.576 182 252.43 182C251.004 182 249.9 181.486 249.119 180.457C248.338 179.428 247.947 178.195 247.947 176.756C247.947 175.766 248.126 174.855 248.484 174.021C248.842 173.182 249.36 172.534 250.037 172.078C250.721 171.622 251.521 171.395 252.439 171.395C253.663 171.395 254.673 171.889 255.467 172.879V171.629H257.088V180.594C257.088 182.208 256.922 183.351 256.59 184.021C256.264 184.699 255.743 185.232 255.027 185.623C254.318 186.014 253.442 186.209 252.4 186.209C251.163 186.209 250.164 185.929 249.402 185.369C248.641 184.816 248.273 183.979 248.299 182.859ZM249.754 176.629C249.754 177.99 250.024 178.982 250.564 179.607C251.105 180.232 251.782 180.545 252.596 180.545C253.403 180.545 254.08 180.236 254.627 179.617C255.174 178.992 255.447 178.016 255.447 176.688C255.447 175.418 255.164 174.461 254.598 173.816C254.038 173.172 253.361 172.85 252.566 172.85C251.785 172.85 251.121 173.169 250.574 173.807C250.027 174.438 249.754 175.379 249.754 176.629Z" fill="#58595B"/>
<path d="M13.1091 234V211.6H23.2851C25.7171 211.6 27.8611 212.069 29.7171 213.008C31.5731 213.925 33.0238 215.216 34.0691 216.88C35.1145 218.544 35.6371 220.517 35.6371 222.8C35.6371 225.061 35.1145 227.035 34.0691 228.72C33.0238 230.384 31.5731 231.685 29.7171 232.624C27.8611 233.541 25.7171 234 23.2851 234H13.1091ZM18.2931 229.744H23.0291C24.5225 229.744 25.8131 229.467 26.9011 228.912C28.0105 228.336 28.8638 227.525 29.4611 226.48C30.0798 225.435 30.3891 224.208 30.3891 222.8C30.3891 221.371 30.0798 220.144 29.4611 219.12C28.8638 218.075 28.0105 217.275 26.9011 216.72C25.8131 216.144 24.5225 215.856 23.0291 215.856H18.2931V229.744ZM39.1946 234V216.784H43.9626V221.648L43.2906 220.24C43.8026 219.024 44.624 218.107 45.7546 217.488C46.8853 216.848 48.2613 216.528 49.8826 216.528V221.136C49.6693 221.115 49.4773 221.104 49.3066 221.104C49.136 221.083 48.9546 221.072 48.7626 221.072C47.3973 221.072 46.288 221.467 45.4346 222.256C44.6026 223.024 44.1866 224.229 44.1866 225.872V234H39.1946ZM52.8821 234V216.784H57.8741V234H52.8821ZM55.3781 214.384C54.4608 214.384 53.7141 214.117 53.1381 213.584C52.5621 213.051 52.2741 212.389 52.2741 211.6C52.2741 210.811 52.5621 210.149 53.1381 209.616C53.7141 209.083 54.4608 208.816 55.3781 208.816C56.2955 208.816 57.0421 209.072 57.6181 209.584C58.1941 210.075 58.4821 210.715 58.4821 211.504C58.4821 212.336 58.1941 213.029 57.6181 213.584C57.0635 214.117 56.3168 214.384 55.3781 214.384ZM67.1791 234L59.9471 216.784H65.0991L71.1151 231.6H68.5551L74.7951 216.784H79.5951L72.3311 234H67.1791ZM89.7074 234.256C87.7447 234.256 86.0167 233.872 84.5234 233.104C83.0514 232.336 81.91 231.291 81.0994 229.968C80.2887 228.624 79.8834 227.099 79.8834 225.392C79.8834 223.664 80.278 222.139 81.0674 220.816C81.878 219.472 82.9767 218.427 84.3634 217.68C85.75 216.912 87.318 216.528 89.0674 216.528C90.7527 216.528 92.2674 216.891 93.6114 217.616C94.9767 218.32 96.054 219.344 96.8434 220.688C97.6327 222.011 98.0274 223.6 98.0274 225.456C98.0274 225.648 98.0167 225.872 97.9954 226.128C97.974 226.363 97.9527 226.587 97.9314 226.8H83.9474V223.888H95.3074L93.3874 224.752C93.3874 223.856 93.206 223.077 92.8434 222.416C92.4807 221.755 91.9794 221.243 91.3394 220.88C90.6994 220.496 89.9527 220.304 89.0994 220.304C88.246 220.304 87.4887 220.496 86.8274 220.88C86.1874 221.243 85.686 221.765 85.3234 222.448C84.9607 223.109 84.7794 223.899 84.7794 224.816V225.584C84.7794 226.523 84.982 227.355 85.3874 228.08C85.814 228.784 86.4007 229.328 87.1474 229.712C87.9154 230.075 88.8114 230.256 89.8354 230.256C90.7527 230.256 91.5527 230.117 92.2354 229.84C92.9394 229.563 93.5794 229.147 94.1554 228.592L96.8114 231.472C96.022 232.368 95.03 233.061 93.8354 233.552C92.6407 234.021 91.2647 234.256 89.7074 234.256ZM110.765 234V211.6H120.461C122.467 211.6 124.195 211.931 125.645 212.592C127.096 213.232 128.216 214.16 129.005 215.376C129.795 216.592 130.189 218.043 130.189 219.728C130.189 221.392 129.795 222.832 129.005 224.048C128.216 225.243 127.096 226.16 125.645 226.8C124.195 227.44 122.467 227.76 120.461 227.76H113.645L115.949 225.488V234H110.765ZM125.005 234L119.405 225.872H124.941L130.605 234H125.005ZM115.949 226.064L113.645 223.632H120.173C121.773 223.632 122.968 223.291 123.757 222.608C124.547 221.904 124.941 220.944 124.941 219.728C124.941 218.491 124.547 217.531 123.757 216.848C122.968 216.165 121.773 215.824 120.173 215.824H113.645L115.949 213.36V226.064ZM142.489 234.256C140.526 234.256 138.798 233.872 137.305 233.104C135.833 232.336 134.691 231.291 133.881 229.968C133.07 228.624 132.665 227.099 132.665 225.392C132.665 223.664 133.059 222.139 133.849 220.816C134.659 219.472 135.758 218.427 137.145 217.68C138.531 216.912 140.099 216.528 141.849 216.528C143.534 216.528 145.049 216.891 146.393 217.616C147.758 218.32 148.835 219.344 149.625 220.688C150.414 222.011 150.809 223.6 150.809 225.456C150.809 225.648 150.798 225.872 150.777 226.128C150.755 226.363 150.734 226.587 150.713 226.8H136.729V223.888H148.089L146.169 224.752C146.169 223.856 145.987 223.077 145.625 222.416C145.262 221.755 144.761 221.243 144.121 220.88C143.481 220.496 142.734 220.304 141.881 220.304C141.027 220.304 140.27 220.496 139.609 220.88C138.969 221.243 138.467 221.765 138.105 222.448C137.742 223.109 137.561 223.899 137.561 224.816V225.584C137.561 226.523 137.763 227.355 138.169 228.08C138.595 228.784 139.182 229.328 139.929 229.712C140.697 230.075 141.593 230.256 142.617 230.256C143.534 230.256 144.334 230.117 145.017 229.84C145.721 229.563 146.361 229.147 146.937 228.592L149.593 231.472C148.803 232.368 147.811 233.061 146.617 233.552C145.422 234.021 144.046 234.256 142.489 234.256ZM159.924 234.256C158.452 234.256 157.033 234.085 155.668 233.744C154.324 233.381 153.257 232.933 152.468 232.4L154.132 228.816C154.921 229.307 155.849 229.712 156.916 230.032C158.004 230.331 159.071 230.48 160.116 230.48C161.268 230.48 162.079 230.341 162.548 230.064C163.039 229.787 163.284 229.403 163.284 228.912C163.284 228.507 163.092 228.208 162.708 228.016C162.345 227.803 161.855 227.643 161.236 227.536C160.617 227.429 159.935 227.323 159.188 227.216C158.463 227.109 157.727 226.971 156.98 226.8C156.233 226.608 155.551 226.331 154.932 225.968C154.313 225.605 153.812 225.115 153.428 224.496C153.065 223.877 152.884 223.077 152.884 222.096C152.884 221.008 153.193 220.048 153.812 219.216C154.452 218.384 155.369 217.733 156.564 217.264C157.759 216.773 159.188 216.528 160.852 216.528C162.025 216.528 163.22 216.656 164.436 216.912C165.652 217.168 166.665 217.541 167.476 218.032L165.812 221.584C164.98 221.093 164.137 220.763 163.284 220.592C162.452 220.4 161.641 220.304 160.852 220.304C159.743 220.304 158.932 220.453 158.42 220.752C157.908 221.051 157.652 221.435 157.652 221.904C157.652 222.331 157.833 222.651 158.196 222.864C158.58 223.077 159.081 223.248 159.7 223.376C160.319 223.504 160.991 223.621 161.716 223.728C162.463 223.813 163.209 223.952 163.956 224.144C164.703 224.336 165.375 224.613 165.972 224.976C166.591 225.317 167.092 225.797 167.476 226.416C167.86 227.013 168.052 227.803 168.052 228.784C168.052 229.851 167.732 230.8 167.092 231.632C166.452 232.443 165.524 233.083 164.308 233.552C163.113 234.021 161.652 234.256 159.924 234.256ZM178.396 234.256C176.967 234.256 175.687 233.979 174.556 233.424C173.447 232.869 172.583 232.027 171.964 230.896C171.345 229.744 171.036 228.283 171.036 226.512V216.784H176.028V225.776C176.028 227.205 176.327 228.261 176.924 228.944C177.543 229.605 178.407 229.936 179.516 229.936C180.284 229.936 180.967 229.776 181.564 229.456C182.161 229.115 182.631 228.603 182.972 227.92C183.313 227.216 183.484 226.341 183.484 225.296V216.784H188.476V234H183.74V229.264L184.604 230.64C184.028 231.835 183.175 232.741 182.044 233.36C180.935 233.957 179.719 234.256 178.396 234.256ZM193.101 234V210.256H198.093V234H193.101ZM211.047 234.256C209.02 234.256 207.442 233.744 206.311 232.72C205.18 231.675 204.615 230.128 204.615 228.08V212.976H209.607V228.016C209.607 228.741 209.799 229.307 210.183 229.712C210.567 230.096 211.09 230.288 211.751 230.288C212.54 230.288 213.212 230.075 213.767 229.648L215.111 233.168C214.599 233.531 213.98 233.808 213.255 234C212.551 234.171 211.815 234.256 211.047 234.256ZM201.959 221.008V217.168H213.895V221.008H201.959ZM223.705 234.256C222.233 234.256 220.815 234.085 219.449 233.744C218.105 233.381 217.039 232.933 216.249 232.4L217.913 228.816C218.703 229.307 219.631 229.712 220.697 230.032C221.785 230.331 222.852 230.48 223.897 230.48C225.049 230.48 225.86 230.341 226.329 230.064C226.82 229.787 227.065 229.403 227.065 228.912C227.065 228.507 226.873 228.208 226.489 228.016C226.127 227.803 225.636 227.643 225.017 227.536C224.399 227.429 223.716 227.323 222.969 227.216C222.244 227.109 221.508 226.971 220.761 226.8C220.015 226.608 219.332 226.331 218.713 225.968C218.095 225.605 217.593 225.115 217.209 224.496C216.847 223.877 216.665 223.077 216.665 222.096C216.665 221.008 216.975 220.048 217.593 219.216C218.233 218.384 219.151 217.733 220.345 217.264C221.54 216.773 222.969 216.528 224.633 216.528C225.807 216.528 227.001 216.656 228.217 216.912C229.433 217.168 230.447 217.541 231.257 218.032L229.593 221.584C228.761 221.093 227.919 220.763 227.065 220.592C226.233 220.4 225.423 220.304 224.633 220.304C223.524 220.304 222.713 220.453 222.201 220.752C221.689 221.051 221.433 221.435 221.433 221.904C221.433 222.331 221.615 222.651 221.977 222.864C222.361 223.077 222.863 223.248 223.481 223.376C224.1 223.504 224.772 223.621 225.497 223.728C226.244 223.813 226.991 223.952 227.737 224.144C228.484 224.336 229.156 224.613 229.753 224.976C230.372 225.317 230.873 225.797 231.257 226.416C231.641 227.013 231.833 227.803 231.833 228.784C231.833 229.851 231.513 230.8 230.873 231.632C230.233 232.443 229.305 233.083 228.089 233.552C226.895 234.021 225.433 234.256 223.705 234.256ZM247.912 234L241.704 216.784H246.408L251.56 231.6H249.32L254.696 216.784H258.92L264.136 231.6H261.896L267.208 216.784H271.624L265.384 234H260.552L255.976 221.296H257.448L252.712 234H247.912ZM273.945 234V216.784H278.937V234H273.945ZM276.441 214.384C275.523 214.384 274.777 214.117 274.201 213.584C273.625 213.051 273.337 212.389 273.337 211.6C273.337 210.811 273.625 210.149 274.201 209.616C274.777 209.083 275.523 208.816 276.441 208.816C277.358 208.816 278.105 209.072 278.681 209.584C279.257 210.075 279.545 210.715 279.545 211.504C279.545 212.336 279.257 213.029 278.681 213.584C278.126 214.117 277.379 214.384 276.441 214.384ZM290.61 234.256C288.583 234.256 287.004 233.744 285.874 232.72C284.743 231.675 284.178 230.128 284.178 228.08V212.976H289.17V228.016C289.17 228.741 289.362 229.307 289.746 229.712C290.13 230.096 290.652 230.288 291.314 230.288C292.103 230.288 292.775 230.075 293.33 229.648L294.674 233.168C294.162 233.531 293.543 233.808 292.818 234C292.114 234.171 291.378 234.256 290.61 234.256ZM281.522 221.008V217.168H293.458V221.008H281.522ZM307.94 216.528C309.305 216.528 310.521 216.805 311.588 217.36C312.676 217.893 313.529 218.725 314.148 219.856C314.767 220.965 315.076 222.395 315.076 224.144V234H310.084V224.912C310.084 223.525 309.775 222.501 309.156 221.84C308.559 221.179 307.705 220.848 306.596 220.848C305.807 220.848 305.092 221.019 304.452 221.36C303.833 221.68 303.343 222.181 302.98 222.864C302.639 223.547 302.468 224.421 302.468 225.488V234H297.476V210.256H302.468V221.552L301.348 220.112C301.967 218.96 302.852 218.075 304.004 217.456C305.156 216.837 306.468 216.528 307.94 216.528ZM329.015 234V211.6H339.191C341.623 211.6 343.767 212.069 345.623 213.008C347.479 213.925 348.93 215.216 349.975 216.88C351.021 218.544 351.543 220.517 351.543 222.8C351.543 225.061 351.021 227.035 349.975 228.72C348.93 230.384 347.479 231.685 345.623 232.624C343.767 233.541 341.623 234 339.191 234H329.015ZM334.199 229.744H338.935C340.429 229.744 341.719 229.467 342.807 228.912C343.917 228.336 344.77 227.525 345.367 226.48C345.986 225.435 346.295 224.208 346.295 222.8C346.295 221.371 345.986 220.144 345.367 219.12C344.77 218.075 343.917 217.275 342.807 216.72C341.719 216.144 340.429 215.856 338.935 215.856H334.199V229.744ZM365.661 234V230.64L365.341 229.904V223.888C365.341 222.821 365.01 221.989 364.349 221.392C363.709 220.795 362.717 220.496 361.373 220.496C360.456 220.496 359.549 220.645 358.653 220.944C357.778 221.221 357.032 221.605 356.413 222.096L354.621 218.608C355.56 217.947 356.69 217.435 358.013 217.072C359.336 216.709 360.68 216.528 362.045 216.528C364.669 216.528 366.706 217.147 368.157 218.384C369.608 219.621 370.333 221.552 370.333 224.176V234H365.661ZM360.413 234.256C359.069 234.256 357.917 234.032 356.957 233.584C355.997 233.115 355.261 232.485 354.749 231.696C354.237 230.907 353.981 230.021 353.981 229.04C353.981 228.016 354.226 227.12 354.717 226.352C355.229 225.584 356.029 224.987 357.117 224.56C358.205 224.112 359.624 223.888 361.373 223.888H365.949V226.8H361.917C360.744 226.8 359.933 226.992 359.485 227.376C359.058 227.76 358.845 228.24 358.845 228.816C358.845 229.456 359.09 229.968 359.581 230.352C360.093 230.715 360.786 230.896 361.661 230.896C362.493 230.896 363.24 230.704 363.901 230.32C364.562 229.915 365.042 229.328 365.341 228.56L366.109 230.864C365.746 231.973 365.085 232.816 364.125 233.392C363.165 233.968 361.928 234.256 360.413 234.256ZM381.891 234.256C379.864 234.256 378.286 233.744 377.155 232.72C376.024 231.675 375.459 230.128 375.459 228.08V212.976H380.451V228.016C380.451 228.741 380.643 229.307 381.027 229.712C381.411 230.096 381.934 230.288 382.595 230.288C383.384 230.288 384.056 230.075 384.611 229.648L385.955 233.168C385.443 233.531 384.824 233.808 384.099 234C383.395 234.171 382.659 234.256 381.891 234.256ZM372.803 221.008V217.168H384.739V221.008H372.803ZM399.317 234V230.64L398.997 229.904V223.888C398.997 222.821 398.666 221.989 398.005 221.392C397.365 220.795 396.373 220.496 395.029 220.496C394.112 220.496 393.205 220.645 392.309 220.944C391.434 221.221 390.688 221.605 390.069 222.096L388.277 218.608C389.216 217.947 390.346 217.435 391.669 217.072C392.992 216.709 394.336 216.528 395.701 216.528C398.325 216.528 400.362 217.147 401.813 218.384C403.264 219.621 403.989 221.552 403.989 224.176V234H399.317ZM394.069 234.256C392.725 234.256 391.573 234.032 390.613 233.584C389.653 233.115 388.917 232.485 388.405 231.696C387.893 230.907 387.637 230.021 387.637 229.04C387.637 228.016 387.882 227.12 388.373 226.352C388.885 225.584 389.685 224.987 390.773 224.56C391.861 224.112 393.28 223.888 395.029 223.888H399.605V226.8H395.573C394.4 226.8 393.589 226.992 393.141 227.376C392.714 227.76 392.501 228.24 392.501 228.816C392.501 229.456 392.746 229.968 393.237 230.352C393.749 230.715 394.442 230.896 395.317 230.896C396.149 230.896 396.896 230.704 397.557 230.32C398.218 229.915 398.698 229.328 398.997 228.56L399.765 230.864C399.402 231.973 398.741 232.816 397.781 233.392C396.821 233.968 395.584 234.256 394.069 234.256ZM407.867 226.992V222.992H416.923V226.992H407.867ZM70.8748 273V250.6H81.0508C83.4828 250.6 85.6268 251.069 87.4828 252.008C89.3388 252.925 90.7894 254.216 91.8348 255.88C92.8801 257.544 93.4028 259.517 93.4028 261.8C93.4028 264.061 92.8801 266.035 91.8348 267.72C90.7894 269.384 89.3388 270.685 87.4828 271.624C85.6268 272.541 83.4828 273 81.0508 273H70.8748ZM76.0588 268.744H80.7948C82.2881 268.744 83.5788 268.467 84.6667 267.912C85.7761 267.336 86.6294 266.525 87.2268 265.48C87.8454 264.435 88.1548 263.208 88.1548 261.8C88.1548 260.371 87.8454 259.144 87.2268 258.12C86.6294 257.075 85.7761 256.275 84.6667 255.72C83.5788 255.144 82.2881 254.856 80.7948 254.856H76.0588V268.744ZM96.9603 273V255.784H101.728V260.648L101.056 259.24C101.568 258.024 102.39 257.107 103.52 256.488C104.651 255.848 106.027 255.528 107.648 255.528V260.136C107.435 260.115 107.243 260.104 107.072 260.104C106.902 260.083 106.72 260.072 106.528 260.072C105.163 260.072 104.054 260.467 103.2 261.256C102.368 262.024 101.952 263.229 101.952 264.872V273H96.9603ZM110.648 273V255.784H115.64V273H110.648ZM113.144 253.384C112.226 253.384 111.48 253.117 110.904 252.584C110.328 252.051 110.04 251.389 110.04 250.6C110.04 249.811 110.328 249.149 110.904 248.616C111.48 248.083 112.226 247.816 113.144 247.816C114.061 247.816 114.808 248.072 115.384 248.584C115.96 249.075 116.248 249.715 116.248 250.504C116.248 251.336 115.96 252.029 115.384 252.584C114.829 253.117 114.082 253.384 113.144 253.384ZM124.945 273L117.713 255.784H122.865L128.881 270.6H126.321L132.561 255.784H137.361L130.097 273H124.945ZM147.473 273.256C145.51 273.256 143.782 272.872 142.289 272.104C140.817 271.336 139.676 270.291 138.865 268.968C138.054 267.624 137.649 266.099 137.649 264.392C137.649 262.664 138.044 261.139 138.833 259.816C139.644 258.472 140.742 257.427 142.129 256.68C143.516 255.912 145.084 255.528 146.833 255.528C148.518 255.528 150.033 255.891 151.377 256.616C152.742 257.32 153.82 258.344 154.609 259.688C155.398 261.011 155.793 262.6 155.793 264.456C155.793 264.648 155.782 264.872 155.761 265.128C155.74 265.363 155.718 265.587 155.697 265.8H141.713V262.888H153.073L151.153 263.752C151.153 262.856 150.972 262.077 150.609 261.416C150.246 260.755 149.745 260.243 149.105 259.88C148.465 259.496 147.718 259.304 146.865 259.304C146.012 259.304 145.254 259.496 144.593 259.88C143.953 260.243 143.452 260.765 143.089 261.448C142.726 262.109 142.545 262.899 142.545 263.816V264.584C142.545 265.523 142.748 266.355 143.153 267.08C143.58 267.784 144.166 268.328 144.913 268.712C145.681 269.075 146.577 269.256 147.601 269.256C148.518 269.256 149.318 269.117 150.001 268.84C150.705 268.563 151.345 268.147 151.921 267.592L154.577 270.472C153.788 271.368 152.796 272.061 151.601 272.552C150.406 273.021 149.03 273.256 147.473 273.256ZM169.581 255.528C170.946 255.528 172.162 255.805 173.229 256.36C174.317 256.893 175.17 257.725 175.789 258.856C176.407 259.965 176.717 261.395 176.717 263.144V273H171.725V263.912C171.725 262.525 171.415 261.501 170.797 260.84C170.199 260.179 169.346 259.848 168.237 259.848C167.447 259.848 166.733 260.019 166.093 260.36C165.474 260.68 164.983 261.181 164.621 261.864C164.279 262.547 164.109 263.421 164.109 264.488V273H159.117V255.784H163.885V260.552L162.989 259.112C163.607 257.96 164.493 257.075 165.645 256.456C166.797 255.837 168.109 255.528 169.581 255.528ZM190.656 273V250.6H194.944L204.48 266.408H202.208L211.584 250.6H215.84L215.904 273H211.04L211.008 258.056H211.904L204.416 270.632H202.08L194.432 258.056H195.52V273H190.656ZM231.427 273V269.64L231.107 268.904V262.888C231.107 261.821 230.776 260.989 230.115 260.392C229.475 259.795 228.483 259.496 227.139 259.496C226.221 259.496 225.315 259.645 224.419 259.944C223.544 260.221 222.797 260.605 222.179 261.096L220.387 257.608C221.325 256.947 222.456 256.435 223.779 256.072C225.101 255.709 226.445 255.528 227.811 255.528C230.435 255.528 232.472 256.147 233.923 257.384C235.373 258.621 236.099 260.552 236.099 263.176V273H231.427ZM226.179 273.256C224.835 273.256 223.683 273.032 222.723 272.584C221.763 272.115 221.027 271.485 220.515 270.696C220.003 269.907 219.747 269.021 219.747 268.04C219.747 267.016 219.992 266.12 220.483 265.352C220.995 264.584 221.795 263.987 222.883 263.56C223.971 263.112 225.389 262.888 227.139 262.888H231.715V265.8H227.683C226.509 265.8 225.699 265.992 225.251 266.376C224.824 266.76 224.611 267.24 224.611 267.816C224.611 268.456 224.856 268.968 225.347 269.352C225.859 269.715 226.552 269.896 227.427 269.896C228.259 269.896 229.005 269.704 229.667 269.32C230.328 268.915 230.808 268.328 231.107 267.56L231.875 269.864C231.512 270.973 230.851 271.816 229.891 272.392C228.931 272.968 227.693 273.256 226.179 273.256ZM240.617 273V255.784H245.385V260.648L244.713 259.24C245.225 258.024 246.046 257.107 247.177 256.488C248.307 255.848 249.683 255.528 251.305 255.528V260.136C251.091 260.115 250.899 260.104 250.729 260.104C250.558 260.083 250.377 260.072 250.185 260.072C248.819 260.072 247.71 260.467 246.857 261.256C246.025 262.024 245.609 263.229 245.609 264.872V273H240.617ZM258.432 269.48L258.56 263.4L266.592 255.784H272.544L264.832 263.624L262.24 265.736L258.432 269.48ZM254.304 273V249.256H259.296V273H254.304ZM267.136 273L261.312 265.768L264.448 261.896L273.184 273H267.136ZM283.254 273.256C281.292 273.256 279.564 272.872 278.07 272.104C276.598 271.336 275.457 270.291 274.646 268.968C273.836 267.624 273.43 266.099 273.43 264.392C273.43 262.664 273.825 261.139 274.614 259.816C275.425 258.472 276.524 257.427 277.91 256.68C279.297 255.912 280.865 255.528 282.614 255.528C284.3 255.528 285.814 255.891 287.158 256.616C288.524 257.32 289.601 258.344 290.39 259.688C291.18 261.011 291.574 262.6 291.574 264.456C291.574 264.648 291.564 264.872 291.542 265.128C291.521 265.363 291.5 265.587 291.478 265.8H277.494V262.888H288.854L286.934 263.752C286.934 262.856 286.753 262.077 286.39 261.416C286.028 260.755 285.526 260.243 284.886 259.88C284.246 259.496 283.5 259.304 282.646 259.304C281.793 259.304 281.036 259.496 280.374 259.88C279.734 260.243 279.233 260.765 278.87 261.448C278.508 262.109 278.326 262.899 278.326 263.816V264.584C278.326 265.523 278.529 266.355 278.934 267.08C279.361 267.784 279.948 268.328 280.694 268.712C281.462 269.075 282.358 269.256 283.382 269.256C284.3 269.256 285.1 269.117 285.782 268.84C286.486 268.563 287.126 268.147 287.702 267.592L290.358 270.472C289.569 271.368 288.577 272.061 287.382 272.552C286.188 273.021 284.812 273.256 283.254 273.256ZM301.938 273.256C299.911 273.256 298.332 272.744 297.202 271.72C296.071 270.675 295.506 269.128 295.506 267.08V251.976H300.498V267.016C300.498 267.741 300.69 268.307 301.074 268.712C301.458 269.096 301.98 269.288 302.642 269.288C303.431 269.288 304.103 269.075 304.658 268.648L306.002 272.168C305.49 272.531 304.871 272.808 304.146 273C303.442 273.171 302.706 273.256 301.938 273.256ZM292.85 260.008V256.168H304.786V260.008H292.85ZM308.804 273V255.784H313.796V273H308.804ZM311.3 253.384C310.383 253.384 309.636 253.117 309.06 252.584C308.484 252.051 308.196 251.389 308.196 250.6C308.196 249.811 308.484 249.149 309.06 248.616C309.636 248.083 310.383 247.816 311.3 247.816C312.217 247.816 312.964 248.072 313.54 248.584C314.116 249.075 314.404 249.715 314.404 250.504C314.404 251.336 314.116 252.029 313.54 252.584C312.985 253.117 312.239 253.384 311.3 253.384ZM328.893 255.528C330.258 255.528 331.474 255.805 332.541 256.36C333.629 256.893 334.482 257.725 335.101 258.856C335.72 259.965 336.029 261.395 336.029 263.144V273H331.037V263.912C331.037 262.525 330.728 261.501 330.109 260.84C329.512 260.179 328.658 259.848 327.549 259.848C326.76 259.848 326.045 260.019 325.405 260.36C324.786 260.68 324.296 261.181 323.933 261.864C323.592 262.547 323.421 263.421 323.421 264.488V273H318.429V255.784H323.197V260.552L322.301 259.112C322.92 257.96 323.805 257.075 324.957 256.456C326.109 255.837 327.421 255.528 328.893 255.528ZM348.775 279.464C347.154 279.464 345.586 279.261 344.071 278.856C342.578 278.472 341.33 277.885 340.327 277.096L342.311 273.512C343.036 274.109 343.954 274.579 345.063 274.92C346.194 275.283 347.303 275.464 348.391 275.464C350.162 275.464 351.442 275.069 352.231 274.28C353.042 273.491 353.447 272.317 353.447 270.76V268.168L353.767 263.848L353.703 259.496V255.784H358.439V270.12C358.439 273.32 357.607 275.677 355.943 277.192C354.279 278.707 351.89 279.464 348.775 279.464ZM348.007 272.168C346.407 272.168 344.956 271.827 343.655 271.144C342.375 270.44 341.34 269.469 340.551 268.232C339.783 266.973 339.399 265.512 339.399 263.848C339.399 262.163 339.783 260.701 340.551 259.464C341.34 258.205 342.375 257.235 343.655 256.552C344.956 255.869 346.407 255.528 348.007 255.528C349.458 255.528 350.738 255.827 351.847 256.424C352.956 257 353.82 257.907 354.439 259.144C355.058 260.36 355.367 261.928 355.367 263.848C355.367 265.747 355.058 267.315 354.439 268.552C353.82 269.768 352.956 270.675 351.847 271.272C350.738 271.869 349.458 272.168 348.007 272.168ZM348.999 268.072C349.874 268.072 350.652 267.901 351.335 267.56C352.018 267.197 352.551 266.696 352.935 266.056C353.319 265.416 353.511 264.68 353.511 263.848C353.511 262.995 353.319 262.259 352.935 261.64C352.551 261 352.018 260.509 351.335 260.168C350.652 259.805 349.874 259.624 348.999 259.624C348.124 259.624 347.346 259.805 346.663 260.168C345.98 260.509 345.436 261 345.031 261.64C344.647 262.259 344.455 262.995 344.455 263.848C344.455 264.68 344.647 265.416 345.031 266.056C345.436 266.696 345.98 267.197 346.663 267.56C347.346 267.901 348.124 268.072 348.999 268.072Z" fill="#19738C"/>
<defs>
<linearGradient id="paint0_linear_515_12903" x1="225.619" y1="45.7608" x2="144.167" y2="-41.4913" gradientUnits="userSpaceOnUse">
<stop offset="0.25" stop-color="#19738C"/>
<stop offset="0.69" stop-color="#75C8B7"/>
<stop offset="0.99" stop-color="#CDCCAE"/>
</linearGradient>
<linearGradient id="paint1_linear_515_12903" x1="318.371" y1="42.946" x2="105.789" y2="100.442" gradientUnits="userSpaceOnUse">
<stop stop-color="#753EB7"/>
<stop offset="0.34" stop-color="#2598B9"/>
<stop offset="0.69" stop-color="#5CE2C4"/>
<stop offset="0.99" stop-color="#FFFCD1"/>
</linearGradient>
<linearGradient id="paint2_linear_515_12903" x1="283.864" y1="-25.068" x2="312.612" y2="182.977" gradientUnits="userSpaceOnUse">
<stop offset="0.3" stop-color="#19738C"/>
<stop offset="0.69" stop-color="#75C8B7"/>
<stop offset="0.99" stop-color="#CDCCAE"/>
</linearGradient>
<linearGradient id="paint3_linear_515_12903" x1="141.513" y1="167.183" x2="275.669" y2="1.50406" gradientUnits="userSpaceOnUse">
<stop stop-color="#3041B8"/>
<stop offset="0.34" stop-color="#19738C"/>
<stop offset="0.69" stop-color="#75C8B7"/>
<stop offset="0.99" stop-color="#CDCCAE"/>
</linearGradient>
<linearGradient id="paint4_linear_515_12903" x1="193.273" y1="132.353" x2="331.211" y2="46.3618" gradientUnits="userSpaceOnUse">
<stop stop-color="#3041B8"/>
<stop offset="0.34" stop-color="#19738C"/>
<stop offset="0.69" stop-color="#75C8B7"/>
<stop offset="0.99" stop-color="#CDCCAE"/>
</linearGradient>
</defs>
</svg>
