<svg width="218" height="56" viewBox="0 0 218 56" fill="none" xmlns="http://www.w3.org/2000/svg">
<g clip-path="url(#clip0_167_179167)">
<path d="M22.1433 21.1476C22.1433 20.7526 22.0836 20.4181 21.9597 20.1532C21.8357 19.8883 21.6612 19.6699 21.4317 19.5073C21.2848 19.4097 21.0919 19.3446 20.867 19.3121C20.6374 19.2796 20.3619 19.261 20.036 19.261H2.6677V14.4051C4.88063 12.9692 7.05224 11.5565 9.17794 10.1625C11.3036 8.76844 13.4661 7.35579 15.6652 5.91992C15.8948 6.5333 16.1014 7.08163 16.2804 7.56026C16.4641 8.03888 16.6615 8.57327 16.8773 9.15877L8.53518 14.6095H21.675C22.2122 14.6095 22.6988 14.6281 23.1304 14.6606C23.5619 14.6932 23.9338 14.7443 24.2414 14.814C25.2148 14.9766 25.9034 15.4041 26.3166 16.0965C26.7298 16.7889 26.9318 17.8437 26.9318 19.261V28.1132H0.615479V23.4803L22.1341 23.4989V21.1476H22.1433Z" fill="#B20B43"/>
<path d="M36.9589 30.7766C36.9589 31.4736 36.913 32.0777 36.8165 32.5889C36.7201 33.1 36.5686 33.5368 36.362 33.8993C36.1508 34.2617 35.8846 34.5498 35.5632 34.7682C35.2372 34.9866 34.847 35.1493 34.3878 35.2608L34.4062 35.2422C34.0573 35.3119 33.6624 35.363 33.2217 35.3955C32.7809 35.4281 32.2805 35.4467 31.7112 35.4467H28.9795V30.8556H30.0309C30.8022 30.8556 31.298 30.8231 31.5276 30.7534L31.5092 30.7719C31.7388 30.7162 31.8994 30.5814 31.9959 30.363C32.0923 30.1446 32.1382 29.8101 32.1382 29.3593V13.9736H36.9543V30.7766H36.9589Z" fill="#B20B43"/>
<path d="M45.099 28.1137C44.493 28.1137 43.9558 28.0951 43.4921 28.0533C43.0284 28.0115 42.6244 27.9557 42.2893 27.8907H42.3076C41.8485 27.7792 41.4629 27.6119 41.1415 27.3888C40.8247 27.1611 40.5676 26.8683 40.3702 26.5059C40.1728 26.1434 40.0304 25.7066 39.9432 25.1955C39.856 24.6843 39.8101 24.0849 39.8101 23.4018V7.58398H44.6078V22.031C44.6078 22.8349 44.9108 23.3228 45.5168 23.4855H46.5912V28.1184H45.099V28.1137Z" fill="#B20B43"/>
<path d="M64.9786 23.4855H66.9436V28.1185H46.4993V23.4855H48.4V17.0915C48.4 15.6835 48.6066 14.6333 49.0198 13.9363C49.433 13.2393 50.1033 12.8118 51.0353 12.6445C51.3475 12.5748 51.7194 12.5237 52.1601 12.4911C52.6009 12.4586 53.1013 12.44 53.6706 12.44H59.7217C60.1946 12.44 60.6354 12.4586 61.0486 12.4911C61.4618 12.5237 61.8428 12.5748 62.1918 12.6445C63.188 12.8071 63.9043 13.23 64.3358 13.9131C64.7674 14.5962 64.9832 15.6556 64.9832 17.0869V23.4855H64.9786ZM55.7871 10.0237H50.971V6.00879H55.7871V10.0237ZM60.1809 18.5274C60.1809 18.1185 60.1074 17.7932 59.9559 17.5562C59.809 17.3192 59.5978 17.1426 59.3269 17.0357H54.4098C53.6018 17.1054 53.1931 17.6027 53.1931 18.532V22.0776C53.1931 22.3238 53.2023 22.5237 53.2253 22.6816C53.2482 22.8396 53.2804 22.9697 53.3355 23.0813C53.3906 23.1928 53.4686 23.2764 53.5696 23.3368C53.6706 23.3972 53.8084 23.4484 53.9828 23.4902H59.0652C59.5381 23.4344 59.8595 23.2672 60.0385 22.979C60.1349 22.7885 60.1809 22.4865 60.1809 22.0776V18.5274ZM62.5912 10.0237H57.7751V6.00879H62.5912V10.0237Z" fill="#B20B43"/>
<path d="M66.9207 28.1365V23.5454H68.8443V17.091C68.8443 14.5073 69.6524 13.0389 71.2731 12.6857C71.8929 12.5231 72.834 12.4395 74.0874 12.4395H85.4459V17.0305H74.4914C73.8992 17.235 73.6007 17.7322 73.6007 18.5268V23.5454H85.4413V28.1365H66.9207Z" fill="#B20B43"/>
<path d="M97.4287 28.2162C97.4287 27.5052 97.4746 26.8919 97.571 26.3714C97.6674 25.851 97.8144 25.4142 98.0164 25.061C98.2184 24.7078 98.4801 24.4244 98.8061 24.2106C99.132 23.9969 99.5223 23.8389 99.9814 23.7274V23.7459C100.33 23.6762 100.757 23.6251 101.258 23.5926C101.758 23.5601 102.35 23.5415 103.039 23.5415V17.087C103.039 14.5173 103.847 13.0489 105.468 12.6818C106.115 12.5192 107.061 12.4355 108.301 12.4355H120.182V23.5415H121.904V28.1326H104.334C103.944 28.1326 103.622 28.1372 103.374 28.1512C103.126 28.1651 102.952 28.1837 102.86 28.2116C102.644 28.2534 102.488 28.3881 102.396 28.6112C102.3 28.8389 102.254 29.1735 102.254 29.6242V35.3816H97.4333V28.2162H97.4287ZM107.795 23.5461H115.366V18.5275C115.366 17.7376 115.068 17.2357 114.476 17.0313H108.686C108.094 17.2357 107.795 17.7329 107.795 18.5275V23.5461Z" fill="#B20B43"/>
<path d="M130.163 0.0234375C130.31 0.255779 130.43 0.502074 130.517 0.762297C130.604 1.02252 130.682 1.28274 130.751 1.54296C130.806 1.84501 130.834 2.14241 130.834 2.44445C130.834 2.60709 130.824 2.76507 130.815 2.91377C130.774 3.37846 130.673 3.80132 130.512 4.18236C130.352 4.5634 130.127 4.87475 129.842 5.11638C129.557 5.35337 129.213 5.47418 128.809 5.47418C128.474 5.47418 128.217 5.41378 128.051 5.28831C127.882 5.1675 127.698 5.0095 127.496 4.81898C127.413 4.95374 127.312 5.11173 127.193 5.28831C127.074 5.46489 126.922 5.63683 126.748 5.79947C126.573 5.96211 126.362 6.10616 126.119 6.23162C125.875 6.35709 125.604 6.43144 125.311 6.45467C125.214 6.46862 125.127 6.47325 125.049 6.47325C124.7 6.47325 124.406 6.39891 124.177 6.24556C123.892 6.06898 123.685 5.82734 123.548 5.52994C123.414 5.2279 123.336 4.88868 123.323 4.503C123.309 4.39147 123.304 4.2846 123.304 4.17308C123.304 3.91285 123.323 3.66192 123.364 3.41564C123.405 3.06248 123.474 2.7372 123.566 2.44445C123.662 2.1517 123.754 1.93794 123.851 1.79853C123.851 1.81247 123.855 1.81712 123.869 1.81712C123.883 1.81712 123.91 1.80319 123.952 1.7753C124.02 1.71954 124.098 1.65914 124.186 1.58943C124.273 1.51973 124.351 1.45931 124.42 1.40355C124.461 1.38961 124.489 1.38497 124.502 1.38497C124.516 1.38497 124.521 1.38961 124.521 1.40355C124.411 1.67771 124.323 1.98905 124.259 2.34686C124.204 2.60708 124.177 2.85337 124.177 3.08572C124.177 3.1833 124.181 3.27623 124.195 3.37382C124.222 3.70374 124.314 3.97325 124.48 4.19165C124.613 4.39611 124.842 4.49835 125.168 4.49835H125.228C125.618 4.49835 125.921 4.38683 126.128 4.16842C126.339 3.95002 126.495 3.69445 126.605 3.4017C126.711 3.10895 126.798 2.80225 126.858 2.49091C126.917 2.17492 127.005 1.91935 127.11 1.71024C127.124 1.72418 127.138 1.72883 127.152 1.72883C127.165 1.72883 127.184 1.72418 127.211 1.71024C127.266 1.66842 127.326 1.61731 127.395 1.5569C127.464 1.49649 127.528 1.43608 127.597 1.38032C127.624 1.36638 127.643 1.36173 127.657 1.36173C127.684 1.36173 127.698 1.36638 127.698 1.38032C127.629 1.61266 127.597 1.84035 127.597 2.05876C127.597 2.20745 127.615 2.3515 127.657 2.49091C127.725 2.83477 127.854 3.1043 128.042 3.30876C128.23 3.51322 128.474 3.63869 128.772 3.67586H128.892C129.149 3.67586 129.42 3.57828 129.7 3.38776C129.782 3.27623 129.819 3.14147 129.819 2.97883V2.93701C129.805 2.76043 129.773 2.5792 129.718 2.39333C129.663 2.20745 129.589 2.02623 129.498 1.84035C129.401 1.65448 129.309 1.4965 129.213 1.35709C129.387 1.11081 129.553 0.878468 129.709 0.660066C129.865 0.460252 130.016 0.241839 130.163 0.0234375Z" fill="#B20B43"/>
<path d="M130.994 22.0313C130.994 22.4402 131.063 22.7655 131.206 23.0025C131.348 23.2394 131.568 23.416 131.862 23.5229H134.819V28.114H133.584C132.128 28.114 131.082 27.3333 130.448 25.7766C130.205 26.39 129.911 26.8826 129.567 27.2497C129.222 27.6168 128.837 27.8491 128.4 27.9467C128.143 28.0164 127.799 28.0582 127.367 28.0814C126.936 28.1 126.394 28.114 125.747 28.114H121.679V23.5229C121.936 23.5229 122.271 23.5183 122.694 23.5043C123.111 23.4904 123.515 23.4764 123.91 23.4625C124.3 23.4485 124.645 23.4346 124.943 23.4207C125.242 23.4067 125.402 23.3881 125.43 23.3603L125.329 23.4207C125.641 23.3092 125.857 23.1419 125.985 22.9188C126.114 22.6911 126.178 22.3844 126.178 21.9848V12.4355H130.994V22.0313ZM127.39 34.5498H122.574V30.5117H127.39V34.5498ZM134.213 34.5498H129.415V30.5117H134.213V34.5498Z" fill="#B20B43"/>
<path d="M134.677 23.4855H136.642L136.66 17.0915C136.66 16.3805 136.706 15.7672 136.802 15.2467C136.899 14.7263 137.05 14.2894 137.266 13.927C137.482 13.5645 137.757 13.2811 138.097 13.0766C138.432 12.8722 138.841 12.7281 139.314 12.6445C139.626 12.5748 139.998 12.5237 140.438 12.4911C140.879 12.4586 141.361 12.44 141.885 12.44H153.243L153.225 23.4437C153.225 24.8378 153.004 25.8787 152.554 26.5664C152.109 27.2541 151.434 27.7188 150.53 27.9512C150.231 28.0209 149.869 28.0627 149.437 28.0859C149.005 28.1045 148.514 28.1185 147.959 28.1185H134.677V23.4855ZM143.143 10.0237H138.322V6.00879H143.143V10.0237ZM143.505 17.0311C143.115 17.0311 142.798 17.0404 142.555 17.0636C142.312 17.0868 142.137 17.1101 142.027 17.1333C141.866 17.1891 141.733 17.3331 141.632 17.5748C141.531 17.8118 141.481 18.1324 141.481 18.5274L141.462 22.0729C141.462 22.375 141.476 22.6166 141.504 22.8025C141.531 22.9883 141.586 23.1324 141.678 23.2346C141.765 23.3369 141.889 23.4112 142.041 23.4484C142.197 23.4902 142.403 23.5181 142.656 23.532H146.343C147.463 23.532 148.115 23.3183 148.308 22.8954C148.335 22.8257 148.358 22.7235 148.376 22.5887C148.395 22.4539 148.409 22.282 148.409 22.0776L148.427 17.0357H143.505V17.0311ZM149.96 10.0237H145.163V6.00879H149.96V10.0237Z" fill="#B20B43"/>
<path d="M9.67388 55.023L8.46183 53.8845C7.73643 54.3353 6.8687 54.5583 5.84947 54.5583C4.36194 54.5583 3.17742 54.075 2.29592 53.1131C1.41443 52.1512 0.978271 50.8501 0.978271 49.2098C0.978271 47.5323 1.41902 46.2033 2.29592 45.2182C3.17283 44.233 4.35735 43.7451 5.84947 43.7451C7.34159 43.7451 8.53069 44.2377 9.4076 45.2182C10.2845 46.2033 10.7207 47.5323 10.7207 49.2098C10.7207 50.6921 10.3626 51.891 9.65093 52.8157L10.7528 53.8659L9.67388 55.023ZM5.94128 51.5378L7.01103 50.3901L8.12207 51.4077C8.44345 50.8362 8.60415 50.0973 8.60415 49.1958C8.60415 48.0574 8.36082 47.1698 7.86957 46.5286C7.38291 45.8873 6.70801 45.5667 5.84487 45.5667C4.98633 45.5667 4.31143 45.8873 3.82018 46.5286C3.32893 47.1698 3.0856 48.0574 3.0856 49.1958C3.0856 50.3064 3.32893 51.1754 3.81559 51.8027C4.30225 52.43 4.97715 52.7414 5.84487 52.7414H5.88619C6.29021 52.7414 6.65751 52.6624 6.97888 52.509L5.94128 51.5378Z" fill="#353535"/>
<path d="M14.8665 54.2792L18.4475 44.0283H20.9038L24.4895 54.2792H22.2398L21.5603 52.1975H17.7176L17.0427 54.2792H14.8665ZM19.6412 46.3099L18.3006 50.4317H20.9956L19.6412 46.3099Z" fill="#353535"/>
<path d="M29.0945 54.2792V44.0283H36.5459V45.8499H31.2064V48.0292H36.1556V49.7904H31.2064V52.4623H36.78V54.2839H29.0945V54.2792Z" fill="#353535"/>
<path d="M41.7476 54.2792V44.0283H49.199V45.8499H43.8595V48.0292H48.8087V49.7904H43.8595V52.4623H49.4331V54.2839H41.7476V54.2792Z" fill="#353535"/>
<path d="M56.2694 54.2792H54.2998V44.0283H57.3988L59.2444 52.1556L61.0671 44.0283H64.1248V54.2792H62.1552V45.664L60.2545 54.2792H58.1793L56.2786 45.4688V54.2792H56.2694Z" fill="#353535"/>
<path d="M75.8735 54.2792L79.4546 44.0283H81.9109L85.4965 54.2792H83.2469L82.5674 52.1975H78.7246L78.0497 54.2792H75.8735ZM80.6483 46.3099L79.3077 50.4317H82.0027L80.6483 46.3099Z" fill="#353535"/>
<path d="M98.3377 55.023L97.1256 53.8845C96.4002 54.3353 95.5325 54.5583 94.5133 54.5583C93.0258 54.5583 91.8413 54.075 90.9598 53.1131C90.0783 52.1512 89.6421 50.8501 89.6421 49.2098C89.6421 47.5323 90.0829 46.2033 90.9598 45.2182C91.8413 44.233 93.0212 43.7451 94.5133 43.7451C96.0054 43.7451 97.1945 44.2377 98.0714 45.2182C98.9483 46.2033 99.3845 47.5323 99.3845 49.2098C99.3845 50.6921 99.0264 51.891 98.3147 52.8157L99.4166 53.8659L98.3377 55.023ZM94.6051 51.5378L95.6748 50.3901L96.7859 51.4077C97.1073 50.8362 97.268 50.0973 97.268 49.1958C97.268 48.0574 97.0246 47.1698 96.5334 46.5286C96.0467 45.8873 95.3718 45.5667 94.5087 45.5667C93.6502 45.5667 92.9753 45.8873 92.484 46.5286C91.9928 47.1698 91.7494 48.0574 91.7494 49.1958C91.7494 50.3064 91.9928 51.1754 92.4794 51.8027C92.9661 52.43 93.641 52.7414 94.5087 52.7414H94.55C94.954 52.7414 95.3213 52.6624 95.6427 52.509L94.6051 51.5378Z" fill="#353535"/>
<path d="M103.53 54.2792L107.111 44.0283H109.568L113.153 54.2792H110.904L110.224 52.1975H106.381L105.706 54.2792H103.53ZM108.305 46.3099L106.964 50.4317H109.659L108.305 46.3099Z" fill="#353535"/>
<path d="M117.758 54.2792V44.0283H122.859C123.823 44.0283 124.604 44.2885 125.196 44.8136C125.788 45.3387 126.082 46.0265 126.082 46.8815C126.082 47.8666 125.751 48.5869 125.09 49.0469C124.916 49.1631 124.718 49.2653 124.498 49.3536C124.627 49.4001 124.737 49.4558 124.838 49.5209C125.421 49.8694 125.719 50.4549 125.742 51.2774L125.788 52.9595C125.797 53.2895 125.834 53.5265 125.889 53.6705C125.949 53.8099 126.064 53.9214 126.238 54.0051V54.2792H123.901C123.842 54.1724 123.796 53.9447 123.754 53.5915C123.713 53.243 123.695 52.862 123.685 52.4577L123.672 51.5097C123.662 51.0497 123.525 50.7244 123.268 50.5292C123.011 50.3341 122.579 50.2365 121.978 50.2365H119.87V54.2839H117.758V54.2792ZM119.875 48.5079H122.331C122.873 48.5079 123.286 48.3963 123.557 48.1686C123.832 47.9409 123.97 47.6017 123.97 47.1464C123.97 46.6956 123.842 46.361 123.58 46.1334C123.318 45.9057 122.928 45.7941 122.414 45.7941H119.879V48.5079H119.875Z" fill="#353535"/>
<path d="M130.402 54.2792L133.983 44.0283H136.44L140.025 54.2792H137.776L137.096 52.1975H133.253L132.579 54.2792H130.402ZM135.182 46.3099L133.841 50.4317H136.536L135.182 46.3099Z" fill="#353535"/>
<path d="M144.782 54.2792V44.0283H146.898V48.2755L150.778 44.0283H153.477L149.428 48.2198L153.744 54.2792H150.971L147.922 49.7672L146.894 50.8313V54.2792H144.782Z" fill="#353535"/>
<path d="M217.721 8.01172H212.055L217.721 13.8481V8.01172Z" fill="#353535"/>
<path d="M217.721 54.2983H212.055L217.721 48.4619V54.2983Z" fill="#353535"/>
<path d="M172.039 8.01172H177.705L172.039 13.8481V8.01172Z" fill="#353535"/>
<path d="M172.039 54.2983H177.705L172.039 48.4619V54.2983Z" fill="#353535"/>
<path d="M195.171 20.5218L184.348 31.4766L195.171 42.4313L205.995 31.4765L195.171 20.5218Z" fill="#B20B43"/>
<path opacity="0.78" d="M195.174 31.4731V20.5205L205.995 31.4731H195.174Z" fill="#A00D46"/>
<path opacity="0.78" d="M184.348 31.4736H195.174V42.4309L184.348 31.4736Z" fill="#A00D46"/>
</g>
<defs>
<clipPath id="clip0_167_179167">
<rect width="217.105" height="55" fill="white" transform="translate(0.615479 0.0234375)"/>
</clipPath>
</defs>
</svg>
