<svg width="131" height="160" viewBox="0 0 131 160" fill="none" xmlns="http://www.w3.org/2000/svg">
<path d="M129.949 0.151687C129.654 -0.109938 129.331 0.0208749 129.014 0.143338C128.766 0.237969 128.51 0.310334 128.265 0.404964C120.92 3.24666 113.689 6.35834 106.598 9.79009C96.8757 14.4938 87.4655 19.7569 78.3476 25.5405C75.8955 27.0963 73.5214 28.7719 71.1111 30.3945C69.5776 31.3074 67.9855 32.1424 66.5271 33.1638C65.4277 33.932 64.6428 33.8485 63.5518 33.0831C46.0813 20.8479 27.4196 10.7614 7.83388 2.35602C5.94683 1.5461 4.0264 0.830801 2.01411 0.399397C0.338588 0.0375739 0.266218 0.126637 0.817302 1.78545C6.01642 17.4329 9.6597 33.4394 11.8056 49.7826C13.1388 59.9332 13.8123 70.1366 13.9849 80.3678C14.0016 81.3809 14.3578 82.0127 15.1984 82.5554C17.8146 84.2393 20.4142 85.9538 22.9748 87.7184C31.8812 93.8499 40.2727 100.627 48.1938 107.989C53.7548 113.155 59.0068 118.618 64.0417 124.299C64.988 125.367 65.6393 125.406 66.5021 124.396C70.5517 119.648 75.1691 115.462 79.6446 111.139C84.6656 106.291 89.5195 101.267 95.2113 97.1452C99.2804 94.1978 103.163 90.9859 107.129 87.8937C107.252 87.8492 107.391 87.8269 107.497 87.7573C110.249 85.9816 113.002 84.2087 115.746 82.419C116.5 81.9264 116.809 81.1582 116.815 80.2871C116.84 75.4247 117.102 70.5735 117.411 65.7223C117.669 61.6671 118.028 57.6203 118.49 53.5873C119.275 46.7656 120.297 39.9772 121.619 33.239C123.503 23.6368 125.671 14.1041 128.794 4.81364C129.206 3.59179 129.657 2.38107 130.083 1.16479C130.208 0.808535 130.272 0.438362 129.949 0.151687Z" fill="url(#paint0_linear_515_12905)"/>
<mask id="mask0_515_12905" style="mask-type:luminance" maskUnits="userSpaceOnUse" x="0" y="0" width="131" height="126">
<path d="M129.947 0.151687C129.652 -0.109938 129.329 0.0208749 129.012 0.143338C128.764 0.237969 128.508 0.310334 128.263 0.404964C120.918 3.24666 113.687 6.35834 106.596 9.79009C96.8737 14.4938 87.4636 19.7569 78.3456 25.5405C75.8936 27.0963 73.5195 28.7719 71.1092 30.3945C69.5756 31.3074 67.9836 32.1424 66.5251 33.1638C65.4258 33.932 64.6409 33.8485 63.5498 33.0831C46.0794 20.8479 27.4177 10.7614 7.83192 2.35602C5.94488 1.5461 4.02444 0.830801 2.01215 0.399397C0.336635 0.0375739 0.264265 0.126637 0.815349 1.78545C6.01446 17.4329 9.65774 33.4394 11.8036 49.7826C13.1368 59.9332 13.8104 70.1366 13.9829 80.3678C13.9996 81.3809 14.3559 82.0127 15.1964 82.5554C17.8127 84.2393 20.4122 85.9538 22.9728 87.7184C31.8792 93.8499 40.2707 100.627 48.1919 107.989C53.7528 113.155 59.0048 118.618 64.0397 124.299C64.986 125.367 65.6373 125.406 66.5001 124.396C70.5497 119.648 75.1671 115.462 79.6426 111.139C84.6636 106.291 89.5176 101.267 95.2093 97.1452C99.2785 94.1978 103.161 90.9859 107.127 87.8937C107.25 87.8492 107.389 87.8269 107.495 87.7573C110.247 85.9816 113 84.2087 115.744 82.419C116.498 81.9264 116.807 81.1582 116.813 80.2871C116.838 75.4247 117.1 70.5735 117.409 65.7223C117.667 61.6671 118.026 57.6203 118.488 53.5873C119.273 46.7656 120.295 39.9772 121.617 33.239C123.501 23.6368 125.669 14.1041 128.792 4.81364C129.204 3.59179 129.655 2.38107 130.081 1.16479C130.206 0.808535 130.27 0.438362 129.947 0.151687Z" fill="white"/>
</mask>
<g mask="url(#mask0_515_12905)">
<path d="M132.52 -2.02295C132.52 -2.02295 108.827 2.49704 9.64543 73.9292L8.77148 85.2125C8.77148 85.2125 65.1128 124.584 65.1128 126.043C65.1128 127.501 119.228 82.4348 119.228 82.4348L132.52 -2.02017V-2.02295Z" fill="url(#paint1_linear_515_12905)"/>
<path fill-rule="evenodd" clip-rule="evenodd" d="M166.604 178.641C121.836 164.402 76.5772 148.81 33.8794 133.115C-0.360204 120.549 -5.45078 81.9786 24.3578 60.9595C81.2336 20.8167 143.893 -20.8013 203.332 -56.3351C256.367 -88.0781 299.045 -49.0541 275.861 18.2254C271.313 31.4348 264.817 45.4902 256.829 59.977L256.743 60.105C234.271 100.779 200.357 143.783 166.602 178.641H166.604Z" fill="url(#paint2_linear_515_12905)"/>
<path fill-rule="evenodd" clip-rule="evenodd" d="M56.8509 105.342C43.071 120.474 47.4045 139.228 66.3307 145.924C55.1893 141.972 44.1509 138.009 33.313 134.017C-0.92661 121.451 -6.01718 82.8808 23.7914 61.8616C28.4228 58.6609 33.1348 55.3266 37.7522 52.0089C68.4376 30.6363 96.2367 54.5417 72.8797 86.9666C68.0034 93.7382 61.8858 99.7306 56.8537 105.344L56.8509 105.342Z" fill="url(#paint3_linear_515_12905)"/>
<path fill-rule="evenodd" clip-rule="evenodd" d="M128.174 72.1431C127.078 26.3335 75.8883 26.726 35.2139 53.6567C38.718 51.3104 42.2082 48.8473 45.7123 46.4982C56.8342 39.3731 72.2283 31.8054 87.6809 28.5852C133.752 19.0887 152.097 54.9648 141.545 101.607C135.414 128.573 121.314 156.125 105.204 179.343C98.6219 177.147 92.1453 174.94 85.6687 172.73C104.227 149.306 128.895 105.754 128.172 72.1459L128.174 72.1431Z" fill="url(#paint4_linear_515_12905)"/>
</g>
<path d="M13.4032 127.567H29.7325L42.6384 159.544H31.9034L29.2399 152.616H13.8596L11.196 159.544H0.5L13.4059 127.567H13.4032ZM26.3842 145.229L22.6909 135.713H20.4058L16.7124 145.229H26.3815H26.3842Z" fill="#00555C"/>
<path d="M49.9121 127.567L54.9749 149.493H55.6206L60.341 127.567H74.5773L79.2977 149.493H79.9462L85.009 127.567H95.705L86.7986 159.544H72.9436L67.9198 137.617H67.0069L61.9831 159.544H48.1281L39.2217 127.567H49.9177H49.9121Z" fill="#00555C"/>
<path d="M113.256 127.11C123.838 127.11 129.664 131.068 129.664 138.341H119.46C119.46 135.713 116.719 134.419 112.8 134.419C108.881 134.419 106.975 135.638 106.975 137.428C106.975 139.371 109.638 139.749 112.8 139.977C120.148 140.548 130.195 140.359 130.195 148.809C130.195 156.307 124.37 160 113.599 160C102.293 160 96.4678 155.928 96.4678 148.619H106.707C106.707 151.322 109.257 152.691 114.244 152.691C118.202 152.691 120.07 151.815 120.07 150.064C120.07 147.743 116.833 147.4 112.647 147.133C105.986 146.716 96.888 146.487 96.888 137.539C96.888 130.915 102.864 127.11 113.256 127.11Z" fill="#00555C"/>
<defs>
<linearGradient id="paint0_linear_515_12905" x1="76.6192" y1="45.7608" x2="-4.83269" y2="-41.4913" gradientUnits="userSpaceOnUse">
<stop offset="0.25" stop-color="#19738C"/>
<stop offset="0.69" stop-color="#75C8B7"/>
<stop offset="0.99" stop-color="#CDCCAE"/>
</linearGradient>
<linearGradient id="paint1_linear_515_12905" x1="169.371" y1="42.946" x2="-43.2113" y2="100.442" gradientUnits="userSpaceOnUse">
<stop stop-color="#753EB7"/>
<stop offset="0.34" stop-color="#2598B9"/>
<stop offset="0.69" stop-color="#5CE2C4"/>
<stop offset="0.99" stop-color="#FFFCD1"/>
</linearGradient>
<linearGradient id="paint2_linear_515_12905" x1="134.864" y1="-25.068" x2="163.612" y2="182.977" gradientUnits="userSpaceOnUse">
<stop offset="0.3" stop-color="#19738C"/>
<stop offset="0.69" stop-color="#75C8B7"/>
<stop offset="0.99" stop-color="#CDCCAE"/>
</linearGradient>
<linearGradient id="paint3_linear_515_12905" x1="-7.48674" y1="167.183" x2="126.669" y2="1.50406" gradientUnits="userSpaceOnUse">
<stop stop-color="#3041B8"/>
<stop offset="0.34" stop-color="#19738C"/>
<stop offset="0.69" stop-color="#75C8B7"/>
<stop offset="0.99" stop-color="#CDCCAE"/>
</linearGradient>
<linearGradient id="paint4_linear_515_12905" x1="44.2734" y1="132.353" x2="182.211" y2="46.3618" gradientUnits="userSpaceOnUse">
<stop stop-color="#3041B8"/>
<stop offset="0.34" stop-color="#19738C"/>
<stop offset="0.69" stop-color="#75C8B7"/>
<stop offset="0.99" stop-color="#CDCCAE"/>
</linearGradient>
</defs>
</svg>
