<svg width="158" height="95" viewBox="0 0 158 95" fill="none" xmlns="http://www.w3.org/2000/svg">
<g id="Frame 205">
<path id="Vector" d="M70.8061 60.605C70.8061 60.9074 70.822 61.208 70.8291 61.5104V67.6509C70.7707 68.704 70.8167 68.7502 71.8409 68.599C71.9258 68.5866 72.0054 68.5296 72.0868 68.4941L72.1504 68.4994L72.2106 68.4763C72.5962 68.4407 72.9765 68.3909 73.3285 68.213C73.5231 68.213 73.7194 68.2255 73.8769 68.0743C74.3722 68.0102 74.8551 67.8982 75.3044 67.6687C75.6051 67.6491 75.881 67.5584 76.1358 67.3965C76.5709 67.3289 76.9777 67.1849 77.358 66.9625C77.7313 66.8451 78.1222 66.7704 78.4495 66.532C79.1871 66.4057 79.4913 66.05 79.4719 65.221C79.41 62.4639 79.4506 59.7049 79.4471 56.9478C79.4418 53.7726 79.4294 50.5992 79.4188 47.424C79.4276 42.4753 79.433 37.5284 79.4524 32.5798C79.4524 32.1511 79.1853 32.0959 78.8864 32.0265C78.5096 31.8113 78.1328 31.5961 77.756 31.3791C77.5349 31.0678 77.0733 31.0553 76.9052 30.68C76.5833 30.1677 76.2631 29.6572 75.9412 29.1449C75.6865 28.2519 75.2177 28.9865 74.8427 28.999C74.542 29.0203 74.2607 29.0986 74.006 29.2658C73.7035 29.2854 73.4241 29.3779 73.164 29.5326C73.019 29.5504 72.8615 29.5273 72.7448 29.6483C72.6705 29.6572 72.5962 29.6643 72.5201 29.6732C73.019 26.7185 72.9199 23.739 72.8792 20.7613C72.8828 19.5926 73.4789 18.6054 73.8486 17.5487C73.9706 17.0311 74.4712 16.7607 74.6658 16.2911C74.9754 15.9763 75.3557 15.7699 75.7625 15.5191C75.8775 15.9638 75.8669 16.3925 76.0827 16.7536C76.1782 17.3549 76.4435 17.8654 76.8946 18.2763C77.427 18.705 77.634 19.3347 77.8993 19.9306C78.101 20.8342 78.6812 21.5369 79.1517 22.2946C79.5426 23.1218 80.1051 23.8155 80.818 24.3847C81.3044 25.0002 82.0385 25.3008 82.6134 25.8042C83.1441 26.3628 83.7791 26.6687 84.561 26.6225C84.9855 26.6474 85.4136 26.731 85.8133 26.5069C86.7349 26.3717 87.2249 25.5961 87.8918 25.082C88.4472 24.9184 88.7691 24.4648 89.1406 24.0752C89.7456 23.6341 90.0958 23.0008 90.4195 22.3498C90.9767 21.512 91.6241 20.7204 91.7904 19.6762C92.0451 19.1995 92.0734 18.552 92.7527 18.399C93.11 19.5695 93.4655 20.7399 93.8228 21.9104C93.8423 22.0474 93.8494 22.1879 93.8812 22.3213C94.3535 24.278 94.3889 26.2507 94.1625 28.2394C94.1306 28.5258 94.1519 28.8176 93.7291 28.7553L93.0339 28.6059C92.5652 28.8851 92.5528 29.4597 92.2468 29.8439C92.031 30.1143 91.8169 30.3847 91.6011 30.6551C91.334 30.8863 91.0669 31.1176 90.7998 31.3488C90.5186 31.5 90.2532 31.7081 89.9543 31.79C89.3458 31.9554 89.2432 32.3254 89.245 32.9142C89.2662 41.8865 89.2609 50.8589 89.2627 59.8294V60.2475C89.2609 60.8238 89.4979 60.5107 89.6925 60.3649C89.9702 60.1817 90.2497 59.9984 90.5274 59.8152L91.0899 59.4203C91.3676 59.2247 91.6436 59.0308 91.9213 58.8351C92.291 58.7212 92.4449 58.3424 92.7527 58.152C93.1241 58.1111 93.3222 57.8069 93.5823 57.5917C93.8529 57.4547 94.0811 57.2662 94.281 57.0403C94.5923 56.8517 94.8842 56.6383 95.123 56.3625C95.3759 56.2007 95.6324 56.0459 95.8128 55.7933C96.0393 55.5994 96.2674 55.4037 96.4956 55.2099C97.495 54.5819 97.9426 53.7904 97.9267 52.4954C97.8453 45.7128 97.8895 38.9283 97.893 32.1457C97.893 31.822 97.9072 31.4947 97.9532 31.1745C98.3724 28.2821 98.8624 25.3969 98.6979 22.4565C98.6466 21.56 98.6201 20.6528 98.33 19.7865C98.2274 18.9576 97.9779 18.1749 97.6118 17.426C97.4597 16.8248 97.2315 16.2555 96.9325 15.713C96.6513 14.9303 96.3753 14.1441 96.0941 13.3614V13.3543C95.9349 12.6374 95.7032 11.9455 95.429 11.2642C95.2043 10.2876 94.9107 9.33595 94.4349 8.4501C94.3624 8.23308 94.2987 8.01251 94.2138 7.80083C94.1501 7.63895 94.1218 7.53579 94.2863 7.38815C95.268 6.4934 95.2645 6.1323 94.3111 5.21799C94.8541 4.87823 95.1548 4.39973 94.9249 3.76825C94.7055 3.17057 94.2173 2.94822 93.5893 3.06028H92.4785C92.176 3.04071 91.8753 3.01225 91.6383 2.78812C91.3835 2.39678 91.1253 2.00722 90.6707 1.81689C90.2674 1.32416 89.7544 1.00575 89.1477 0.833204C88.495 0.518353 87.8069 0.319126 87.0834 0.255088C86.8269 0.0772065 86.5333 0.121679 86.2485 0.118121H86.2502C85.9371 -0.0437511 85.6011 0.00605101 85.2703 0.0131663C85.1765 0.0113875 85.0828 0.0096106 84.989 0.0096106C84.7998 0.0096106 84.6123 0.00961233 84.4265 0.0113911C84.0975 0.00783352 83.765 -0.0473107 83.4554 0.121677C82.8787 0.0967735 82.3322 0.239077 81.7962 0.425853C81.2549 0.521909 80.7349 0.682002 80.2696 0.986179C79.7761 1.08757 79.4011 1.39531 79.0208 1.69771C78.4636 2.00188 78.101 2.52842 77.6322 2.93577C76.9406 2.94288 76.249 2.94644 75.5538 2.96245C75.0886 2.97312 74.6658 3.1261 74.4836 3.59037C74.3049 4.04397 74.3226 4.53492 74.7189 4.8729C75.0214 5.13082 74.8922 5.21621 74.6888 5.435C74.1882 5.97043 74.1334 6.7958 74.6764 7.0893C75.4017 7.48242 75.1116 7.86309 74.8745 8.3238C74.802 8.4661 74.7666 8.6262 74.7118 8.7774C74.2519 9.60277 73.9264 10.4779 73.7354 11.4047C73.1021 13.0199 73.0544 14.7507 72.7625 16.4334C72.6328 17.1817 72.6328 17.1817 72.7625 16.4334C72.0903 18.4204 71.6127 20.4322 71.7772 22.5632C71.9099 24.2851 71.7542 25.9946 71.3332 27.6756C70.96 29.168 70.799 30.6764 70.8043 32.2222C70.8291 41.6837 70.8149 51.147 70.8149 60.6086L70.8061 60.605ZM91.4932 17.4207C91.4808 17.4207 91.4667 17.4207 91.4561 17.4225C91.4543 17.426 91.4543 17.4313 91.4543 17.4349C90.3735 17.8529 90.4991 18.9647 90.1418 19.7954L90.0675 19.9199C89.6766 20.5763 89.2856 21.2327 88.8947 21.8891L88.8169 21.9744C88.4826 22.3462 88.1447 22.7162 87.8104 23.0898L87.7609 23.1449C87.1064 23.6874 86.4537 24.2318 85.7992 24.7761C85.762 24.7974 85.7249 24.8206 85.6877 24.8366C85.3127 25.0393 84.9112 25.1318 84.4796 25.1158C84.4619 25.1158 84.4442 25.1141 84.4265 25.1141C83.9471 24.8864 83.4483 24.7014 83.0468 24.3421C83.0008 24.3011 82.9548 24.2567 82.9124 24.2104C82.2968 23.7141 81.6812 23.2196 81.0656 22.7251C81.0568 22.7091 81.048 22.6966 81.0373 22.6806C80.6022 21.9567 79.9707 21.3679 79.5957 20.603C79.5762 20.5656 79.5585 20.5283 79.5409 20.4909C79.2649 19.7829 78.9253 19.0928 78.8227 18.3279C78.7749 17.9721 78.4848 17.8636 78.2478 17.6964C78.2301 17.6999 78.2107 17.7071 78.1912 17.716V17.6573C77.8286 17.2375 77.4023 16.8515 77.3386 16.2716V16.0261C77.3386 15.729 77.3775 15.4266 77.3368 15.1349C77.2784 14.7098 77.45 14.434 77.7808 14.2224C77.8003 14.2117 77.8197 14.1975 77.8392 14.1868C79.2366 13.3312 79.6558 11.9864 79.6753 10.4353C79.7885 9.54051 80.4253 9.54051 81.0939 9.59921C81.6441 9.80911 82.1553 10.1222 82.7602 10.172C83.16 10.373 83.5845 10.3339 84.0091 10.2965C84.5875 10.3641 85.1429 10.2592 85.6824 10.051C86.0521 9.95676 86.4307 9.88916 86.7915 9.76286C87.5592 9.4907 88.1766 9.68993 88.6966 10.2947C88.831 10.4477 88.9832 10.5865 89.1282 10.7323C89.5563 11.4189 89.9525 12.1287 90.5132 12.721C90.8087 13.2244 91.173 13.6638 91.61 14.0427C91.6188 14.0534 91.6294 14.0623 91.64 14.0712C92.2291 14.9392 92.1672 16.3925 91.4914 17.4171V17.4207H91.4932ZM95.6448 17.3887C95.6625 17.3904 95.6802 17.3922 95.6943 17.3922C95.6908 17.4011 95.6872 17.4118 95.6837 17.4207C95.9296 17.8209 96.1772 18.2194 96.4231 18.6196C96.4496 18.632 96.4797 18.6445 96.508 18.6516L96.4691 18.6907C96.6584 19.5962 96.8512 20.4998 97.044 21.4034C97.0599 21.471 97.0723 21.5386 97.0882 21.6062C97.3978 24.1909 96.9803 26.7346 96.6743 29.2836C96.6761 29.4437 96.6354 29.5344 96.5628 29.5789C96.5027 29.6162 96.4196 29.618 96.324 29.6002C96.3223 29.5931 96.3205 29.5896 96.317 29.5824C96.2887 29.5842 96.2586 29.5824 96.225 29.5789C96.0658 29.4811 95.896 29.4277 95.7173 29.4063C95.6589 29.3992 95.6006 29.3957 95.5404 29.3939C95.4378 27.9584 95.6749 26.5353 95.6766 25.1016C95.6766 24.2175 95.5174 23.3637 95.3052 22.5152C95.2875 22.4458 95.2698 22.3782 95.2521 22.3071C95.0558 21.0157 94.7444 19.7563 94.2792 18.5378C94.1059 17.716 93.929 16.8995 93.7415 16.019C93.9856 16.1435 94.1749 16.2449 94.357 16.3391C94.3783 16.332 94.4013 16.3285 94.4243 16.3267C94.4172 16.3392 94.4119 16.3516 94.403 16.3641C94.817 16.7056 95.2291 17.0471 95.6413 17.3887H95.6448ZM80.2767 2.54798C80.3209 2.50707 80.3652 2.46972 80.4129 2.43592C80.8268 2.13174 81.3593 2.07659 81.7926 1.81511C81.8298 1.80799 81.8687 1.80266 81.9059 1.79376C82.5975 1.66391 83.2891 1.53584 83.9808 1.40598C83.9772 1.40598 83.9737 1.4042 83.9701 1.39887C83.9949 1.39887 84.0179 1.39709 84.0444 1.39531C84.3398 1.38642 84.6406 1.3793 84.9377 1.3704C84.9448 1.3793 84.9501 1.38286 84.959 1.38641C84.966 1.38286 84.9749 1.37752 84.9802 1.3704C85.5409 1.44511 86.0999 1.51627 86.6624 1.59098C86.7491 1.60165 86.8393 1.61588 86.926 1.62655C87.6707 1.77953 88.3764 2.0428 89.0752 2.33096C89.0964 2.33986 89.1158 2.34876 89.1388 2.35765C89.2326 2.58534 89.6996 2.53731 89.5616 2.93577H89.4378C89.1548 2.93577 88.8717 2.93754 88.5887 2.93754H80.1246C80.0008 2.86817 80.0521 2.73831 80.2767 2.54798ZM76.0774 9.18831C76.0951 9.15095 76.1145 9.11359 76.134 9.0798C76.2967 8.76495 76.4771 8.45899 76.5957 8.12813C76.7814 7.60516 77.075 7.37925 77.5685 7.33122C77.6535 7.32233 77.7454 7.31877 77.8427 7.32055C78.0621 7.32411 78.2796 7.32766 78.499 7.32944C78.6069 7.33122 78.7166 7.333 78.8245 7.333C79.1712 7.33656 79.5161 7.34012 79.8628 7.34368C82.0562 7.35613 84.2479 7.34723 86.4413 7.35435C87.4902 7.35791 88.5392 7.36324 89.5864 7.3668C89.7544 7.36858 89.9189 7.36858 90.087 7.37036C90.2196 7.37036 90.3541 7.37036 90.4867 7.37214H90.4885C90.6672 7.37214 90.8476 7.37391 91.0262 7.37391C91.1784 7.37391 91.3287 7.37569 91.4808 7.37569C91.633 7.37569 91.7833 7.37747 91.9337 7.37747C92.008 7.37747 92.0787 7.37747 92.153 7.37925H92.3352C92.5563 7.80794 92.7792 8.23664 92.9985 8.66533V8.73293C93.0162 8.74538 93.0339 8.75783 93.0534 8.7685C93.3718 9.69882 93.6902 10.6309 94.0103 11.5595C94.0103 11.5666 94.0086 11.5755 94.0086 11.5808C94.0103 11.5826 94.0121 11.5826 94.0157 11.5808C94.1978 12.4364 94.4773 13.2565 94.7993 14.0658C94.7904 14.0818 94.7833 14.0978 94.7798 14.1139C94.8046 14.1441 94.8293 14.1779 94.8559 14.2081C94.7197 14.37 95.2733 14.724 94.7816 14.788C94.7657 14.7631 94.7497 14.74 94.7285 14.7151C94.7197 14.7418 94.709 14.7702 94.6931 14.7969C94.1837 14.3842 93.6742 13.9698 93.1666 13.5589C93.1595 13.5464 93.156 13.534 93.1489 13.5215C93.1454 13.5233 93.1418 13.5251 93.1383 13.5304C92.8004 13.1675 92.4626 12.7993 92.1229 12.4364C92.1035 12.4329 92.0823 12.4329 92.0593 12.4329C92.061 12.4133 92.0628 12.3955 92.0663 12.3759C91.6913 11.8316 91.3163 11.2891 90.9413 10.7448C90.5592 10.0279 90.0763 9.39109 89.4289 8.89124C88.2685 7.86131 86.9949 7.95025 85.6736 8.51058C85.2561 8.60841 84.8351 8.70803 84.4159 8.80586C83.9135 8.78807 83.4094 8.77028 82.9035 8.75249C82.3923 8.45721 81.8634 8.21707 81.2602 8.19039C80.6906 8.01073 80.1246 7.98405 79.5656 8.22952C78.4176 8.66 78.1116 9.63835 78.0497 10.7163C78.0143 11.3122 77.9135 11.8601 77.6128 12.3706C77.6163 12.3991 77.6216 12.4275 77.6234 12.456C77.5845 12.456 77.5491 12.4578 77.5119 12.4649C77.1246 12.8189 76.6664 13.0679 76.2189 13.3383C76.1817 13.3507 76.1464 13.3667 76.1128 13.3845C75.6475 13.5855 75.2442 13.8951 74.8268 14.1761C74.7879 14.2028 74.7454 14.2295 74.7065 14.2544C74.473 13.5909 74.9347 13.0234 74.9559 12.3955C74.9524 12.3777 74.9488 12.3582 74.9453 12.3404C74.9665 12.3155 74.9842 12.2906 75.0019 12.2657C75.3592 11.2393 75.7148 10.2093 76.0721 9.18297L76.0774 9.18831Z" fill="url(#paint0_linear_369_33117)"/>
<path id="Vector_2" d="M116.19 90.5337C116.189 89.2316 116.187 87.9313 116.183 86.6292C115.994 86.3588 115.718 86.5118 115.492 86.5118C109.806 86.5011 104.123 86.4922 98.4378 86.5189C97.8099 86.5224 97.6843 86.3392 97.6861 85.7433C97.7073 80.1454 97.6967 74.5492 97.6931 68.9513C97.6931 67.5585 97.6701 66.1639 97.6701 64.7711C97.6701 64.3886 97.6294 64.1645 97.1819 64.4384C96.2586 65.0041 95.3228 65.5502 94.3924 66.1034C93.5345 66.5125 92.7119 66.9875 91.9195 67.5122C91.2385 67.82 90.5857 68.1775 89.9702 68.6027C89.8127 68.7218 89.8605 68.8979 89.8605 69.0527C89.8605 75.6272 89.834 82.2017 89.8711 88.7762C89.8906 91.9888 92.3652 94.7157 95.3299 94.8384C97.0599 94.9096 98.7951 94.842 100.529 94.8366H112.743C113.597 94.8438 114.452 94.8562 115.304 94.8598C116.243 94.8633 116.243 94.8598 116.192 93.8832V90.5355H116.19V90.5337ZM89.9914 80.0654C89.9914 80.0654 90.002 80.0689 90.0055 80.0707C90.0002 80.076 89.9949 80.0814 89.9914 80.0885V80.0654ZM99.8388 86.6399C99.8388 86.6399 99.8406 86.6487 99.8423 86.6541C99.8317 86.6487 99.8211 86.6434 99.8105 86.6399H99.8388ZM89.9083 87.1664C89.9118 87.3211 89.9171 87.4759 89.9189 87.6307C89.9047 87.4812 89.9029 87.3265 89.9083 87.1664Z" fill="url(#paint1_linear_369_33117)"/>
<path id="Vector_3" d="M26.6761 40.218C26.4921 40.2091 26.3081 40.2002 26.1242 40.1895C23.9078 40.1824 21.6914 40.1842 19.4749 40.1593C19.0469 40.154 18.9885 40.3461 18.9903 40.7036C18.9938 41.609 18.9584 42.5127 18.9567 43.4181C18.9478 50.4284 18.946 57.4369 18.9372 64.4473C18.9372 64.7248 18.9107 65.0005 18.8965 65.278C17.6495 65.2869 16.4024 65.294 15.1553 65.3029H11.1293C10.3068 65.2958 9.48251 65.2602 8.65997 65.2904C8.21422 65.3064 8.03025 65.1588 8.0674 64.7212V58.5825V50.9069V42.8168C8.07624 42.3775 8.09216 41.9381 8.09216 41.4987C8.09216 40.5755 7.62518 40.1397 6.68767 40.1878C4.77196 40.1806 2.85626 40.1806 0.940557 40.1593C0.562015 40.1557 0.408124 40.2553 0.416968 40.6627C0.44527 41.8919 0.439962 43.121 0.448807 44.3502V52.5808V55.6492V92.7607C0.408122 93.3655 0.385126 93.9703 0.464726 94.5733C0.516024 94.6107 0.567323 94.6818 0.618621 94.6818C2.97478 94.6889 5.3327 94.6818 7.68886 94.696C8.05501 94.6978 8.09924 94.5146 8.0957 94.2211C8.07978 92.8514 8.07447 91.4817 8.06563 90.112V80.0671V72.8112C8.0727 72.5907 8.07978 72.3683 8.08685 72.1478C8.36103 72.1246 8.63521 72.0802 8.90939 72.0802C11.9377 72.0766 14.9643 72.0766 17.9926 72.0819C18.3729 72.0819 18.6011 72.0677 18.7373 72.0962C18.8205 72.146 18.8806 72.2171 18.9248 72.3114C18.9443 72.4466 18.9337 72.6583 18.9337 72.9945C18.9425 79.9176 18.9443 86.8408 18.9549 93.7622C18.9549 94.0343 18.8735 94.3207 19.038 94.5769L19.0575 94.5537H19.061C19.061 94.5537 19.0451 94.5697 19.038 94.5769C19.0929 94.6142 19.1459 94.6818 19.2008 94.6818C21.5817 94.6889 23.9608 94.6854 26.3418 94.6943C26.7274 94.6943 26.7203 94.4541 26.7238 94.1837C26.7327 93.4864 26.7628 92.7909 26.7628 92.0954C26.7663 75.0223 26.7663 57.951 26.7628 40.8779C26.7628 40.6574 26.853 40.4137 26.6725 40.2127L26.6761 40.218Z" fill="url(#paint2_linear_369_33117)"/>
<path id="Vector_4" d="M90.6709 66.2064C91.596 65.5696 92.5229 64.9328 93.4481 64.2942C93.6621 64.1643 93.8814 64.0469 94.0866 63.9046C94.8472 63.3799 95.6008 62.848 96.3579 62.3179C97.4776 61.6705 98.4575 60.838 99.4234 59.9877C100.568 59.1463 101.606 58.1857 102.613 57.1878C103.442 56.4852 104.221 55.7256 104.965 54.9323C105.694 54.2261 106.412 53.5092 107.054 52.723C107.918 51.9065 108.685 51.0047 109.412 50.0655C110.343 49.064 111.186 47.9931 111.901 46.8245C113 45.469 113.827 43.9499 114.505 42.3507C115.188 40.7391 115.637 39.0741 115.405 37.29C115.089 34.8619 113.753 33.1845 111.634 32.0781C110.903 31.6387 110.127 31.331 109.276 31.2313C107.583 30.7564 105.869 30.7528 104.143 30.9787C103.81 31.0286 103.479 31.0766 103.053 31.1388C103.393 31.2811 103.635 31.2349 103.877 31.2136C104.123 31.2651 104.376 31.2936 104.613 31.3736C106.497 31.9962 107.909 33.2165 108.972 34.8761C109.587 36.0786 109.785 37.3594 109.739 38.7024C109.694 40.0418 109.25 41.2781 108.873 42.5357C108.216 43.9819 107.47 45.3765 106.621 46.7177C105.931 47.648 105.239 48.5801 104.55 49.5105C103.764 50.4408 102.979 51.3711 102.193 52.3014C101.136 53.3723 100.076 54.4449 99.0183 55.5157C97.9923 56.3963 96.9681 57.2786 95.9422 58.1591C95.0577 58.8404 94.1751 59.5216 93.2906 60.2029C92.3248 60.87 91.359 61.5388 90.3932 62.2059C89.2823 62.8978 88.1715 63.5898 87.0588 64.2817C85.8613 64.9417 84.6638 65.5998 83.4645 66.2598C82.1077 66.9019 80.7528 67.5441 79.396 68.188C77.9597 68.7003 76.5234 69.2109 75.0888 69.7232C73.7108 70.054 72.3329 70.3867 70.9549 70.7175C70.235 70.794 69.515 70.8723 68.7951 70.9488C68.696 70.9185 68.574 70.9292 68.4272 70.9879C67.3305 70.9559 66.2355 70.9221 65.1388 70.8901C64.1642 70.7442 63.1913 70.5966 62.2166 70.4507C60.844 69.9722 59.535 69.3781 58.4701 68.3481C57.7749 67.4765 57.2496 66.5266 57.0426 65.406C56.8127 64.1608 56.9294 62.9299 57.1081 61.6971C57.2266 61.5281 57.2673 61.3538 57.1505 61.0568C57.0532 61.2738 57.0002 61.3947 56.9471 61.5157C56.2024 62.7751 55.6823 64.1323 55.2896 65.5376C54.8156 67.2275 54.6122 68.9476 55.0119 70.6784C55.4205 72.4501 56.3917 73.818 58.0562 74.6291C59.3369 75.4065 60.7396 75.7729 62.2184 75.8779C63.4212 76.0913 64.6241 76.0451 65.8269 75.8725C66.821 75.8654 67.7833 75.652 68.7473 75.4385C69.6424 75.2802 70.541 75.129 71.3794 74.7536C72.7822 74.5295 74.077 73.955 75.4036 73.4871C76.7816 73.0727 78.1189 72.5479 79.4332 71.9627C80.9332 71.3988 82.3182 70.6001 83.7333 69.8655C84.938 69.3532 86.0753 68.7146 87.2039 68.0528C88.4333 67.5761 89.6202 67.0193 90.6727 66.2064H90.6709Z" fill="url(#paint3_linear_369_33117)"/>
<path id="Vector_5" d="M78.9767 73.7683C78.6901 73.8074 78.4177 73.8839 78.1754 74.0457C78.068 74.1181 78.068 74.1181 78.1754 74.0457C77.7278 74.0938 77.3228 74.2717 76.9265 74.4727C76.4861 74.5438 76.0686 74.6861 75.6777 74.9031C75.2655 74.9458 74.9011 75.1291 74.5332 75.298C74.2449 75.3265 73.976 75.4137 73.7337 75.5773C73.6264 75.6496 73.6264 75.6496 73.7337 75.5773C72.8439 75.7445 72.3982 76.2675 72.3982 77.148C72.3964 78.2153 72.3858 79.2808 72.3805 80.3481C72.1859 81.4367 71.8374 82.4702 71.2714 83.4237C70.8982 83.8897 70.5249 84.354 70.1517 84.82C69.7785 85.0975 69.4052 85.375 69.032 85.6525C68.749 85.7824 68.4642 85.9122 68.1811 86.0421C67.2277 86.3089 66.2513 86.252 65.2802 86.2431C65.1387 86.236 64.9972 86.2271 64.8556 86.22C64.4895 86.1595 64.1216 86.1008 63.7554 86.0403C63.3822 85.914 63.0089 85.7859 62.6339 85.6597C62.3244 85.464 62.0166 85.2665 61.707 85.0709C61.1905 84.5692 60.9199 83.9289 60.697 83.2636C60.6881 81.499 60.6616 79.7326 60.6793 77.968C60.6846 77.5216 60.5413 77.3633 60.115 77.3099C59.5684 77.2423 59.0325 77.0982 58.4912 76.9879C58.0224 76.7549 57.5537 76.5236 57.0867 76.2906C56.7205 75.9989 56.3561 75.7072 55.99 75.4154C55.7229 74.9547 55.2046 74.7093 54.9729 74.2165C54.6509 73.7007 54.329 73.1866 54.0071 72.6707C53.6268 71.8347 53.2464 71.0004 52.8644 70.1662C52.7582 74.0173 52.7512 77.8293 52.7635 81.6413C52.7671 82.4364 52.7087 83.2155 52.5035 83.984C52.2028 84.5016 51.8632 84.989 51.3873 85.3626C50.8107 85.6668 50.2093 85.9105 49.5831 86.0901C49.3054 86.1382 49.0259 86.1862 48.7482 86.2342C48.6367 86.2289 48.543 86.236 48.4616 86.2538C47.9575 86.2876 47.4533 86.3232 46.9492 86.3569C46.6786 86.3498 46.4097 86.3409 46.1391 86.3338C45.7676 86.2431 45.3961 86.1506 45.0264 86.0599C44.6603 85.8713 44.2959 85.6828 43.9297 85.4942C43.4928 85.0851 43.0559 84.676 42.619 84.2668C42.1007 83.3596 41.4515 82.52 41.2198 81.4688C41.0659 80.7181 40.9757 79.9639 40.9757 79.1919C40.9828 66.5338 40.981 53.8757 40.9792 41.2177C40.9792 40.9171 40.9562 40.6164 40.9421 40.3158C40.7829 40.1077 40.5582 40.202 40.3636 40.2002C38.1455 40.1949 35.9255 40.2215 33.7073 40.1895C33.0971 40.1806 32.9272 40.3585 32.9272 40.974C32.9449 53.9131 32.9308 66.8522 32.952 79.7931C32.9538 81.3674 33.1643 82.9327 33.7462 84.4198C34.054 85.6721 34.5599 86.8372 35.2781 87.9081C35.6761 88.721 36.1979 89.4468 36.8188 90.1031C37.2044 90.651 37.6909 91.1011 38.195 91.5333C38.5948 91.9851 39.0617 92.3533 39.58 92.6557C39.9975 93.0115 40.4521 93.3068 40.9668 93.5042C41.402 93.7888 41.8584 94.029 42.3678 94.1482C42.7605 94.3563 43.1797 94.4826 43.6166 94.5555C44.0642 94.7085 44.5241 94.801 44.9964 94.8312C46.1178 95.0091 47.2411 95.0785 48.3679 94.8793C48.826 94.8561 49.293 94.9255 49.7317 94.7245C50.4145 94.7138 51.0689 94.5715 51.7004 94.3189C52.0401 94.3083 52.3532 94.2158 52.6397 94.029C53.1173 93.8831 53.6055 93.7675 54.0194 93.4651C54.3608 93.2997 54.7429 93.2107 55.0153 92.9172C55.3479 92.7144 55.7264 92.581 55.9882 92.2715C56.2642 92.0296 56.4941 91.6703 56.9505 91.9033C57.3538 92.3142 57.8155 92.6415 58.332 92.8959C58.9635 93.3477 59.6463 93.6892 60.3927 93.8974C60.6404 94.0717 60.9181 94.1553 61.2153 94.182C61.5248 94.3438 61.8468 94.4577 62.2005 94.4506C62.6941 94.6534 63.2106 94.7387 63.7412 94.7352C64.0986 94.9113 64.4771 94.8686 64.8539 94.8561L64.9105 94.8793L64.9724 94.8686C66.0443 95.0714 67.1145 95.0091 68.1847 94.8437C68.5243 94.8953 68.8374 94.7601 69.1611 94.6978C69.552 94.6854 69.9093 94.5431 70.272 94.415C70.6664 94.3474 71.0344 94.2104 71.3793 94.0076C71.8887 93.8707 72.3416 93.6216 72.759 93.3014C73.1942 93.1734 73.5285 92.8852 73.8699 92.6059C74.2378 92.3907 74.581 92.1452 74.8552 91.8108C75.3398 91.4515 75.7626 91.0317 76.1217 90.5461C76.5179 90.2383 76.8098 89.8417 77.0698 89.4165C77.5899 88.8331 78.0126 88.1856 78.3293 87.4687C78.8298 86.6896 79.2137 85.8589 79.4436 84.9588C79.5321 84.724 79.6365 84.4927 79.709 84.2526C80.8004 80.663 80.229 76.979 80.4077 73.2738C79.8558 73.4 79.4047 73.5477 78.9767 73.7665V73.7683Z" fill="url(#paint4_linear_369_33117)"/>
<path id="Vector_6" d="M83.1778 44.464C83.36 44.5494 83.5458 44.5209 83.7297 44.4836H84.4231C84.6089 44.4836 84.7928 44.4836 84.9786 44.4818C85.5623 44.6348 85.5499 44.2666 85.5499 43.8557C85.5481 39.7946 85.557 35.7336 85.5623 31.6708C85.8312 31.621 86.0983 31.5694 86.3671 31.5196C86.8076 31.5374 87.2233 31.4377 87.616 31.2439C88.0706 31.2225 88.4809 31.0624 88.8683 30.8329C89.5812 30.6391 90.1561 30.221 90.6691 29.7034C91.0883 29.4188 91.389 29.0008 91.3306 28.5205C91.2899 28.1914 90.8141 28.2821 90.5293 28.1967C89.9244 28.0562 89.3424 27.6933 88.6897 28.0046C88.3324 28.154 87.975 28.3035 87.6177 28.4511C87.103 28.5881 86.5882 28.7233 86.0753 28.8602C85.6083 28.878 85.1378 28.8567 84.6832 29.0008H84.6973C84.6973 29.0008 84.6885 29.0008 84.6832 29.0025C84.5505 29.0061 84.4196 29.0114 84.2869 29.015C83.7793 28.9421 83.2751 28.8425 82.7604 28.878C82.3199 28.8869 81.9697 28.5027 81.5115 28.5845C81.1135 28.5294 80.8358 28.1345 80.4007 28.1896C80.008 27.8641 79.587 27.752 79.1147 28.0082C78.577 28.1185 78.0392 28.2288 77.4997 28.3373C77.2132 28.3942 77.1866 28.5169 77.344 28.7606C77.8004 29.465 78.3099 30.1018 79.12 30.4203C79.4455 30.7173 79.8329 30.8863 80.2556 30.9806C80.498 31.1514 80.7704 31.2296 81.0622 31.2545C81.4638 31.4449 81.8865 31.5285 82.327 31.5267H82.3305C82.9426 31.5729 83.1035 31.8771 83.0965 32.5086C83.0575 36.2512 83.0752 39.9956 83.0841 43.7365C83.0841 43.9802 82.9797 44.2488 83.1796 44.4676V44.464H83.1778ZM83.9314 37.9393C83.9756 37.8361 84.0446 37.7401 84.1401 37.6458C84.1419 37.6476 84.1436 37.6476 84.1436 37.6476V37.6405C84.4196 37.628 84.7115 37.5836 84.8406 37.9198C84.9626 38.2399 84.7716 38.4374 84.5469 38.617C84.5434 38.6135 84.5381 38.6082 84.5346 38.6064C84.5328 38.6082 84.5328 38.6099 84.5328 38.6135L84.1277 38.521L84.011 38.4943C83.9791 38.4409 83.9526 38.3911 83.9349 38.3431C83.8783 38.1973 83.8819 38.0638 83.9331 37.9375H83.9314V37.9393ZM84.0074 41.6001C83.9756 41.5557 83.9508 41.5147 83.9314 41.4703C83.8642 41.3155 83.8712 41.1625 83.9314 41.006C83.9508 40.9509 83.9774 40.8993 84.0074 40.8459C84.0552 40.8352 84.1047 40.8246 84.1525 40.8139C84.2728 40.7872 84.3895 40.7605 84.5098 40.7356C84.5116 40.7463 84.5133 40.757 84.5169 40.7676C84.5346 40.7552 84.5523 40.7392 84.5699 40.7214C84.7769 40.9099 84.9609 41.1056 84.883 41.424C84.8512 41.4809 84.814 41.529 84.7751 41.5663C84.6159 41.7211 84.4001 41.7282 84.1755 41.6997C84.1737 41.6962 84.1737 41.6908 84.1737 41.6873L84.1666 41.6997C84.1666 41.6997 84.1578 41.698 84.1543 41.698C84.1065 41.6659 84.0587 41.6321 84.011 41.6001H84.0074ZM84.4249 34.5578C84.4355 34.5702 84.4461 34.5827 84.4603 34.5898C84.4691 34.5827 84.478 34.5738 84.4886 34.5631C84.5346 34.5667 84.5823 34.572 84.6283 34.5756L84.7062 34.5827C84.998 34.9651 84.883 35.2747 84.5346 35.5415L84.5045 35.5112C84.5045 35.5112 84.501 35.5272 84.4974 35.5361C84.4196 35.5183 84.34 35.5041 84.2622 35.4899C84.2232 35.481 84.1808 35.4721 84.1419 35.465C84.0092 35.3565 83.9367 35.2337 83.9137 35.1092V34.958C83.9225 34.8531 83.9614 34.7428 84.0251 34.6325C84.0269 34.6361 84.0322 34.6414 84.034 34.6449H84.0357L84.0287 34.6254C84.1613 34.604 84.2922 34.5809 84.4249 34.5578Z" fill="url(#paint5_linear_369_33117)"/>
<path id="Vector_7" d="M154.108 40.1895H150.222C149.401 40.1824 148.573 40.234 147.76 40.1486C146.971 40.0668 146.453 40.3692 146.06 41.0042C145.218 41.9292 144.378 42.856 143.536 43.781C142.724 44.6722 141.912 45.5634 141.1 46.4545C140.306 47.2532 139.536 48.0733 138.83 48.952C138.211 49.4963 137.698 50.1402 137.162 50.7628C136.439 51.5562 135.715 52.3495 134.992 53.1429C134.452 53.7228 133.849 54.244 133.405 54.9092C133.039 55.2935 132.671 55.6795 132.305 56.0637C131.863 56.407 131.571 56.8909 131.196 57.2946C130.51 58.0524 129.825 58.8084 129.139 59.5662C128.769 59.769 128.642 60.2617 128.143 60.4307V47.4187C128.152 45.1951 128.148 42.9734 128.18 40.7499C128.187 40.2589 127.943 40.2482 127.582 40.2482C126.418 40.2465 125.254 40.2393 124.09 40.234C123.758 40.2233 123.425 40.2162 123.094 40.2287C122.332 40.2251 121.57 40.2198 120.809 40.218C120.634 40.218 120.438 40.1469 120.287 40.3087C120.192 41.5646 120.239 42.8204 120.262 44.0763V82.5841C120.254 85.914 120.243 89.244 120.241 92.5739C120.241 93.289 120.271 94.0023 120.287 94.7174C120.305 94.7334 120.321 94.7619 120.339 94.7619C122.829 94.7761 125.32 94.7832 127.809 94.8028C128.139 94.8045 128.178 94.6231 128.175 94.3598C128.161 92.9457 128.152 91.5298 128.143 90.1156V80.4886C128.152 78.1335 128.162 75.7765 128.171 73.4214C128.171 73.1226 128.132 72.8184 128.334 72.5569C129.025 71.8827 129.018 71.8881 129.576 72.7383C130.573 74.2574 131.582 75.7694 132.585 77.2832C134.944 80.864 137.304 84.4447 139.664 88.0273C140.985 90.0373 142.34 92.026 143.608 94.0681C144.024 94.737 144.47 95.0358 145.221 94.8526H153.767C151.931 92.0847 150.171 89.4325 148.411 86.7785C146.56 83.8613 144.671 80.9689 142.724 78.1157C141.475 76.1216 140.207 74.1418 138.852 72.2189C137.688 70.4187 136.513 68.6275 135.363 66.8184C134.491 65.447 134.336 65.8508 135.643 64.5415C136.03 64.248 136.32 63.8638 136.625 63.492C137.261 62.9477 137.757 62.2753 138.282 61.6314C139.115 60.9323 139.787 60.0785 140.497 59.2602C141.098 58.6056 141.7 57.9493 142.301 57.2946C143.028 56.5475 143.769 55.8147 144.399 54.9786C145.297 54.1461 146.09 53.214 146.882 52.2837C147.77 51.405 148.619 50.4889 149.387 49.4999C150.489 48.4717 151.485 47.3439 152.451 46.1877C153.45 45.2218 154.382 44.1937 155.26 43.1157C156.224 42.237 157.025 41.2106 158 40.1913H154.107H154.108V40.1895Z" fill="url(#paint6_linear_369_33117)"/>
<path id="Vector_8" d="M59.7489 58.1661C59.388 58.7442 59.2554 59.406 59.0944 60.0517C58.684 61.6864 58.8485 63.2553 59.7029 64.7282C59.9399 65.1338 60.161 65.5518 60.5502 65.84C60.7218 66.105 60.9712 66.2704 61.2542 66.3932C61.447 66.5977 61.677 66.7383 61.9476 66.8112C62.2642 67.078 62.6551 67.1741 63.0372 67.2861C63.154 67.416 63.3096 67.3733 63.4547 67.3804C63.6634 67.5387 63.9075 67.5263 64.1481 67.5174C64.6805 67.7379 65.2413 67.6401 65.7914 67.6668C65.8958 67.7148 66.0054 67.7255 66.1133 67.7255C66.6458 67.7949 67.1782 67.7166 67.7283 67.5565C67.371 67.4587 67.0119 67.3591 66.6546 67.2612C65.9488 66.9713 65.3474 66.5124 64.7354 66.0694C64.4099 65.6514 64.0862 65.2334 63.7607 64.8171C63.2017 63.8317 63.2017 62.7537 63.2513 61.6722C63.2973 60.6672 63.6245 59.7208 63.8987 58.7638C64.1746 58.1537 64.4506 57.5436 64.7247 56.9316C65.006 56.4265 65.2873 55.9213 65.5667 55.4143C65.8851 54.9394 66.2053 54.4644 66.5237 53.9895C66.8934 53.5234 67.2631 53.0574 67.631 52.5913C68.052 52.1377 68.4748 51.6841 68.8958 51.2305C69.1505 51.1327 69.3628 50.9548 69.3663 50.6809C69.384 49.3254 69.3734 47.9682 69.3734 46.5896C69.0408 46.6572 68.8763 46.8102 68.7366 47.0005C68.2802 47.4221 67.8238 47.8437 67.3675 48.2635C67.0101 48.557 66.6405 48.8398 66.3857 49.2365C66.009 49.5478 65.6516 49.8768 65.3898 50.2984C65.0396 50.6044 64.7124 50.9299 64.463 51.3266C64.2224 51.6041 63.98 51.8816 63.7395 52.1591C63.4582 52.5291 63.1787 52.8991 62.8975 53.2708C62.5349 53.6551 62.2182 54.0766 61.96 54.5391C61.677 54.8291 61.4417 55.1528 61.256 55.5121C60.9623 55.8448 60.7501 56.2272 60.5732 56.631C60.2265 57.1024 59.9293 57.6005 59.7453 58.1608L59.7489 58.1661Z" fill="url(#paint7_linear_369_33117)"/>
<path id="Vector_9" d="M52.6238 64.8082V65.8275C52.6609 65.8311 52.6998 65.8364 52.737 65.84C52.7954 65.5109 52.8537 65.18 52.9103 64.8509C52.9121 63.9722 53.5754 63.3407 53.7647 62.5331C54.007 62.2218 54.1574 61.8625 54.2989 61.4996C54.5412 61.1741 54.7305 60.8201 54.8738 60.4412C55.1144 60.146 55.3054 59.8222 55.4398 59.4665C55.6291 59.269 55.7706 59.0431 55.8484 58.778C56.1898 58.4596 56.3119 58.0007 56.5702 57.6272C56.793 57.3835 56.9752 57.1131 57.0937 56.8018C57.329 56.5563 57.5183 56.277 57.6456 55.9604C57.8951 55.7149 58.0772 55.4268 58.2134 55.1066C58.4469 54.8682 58.6398 54.6014 58.7636 54.2883C59.0059 54.0535 59.1899 53.7814 59.319 53.4701C59.6498 53.2086 59.7825 52.8083 60.0106 52.4739C60.5183 52.0381 60.6899 51.4991 60.6828 50.8196C60.6527 47.5519 60.651 44.2825 60.6864 41.0148C60.6934 40.3548 60.4794 40.1859 59.8621 40.1912C57.5094 40.2125 55.1586 40.1912 52.806 40.1841C52.7883 40.1841 52.7688 40.1965 52.7511 40.2197C52.7494 40.2232 52.7511 40.2268 52.7511 40.2303C52.4982 40.4438 52.6326 40.7515 52.6326 41.0077C52.6238 48.9412 52.6255 56.8729 52.6255 64.8047V64.8082H52.6238Z" fill="url(#paint8_linear_369_33117)"/>
<path id="Vector_10" d="M99.142 36.3598C99.4763 36.5804 99.8549 36.5466 100.228 36.5519C100.389 36.6871 100.587 36.6818 100.78 36.696C101.153 36.833 101.525 36.9718 101.898 37.1087C102.223 37.3062 102.549 37.5036 102.876 37.7011C103.065 37.8718 103.255 38.0426 103.442 38.2151C103.64 38.4891 103.837 38.763 104.035 39.0387C104.217 39.4621 104.397 39.8872 104.58 40.3106C104.779 41.1715 104.887 42.0414 104.815 42.9272C104.67 43.1353 104.672 43.3737 104.65 43.6263C104.894 43.58 104.898 43.3844 104.956 43.2278C105.135 42.9219 105.31 42.6142 105.39 42.2637C106.117 40.8709 106.447 39.3785 106.493 37.8167C106.529 36.6 106.195 35.5007 105.397 34.5632C105.241 34.3231 105.105 34.0687 104.831 33.9389C104.664 33.8019 104.539 33.5938 104.277 33.624C104.059 33.4604 103.891 33.2167 103.585 33.2024C103.373 33.0583 103.149 32.9498 102.888 32.9338C102.623 32.8182 102.354 32.7275 102.059 32.7613C101.703 32.5976 101.325 32.6208 100.948 32.6208C100.587 32.498 100.214 32.5051 99.8407 32.5176C99.6072 32.4891 99.3737 32.4571 99.1438 32.5407C98.9987 33.8143 99.0005 35.088 99.1438 36.3616H99.142V36.3598Z" fill="url(#paint9_linear_369_33117)"/>
</g>
<defs>
<linearGradient id="paint0_linear_369_33117" x1="-25.5115" y1="35.3245" x2="161.559" y2="33.5444" gradientUnits="userSpaceOnUse">
<stop stop-color="#51B1CB"/>
<stop offset="0.24" stop-color="#0686B3"/>
<stop offset="0.51" stop-color="#6ABED3"/>
<stop offset="0.72" stop-color="#0686B3"/>
<stop offset="1" stop-color="#0686B3"/>
</linearGradient>
<linearGradient id="paint1_linear_369_33117" x1="-25.0782" y1="80.8551" x2="161.992" y2="79.075" gradientUnits="userSpaceOnUse">
<stop stop-color="#51B1CB"/>
<stop offset="0.24" stop-color="#0686B3"/>
<stop offset="0.51" stop-color="#6ABED3"/>
<stop offset="0.72" stop-color="#0686B3"/>
<stop offset="1" stop-color="#0686B3"/>
</linearGradient>
<linearGradient id="paint2_linear_369_33117" x1="-25.2018" y1="67.8003" x2="161.869" y2="66.0202" gradientUnits="userSpaceOnUse">
<stop stop-color="#51B1CB"/>
<stop offset="0.24" stop-color="#0686B3"/>
<stop offset="0.51" stop-color="#6ABED3"/>
<stop offset="0.72" stop-color="#0686B3"/>
<stop offset="1" stop-color="#0686B3"/>
</linearGradient>
<linearGradient id="paint3_linear_369_33117" x1="-25.3291" y1="54.4894" x2="161.741" y2="52.7092" gradientUnits="userSpaceOnUse">
<stop stop-color="#51B1CB"/>
<stop offset="0.24" stop-color="#0686B3"/>
<stop offset="0.51" stop-color="#6ABED3"/>
<stop offset="0.72" stop-color="#0686B3"/>
<stop offset="1" stop-color="#0686B3"/>
</linearGradient>
<linearGradient id="paint4_linear_369_33117" x1="-25.1966" y1="68.3162" x2="161.874" y2="66.5361" gradientUnits="userSpaceOnUse">
<stop stop-color="#51B1CB"/>
<stop offset="0.24" stop-color="#0686B3"/>
<stop offset="0.51" stop-color="#6ABED3"/>
<stop offset="0.72" stop-color="#0686B3"/>
<stop offset="1" stop-color="#0686B3"/>
</linearGradient>
<linearGradient id="paint5_linear_369_33117" x1="-25.4937" y1="37.2314" x2="161.579" y2="35.4512" gradientUnits="userSpaceOnUse">
<stop stop-color="#51B1CB"/>
<stop offset="0.24" stop-color="#0686B3"/>
<stop offset="0.51" stop-color="#6ABED3"/>
<stop offset="0.72" stop-color="#0686B3"/>
<stop offset="1" stop-color="#0686B3"/>
</linearGradient>
<linearGradient id="paint6_linear_369_33117" x1="-25.1896" y1="69.09" x2="161.881" y2="67.3099" gradientUnits="userSpaceOnUse">
<stop stop-color="#51B1CB"/>
<stop offset="0.24" stop-color="#0686B3"/>
<stop offset="0.51" stop-color="#6ABED3"/>
<stop offset="0.72" stop-color="#0686B3"/>
<stop offset="1" stop-color="#0686B3"/>
</linearGradient>
<linearGradient id="paint7_linear_369_33117" x1="-25.2956" y1="58.0683" x2="161.777" y2="56.2882" gradientUnits="userSpaceOnUse">
<stop stop-color="#51B1CB"/>
<stop offset="0.24" stop-color="#0686B3"/>
<stop offset="0.51" stop-color="#6ABED3"/>
<stop offset="0.72" stop-color="#0686B3"/>
<stop offset="1" stop-color="#0686B3"/>
</linearGradient>
<linearGradient id="paint8_linear_369_33117" x1="-25.3364" y1="53.7636" x2="161.734" y2="51.9834" gradientUnits="userSpaceOnUse">
<stop stop-color="#51B1CB"/>
<stop offset="0.24" stop-color="#0686B3"/>
<stop offset="0.51" stop-color="#6ABED3"/>
<stop offset="0.72" stop-color="#0686B3"/>
<stop offset="1" stop-color="#0686B3"/>
</linearGradient>
<linearGradient id="paint9_linear_369_33117" x1="-25.4742" y1="39.2842" x2="161.598" y2="37.5041" gradientUnits="userSpaceOnUse">
<stop stop-color="#51B1CB"/>
<stop offset="0.24" stop-color="#0686B3"/>
<stop offset="0.51" stop-color="#6ABED3"/>
<stop offset="0.72" stop-color="#0686B3"/>
<stop offset="1" stop-color="#0686B3"/>
</linearGradient>
</defs>
</svg>
