<svg width="437" height="230" viewBox="0 0 437 230" fill="none" xmlns="http://www.w3.org/2000/svg">
<path d="M386.346 197.648C377.372 202.597 368.882 205.788 362.173 208.31C283.319 237.95 190.014 229.31 170.184 227.2C140.901 224.084 84.2981 218.062 43.3752 192.851C-18.5378 154.709 -8.89697 94.6176 39.1269 54.9504C47.9113 47.6946 94.3125 7.42328 188.623 0.965051C245.699 -2.94342 312.23 4.93952 360.411 26.0857C461.546 70.4736 454.346 160.145 386.346 197.648Z" fill="url(#paint0_linear_192_135096)"/>
<path d="M95.2266 13.7921C94.0597 12.8954 96.2254 11.7058 98.3528 12.0675C119.956 15.7395 174.906 28.7014 191.952 67.2875C213.339 115.7 246.8 128.188 280.633 133.098C280.633 133.098 240.954 135.585 205.715 123.171C119.194 92.694 115.975 29.7366 95.2266 13.7921Z" fill="#BDD0FB"/>
<path d="M118.3 25.6059C124.117 30.3021 129.722 35.0591 134.927 39.9233C140.188 44.7712 145.117 49.7068 149.694 54.723C154.228 59.7489 158.552 64.8236 162.39 69.9988C166.28 75.1633 169.674 80.4227 173.041 85.7108C176.471 90.984 179.861 96.3084 184.461 101.431C189.04 106.546 195.053 111.424 202.901 115.551C204.86 116.579 206.871 117.592 209.001 118.533C211.09 119.495 213.28 120.409 215.509 121.303C219.987 123.08 224.755 124.707 229.794 126.149C239.892 129.019 251.069 131.117 262.67 132.461C263.891 132.602 265.223 132.238 265.646 131.648C266.062 131.068 265.445 130.485 264.267 130.33L264.258 130.329C261.465 129.964 258.686 129.583 255.966 129.144C254.596 128.935 253.254 128.696 251.901 128.47C250.574 128.22 249.219 127.994 247.913 127.724C242.644 126.686 237.572 125.467 232.756 124.068C223.101 121.297 214.423 117.79 206.909 113.854C203.202 111.864 199.843 109.733 196.871 107.472C193.903 105.209 191.325 102.817 189.051 100.341C184.5 95.3865 181.049 90.1339 177.535 84.8764C174.006 79.6205 170.379 74.354 166.281 69.1875C164.247 66.6013 162.111 64.0372 159.874 61.497C158.771 60.2233 157.614 58.9622 156.463 57.7001C155.284 56.4445 154.09 55.1928 152.874 53.9469C147.987 48.9685 142.763 44.0778 137.199 39.2873C131.584 34.5116 125.685 29.8205 119.387 25.2624C119.207 25.1321 118.821 25.1058 118.525 25.2037C118.237 25.2985 118.14 25.4764 118.3 25.6059Z" fill="white"/>
<path d="M218.67 115.095C217.476 116.624 213.689 117.018 211.443 115.858C199.046 109.461 167.119 89.7139 172.844 58.3882C177.679 31.9351 175.502 17.3505 173.638 10.7654C173.244 9.37292 176.472 8.52622 178.368 9.52387C199.283 20.531 261.926 59.6856 218.67 115.095Z" fill="#91B3FA"/>
<path d="M214.402 115.017C214.335 115.039 214.264 115.057 214.187 115.071C213.549 115.194 212.842 115.023 212.607 114.689C212.341 114.31 186.053 76.3626 189.603 39.4222C189.638 39.0668 190.216 38.7928 190.895 38.8104C191.574 38.8284 192.097 39.1312 192.063 39.4872C188.538 76.1587 214.654 113.867 214.918 114.244C215.125 114.538 214.896 114.861 214.402 115.017Z" fill="white"/>
<path d="M223.262 219.17H382.455C383.347 219.17 384.069 218.791 384.069 218.324V10.7009C384.069 10.234 383.346 9.85547 382.455 9.85547H223.262C222.371 9.85547 221.648 10.234 221.648 10.7009V218.324C221.649 218.791 222.371 219.17 223.262 219.17Z" fill="#80B9CF"/>
<path d="M276.85 219.17H434.156C435.568 219.17 436.713 218.57 436.713 217.83V11.1952C436.713 10.4553 435.568 9.85547 434.156 9.85547H276.85C275.438 9.85547 274.293 10.4553 274.293 11.1952V217.83C274.293 218.57 275.438 219.17 276.85 219.17Z" fill="#B3E5F1"/>
<path opacity="0.65" d="M416.389 40.8649H292.234C288.768 40.8649 285.948 38.9055 285.948 36.4972V24.234C285.948 21.8256 288.768 19.8662 292.234 19.8662H416.389C419.855 19.8662 422.675 21.8256 422.675 24.234V36.4972C422.675 38.9055 419.855 40.8649 416.389 40.8649ZM292.234 20.9582C289.634 20.9582 287.52 22.4277 287.52 24.234V36.4973C287.52 38.3036 289.634 39.7731 292.234 39.7731H416.389C418.989 39.7731 421.104 38.3036 421.104 36.4973V24.234C421.104 22.4276 418.989 20.9581 416.389 20.9581H292.234V20.9582Z" fill="#295F70"/>
<path opacity="0.65" d="M416.389 74.4626H292.234C288.768 74.4626 285.948 72.5032 285.948 70.0948V57.8316C285.948 55.4232 288.768 53.4639 292.234 53.4639H416.389C419.855 53.4639 422.675 55.4232 422.675 57.8316V70.0948C422.675 72.5031 419.855 74.4626 416.389 74.4626ZM292.234 54.5558C289.634 54.5558 287.52 56.0252 287.52 57.8316V70.0948C287.52 71.9012 289.634 73.3707 292.234 73.3707H416.389C418.989 73.3707 421.104 71.9013 421.104 70.0948V57.8316C421.104 56.0252 418.989 54.5558 416.389 54.5558H292.234Z" fill="#295F70"/>
<path opacity="0.65" d="M416.389 110.123H292.234C288.768 110.123 285.948 108.163 285.948 105.755V93.4918C285.948 91.0834 288.768 89.124 292.234 89.124H416.389C419.855 89.124 422.675 91.0834 422.675 93.4918V105.755C422.675 108.163 419.855 110.123 416.389 110.123ZM292.234 90.2159C289.634 90.2159 287.52 91.6853 287.52 93.4918V105.755C287.52 107.561 289.634 109.031 292.234 109.031H416.389C418.989 109.031 421.104 107.561 421.104 105.755V93.4918C421.104 91.6854 418.989 90.2159 416.389 90.2159H292.234Z" fill="#295F70"/>
<path opacity="0.65" d="M416.389 143.72H292.234C288.768 143.72 285.948 141.761 285.948 139.353V127.089C285.948 124.681 288.768 122.722 292.234 122.722H416.389C419.855 122.722 422.675 124.681 422.675 127.089V139.353C422.675 141.761 419.855 143.72 416.389 143.72ZM292.234 123.814C289.634 123.814 287.52 125.283 287.52 127.09V139.353C287.52 141.159 289.634 142.629 292.234 142.629H416.389C418.989 142.629 421.104 141.159 421.104 139.353V127.09C421.104 125.283 418.989 123.814 416.389 123.814H292.234Z" fill="#295F70"/>
<path opacity="0.65" d="M415.604 178.182H291.449C287.983 178.182 285.163 176.223 285.163 173.815V161.551C285.163 159.143 287.983 157.184 291.449 157.184H415.604C419.07 157.184 421.89 159.143 421.89 161.551V173.815C421.89 176.223 419.07 178.182 415.604 178.182ZM291.449 158.276C288.849 158.276 286.734 159.745 286.734 161.551V173.815C286.734 175.621 288.849 177.09 291.449 177.09H415.604C418.204 177.09 420.319 175.621 420.319 173.815V161.551C420.319 159.745 418.204 158.276 415.604 158.276H291.449Z" fill="#295F70"/>
<path opacity="0.65" d="M416.389 212.591H292.234C288.768 212.591 285.948 210.631 285.948 208.223V195.96C285.948 193.551 288.768 191.592 292.234 191.592H416.389C419.855 191.592 422.675 193.551 422.675 195.96V208.223C422.675 210.631 419.855 212.591 416.389 212.591ZM292.234 192.684C289.634 192.684 287.52 194.153 287.52 195.96V208.223C287.52 210.029 289.634 211.499 292.234 211.499H416.389C418.989 211.499 421.104 210.029 421.104 208.223V195.96C421.104 194.153 418.989 192.684 416.389 192.684H292.234Z" fill="#295F70"/>
<path d="M296.03 31.4459C297.694 31.4459 299.043 30.7742 299.043 29.9456C299.043 29.117 297.694 28.4453 296.03 28.4453C294.367 28.4453 293.018 29.117 293.018 29.9456C293.018 30.7742 294.367 31.4459 296.03 31.4459Z" fill="#295F70"/>
<path d="M296.03 65.4644C297.694 65.4644 299.043 64.7927 299.043 63.9641C299.043 63.1356 297.694 62.4639 296.03 62.4639C294.367 62.4639 293.018 63.1356 293.018 63.9641C293.018 64.7927 294.367 65.4644 296.03 65.4644Z" fill="#295F70"/>
<path d="M296.03 100.497C297.694 100.497 299.043 99.8249 299.043 98.9964C299.043 98.1678 297.694 97.4961 296.03 97.4961C294.367 97.4961 293.018 98.1678 293.018 98.9964C293.018 99.8249 294.367 100.497 296.03 100.497Z" fill="#295F70"/>
<path d="M296.03 134.721C297.694 134.721 299.043 134.05 299.043 133.221C299.043 132.392 297.694 131.721 296.03 131.721C294.367 131.721 293.018 132.392 293.018 133.221C293.018 134.05 294.367 134.721 296.03 134.721Z" fill="#295F70"/>
<path d="M296.03 169.183C297.694 169.183 299.043 168.511 299.043 167.683C299.043 166.854 297.694 166.183 296.03 166.183C294.367 166.183 293.018 166.854 293.018 167.683C293.018 168.511 294.367 169.183 296.03 169.183Z" fill="#295F70"/>
<path d="M294.722 203.592C296.385 203.592 297.734 202.921 297.734 202.092C297.734 201.263 296.385 200.592 294.722 200.592C293.058 200.592 291.71 201.263 291.71 202.092C291.71 202.921 293.058 203.592 294.722 203.592Z" fill="#295F70"/>
<path d="M314.703 201.746H309.753V211.059H314.703V201.746Z" fill="#295F70"/>
<path d="M322.972 204.947H318.023V211.059H322.972V204.947Z" fill="#295F70"/>
<path d="M331.242 197.037H326.292V211.059H331.242V197.037Z" fill="#295F70"/>
<path d="M339.511 207.69H334.562V211.059H339.511V207.69Z" fill="#295F70"/>
<path d="M347.781 198.911H342.832V211.058H347.781V198.911Z" fill="#295F70"/>
<path d="M356.054 201.015H351.105V211.059H356.054V201.015Z" fill="#295F70"/>
<path d="M364.324 203.301H359.375V211.059H364.324V203.301Z" fill="#295F70"/>
<path d="M372.593 194.202H367.644V211.059H372.593V194.202Z" fill="#295F70"/>
<path d="M380.863 195.985H375.913V211.059H380.863V195.985Z" fill="#295F70"/>
<path d="M389.132 198.683H384.183V211.059H389.132V198.683Z" fill="#295F70"/>
<path d="M397.402 208.003H392.453V211.059H397.402V208.003Z" fill="#295F70"/>
<path d="M405.672 202.066H400.722V211.059H405.672V202.066Z" fill="#295F70"/>
<path d="M314.834 166.798H309.885V176.11H314.834V166.798Z" fill="#295F70"/>
<path d="M323.104 169.999H318.154V176.111H323.104V169.999Z" fill="#295F70"/>
<path d="M331.373 162.089H326.424V176.111H331.373V162.089Z" fill="#295F70"/>
<path d="M339.643 172.742H334.693V176.111H339.643V172.742Z" fill="#295F70"/>
<path d="M347.912 163.963H342.963V176.11H347.912V163.963Z" fill="#295F70"/>
<path d="M356.185 166.066H351.236V176.11H356.185V166.066Z" fill="#295F70"/>
<path d="M364.455 168.353H359.506V176.11H364.455V168.353Z" fill="#295F70"/>
<path d="M372.725 159.254H367.775V176.111H372.725V159.254Z" fill="#295F70"/>
<path d="M380.994 161.037H376.045V176.111H380.994V161.037Z" fill="#295F70"/>
<path d="M389.264 163.734H384.314V176.11H389.264V163.734Z" fill="#295F70"/>
<path d="M397.533 173.055H392.584V176.111H397.533V173.055Z" fill="#295F70"/>
<path d="M405.803 167.118H400.854V176.111H405.803V167.118Z" fill="#295F70"/>
<path d="M313.105 132.477H308.155V141.789H313.105V132.477Z" fill="#295F70"/>
<path d="M321.374 135.678H316.425V141.79H321.374V135.678Z" fill="#295F70"/>
<path d="M329.643 127.768H324.694V141.79H329.643V127.768Z" fill="#295F70"/>
<path d="M337.913 138.421H332.964V141.789H337.913V138.421Z" fill="#295F70"/>
<path d="M346.182 129.642H341.233V141.789H346.182V129.642Z" fill="#295F70"/>
<path d="M354.456 131.745H349.507V141.789H354.456V131.745Z" fill="#295F70"/>
<path d="M362.726 134.031H357.776V141.789H362.726V134.031Z" fill="#295F70"/>
<path d="M370.995 124.933H366.046V141.789H370.995V124.933Z" fill="#295F70"/>
<path d="M379.265 126.716H374.315V141.789H379.265V126.716Z" fill="#295F70"/>
<path d="M387.534 129.413H382.585V141.789H387.534V129.413Z" fill="#295F70"/>
<path d="M395.804 138.733H390.854V141.789H395.804V138.733Z" fill="#295F70"/>
<path d="M404.073 132.797H399.124V141.789H404.073V132.797Z" fill="#295F70"/>
<path d="M313.244 98.7812H308.295V108.094H313.244V98.7812Z" fill="#295F70"/>
<path d="M321.514 101.982H316.564V108.094H321.514V101.982Z" fill="#295F70"/>
<path d="M329.783 94.0723H324.833V108.094H329.783V94.0723Z" fill="#295F70"/>
<path d="M338.053 104.726H333.103V108.094H338.053V104.726Z" fill="#295F70"/>
<path d="M346.322 95.9463H341.373V108.094H346.322V95.9463Z" fill="#295F70"/>
<path d="M354.595 98.0498H349.646V108.094H354.595V98.0498Z" fill="#295F70"/>
<path d="M362.865 100.336H357.916V108.094H362.865V100.336Z" fill="#295F70"/>
<path d="M371.135 91.2373H366.185V108.094H371.135V91.2373Z" fill="#295F70"/>
<path d="M379.404 93.0205H374.455V108.094H379.404V93.0205Z" fill="#295F70"/>
<path d="M387.674 95.7178H382.724V108.094H387.674V95.7178Z" fill="#295F70"/>
<path d="M395.943 105.038H390.994V108.094H395.943V105.038Z" fill="#295F70"/>
<path d="M404.213 99.1016H399.264V108.094H404.213V99.1016Z" fill="#295F70"/>
<path d="M313.105 63.29H308.155V72.6026H313.105V63.29Z" fill="#295F70"/>
<path d="M321.374 66.4902H316.425V72.6022H321.374V66.4902Z" fill="#295F70"/>
<path d="M329.643 58.5811H324.694V72.603H329.643V58.5811Z" fill="#295F70"/>
<path d="M337.913 69.2344H332.964V72.603H337.913V69.2344Z" fill="#295F70"/>
<path d="M346.182 60.4551H341.233V72.6024H346.182V60.4551Z" fill="#295F70"/>
<path d="M354.456 62.5586H349.507V72.6026H354.456V62.5586Z" fill="#295F70"/>
<path d="M362.726 64.8447H357.776V72.6027H362.726V64.8447Z" fill="#295F70"/>
<path d="M370.995 55.7461H366.046V72.6028H370.995V55.7461Z" fill="#295F70"/>
<path d="M379.265 57.5293H374.315V72.6028H379.265V57.5293Z" fill="#295F70"/>
<path d="M387.534 60.2266H382.585V72.6025H387.534V60.2266Z" fill="#295F70"/>
<path d="M395.804 69.5469H390.854V72.6029H395.804V69.5469Z" fill="#295F70"/>
<path d="M404.073 63.6104H399.124V72.6028H404.073V63.6104Z" fill="#295F70"/>
<path d="M313.244 29.5947H308.295V38.9073H313.244V29.5947Z" fill="#295F70"/>
<path d="M321.514 32.7959H316.564V38.9078H321.514V32.7959Z" fill="#295F70"/>
<path d="M329.783 24.8857H324.833V38.9077H329.783V24.8857Z" fill="#295F70"/>
<path d="M338.053 35.5391H333.103V38.9077H338.053V35.5391Z" fill="#295F70"/>
<path d="M346.322 26.7598H341.373V38.9071H346.322V26.7598Z" fill="#295F70"/>
<path d="M354.595 28.8633H349.646V38.9073H354.595V28.8633Z" fill="#295F70"/>
<path d="M362.865 31.1494H357.916V38.9074H362.865V31.1494Z" fill="#295F70"/>
<path d="M371.135 22.0508H366.185V38.9075H371.135V22.0508Z" fill="#295F70"/>
<path d="M379.404 23.834H374.455V38.9075H379.404V23.834Z" fill="#295F70"/>
<path d="M387.674 26.5312H382.724V38.9072H387.674V26.5312Z" fill="#295F70"/>
<path d="M395.943 35.8516H390.994V38.9076H395.943V35.8516Z" fill="#295F70"/>
<path d="M404.213 29.915H399.264V38.9075H404.213V29.915Z" fill="#295F70"/>
<path d="M155.48 190.255L147.554 218.908H239.507L227.53 190.255H155.48Z" fill="url(#paint1_linear_192_135096)"/>
<path d="M1.01514 98.5093V183.793C1.01514 190.809 11.6871 196.546 25.0749 196.727C84.5363 197.53 292.503 199.478 349.107 199.041C358.835 198.965 366.716 194.887 366.997 189.792C368.089 169.98 369.861 122.337 363.301 100.218C361.92 95.5604 354.415 92.0772 345.421 91.9266C295.6 91.0917 75.1411 88.4404 18.5644 89.1061C8.80657 89.2208 1.01514 93.3963 1.01514 98.5093Z" fill="url(#paint2_linear_192_135096)"/>
<path d="M11.2297 98.0943V179.12C11.2297 183.216 17.5064 186.554 25.3245 186.615L340.963 188.658C348.714 188.718 355.068 185.451 355.097 181.39L355.625 101.089C355.645 98.1851 351.229 95.8059 345.688 95.7353L22.5329 92.3152C16.3352 92.2362 11.2297 94.8466 11.2297 98.0943Z" fill="#B3E5F1"/>
<path d="M357.473 192.003C357.47 192.003 357.467 192.003 357.464 192.003L11.2212 188.913C10.954 188.91 10.741 188.795 10.7454 188.655C10.7501 188.515 10.9818 188.4 11.2377 188.405L357.481 191.496C357.748 191.499 357.961 191.614 357.957 191.754C357.952 191.892 357.736 192.003 357.473 192.003Z" fill="#91B3FA"/>
<path d="M187.766 195.777C185.512 195.777 183.679 194.816 183.679 193.636C183.679 192.456 185.512 191.495 187.766 191.495C190.019 191.495 191.852 192.456 191.852 193.636C191.852 194.816 190.019 195.777 187.766 195.777ZM187.766 192.002C186.046 192.002 184.647 192.735 184.647 193.636C184.647 194.537 186.046 195.27 187.766 195.27C189.485 195.27 190.884 194.537 190.884 193.636C190.884 192.735 189.485 192.002 187.766 192.002Z" fill="#91B3FA"/>
<path d="M259.315 226.527H124.735C121.079 226.527 118.334 225.164 119.04 223.699L120.767 220.121C121.287 219.045 123.546 218.256 126.23 218.212L255.97 216.091C258.774 216.045 261.256 216.825 261.867 217.943L264.98 223.641C265.789 225.122 263.03 226.527 259.315 226.527Z" fill="url(#paint3_linear_192_135096)"/>
<path d="M197.182 219.204C196.918 219.204 196.703 219.093 196.699 218.954C196.695 218.814 196.908 218.699 197.175 218.697L202.735 218.654C202.995 218.653 203.222 218.764 203.226 218.904C203.23 219.044 203.016 219.159 202.749 219.161L197.189 219.204H197.182Z" fill="#91B3FA"/>
<path d="M124.023 224.579C123.998 224.579 123.972 224.578 123.946 224.575C123.682 224.553 123.502 224.423 123.544 224.285L124.338 221.683C124.767 220.273 127.057 219.235 129.782 219.214L188.749 218.762C189.012 218.755 189.236 218.872 189.24 219.012C189.244 219.152 189.03 219.267 188.763 219.269L129.796 219.721C127.542 219.738 125.649 220.597 125.294 221.762L124.5 224.365C124.463 224.49 124.257 224.579 124.023 224.579Z" fill="#91B3FA"/>
<g opacity="0.53">
<path d="M223.567 149.359H211.355V182.43H223.567V149.359Z" fill="white"/>
<path d="M243.974 149.359H231.762V182.43H243.974V149.359Z" fill="white"/>
<path d="M264.376 149.359H252.164V182.43H264.376V149.359Z" fill="white"/>
<path d="M284.782 149.359H272.57V182.43H284.782V149.359Z" fill="white"/>
<path d="M305.189 149.359H292.977V182.43H305.189V149.359Z" fill="white"/>
<path d="M325.591 149.359H313.379V182.43H325.591V149.359Z" fill="white"/>
<path d="M345.997 149.359H333.785V182.43H345.997V149.359Z" fill="white"/>
</g>
<path d="M223.567 165.123H211.355V182.43H223.567V165.123Z" fill="#91B3FA"/>
<path d="M243.973 171.071H231.761V182.43H243.973V171.071Z" fill="#91B3FA"/>
<path d="M264.376 156.37H252.164V182.429H264.376V156.37Z" fill="#91B3FA"/>
<path d="M284.782 176.169H272.57V182.429H284.782V176.169Z" fill="#91B3FA"/>
<path d="M305.188 159.854H292.976V182.43H305.188V159.854Z" fill="#91B3FA"/>
<path d="M325.59 163.763H313.378V182.429H325.59V163.763Z" fill="#91B3FA"/>
<path d="M345.997 168.012H333.785V182.43H345.997V168.012Z" fill="#91B3FA"/>
<path opacity="0.57" d="M50.8632 156.053C36.9246 156.053 25.6252 161.972 25.6252 169.274C25.6252 176.576 36.9246 182.495 50.8632 182.495C64.8018 182.495 76.1011 176.576 76.1011 169.274C76.1012 161.972 64.8018 156.053 50.8632 156.053ZM50.8632 176.806C42.9221 176.806 36.4847 173.434 36.4847 169.274C36.4847 165.114 42.9222 161.742 50.8632 161.742C58.8041 161.742 65.2418 165.114 65.2418 169.274C65.2418 173.434 58.8042 176.806 50.8632 176.806Z" fill="white"/>
<mask id="mask0_192_135096" style="mask-type:luminance" maskUnits="userSpaceOnUse" x="25" y="156" width="52" height="27">
<path d="M50.8684 156.053C36.9297 156.053 25.6304 161.972 25.6304 169.274C25.6304 176.576 36.9297 182.495 50.8684 182.495C64.807 182.495 76.1062 176.576 76.1062 169.274C76.1063 161.972 64.807 156.053 50.8684 156.053ZM50.8684 176.806C42.9272 176.806 36.4898 173.434 36.4898 169.274C36.4898 165.114 42.9273 161.742 50.8684 161.742C58.8092 161.742 65.2469 165.114 65.2469 169.274C65.2469 173.434 58.8094 176.806 50.8684 176.806Z" fill="white"/>
</mask>
<g mask="url(#mask0_192_135096)">
<path d="M90.5884 166.366H15.6196V182.987H90.5884V166.366Z" fill="#91B3FA"/>
</g>
<path opacity="0.57" d="M112.377 156.053C98.4386 156.053 87.1394 161.972 87.1394 169.274C87.1394 176.576 98.4388 182.495 112.377 182.495C126.316 182.495 137.615 176.576 137.615 169.274C137.615 161.972 126.316 156.053 112.377 156.053ZM112.377 176.806C104.436 176.806 97.9987 173.434 97.9987 169.274C97.9987 165.114 104.436 161.742 112.377 161.742C120.318 161.742 126.756 165.114 126.756 169.274C126.756 173.434 120.318 176.806 112.377 176.806Z" fill="white"/>
<mask id="mask1_192_135096" style="mask-type:luminance" maskUnits="userSpaceOnUse" x="87" y="156" width="51" height="27">
<path d="M112.373 156.053C98.4347 156.053 87.1355 161.972 87.1355 169.274C87.1355 176.576 98.4349 182.495 112.373 182.495C126.312 182.495 137.611 176.576 137.611 169.274C137.611 161.972 126.312 156.053 112.373 156.053ZM112.373 176.806C104.432 176.806 97.9948 173.434 97.9948 169.274C97.9948 165.114 104.432 161.742 112.373 161.742C120.315 161.742 126.752 165.114 126.752 169.274C126.752 173.434 120.315 176.806 112.373 176.806Z" fill="white"/>
</mask>
<g mask="url(#mask1_192_135096)">
<path d="M152.098 159.942H77.1294V182.987H152.098V159.942Z" fill="#91B3FA"/>
</g>
<path opacity="0.57" d="M173.905 156.053C159.966 156.053 148.667 161.972 148.667 169.274C148.667 176.576 159.966 182.495 173.905 182.495C187.843 182.495 199.143 176.576 199.143 169.274C199.143 161.972 187.843 156.053 173.905 156.053ZM173.905 176.806C165.964 176.806 159.526 173.434 159.526 169.274C159.526 165.114 165.964 161.742 173.905 161.742C181.846 161.742 188.283 165.114 188.283 169.274C188.283 173.434 181.846 176.806 173.905 176.806Z" fill="white"/>
<mask id="mask2_192_135096" style="mask-type:luminance" maskUnits="userSpaceOnUse" x="148" y="156" width="52" height="27">
<path d="M173.909 156.053C159.971 156.053 148.671 161.972 148.671 169.274C148.671 176.576 159.97 182.495 173.909 182.495C187.848 182.495 199.147 176.576 199.147 169.274C199.147 161.972 187.848 156.053 173.909 156.053ZM173.909 176.806C165.968 176.806 159.53 173.434 159.53 169.274C159.53 165.114 165.968 161.742 173.909 161.742C181.85 161.742 188.288 165.114 188.288 169.274C188.288 173.434 181.85 176.806 173.909 176.806Z" fill="white"/>
</mask>
<g mask="url(#mask2_192_135096)">
<path d="M213.63 174.677H138.661V182.987H213.63V174.677Z" fill="#91B3FA"/>
</g>
<g opacity="0.48">
<path d="M218.61 103.704H174.052C172.188 103.704 170.677 104.43 170.677 105.326C170.677 106.221 172.188 106.947 174.052 106.947H218.61C220.474 106.947 221.985 106.221 221.985 105.326C221.985 104.43 220.474 103.704 218.61 103.704Z" fill="white"/>
<path d="M218.61 110.884H174.052C172.188 110.884 170.677 111.61 170.677 112.505C170.677 113.401 172.188 114.127 174.052 114.127H218.61C220.474 114.127 221.985 113.401 221.985 112.505C221.985 111.61 220.474 110.884 218.61 110.884Z" fill="white"/>
<path d="M218.61 139.605H174.052C172.188 139.605 170.677 140.331 170.677 141.227C170.677 142.123 172.188 142.849 174.052 142.849H218.61C220.474 142.849 221.985 142.123 221.985 141.227C221.985 140.331 220.474 139.605 218.61 139.605Z" fill="white"/>
<path d="M218.61 132.425H174.052C172.188 132.425 170.677 133.151 170.677 134.046C170.677 134.942 172.188 135.668 174.052 135.668H218.61C220.474 135.668 221.985 134.942 221.985 134.046C221.985 133.151 220.474 132.425 218.61 132.425Z" fill="white"/>
<path d="M218.61 125.245H174.052C172.188 125.245 170.677 125.971 170.677 126.867C170.677 127.762 172.188 128.488 174.052 128.488H218.61C220.474 128.488 221.985 127.762 221.985 126.867C221.985 125.971 220.474 125.245 218.61 125.245Z" fill="white"/>
</g>
<g opacity="0.48">
<path d="M280.548 103.704H235.99C234.126 103.704 232.615 104.43 232.615 105.326C232.615 106.221 234.126 106.947 235.99 106.947H280.548C282.412 106.947 283.923 106.221 283.923 105.326C283.923 104.43 282.412 103.704 280.548 103.704Z" fill="white"/>
<path d="M280.548 110.884H235.99C234.126 110.884 232.615 111.61 232.615 112.505C232.615 113.401 234.126 114.127 235.99 114.127H280.548C282.412 114.127 283.923 113.401 283.923 112.505C283.923 111.61 282.412 110.884 280.548 110.884Z" fill="white"/>
<path d="M280.548 139.605H235.99C234.126 139.605 232.615 140.331 232.615 141.227C232.615 142.123 234.126 142.849 235.99 142.849H280.548C282.412 142.849 283.923 142.123 283.923 141.227C283.923 140.331 282.412 139.605 280.548 139.605Z" fill="white"/>
<path d="M280.548 132.425H235.99C234.126 132.425 232.615 133.151 232.615 134.046C232.615 134.942 234.126 135.668 235.99 135.668H280.548C282.412 135.668 283.923 134.942 283.923 134.046C283.923 133.151 282.412 132.425 280.548 132.425Z" fill="white"/>
<path d="M280.548 125.245H235.99C234.126 125.245 232.615 125.971 232.615 126.867C232.615 127.762 234.126 128.488 235.99 128.488H280.548C282.412 128.488 283.923 127.762 283.923 126.867C283.923 125.971 282.412 125.245 280.548 125.245Z" fill="white"/>
</g>
<g opacity="0.48">
<path d="M342.486 103.704H297.928C296.064 103.704 294.553 104.43 294.553 105.326C294.553 106.221 296.064 106.947 297.928 106.947H342.486C344.35 106.947 345.861 106.221 345.861 105.326C345.861 104.43 344.35 103.704 342.486 103.704Z" fill="white"/>
<path d="M342.486 110.884H297.928C296.064 110.884 294.553 111.61 294.553 112.505C294.553 113.401 296.064 114.127 297.928 114.127H342.486C344.35 114.127 345.861 113.401 345.861 112.505C345.861 111.61 344.35 110.884 342.486 110.884Z" fill="white"/>
<path d="M342.486 139.605H297.928C296.064 139.605 294.553 140.331 294.553 141.227C294.553 142.123 296.064 142.849 297.928 142.849H342.486C344.35 142.849 345.861 142.123 345.861 141.227C345.861 140.331 344.35 139.605 342.486 139.605Z" fill="white"/>
<path d="M342.486 132.425H297.928C296.064 132.425 294.553 133.151 294.553 134.046C294.553 134.942 296.064 135.668 297.928 135.668H342.486C344.35 135.668 345.861 134.942 345.861 134.046C345.861 133.151 344.35 132.425 342.486 132.425Z" fill="white"/>
<path d="M342.486 125.245H297.928C296.064 125.245 294.553 125.971 294.553 126.867C294.553 127.762 296.064 128.488 297.928 128.488H342.486C344.35 128.488 345.861 127.762 345.861 126.867C345.861 125.971 344.35 125.245 342.486 125.245Z" fill="white"/>
</g>
<path d="M41.0439 144.947H146.44C149.801 144.947 152.526 143.52 152.526 141.759V59.0619C152.526 57.3046 149.811 55.8787 146.457 55.874L40.2174 55.7246C36.8375 55.7198 34.0977 57.1589 34.1158 58.9295L34.9587 141.776C34.9765 143.53 37.6958 144.947 41.0439 144.947Z" fill="#91B3FA"/>
<path opacity="0.6" d="M46.2113 59.8048L140.453 60.1087C143.859 60.1197 146.605 61.5738 146.589 63.3584L145.932 137.582C145.916 139.34 143.224 140.769 139.87 140.801L48.3026 141.676C44.8827 141.709 42.0637 140.279 42.0157 138.487L39.9992 63.0847C39.9507 61.2729 42.7524 59.7935 46.2113 59.8048Z" fill="white"/>
<path opacity="0.6" d="M50.0415 63.9638V64.3042C50.0415 64.8386 50.8685 65.272 51.8888 65.272H124.501C125.521 65.272 126.348 64.8387 126.348 64.3042V63.9638C126.348 63.4294 125.521 62.9961 124.501 62.9961H51.8887C50.8685 62.9962 50.0415 63.4294 50.0415 63.9638Z" fill="white"/>
<path opacity="0.6" d="M58.1419 68.2446C58.1943 68.7512 58.9847 69.1506 59.9529 69.1598L123.456 69.7661C124.489 69.776 125.337 69.3399 125.337 68.7986V68.7196C125.337 68.1911 124.528 67.7604 123.519 67.752L60.0158 67.2247C58.9449 67.2158 58.0839 67.6844 58.1419 68.2446Z" fill="white"/>
<path opacity="0.61" d="M51.6604 139.187C48.7553 139.187 46.3614 137.959 46.31 136.433L44.2494 75.7273C44.1969 74.1846 46.5505 72.9048 49.4958 72.8746L135.238 72.0002C136.674 71.9908 138.022 72.2636 139.053 72.7832C140.083 73.3028 140.665 74.0011 140.692 74.75L142.902 135.79C142.93 136.543 142.394 137.255 141.394 137.795C140.394 138.335 139.053 138.638 137.616 138.647L51.7247 139.187C51.7035 139.187 51.6816 139.187 51.6604 139.187ZM135.343 73.0098C135.321 73.0098 135.298 73.01 135.275 73.0102L49.5334 73.8846C47.6491 73.9036 46.1434 74.7224 46.1769 75.7095L48.2375 136.415C48.2707 137.391 49.8022 138.177 51.6607 138.177C51.6744 138.177 51.688 138.177 51.7016 138.177L137.593 137.637C138.512 137.631 139.37 137.437 140.01 137.092C140.649 136.746 140.992 136.291 140.975 135.809L138.765 74.7692C138.747 74.2901 138.375 73.8433 137.716 73.5111C137.073 73.1871 136.233 73.0098 135.343 73.0098Z" fill="white"/>
<path opacity="0.61" d="M139.868 79.1184H46.3258C45.7934 79.1184 45.3618 78.8923 45.3618 78.6134C45.3618 78.3345 45.7934 78.1084 46.3258 78.1084H139.868C140.401 78.1084 140.832 78.3345 140.832 78.6134C140.832 78.8923 140.401 79.1184 139.868 79.1184Z" fill="white"/>
<path opacity="0.73" d="M95.7276 127.437C75.4592 127.437 58.9697 118.799 58.9697 108.181C58.9697 97.5631 75.4594 88.9248 95.7276 88.9248C115.996 88.9248 132.486 97.5632 132.486 108.181C132.486 118.799 115.996 127.437 95.7276 127.437ZM95.7276 94.9637C81.8156 94.9637 70.4972 100.893 70.4972 108.181C70.4972 115.469 81.8156 121.399 95.7276 121.399C109.64 121.399 120.958 115.469 120.958 108.181C120.958 100.893 109.64 94.9637 95.7276 94.9637Z" fill="white"/>
<path d="M132.385 106.74L120.89 107.192C120.936 107.519 120.961 107.848 120.961 108.181C120.961 109.756 120.431 111.267 119.462 112.669L130.305 114.719C131.717 112.677 132.488 110.475 132.488 108.181C132.488 107.696 132.453 107.216 132.385 106.74Z" fill="#99D0E4"/>
<path d="M95.7276 121.399C81.8156 121.399 70.4972 115.469 70.4972 108.181C70.4972 100.893 81.8156 94.9637 95.7276 94.9637C97.8472 94.9637 99.9059 95.1021 101.874 95.3611L104.682 89.5038C101.815 89.1264 98.8154 88.9248 95.7276 88.9248C75.4592 88.9248 58.9697 97.5632 58.9697 108.181C58.9697 118.799 75.4594 127.437 95.7276 127.437C111.616 127.437 125.182 122.129 130.303 114.719L119.46 112.669C115.945 117.754 106.634 121.399 95.7276 121.399Z" fill="#295F70"/>
<path d="M120.888 107.192L132.383 106.74C132.029 104.249 130.767 101.889 128.769 99.749L118.407 102.393C119.778 103.862 120.645 105.482 120.888 107.192Z" fill="#99D0E4"/>
<path d="M379.546 222.158C379.546 222.158 380.401 224.56 380.842 226.94C381.015 227.87 379.66 228.685 377.878 228.733C371.826 228.896 358.879 229.217 354.229 229.132C353.53 229.119 353.067 228.747 353.319 228.405C353.53 228.119 353.944 227.886 354.474 227.755L375.774 222.497L379.546 222.158Z" fill="url(#paint4_linear_192_135096)"/>
<path d="M380.189 220.741L379.589 223.622C379.589 223.622 375.858 224.555 373.28 223.538L374.774 220.323L380.189 220.741Z" fill="url(#paint5_linear_192_135096)"/>
<path d="M378.712 166.634C379.007 167.384 380.906 204.133 373.706 220.642C373.589 220.911 373.854 221.187 374.344 221.289C375.499 221.53 377.761 221.875 380.464 221.909C381.301 221.919 382.046 221.631 382.275 221.209C384.349 217.376 394.273 198.178 395.28 179.88C396.405 159.434 395.267 179.184 395.267 179.184L394.159 166.555L378.712 166.634Z" fill="url(#paint6_linear_192_135096)"/>
<path d="M404.181 223.29C404.181 223.29 405.495 224.498 406.804 227.72C407.04 228.302 406.273 228.864 405.144 228.927C403.146 229.04 400.071 229.188 397.605 229.192C396.469 229.193 395.572 228.679 395.698 228.087C395.95 226.908 396.766 224.971 399.366 223.451L404.181 223.29Z" fill="url(#paint7_linear_192_135096)"/>
<path d="M405.25 219.583L403.806 223.943C403.806 223.943 402.31 224.538 399.323 224.127L399.965 219.44L405.25 219.583Z" fill="url(#paint8_linear_192_135096)"/>
<path d="M408.419 167.613C414.906 186.975 407.962 215.55 405.546 221.148C405.398 221.491 404.876 221.756 404.215 221.816C403.093 221.92 401.245 222.008 399.416 221.74C398.786 221.648 398.339 221.353 398.307 221.01C397.887 216.496 397.99 188.771 392.075 177.844C391.775 177.29 391.119 176.809 390.218 176.48L379.05 172.404L378.077 165.73L408.419 167.613Z" fill="url(#paint9_linear_192_135096)"/>
<path d="M368.659 131.064C387.038 130.813 407.369 133.399 407.369 133.399C413.153 150.12 408.984 169.461 408.984 169.461C394.789 171.487 378.678 168.417 378.678 168.417C376.186 161.428 364.791 141.782 364.791 141.782C355.799 141.243 348.376 139.922 342.25 138.158C346.846 135.313 348.972 131.71 349.885 129.583C356.403 130.609 362.99 131.141 368.659 131.064Z" fill="url(#paint10_linear_192_135096)"/>
<path d="M314.106 117.151C315.891 115.999 318.186 116.529 318.186 116.529C321 122.501 335.272 127.284 349.887 129.583C348.974 131.711 346.848 135.313 342.252 138.158C317.939 131.156 314.106 117.151 314.106 117.151Z" fill="url(#paint11_linear_192_135096)"/>
<path d="M314.553 117.439C314.37 117.755 316.567 118.223 317.832 116.929C317.866 116.312 318.534 113.666 317.821 113.167C314.025 110.51 306.699 107.191 306.699 107.191C305.483 107.832 306.506 108.451 306.506 108.451L310.065 110.356C309.341 111.058 308.452 111.651 308.046 112.497C307.739 113.138 307.946 113.82 308.573 114.399C309.203 114.98 310.06 115.735 310.869 116.325C312.4 117.441 314.553 117.439 314.553 117.439Z" fill="url(#paint12_linear_192_135096)"/>
<path d="M311.629 111.597L314.866 113.007L315.9 114.422L313.067 116.1C313.067 116.1 312.053 113.288 311.327 112.681C310.6 112.075 310.966 111.778 311.629 111.597Z" fill="url(#paint13_linear_192_135096)"/>
<path d="M400.491 142.758L407.372 133.398C407.372 133.398 424.653 139.424 427.618 147.159C424.376 147.3 418.481 147.772 412.73 149.329C411.393 145.676 400.491 142.758 400.491 142.758Z" fill="url(#paint14_linear_192_135096)"/>
<path d="M385.649 151.607C385.649 151.607 405.031 157.218 411.446 152.312C412.778 151.293 413.083 150.286 412.733 149.329C418.483 147.771 424.379 147.3 427.621 147.158C428.515 149.49 428.11 151.977 425.535 154.501C414.34 165.476 383.144 154.109 383.144 154.109L385.649 151.607Z" fill="url(#paint15_linear_192_135096)"/>
<path d="M387.138 123.152L393.149 131.984C393.248 132.13 393.136 132.293 392.878 132.37C391.292 132.84 385.572 134.203 378.608 131.939C377.883 131.703 377.385 131.315 377.267 130.872L375.233 123.212L387.138 123.152Z" fill="url(#paint16_linear_192_135096)"/>
<path d="M374.266 115.011C374.266 115.011 367.959 121.376 368.829 123.931C369.698 126.485 377.655 126.261 384.568 124.149L389.301 117.286L374.266 115.011Z" fill="url(#paint17_linear_192_135096)"/>
<path d="M384.198 120.792C383.914 120.728 383.807 120.547 383.974 120.411C384.481 119.997 385.43 119.152 385.724 118.415C385.724 118.415 386.872 118.022 382.769 117.529C378.667 117.036 372.548 116.27 371.232 114.451C369.949 112.678 373.154 108.186 378.462 111.726C378.664 111.86 379.055 111.861 379.252 111.724C380.101 111.134 382.339 109.906 385.49 110.628C388.438 111.304 388.79 112.429 388.76 112.997C388.751 113.165 389.039 113.293 389.352 113.26C390.833 113.104 394.394 112.959 396.091 114.865C397.49 116.435 396.616 117.333 395.813 117.773C395.553 117.916 395.672 118.148 396.033 118.204C397.012 118.356 398.28 118.783 398.175 119.981C398.031 121.637 394.495 121.509 393.488 121.439C393.323 121.427 393.157 121.458 393.047 121.523C392.194 122.027 388.346 124.17 384.145 124.447C383.781 124.471 383.495 124.284 383.611 124.101L385.381 121.321C385.463 121.192 385.343 121.051 385.104 120.997L384.198 120.792Z" fill="url(#paint18_linear_192_135096)"/>
<path d="M383.476 121.189C383.476 121.189 388.019 119.523 388.378 120.905C388.738 122.287 384.297 122.93 382.082 122.425L383.476 121.189Z" fill="url(#paint19_linear_192_135096)"/>
<path d="M389.602 160.475L379.044 141.159C378.924 140.94 378.567 140.78 378.135 140.754C376.222 140.637 370.679 140.309 364.28 140.025C356.571 139.684 347.619 139.407 342.269 139.642C341.509 139.676 341.049 140.097 341.387 140.456C344.429 143.68 356.942 156.795 363.209 161.091C363.416 161.233 363.737 161.316 364.079 161.315L388.575 161.195C389.288 161.192 389.798 160.834 389.602 160.475Z" fill="url(#paint20_linear_192_135096)"/>
<path d="M387.052 155.808C387.052 155.808 388.523 152.64 387.929 151.516C387.336 150.392 386.187 148.947 382.356 149.268C378.524 149.589 374.005 150.435 374.005 150.435C374.005 150.435 374.233 151.899 377.145 151.427L375.339 152.158C375.339 152.158 375.597 153.331 378.057 152.704L376.378 153.675C376.378 153.675 377.434 154.638 379.243 154.02C381.053 153.403 381.92 156.19 387.052 155.808Z" fill="url(#paint21_linear_192_135096)"/>
<path d="M364.987 145.792C364.987 146.688 363.6 147.415 361.888 147.415C360.177 147.415 358.789 146.688 358.789 145.792C358.789 144.895 360.177 144.168 361.888 144.168C363.6 144.168 364.987 144.895 364.987 145.792Z" fill="#91B3FA"/>
<path d="M377.852 146.862L375.703 143.042C375.439 142.573 374.719 142.22 373.824 142.122C367.087 141.386 348.646 141.23 348.461 141.228L348.473 140.797C349.234 140.803 367.178 140.955 373.992 141.7C375.185 141.83 376.143 142.298 376.493 142.92L378.643 146.74L377.852 146.862Z" fill="#91B3FA"/>
<defs>
<linearGradient id="paint0_linear_192_135096" x1="493.821" y1="297.884" x2="343.792" y2="-57.7914" gradientUnits="userSpaceOnUse">
<stop stop-color="#DAE3FE"/>
<stop offset="1" stop-color="#E9EFFD"/>
</linearGradient>
<linearGradient id="paint1_linear_192_135096" x1="194.38" y1="171.989" x2="193.944" y2="259.65" gradientUnits="userSpaceOnUse">
<stop stop-color="#09005D"/>
<stop offset="0.821" stop-color="#170C88"/>
<stop offset="1" stop-color="#1A0F91"/>
</linearGradient>
<linearGradient id="paint2_linear_192_135096" x1="186.151" y1="86.7624" x2="185.063" y2="196.048" gradientUnits="userSpaceOnUse">
<stop stop-color="#09005D"/>
<stop offset="1" stop-color="#1A0F91"/>
</linearGradient>
<linearGradient id="paint3_linear_192_135096" x1="188.061" y1="177.432" x2="189.368" y2="233.595" gradientUnits="userSpaceOnUse">
<stop stop-color="#09005D"/>
<stop offset="1" stop-color="#1A0F91"/>
</linearGradient>
<linearGradient id="paint4_linear_192_135096" x1="354.722" y1="218.957" x2="387.595" y2="285.923" gradientUnits="userSpaceOnUse">
<stop stop-color="#09005D"/>
<stop offset="1" stop-color="#1A0F91"/>
</linearGradient>
<linearGradient id="paint5_linear_192_135096" x1="380.214" y1="222.145" x2="373.257" y2="222.271" gradientUnits="userSpaceOnUse">
<stop stop-color="#A22B25"/>
<stop offset="1" stop-color="#C0423C"/>
</linearGradient>
<linearGradient id="paint6_linear_192_135096" x1="347.636" y1="168.501" x2="372.757" y2="232.22" gradientUnits="userSpaceOnUse">
<stop stop-color="#09005D"/>
<stop offset="1" stop-color="#1A0F91"/>
</linearGradient>
<linearGradient id="paint7_linear_192_135096" x1="372.145" y1="210.403" x2="405.019" y2="277.373" gradientUnits="userSpaceOnUse">
<stop stop-color="#09005D"/>
<stop offset="1" stop-color="#1A0F91"/>
</linearGradient>
<linearGradient id="paint8_linear_192_135096" x1="405.291" y1="221.833" x2="399.284" y2="221.942" gradientUnits="userSpaceOnUse">
<stop stop-color="#A22B25"/>
<stop offset="1" stop-color="#C0423C"/>
</linearGradient>
<linearGradient id="paint9_linear_192_135096" x1="359.437" y1="163.85" x2="384.558" y2="227.568" gradientUnits="userSpaceOnUse">
<stop stop-color="#09005D"/>
<stop offset="1" stop-color="#1A0F91"/>
</linearGradient>
<linearGradient id="paint10_linear_192_135096" x1="342.25" y1="149.868" x2="410.438" y2="149.868" gradientUnits="userSpaceOnUse">
<stop stop-color="#DAE3FE"/>
<stop offset="1" stop-color="#E9EFFD"/>
</linearGradient>
<linearGradient id="paint11_linear_192_135096" x1="349.843" y1="127.182" x2="314.299" y2="127.826" gradientUnits="userSpaceOnUse">
<stop stop-color="#A22B25"/>
<stop offset="1" stop-color="#C0423C"/>
</linearGradient>
<linearGradient id="paint12_linear_192_135096" x1="322.158" y1="124.197" x2="329.781" y2="156.469" gradientUnits="userSpaceOnUse">
<stop stop-color="#A22B25"/>
<stop offset="1" stop-color="#C0423C"/>
</linearGradient>
<linearGradient id="paint13_linear_192_135096" x1="314.237" y1="114.766" x2="310.674" y2="104.524" gradientUnits="userSpaceOnUse">
<stop stop-color="#A22B25"/>
<stop offset="1" stop-color="#C0423C"/>
</linearGradient>
<linearGradient id="paint14_linear_192_135096" x1="400.491" y1="141.364" x2="427.618" y2="141.364" gradientUnits="userSpaceOnUse">
<stop stop-color="#DAE3FE"/>
<stop offset="1" stop-color="#E9EFFD"/>
</linearGradient>
<linearGradient id="paint15_linear_192_135096" x1="428.121" y1="153.173" x2="383.141" y2="153.988" gradientUnits="userSpaceOnUse">
<stop stop-color="#A22B25"/>
<stop offset="1" stop-color="#C0423C"/>
</linearGradient>
<linearGradient id="paint16_linear_192_135096" x1="393.113" y1="128.149" x2="375.329" y2="128.471" gradientUnits="userSpaceOnUse">
<stop stop-color="#A22B25"/>
<stop offset="1" stop-color="#C0423C"/>
</linearGradient>
<linearGradient id="paint17_linear_192_135096" x1="370.99" y1="122.33" x2="382.169" y2="109.035" gradientUnits="userSpaceOnUse">
<stop stop-color="#A22B25"/>
<stop offset="1" stop-color="#C0423C"/>
</linearGradient>
<linearGradient id="paint18_linear_192_135096" x1="400.666" y1="109.345" x2="388.374" y2="128.242" gradientUnits="userSpaceOnUse">
<stop stop-color="#09005D"/>
<stop offset="1" stop-color="#1A0F91"/>
</linearGradient>
<linearGradient id="paint19_linear_192_135096" x1="376.17" y1="124.635" x2="386.228" y2="112.673" gradientUnits="userSpaceOnUse">
<stop stop-color="#A22B25"/>
<stop offset="1" stop-color="#C0423C"/>
</linearGradient>
<linearGradient id="paint20_linear_192_135096" x1="371.058" y1="138.197" x2="363.965" y2="194.616" gradientUnits="userSpaceOnUse">
<stop stop-color="#09005D"/>
<stop offset="1" stop-color="#1A0F91"/>
</linearGradient>
<linearGradient id="paint21_linear_192_135096" x1="388.071" y1="152.533" x2="374.005" y2="152.533" gradientUnits="userSpaceOnUse">
<stop stop-color="#A22B25"/>
<stop offset="1" stop-color="#C0423C"/>
</linearGradient>
</defs>
</svg>
