<svg width="210" height="60" viewBox="0 0 210 60" fill="none" xmlns="http://www.w3.org/2000/svg">
<g id="Group">
<g id="Group_2">
<path id="Vector" opacity="0.4" d="M20.9864 39.0112H14.1416V46.9965H20.9864V39.0112Z" fill="white"/>
<path id="Vector_2" d="M68.4372 0V46.9963H54.2931V12.7764H14.1416V0H68.4372Z" fill="#010C55"/>
<path id="Vector_3" d="M54.2931 12.7764V46.9962H20.9843V39.011H14.1416V12.7764H54.2931Z" fill="#04338B"/>
<path id="Vector_4" d="M54.2935 46.9962V59.7706H20.7575L0 39.011V12.7764H14.142V39.011H20.9847V46.9962H54.2935Z" fill="#0479CB"/>
<path id="Vector_5" d="M20.9847 39.0112V60.0002L20.7575 59.7708L0 39.0112H20.9847Z" fill="#07C1FC"/>
</g>
<g id="Group_3">
<path id="Vector_6" d="M102.247 14.6899V32.6186H97.4988V20.08H97.2057L94.7252 31.7394H90.1357L87.6276 20.08H87.36V32.6186H82.6113V14.6899H90.5881L92.4294 25.3618L94.2707 14.6899H102.247Z" fill="white"/>
<path id="Vector_7" d="M114.733 30.323H109.504L109.158 32.6166H104.356L107.799 14.688H116.443L119.885 32.6166H115.081L114.733 30.323ZM112.705 18.5851H111.53L110.303 26.2157H113.932L112.705 18.5851Z" fill="white"/>
<path id="Vector_8" d="M122.017 32.2194L121.057 32.0049L121.537 28.3776C123.886 28.6983 125.7 28.8576 126.98 28.8576C128.367 28.8576 129.062 28.3776 129.062 27.4177C129.062 27.08 128.907 26.8124 128.595 26.617C128.282 26.4216 127.826 26.2071 127.22 25.9778C126.83 25.8355 126.545 25.7208 126.367 25.6316C124.356 24.9562 122.928 24.1811 122.085 23.3103C121.24 22.4396 120.817 21.3459 120.817 20.0292C120.817 18.1624 121.387 16.748 122.525 15.788C123.663 14.8281 125.211 14.3481 127.167 14.3481C127.968 14.3481 128.728 14.4012 129.448 14.5074C130.168 14.6136 131.489 14.8451 133.411 15.2019L133.037 18.8845C130.725 18.6169 128.947 18.4831 127.7 18.4831C126.241 18.4831 125.513 18.8845 125.513 19.683C125.513 19.9506 125.691 20.1778 126.046 20.3626C126.401 20.5495 126.961 20.7852 127.726 21.0698C128.507 21.3544 129.015 21.5498 129.247 21.656C130.421 22.1359 131.328 22.6031 131.967 23.0576C132.608 23.5121 133.069 24.0579 133.354 24.6993C133.638 25.3406 133.781 26.1498 133.781 27.1267C133.781 28.3712 133.492 29.4352 132.914 30.3144C132.337 31.1958 131.553 31.8627 130.565 32.315C129.578 32.7695 128.471 32.9946 127.244 32.9946C125.717 32.9925 123.973 32.7334 122.017 32.2194Z" fill="white"/>
<path id="Vector_9" d="M136.345 14.6899H142.96C145.184 14.6899 146.878 15.2421 148.042 16.3443C149.206 17.4466 149.79 19.0755 149.79 21.2268C149.79 23.3803 149.204 25.0389 148.03 26.2028C146.855 27.3687 145.165 27.9506 142.96 27.9506H141.093V32.6186H136.345V14.6899ZM142.935 23.9197C144.285 23.9197 144.963 23.0214 144.963 21.2247C144.963 20.3179 144.797 19.6723 144.47 19.29C144.141 18.9077 143.629 18.7166 142.937 18.7166H141.096V23.9197H142.935Z" fill="white"/>
<path id="Vector_10" d="M156.728 18.825V21.6263H162.437V25.6805H156.728V28.4817H164.038V32.6166H151.979V14.688H164.038V18.8229H156.728V18.825Z" fill="white"/>
<path id="Vector_11" d="M166.786 14.6899H173.962C176.203 14.6899 177.889 15.2145 179.019 16.2636C180.149 17.3128 180.714 18.861 180.714 20.9061C180.714 22.9513 179.983 24.6673 178.526 26.0562L180.474 32.6186H175.271L173.962 27.203H171.535V32.6186H166.786V14.6899ZM174.043 23.1467C174.612 23.1467 175.052 22.9301 175.364 22.4926C175.674 22.0572 175.831 21.5284 175.831 20.9061C175.831 20.3009 175.657 19.7848 175.311 19.3579C174.965 18.9311 174.514 18.7166 173.964 18.7166H171.537V23.1446H174.043V23.1467Z" fill="white"/>
<path id="Vector_12" d="M186.448 18.878H182.151V14.6899H195.491V18.878H191.25V32.6186H186.448V18.878Z" fill="white"/>
<path id="Vector_13" d="M197.84 32.2194L196.88 32.0049L197.36 28.3776C199.708 28.6983 201.522 28.8576 202.803 28.8576C204.19 28.8576 204.884 28.3776 204.884 27.4177C204.884 27.08 204.727 26.8124 204.417 26.617C204.105 26.4216 203.648 26.2071 203.043 25.9778C202.652 25.8355 202.367 25.7208 202.189 25.6316C200.178 24.9562 198.751 24.1811 197.908 23.3103C197.062 22.4396 196.64 21.3459 196.64 20.0292C196.64 18.1624 197.209 16.748 198.347 15.788C199.485 14.8281 201.034 14.3481 202.99 14.3481C203.79 14.3481 204.551 14.4012 205.271 14.5074C205.99 14.6136 207.311 14.8451 209.233 15.2019L208.86 18.8845C206.547 18.6169 204.769 18.4831 203.523 18.4831C202.064 18.4831 201.335 18.8845 201.335 19.683C201.335 19.9506 201.514 20.1778 201.868 20.3626C202.223 20.5495 202.784 20.7852 203.548 21.0698C204.33 21.3544 204.837 21.5498 205.069 21.656C206.243 22.1359 207.15 22.6031 207.789 23.0576C208.429 23.5121 208.892 24.0579 209.176 24.6993C209.461 25.3406 209.603 26.1498 209.603 27.1267C209.603 28.3712 209.314 29.4352 208.736 30.3144C208.159 31.1958 207.375 31.8627 206.388 32.315C205.4 32.7695 204.294 32.9946 203.066 32.9946C201.539 32.9925 199.796 32.7334 197.84 32.2194Z" fill="white"/>
</g>
<g id="Group_4">
<path id="Vector_14" d="M83.0251 45.3481L82.696 45.312L82.7406 44.8915C83.5794 45.0019 84.2123 45.055 84.6392 45.055C85.648 45.055 86.1534 44.5644 86.1534 43.5854C86.1534 43.3178 86.1131 43.1097 86.0345 42.961C85.9559 42.8123 85.8072 42.6913 85.5927 42.5957C85.3761 42.5023 85.0554 42.4173 84.6307 42.3451C84.1189 42.2538 83.726 42.1476 83.4499 42.0266C83.1738 41.9055 82.9699 41.7313 82.8425 41.5062C82.7151 41.2811 82.6514 40.971 82.6514 40.576C82.6514 40.0281 82.8149 39.6204 83.1398 39.3485C83.4648 39.0767 83.9681 38.9429 84.6498 38.9429C85.1489 38.9429 85.7626 38.9938 86.4932 39.0979L86.4465 39.5184C85.5821 39.4143 84.9875 39.3634 84.6583 39.3634C83.6368 39.3634 83.125 39.7584 83.125 40.5505C83.125 40.867 83.1632 41.1006 83.2396 41.2535C83.3161 41.4064 83.4669 41.5275 83.692 41.6188C83.9171 41.7101 84.2888 41.8078 84.8048 41.9119C85.2678 41.9968 85.6267 42.0988 85.8816 42.2177C86.1364 42.3366 86.3233 42.5001 86.4422 42.7062C86.5612 42.9122 86.6206 43.1925 86.6206 43.545C86.6206 44.2013 86.4614 44.6897 86.147 45.0062C85.8306 45.3226 85.3358 45.4798 84.6604 45.4798C84.2505 45.4755 83.7069 45.433 83.0251 45.3481Z" fill="white"/>
<path id="Vector_15" d="M90.5709 39.4527V41.9524H93.336V42.3622H90.5709V44.9893H93.8839V45.3992H90.1143V39.0386H93.8839V39.4485H90.5709V39.4527Z" fill="white"/>
<path id="Vector_16" d="M100.701 43.5597H97.7724L97.2245 45.4031H96.7764L98.6559 39.0425H99.8154L101.695 45.4031H101.247L100.701 43.5597ZM99.4778 39.4524H99.0042L97.8913 43.1307H100.584L99.4778 39.4524Z" fill="white"/>
<path id="Vector_17" d="M110.901 39.0425V45.4031H110.444V39.5076H110.334L108.217 45.1928H107.632L105.507 39.5076H105.407V45.4031H104.95V39.0425H105.836L107.926 44.681L110.015 39.0425H110.901Z" fill="white"/>
<path id="Vector_18" d="M118.183 44.9826V45.4031H114.734V39.0425H115.191V44.9826H118.183Z" fill="white"/>
<path id="Vector_19" d="M121.779 39.4527V41.9524H124.544V42.3622H121.779V44.9893H125.092V45.3992H121.322V39.0386H125.092V39.4485H121.779V39.4527Z" fill="white"/>
<path id="Vector_20" d="M128.558 45.3481L128.229 45.312L128.274 44.8915C129.113 45.0019 129.746 45.055 130.172 45.055C131.181 45.055 131.687 44.5644 131.687 43.5854C131.687 43.3178 131.646 43.1097 131.568 42.961C131.489 42.8123 131.34 42.6913 131.126 42.5957C130.909 42.5023 130.589 42.4173 130.164 42.3451C129.652 42.2538 129.259 42.1476 128.983 42.0266C128.707 41.9055 128.503 41.7313 128.376 41.5062C128.248 41.2811 128.185 40.971 128.185 40.576C128.185 40.0281 128.348 39.6204 128.673 39.3485C128.998 39.0767 129.501 38.9429 130.183 38.9429C130.682 38.9429 131.296 38.9938 132.026 39.0979L131.98 39.5184C131.115 39.4143 130.521 39.3634 130.192 39.3634C129.17 39.3634 128.658 39.7584 128.658 40.5505C128.658 40.867 128.696 41.1006 128.773 41.2535C128.849 41.4064 129 41.5275 129.225 41.6188C129.45 41.7101 129.822 41.8078 130.338 41.9119C130.801 41.9968 131.16 42.0988 131.415 42.2177C131.67 42.3366 131.857 42.5001 131.975 42.7062C132.094 42.9122 132.154 43.1925 132.154 43.545C132.154 44.2013 131.995 44.6897 131.68 45.0062C131.364 45.3226 130.869 45.4798 130.194 45.4798C129.786 45.4755 129.24 45.433 128.558 45.3481Z" fill="white"/>
<path id="Vector_21" d="M135.685 45.3481L135.356 45.312L135.401 44.8915C136.24 45.0019 136.872 45.055 137.299 45.055C138.308 45.055 138.814 44.5644 138.814 43.5854C138.814 43.3178 138.773 43.1097 138.695 42.961C138.616 42.8123 138.467 42.6913 138.253 42.5957C138.036 42.5023 137.716 42.4173 137.291 42.3451C136.779 42.2538 136.386 42.1476 136.11 42.0266C135.834 41.9055 135.63 41.7313 135.503 41.5062C135.375 41.2811 135.312 40.971 135.312 40.576C135.312 40.0281 135.475 39.6204 135.8 39.3485C136.125 39.0767 136.628 38.9429 137.31 38.9429C137.809 38.9429 138.423 38.9938 139.153 39.0979L139.107 39.5184C138.242 39.4143 137.648 39.3634 137.318 39.3634C136.297 39.3634 135.785 39.7584 135.785 40.5505C135.785 40.867 135.823 41.1006 135.9 41.2535C135.976 41.4064 136.127 41.5275 136.352 41.6188C136.577 41.7101 136.949 41.8078 137.465 41.9119C137.928 41.9968 138.287 42.0988 138.542 42.2177C138.797 42.3366 138.983 42.5001 139.102 42.7062C139.221 42.9122 139.281 43.1925 139.281 43.545C139.281 44.2013 139.122 44.6897 138.807 45.0062C138.491 45.3226 137.996 45.4798 137.321 45.4798C136.911 45.4755 136.367 45.433 135.685 45.3481Z" fill="white"/>
<path id="Vector_22" d="M147.009 45.3481L146.68 45.312L146.724 44.8915C147.563 45.0019 148.196 45.055 148.623 45.055C149.632 45.055 150.137 44.5644 150.137 43.5854C150.137 43.3178 150.097 43.1097 150.018 42.961C149.94 42.8123 149.791 42.6913 149.577 42.5957C149.36 42.5023 149.039 42.4173 148.615 42.3451C148.103 42.2538 147.71 42.1476 147.434 42.0266C147.158 41.9055 146.954 41.7313 146.826 41.5062C146.699 41.2811 146.635 40.971 146.635 40.576C146.635 40.0281 146.799 39.6204 147.124 39.3485C147.449 39.0767 147.952 38.9429 148.634 38.9429C149.133 38.9429 149.747 38.9938 150.477 39.0979L150.43 39.5184C149.566 39.4143 148.971 39.3634 148.642 39.3634C147.621 39.3634 147.109 39.7584 147.109 40.5505C147.109 40.867 147.147 41.1006 147.224 41.2535C147.3 41.4064 147.451 41.5275 147.676 41.6188C147.901 41.7101 148.273 41.8078 148.789 41.9119C149.252 41.9968 149.611 42.0988 149.865 42.2177C150.12 42.3366 150.307 42.5001 150.426 42.7062C150.545 42.9122 150.605 43.1925 150.605 43.545C150.605 44.2013 150.445 44.6897 150.131 45.0062C149.815 45.3226 149.32 45.4798 148.644 45.4798C148.237 45.4755 147.691 45.433 147.009 45.3481Z" fill="white"/>
<path id="Vector_23" d="M154.839 45.1463C154.481 44.9212 154.226 44.575 154.077 44.1056C153.928 43.6363 153.854 43.0162 153.854 42.2431C153.854 41.4765 153.93 40.8542 154.088 40.3764C154.243 39.8985 154.498 39.5439 154.854 39.3081C155.211 39.0745 155.695 38.9556 156.309 38.9556C156.916 38.9556 157.401 39.0724 157.76 39.3081C158.118 39.5417 158.378 39.9006 158.535 40.3806C158.692 40.8606 158.773 41.4913 158.773 42.2686C158.773 43.0586 158.696 43.6851 158.545 44.1481C158.392 44.6111 158.142 44.9488 157.787 45.1612C157.435 45.3735 156.944 45.4797 156.318 45.4797C155.691 45.484 155.198 45.3714 154.839 45.1463ZM157.517 44.7959C157.8 44.6111 158 44.318 158.114 43.9209C158.229 43.5216 158.288 42.9737 158.288 42.2729C158.288 41.572 158.229 41.0156 158.11 40.5993C157.991 40.1831 157.787 39.873 157.498 39.6734C157.21 39.4738 156.812 39.3718 156.307 39.3718C155.795 39.3718 155.396 39.4716 155.107 39.6692C154.818 39.8667 154.614 40.1725 154.495 40.5866C154.376 41.0007 154.317 41.555 154.317 42.2474C154.317 42.9588 154.379 43.5174 154.5 43.9209C154.621 44.3244 154.825 44.6196 155.111 44.8022C155.398 44.9849 155.799 45.0762 156.315 45.0762C156.834 45.0741 157.235 44.9806 157.517 44.7959Z" fill="white"/>
<path id="Vector_24" d="M165.79 44.9826V45.4031H162.341V39.0425H162.797V44.9826H165.79Z" fill="white"/>
<path id="Vector_25" d="M169.252 45.0293C168.901 44.7256 168.727 44.2393 168.727 43.5682V39.0425H169.192V43.5767C169.192 44.5748 169.74 45.0739 170.836 45.0739C171.42 45.0739 171.853 44.955 172.136 44.7171C172.418 44.4793 172.56 44.0991 172.56 43.5767V39.0425H173.009V43.5682C173.009 44.2372 172.83 44.7235 172.475 45.0293C172.119 45.333 171.579 45.4859 170.855 45.4859C170.137 45.4838 169.602 45.333 169.252 45.0293Z" fill="white"/>
<path id="Vector_26" d="M178.162 39.461H176.1V39.0405H180.662V39.461H178.619V45.4011H178.162V39.461Z" fill="white"/>
<path id="Vector_27" d="M183.792 39.0425H184.249V45.4031H183.792V39.0425Z" fill="white"/>
<path id="Vector_28" d="M188.811 45.1463C188.452 44.9212 188.197 44.575 188.049 44.1056C187.9 43.6363 187.826 43.0162 187.826 42.2431C187.826 41.4765 187.904 40.8542 188.059 40.3764C188.214 39.8985 188.469 39.5439 188.826 39.3081C189.183 39.0745 189.667 38.9556 190.281 38.9556C190.888 38.9556 191.372 39.0724 191.731 39.3081C192.09 39.5417 192.349 39.9006 192.506 40.3806C192.666 40.8606 192.744 41.4913 192.744 42.2686C192.744 43.0586 192.668 43.6851 192.517 44.1481C192.364 44.6111 192.111 44.9488 191.759 45.1612C191.406 45.3735 190.916 45.4797 190.289 45.4797C189.663 45.484 189.17 45.3714 188.811 45.1463ZM191.489 44.7959C191.772 44.6111 191.971 44.318 192.086 43.9209C192.201 43.5216 192.26 42.9737 192.26 42.2729C192.26 41.572 192.201 41.0156 192.082 40.5993C191.963 40.1831 191.759 39.873 191.47 39.6734C191.181 39.4738 190.784 39.3718 190.279 39.3718C189.767 39.3718 189.368 39.4716 189.079 39.6692C188.79 39.8667 188.586 40.1725 188.467 40.5866C188.348 41.0007 188.289 41.555 188.289 42.2474C188.289 42.9588 188.35 43.5174 188.471 43.9209C188.592 44.3244 188.796 44.6196 189.083 44.8022C189.37 44.9849 189.771 45.0762 190.287 45.0762C190.807 45.0741 191.207 44.9806 191.489 44.7959Z" fill="white"/>
<path id="Vector_29" d="M200.774 39.0425V45.4031H199.824L196.94 39.4524H196.766V45.4031H196.31V39.0425H197.267L200.124 44.9932H200.326V39.0425H200.774Z" fill="white"/>
<path id="Vector_30" d="M204.643 45.3481L204.314 45.312L204.359 44.8915C205.198 45.0019 205.83 45.055 206.257 45.055C207.266 45.055 207.772 44.5644 207.772 43.5854C207.772 43.3178 207.731 43.1097 207.653 42.961C207.574 42.8123 207.425 42.6913 207.211 42.5957C206.994 42.5023 206.674 42.4173 206.249 42.3451C205.737 42.2538 205.344 42.1476 205.068 42.0266C204.792 41.9055 204.588 41.7313 204.461 41.5062C204.333 41.2811 204.27 40.971 204.27 40.576C204.27 40.0281 204.433 39.6204 204.758 39.3485C205.083 39.0767 205.586 38.9429 206.268 38.9429C206.767 38.9429 207.381 38.9938 208.111 39.0979L208.065 39.5184C207.2 39.4143 206.606 39.3634 206.276 39.3634C205.255 39.3634 204.743 39.7584 204.743 40.5505C204.743 40.867 204.781 41.1006 204.858 41.2535C204.934 41.4064 205.085 41.5275 205.31 41.6188C205.535 41.7101 205.907 41.8078 206.423 41.9119C206.886 41.9968 207.245 42.0988 207.5 42.2177C207.755 42.3366 207.941 42.5001 208.06 42.7062C208.179 42.9122 208.239 43.1925 208.239 43.545C208.239 44.2013 208.08 44.6897 207.765 45.0062C207.449 45.3226 206.954 45.4798 206.279 45.4798C205.869 45.4755 205.325 45.433 204.643 45.3481Z" fill="white"/>
</g>
</g>
</svg>
