<svg width="98" height="95" viewBox="0 0 98 95" fill="none" xmlns="http://www.w3.org/2000/svg">
<g id="Frame 203">
<path id="Vector" d="M0 9.66939C0 7.10491 1.02115 4.64547 2.83881 2.83211C4.65647 1.01875 7.12174 0 9.6923 0H73.4999V8.66306C73.4999 11.2275 72.4788 13.687 70.6611 15.5004C68.8435 17.3137 66.3782 18.3325 63.8076 18.3325H0V9.66939ZM73.4999 33.1051V24.4421H0V42.7745H63.8076C66.3782 42.7745 68.8435 41.7558 70.6611 39.9424C72.4788 38.1291 73.4999 35.6696 73.4999 33.1051ZM0 67.2166H14.8077C17.3782 67.2166 19.8435 66.1979 21.6612 64.3845C23.4788 62.5712 24.5 60.1117 24.5 57.5472V48.8842H0V67.2166Z" fill="#333333"/>
<path id="Vector_2" d="M89.3163 24.4421C86.7457 24.4421 84.2805 25.4609 82.4628 27.2742C80.6451 29.0876 79.624 31.547 79.624 34.1115V48.8842H40.3163C37.7458 48.8842 35.2805 49.903 33.4628 51.7163C31.6452 53.5297 30.624 55.9891 30.624 58.5536V67.2167H97.9999V24.4421H89.3163Z" fill="#333333"/>
<path id="Vector_3" d="M91.8757 6.10963H97.9998L94.9378 3.05482L91.8757 0V6.10963Z" fill="#BE9947"/>
<path id="Vector_4" d="M79.624 0V13.444C79.624 14.0872 79.7512 14.724 79.9984 15.3181C80.2455 15.9121 80.6078 16.4516 81.0643 16.9057C81.5208 17.3599 82.0627 17.7196 82.6588 17.9645C83.255 18.2093 83.8937 18.3343 84.5384 18.3325H97.9999V8.18317H89.7974V0H79.624Z" fill="#BE9947"/>
<path id="Vector_5" d="M15.1524 87.1856V90.3837H6.21756C5.82152 90.4038 5.4404 90.5409 5.12268 90.7776C5.01018 90.8704 4.91826 90.9854 4.85275 91.1155C4.78724 91.2456 4.74958 91.3879 4.74217 91.5333V91.6228C4.75353 91.9439 4.83695 92.2585 4.98628 92.5432C5.19089 92.9549 5.44919 93.3379 5.75448 93.682C5.98787 93.9237 6.23476 94.1521 6.49396 94.366C6.75242 94.5845 7.02524 94.7958 7.30883 94.9999H3.52525C3.34929 94.9396 3.19131 94.8361 3.06576 94.6991C2.85078 94.4934 2.65714 94.2667 2.48781 94.0223C2.27457 93.7192 2.08839 93.398 1.93141 93.0625C1.75258 92.6935 1.61648 92.3054 1.52576 91.9057C1.44937 91.5612 1.41085 91.2093 1.41089 90.8564V90.6666C1.43033 90.2334 1.53268 89.808 1.71243 89.4132C1.91861 88.9702 2.20733 88.5703 2.5632 88.2349C3.01445 87.8161 3.53562 87.4791 4.10319 87.2394V82.8487C4.25875 81.76 4.8008 81.1846 5.72935 81.1226H13.8565V82.1074C13.8313 82.4285 13.7422 82.7414 13.5945 83.0278C13.4616 83.2836 13.2784 83.5101 13.056 83.6939C12.8315 83.8763 12.5746 84.0148 12.2986 84.1022C11.9992 84.1988 11.6871 84.2507 11.3724 84.2562H11.3975H7.29448V87.1713L15.1524 87.1856Z" fill="#BE9947"/>
<path id="Vector_6" d="M14.8186 87.1858H22.2422V90.3839H14.8186V87.1858Z" fill="#BE9947"/>
<path id="Vector_7" d="M21.8831 87.1858H29.3031V90.3839H21.8831V87.1858Z" fill="#BE9947"/>
<path id="Vector_8" d="M28.9441 87.1858H36.3677V90.3839H28.9441V87.1858Z" fill="#BE9947"/>
<path id="Vector_9" d="M36.0088 87.1858H43.4324V90.3839H36.0088V87.1858Z" fill="#BE9947"/>
<path id="Vector_10" d="M43.0735 87.1858H50.4935V90.3839H43.0735V87.1858Z" fill="#BE9947"/>
<path id="Vector_11" d="M50.1343 87.1858H57.5579V90.3839H50.1343V87.1858Z" fill="#BE9947"/>
<path id="Vector_12" d="M57.199 87.1858H64.6226V90.3839H57.199V87.1858Z" fill="#BE9947"/>
<path id="Vector_13" d="M64.2634 87.1858H71.6834V90.3839H64.2634V87.1858Z" fill="#BE9947"/>
<path id="Vector_14" d="M71.3245 87.1858H78.748V90.3839H71.3245V87.1858Z" fill="#BE9947"/>
<path id="Vector_15" d="M80.1696 82.8381C80.2917 81.7637 80.8349 81.1919 81.7994 81.1227H89.923V87.1857H91.743V90.3838H78.4358V87.1857H80.1409L80.166 82.7844L80.1696 82.8381ZM86.7209 87.1857V84.2563H83.3609V87.1857H86.7209ZM85.0409 76.6604C85.2652 76.6592 85.4873 76.703 85.6942 76.7894C85.8934 76.8704 86.0732 76.9924 86.2219 77.1475C86.3743 77.2998 86.4961 77.4797 86.5809 77.6775C86.6674 77.8839 86.7114 78.1056 86.7101 78.3293C86.7109 78.5472 86.667 78.7629 86.5809 78.9632C86.4951 79.1584 86.3734 79.3357 86.2219 79.486C86.0732 79.6411 85.8934 79.7631 85.6942 79.8442C85.2757 80.0161 84.8061 80.0161 84.3876 79.8442C84.189 79.764 84.0102 79.6418 83.8635 79.486C83.711 79.3366 83.5891 79.159 83.5045 78.9632C83.4196 78.7627 83.3768 78.5469 83.3789 78.3293C83.3765 78.1058 83.4192 77.8842 83.5045 77.6775C83.5881 77.479 83.7101 77.299 83.8635 77.1475C84.0102 76.9917 84.189 76.8696 84.3876 76.7894C84.5945 76.703 84.8167 76.6592 85.0409 76.6604Z" fill="#BE9947"/>
<path id="Vector_16" d="M91.4378 87.1856H93.7855V83.171C93.7801 83.0935 93.7801 83.0157 93.7855 82.9382C93.7851 82.7619 93.8068 82.5863 93.8501 82.4154C93.9061 82.1857 94.0088 81.97 94.1516 81.7815C94.2941 81.5956 94.4754 81.4429 94.6829 81.3338C94.9182 81.2123 95.176 81.1404 95.4403 81.1225H97.0019V86.7236C97.0072 86.7664 97.0072 86.8097 97.0019 86.8526V87.2107C97.0076 87.6671 96.941 88.1216 96.8044 88.5572C96.6889 88.9223 96.5036 89.2616 96.2588 89.5564C96.0347 89.8114 95.7588 90.0158 95.4492 90.156C95.1397 90.2962 94.8038 90.3689 94.4639 90.3694H91.427L91.4378 87.1856ZM95.347 76.6603C95.5701 76.6583 95.7913 76.7022 95.9967 76.7892C96.1938 76.871 96.3727 76.991 96.5231 77.1422C96.6734 77.2935 96.7922 77.4729 96.8726 77.6702C96.9592 77.8766 97.0031 78.0983 97.0019 78.322C97.0016 78.6441 96.9061 78.959 96.7273 79.2272C96.5486 79.4954 96.2944 79.705 95.9967 79.8297C95.7913 79.9147 95.5712 79.9585 95.3488 79.9585C95.1264 79.9585 94.9062 79.9147 94.7008 79.8297C94.502 79.746 94.3216 79.6244 94.1696 79.4716C94.0154 79.3235 93.8933 79.1456 93.8106 78.9487C93.7245 78.7485 93.6805 78.5327 93.6813 78.3148C93.6801 78.0911 93.7241 77.8694 93.8106 77.663C93.8922 77.4635 94.0144 77.283 94.1696 77.133C94.3216 76.9802 94.502 76.8586 94.7008 76.7749C94.9062 76.6932 95.126 76.6542 95.347 76.6603Z" fill="#BE9947"/>
<path id="Vector_17" d="M97.9999 37.3454C97.9999 37.3454 98.1794 51.7994 79.624 48.8842V33.8931C79.624 31.3837 80.6232 28.9771 82.4018 27.2027C84.1805 25.4283 86.5928 24.4314 89.1081 24.4314H97.9999V37.3454Z" fill="#333333"/>
</g>
</svg>
