<svg width="82" height="50" viewBox="0 0 82 50" fill="none" xmlns="http://www.w3.org/2000/svg">
<g id="nodejs_logo.svg" clip-path="url(#clip0_192_123736)">
<path id="Vector" d="M40.5312 50.0002C40.2615 50.0002 39.9936 49.9295 39.7571 49.7935L37.2935 48.3363C36.9255 48.1307 37.105 48.058 37.2264 48.0161C37.717 47.8445 37.8166 47.8057 38.3403 47.5086C38.3954 47.4772 38.4674 47.4883 38.5237 47.5215L40.4164 48.6436C40.4848 48.6805 40.5818 48.6805 40.6451 48.6436L48.0249 44.3878C48.0933 44.3491 48.1376 44.2697 48.1376 44.1885V35.6808C48.1376 35.5959 48.0933 35.5202 48.0235 35.4778L40.6466 31.2257C40.5783 31.1851 40.4877 31.1851 40.4194 31.2257L33.044 35.4778C32.9725 35.5184 32.9271 35.5977 32.9271 35.6789V44.1867C32.9271 44.2679 32.9714 44.3454 33.0416 44.3841L35.0625 45.5505C36.1598 46.0986 36.8304 45.4527 36.8304 44.8031V36.406C36.8304 36.2861 36.9246 36.1938 37.0446 36.1938H37.9793C38.0957 36.1938 38.1918 36.2861 38.1918 36.406V44.8068C38.1918 46.2684 37.3938 47.1081 36.0065 47.1081C35.5798 47.1081 35.2436 47.1081 34.3051 46.6467L32.3692 45.532C31.8908 45.2552 31.5952 44.7385 31.5952 44.1867V35.6789C31.5952 35.1253 31.8908 34.6085 32.3692 34.3354L39.7564 30.0778C40.2238 29.8139 40.8444 29.8139 41.3081 30.0778L48.6861 34.3372C49.1627 34.6122 49.4601 35.1271 49.4601 35.6808V44.1885C49.4601 44.7403 49.1627 45.2552 48.6861 45.532L41.3081 49.7896C41.0717 49.9262 40.8038 49.9963 40.5304 49.9963" fill="#689F63"/>
<path id="Vector_2" d="M42.8103 44.1376C39.5813 44.1376 38.9043 42.6568 38.9043 41.4148C38.9043 41.2966 38.9996 41.2025 39.118 41.2025H40.0712C40.1765 41.2025 40.2652 41.2791 40.2818 41.383C40.4259 42.3534 40.8544 42.8428 42.807 42.8428C44.3624 42.8428 45.0237 42.4918 45.0237 41.6678C45.0237 41.1935 44.8353 40.841 42.4191 40.6048C40.3982 40.4055 39.1494 39.9607 39.1494 38.3459C39.1494 36.8584 40.4056 35.9726 42.5096 35.9726C44.8722 35.9726 46.0434 36.792 46.1912 38.5526C46.1967 38.6135 46.1746 38.6725 46.1339 38.7168C46.0933 38.7593 46.036 38.7851 45.9769 38.7851H45.0182C44.9184 38.7851 44.8316 38.715 44.8113 38.619C44.5804 37.5984 44.0225 37.2718 42.5059 37.2718C40.8083 37.2718 40.6106 37.8624 40.6106 38.3053C40.6106 38.8423 40.8434 38.9992 43.134 39.3018C45.4024 39.6027 46.4794 40.0271 46.4794 41.6198C46.4794 43.2254 45.1382 44.1463 42.7996 44.1463M51.7884 35.1236H52.0359C52.2391 35.1236 52.2779 34.9815 52.2779 34.8985C52.2779 34.6807 52.1283 34.6807 52.0452 34.6807H51.7902L51.7884 35.1236ZM51.4873 34.426H52.0359C52.2243 34.426 52.5938 34.426 52.5938 34.8468C52.5938 35.1402 52.4054 35.2011 52.2927 35.238C52.5125 35.2528 52.5273 35.3968 52.5568 35.5998C52.5716 35.7271 52.5956 35.9467 52.64 36.0205H52.3019C52.2927 35.9467 52.241 35.5407 52.241 35.5186C52.2188 35.4281 52.1874 35.3838 52.0747 35.3838H51.7958V36.0224H51.4873V34.426ZM50.8278 35.2196C50.8278 35.8803 51.3617 36.4155 52.0174 36.4155C52.6788 36.4155 53.2126 35.8692 53.2126 35.2196C53.2126 34.5571 52.6714 34.0311 52.0156 34.0311C51.3691 34.0311 50.826 34.5497 50.826 35.2177M53.4417 35.2233C53.4417 36.0058 52.8007 36.6443 52.0193 36.6443C51.2434 36.6443 50.5969 36.0132 50.5969 35.2233C50.5969 34.4186 51.2582 33.8022 52.0193 33.8022C52.7859 33.8022 53.4398 34.4205 53.4398 35.2233" fill="#689F63"/>
<path id="Vector_3" fill-rule="evenodd" clip-rule="evenodd" d="M17.6783 16.711C17.6783 16.3714 17.4991 16.0595 17.2057 15.8907L9.38148 11.3932C9.2494 11.3157 9.10143 11.2751 8.95144 11.2695H8.87053C8.72053 11.2751 8.57256 11.3157 8.43827 11.3932L0.614381 15.8907C0.322884 16.0604 0.141113 16.3723 0.141113 16.7119L0.158293 28.8258C0.158293 28.9937 0.245114 29.1506 0.392895 29.2336C0.536981 29.3222 0.718013 29.3222 0.862099 29.2336L5.5135 26.5724C5.80721 26.3978 5.9864 26.0893 5.9864 25.753V20.0938C5.9864 19.7561 6.16558 19.4442 6.45837 19.2762L8.43864 18.1368C8.58568 18.0519 8.74713 18.0098 8.91154 18.0098C9.07335 18.0098 9.2385 18.0516 9.38148 18.1366L11.3608 19.2757C11.6538 19.4436 11.8337 19.7555 11.8337 20.0932V25.7521C11.8337 26.088 12.0153 26.398 12.3075 26.5715L16.956 29.2309C17.1019 29.3176 17.2835 29.3176 17.4289 29.2309C17.5722 29.1478 17.6631 28.9909 17.6631 28.823L17.6783 16.711ZM54.5991 23.0182C54.5991 23.1025 54.5542 23.1806 54.4809 23.2223L51.7935 24.7699C51.7205 24.8118 51.6303 24.8118 51.5576 24.7699L48.8698 23.2223C48.7959 23.1804 48.7516 23.1023 48.7516 23.0182V19.9185C48.7516 19.8339 48.7959 19.7561 48.868 19.7136L51.5539 18.1634C51.6278 18.1209 51.7183 18.1209 51.7922 18.1634L54.4799 19.7136C54.5538 19.7561 54.5982 19.8339 54.5982 19.9185L54.5991 23.0182ZM55.3251 0.0597543C55.1784 -0.0218169 54.9999 -0.0196023 54.8551 0.0647372C54.711 0.14963 54.622 0.304652 54.622 0.472593V12.4684C54.622 12.5865 54.5592 12.6954 54.4568 12.7544C54.3552 12.8135 54.2287 12.8135 54.1262 12.7544L52.1662 11.6266C51.8744 11.4579 51.5149 11.4579 51.2219 11.6266L43.3951 16.1394C43.1027 16.3074 42.9222 16.6193 42.9222 16.9551V25.9833C42.9222 26.3211 43.1027 26.6311 43.3951 26.8009L51.2219 31.3168C51.5142 31.4848 51.874 31.4848 52.1672 31.3168L59.994 26.799C60.2859 26.6293 60.4669 26.3192 60.4669 25.9815V3.48113C60.4669 3.13861 60.2803 2.82358 59.9811 2.65619L55.3251 0.0597543ZM81.3886 19.8369C81.6794 19.6682 81.8584 19.3567 81.8584 19.0208V16.8328C81.8584 16.4962 81.6792 16.1856 81.3879 16.0161L73.6109 11.5057C73.3172 11.336 72.957 11.336 72.6633 11.5057L64.8383 16.018C64.5445 16.1878 64.3654 16.4978 64.3654 16.8356V25.8601C64.3654 26.1996 64.5482 26.5134 64.8419 26.6813L72.6171 31.1087C72.9034 31.2729 73.2544 31.2748 73.5444 31.1142L78.2475 28.5028C78.3953 28.4198 78.4895 28.2629 78.4895 28.0931C78.4895 27.9233 78.399 27.7646 78.2512 27.6816L70.3782 23.1675C70.2304 23.0844 70.1399 22.9276 70.1399 22.7596V19.9286C70.1399 19.7596 70.2286 19.6038 70.3764 19.5196L72.8258 18.1078C72.9717 18.0229 73.1509 18.0229 73.2969 18.1078L75.7482 19.5196C75.8941 19.6027 75.9846 19.7596 75.9846 19.9275V22.1532C75.9846 22.3211 76.0751 22.478 76.2211 22.5629C76.367 22.6459 76.548 22.6459 76.694 22.561L81.3886 19.8369Z" fill="#333333"/>
<path id="Vector_4" fill-rule="evenodd" clip-rule="evenodd" d="M73.0225 19.4146C73.0779 19.382 73.1473 19.382 73.2035 19.4146L74.7053 20.2802C74.7615 20.3127 74.7958 20.3725 74.7958 20.437V22.17C74.7958 22.2346 74.7615 22.2944 74.7053 22.3268L73.2035 23.1924C73.1473 23.225 73.0779 23.225 73.0225 23.1924L71.5216 22.3268C71.4643 22.2944 71.4292 22.2346 71.4292 22.17V20.437C71.4292 20.3725 71.4625 20.3127 71.5197 20.2802L73.0225 19.4146Z" fill="#689F63"/>
<g id="Clip path group">
<mask id="mask0_192_123736" style="mask-type:luminance" maskUnits="userSpaceOnUse" x="21" y="11" width="19" height="21">
<g id="a">
<path id="Vector_5" d="M29.8309 11.5508L22.0484 16.0385C21.7569 16.2064 21.5781 16.5165 21.5781 16.8516V25.8333C21.5781 26.1686 21.7569 26.4785 22.0484 26.6464L29.8315 31.1377C30.1224 31.305 30.4812 31.305 30.7718 31.1377L38.5535 26.6464C38.8435 26.4785 39.0227 26.1685 39.0227 25.8333V16.8516C39.0227 16.5165 38.8435 16.2064 38.5517 16.0385L30.771 11.5508C30.6251 11.4672 30.4625 11.4253 30.3 11.4253C30.1374 11.4253 29.9748 11.4672 29.8289 11.5508" fill="white"/>
</g>
</mask>
<g mask="url(#mask0_192_123736)">
<g id="Group">
<path id="Vector_6" d="M46.8874 15.2766L24.9577 4.5376L13.7134 27.4539L35.6426 38.1935L46.8874 15.2766Z" fill="url(#paint0_linear_192_123736)"/>
</g>
</g>
</g>
<g id="Clip path group_2">
<mask id="mask1_192_123736" style="mask-type:luminance" maskUnits="userSpaceOnUse" x="21" y="11" width="18" height="21">
<g id="c">
<path id="Vector_7" d="M21.771 26.4034C21.8454 26.4999 21.9385 26.5835 22.0481 26.6462L28.7241 30.4987L29.8361 31.1373C30.0024 31.2332 30.1919 31.2738 30.3781 31.26C30.4402 31.255 30.5023 31.2434 30.5628 31.2262L38.771 16.2112C38.7082 16.1429 38.6346 16.0857 38.5522 16.0377L33.4564 13.0978L30.7627 11.5495C30.6862 11.5052 30.6033 11.4738 30.5189 11.4517L21.771 26.4034Z" fill="white"/>
</g>
</mask>
<g mask="url(#mask1_192_123736)">
<g id="Group_2">
<path id="Vector_8" d="M12.2896 18.4526L27.7742 39.3904L48.2529 24.2746L32.7674 3.3374L12.2896 18.4526Z" fill="url(#paint1_linear_192_123736)"/>
</g>
</g>
</g>
<g id="Clip path group_3">
<mask id="mask2_192_123736" style="mask-type:luminance" maskUnits="userSpaceOnUse" x="22" y="11" width="18" height="21">
<g id="e">
<path id="Vector_9" d="M30.2071 11.4303C30.0765 11.4432 29.9488 11.4838 29.8311 11.5506L22.0708 16.0254L30.4389 31.2526C30.5553 31.236 30.6698 31.1973 30.7732 31.1375L38.5557 26.6462C38.7959 26.5071 38.9603 26.2716 39.0102 26.0047L30.4795 11.4456C30.4167 11.4332 30.3539 11.4268 30.2893 11.4268C30.2634 11.4268 30.2375 11.428 30.2117 11.4304" fill="white"/>
</g>
</mask>
<g mask="url(#mask2_192_123736)">
<g id="Group_3">
<path id="Vector_10" d="M22.0708 11.4268V31.253H39.007V11.4268H22.0708Z" fill="url(#paint2_linear_192_123736)"/>
</g>
</g>
</g>
</g>
<defs>
<linearGradient id="paint0_linear_192_123736" x1="35.9159" y1="9.8902" x2="24.6897" y2="32.8135" gradientUnits="userSpaceOnUse">
<stop offset="0.3" stop-color="#3E863D"/>
<stop offset="0.5" stop-color="#55934F"/>
<stop offset="0.8" stop-color="#5AAD45"/>
</linearGradient>
<linearGradient id="paint1_linear_192_123736" x1="20.1247" y1="29.0415" x2="40.5904" y2="13.9054" gradientUnits="userSpaceOnUse">
<stop offset="0.57" stop-color="#3E863D"/>
<stop offset="0.72" stop-color="#619857"/>
<stop offset="1" stop-color="#76AC64"/>
</linearGradient>
<linearGradient id="paint2_linear_192_123736" x1="22.0765" y1="21.3404" x2="39.0102" y2="21.3404" gradientUnits="userSpaceOnUse">
<stop offset="0.16" stop-color="#6BBF47"/>
<stop offset="0.38" stop-color="#79B461"/>
<stop offset="0.47" stop-color="#75AC64"/>
<stop offset="0.7" stop-color="#659E5A"/>
<stop offset="0.9" stop-color="#3E863D"/>
</linearGradient>
<clipPath id="clip0_192_123736">
<rect width="81.7175" height="50" fill="white" transform="translate(0.141113)"/>
</clipPath>
</defs>
</svg>
