<svg width="21" height="22" viewBox="0 0 21 22" fill="none" xmlns="http://www.w3.org/2000/svg">
<path d="M0.524129 0.702457C0.482532 0.749498 0.50333 0.800983 0.522643 0.851358C0.537871 0.890621 0.549384 0.931364 0.564611 0.970625C1.01884 2.14145 1.51614 3.29413 2.0647 4.42459C2.81642 5.97397 3.65765 7.47445 4.58244 8.92752C4.83091 9.31829 5.09906 9.69684 5.3583 10.0809C5.50426 10.3254 5.63759 10.5791 5.80101 10.8117C5.92394 10.9869 5.91057 11.1118 5.78838 11.2862C3.83258 14.0709 2.22069 17.0459 0.876962 20.168C0.747342 20.4688 0.633322 20.7751 0.564241 21.0959C0.506674 21.3633 0.520787 21.3744 0.785597 21.2866C3.28662 20.458 5.84521 19.8772 8.45728 19.535C10.0796 19.3224 11.7104 19.215 13.346 19.1876C13.5083 19.185 13.609 19.1283 13.6955 18.9942C13.9648 18.5771 14.2389 18.163 14.5208 17.7545C15.5009 16.3348 16.5843 14.9972 17.7605 13.7346C18.5862 12.8482 19.4597 12.0107 20.3674 11.2084C20.5382 11.0577 20.5446 10.954 20.383 10.8162C19.6242 10.1706 18.955 9.4346 18.2638 8.72121C17.489 7.92078 16.6861 7.14702 16.0268 6.23954C15.5555 5.5906 15.0426 4.97204 14.5483 4.33977C14.5412 4.32014 14.5375 4.29828 14.5267 4.28125C14.243 3.84269 13.9596 3.40377 13.6732 2.96633C13.5945 2.84595 13.4716 2.79669 13.3327 2.79595C12.5553 2.79188 11.7802 2.75039 11.0047 2.70113C10.3566 2.66001 9.70964 2.60297 9.06526 2.52889C7.9752 2.40407 6.88996 2.24109 5.81252 2.03034C4.27752 1.72994 2.75403 1.38436 1.26916 0.886547C1.0738 0.820986 0.880675 0.74913 0.68606 0.680977C0.629236 0.660974 0.570183 0.650602 0.524129 0.702087L0.524129 0.702457Z" fill="#99D0E4"/>
<mask id="mask0_162_132318" style="mask-type:luminance" maskUnits="userSpaceOnUse" x="0" y="0" width="21" height="22">
<path d="M0.524312 0.702457C0.482715 0.749498 0.503514 0.800983 0.522826 0.851358C0.538054 0.890621 0.549567 0.931364 0.564795 0.970625C1.01902 2.14145 1.51633 3.29413 2.06489 4.42459C2.81661 5.97397 3.65783 7.47445 4.58262 8.92752C4.83109 9.31829 5.09924 9.69684 5.35848 10.0809C5.50444 10.3254 5.63778 10.5791 5.80119 10.8117C5.92413 10.9869 5.91076 11.1118 5.78856 11.2862C3.83276 14.0709 2.22088 17.0459 0.877145 20.168C0.747525 20.4688 0.633505 20.7751 0.564424 21.0959C0.506857 21.3633 0.52097 21.3744 0.78578 21.2866C3.2868 20.458 5.84539 19.8772 8.45746 19.535C10.0797 19.3224 11.7106 19.215 13.3462 19.1876C13.5085 19.185 13.6092 19.1283 13.6957 18.9942C13.965 18.5771 14.2391 18.163 14.521 17.7545C15.5011 16.3348 16.5845 14.9972 17.7607 13.7346C18.5863 12.8482 19.4599 12.0107 20.3676 11.2084C20.5384 11.0577 20.5447 10.954 20.3832 10.8162C19.6244 10.1706 18.9551 9.4346 18.264 8.72121C17.4892 7.92078 16.6862 7.14702 16.027 6.23954C15.5557 5.5906 15.0428 4.97204 14.5485 4.33977C14.5414 4.32014 14.5377 4.29828 14.5269 4.28125C14.2432 3.84269 13.9598 3.40377 13.6734 2.96633C13.5947 2.84595 13.4718 2.79669 13.3329 2.79595C12.5555 2.79188 11.7804 2.75039 11.0049 2.70113C10.3568 2.66001 9.70983 2.60297 9.06545 2.52889C7.97538 2.40407 6.89014 2.24109 5.81271 2.03034C4.2777 1.72994 2.75421 1.38436 1.26934 0.886547C1.07399 0.820986 0.880858 0.74913 0.686243 0.680977C0.629419 0.660974 0.570366 0.650602 0.524312 0.702087L0.524312 0.702457Z" fill="white"/>
</mask>
<g mask="url(#mask0_162_132318)">
<path d="M0.176879 0.291691C0.176879 0.291691 0.729153 4.30088 12.1468 20.1106L14.1204 20.018C14.1204 20.018 20.4135 11.0366 20.6467 11.0366C20.8799 11.0366 13.6762 2.41037 13.6762 2.41037L0.176879 0.291691Z" fill="#99D0E4"/>
</g>
</svg>
