<svg width="21" height="22" viewBox="0 0 21 22" fill="none" xmlns="http://www.w3.org/2000/svg">
<path d="M0.524129 0.702702C0.482532 0.749743 0.50333 0.801228 0.522643 0.851603C0.537871 0.890865 0.549384 0.931608 0.564611 0.970869C1.01884 2.1417 1.51614 3.29438 2.0647 4.42484C2.81642 5.97421 3.65765 7.4747 4.58244 8.92777C4.83091 9.31854 5.09906 9.69709 5.3583 10.0812C5.50426 10.3257 5.63759 10.5794 5.80101 10.812C5.92394 10.9872 5.91057 11.112 5.78838 11.2865C3.83258 14.0711 2.22069 17.0462 0.876962 20.1683C0.747342 20.469 0.633322 20.7753 0.564241 21.0961C0.506674 21.3635 0.520787 21.3746 0.785597 21.2869C3.28662 20.4583 5.84521 19.8775 8.45728 19.5352C10.0796 19.3226 11.7104 19.2152 13.346 19.1878C13.5083 19.1852 13.609 19.1285 13.6955 18.9945C13.9648 18.5774 14.2389 18.1633 14.5208 17.7547C15.5009 16.335 16.5843 14.9975 17.7605 13.7348C18.5862 12.8484 19.4597 12.011 20.3674 11.2087C20.5382 11.0579 20.5446 10.9542 20.383 10.8164C19.6242 10.1708 18.955 9.43484 18.2638 8.72146C17.489 7.92102 16.6861 7.14726 16.0268 6.23979C15.5555 5.59085 15.0426 4.97228 14.5483 4.34001C14.5412 4.32038 14.5375 4.29853 14.5267 4.28149C14.243 3.84294 13.9596 3.40402 13.6732 2.96658C13.5945 2.8462 13.4716 2.79693 13.3327 2.79619C12.5553 2.79212 11.7802 2.75063 11.0047 2.70137C10.3566 2.66026 9.70964 2.60321 9.06526 2.52913C7.9752 2.40431 6.88996 2.24134 5.81252 2.03058C4.27752 1.73019 2.75403 1.38461 1.26916 0.886791C1.0738 0.82123 0.880675 0.749374 0.68606 0.681221C0.629236 0.661219 0.570183 0.650846 0.524129 0.702332L0.524129 0.702702Z" fill="#295F70"/>
<mask id="mask0_192_135073" style="mask-type:luminance" maskUnits="userSpaceOnUse" x="0" y="0" width="21" height="22">
<path d="M0.524373 0.702702C0.482776 0.749743 0.503575 0.801228 0.522888 0.851603C0.538115 0.890865 0.549628 0.931608 0.564856 0.970869C1.01908 2.1417 1.51639 3.29438 2.06495 4.42484C2.81667 5.97421 3.65789 7.4747 4.58268 8.92777C4.83115 9.31854 5.0993 9.69709 5.35854 10.0812C5.5045 10.3257 5.63784 10.5794 5.80125 10.812C5.92419 10.9872 5.91082 11.112 5.78863 11.2865C3.83282 14.0711 2.22094 17.0462 0.877206 20.1683C0.747586 20.469 0.633566 20.7753 0.564485 21.0961C0.506918 21.3635 0.521031 21.3746 0.785841 21.2869C3.28686 20.4583 5.84545 19.8775 8.45752 19.5352C10.0798 19.3226 11.7106 19.2152 13.3463 19.1878C13.5086 19.1852 13.6092 19.1285 13.6958 18.9945C13.965 18.5774 14.2391 18.1633 14.521 17.7547C15.5012 16.335 16.5845 14.9975 17.7608 13.7348C18.5864 12.8484 19.4599 12.011 20.3676 11.2087C20.5385 11.0579 20.5448 10.9542 20.3832 10.8164C19.6245 10.1708 18.9552 9.43484 18.264 8.72146C17.4893 7.92102 16.6863 7.14726 16.0271 6.23979C15.5558 5.59085 15.0428 4.97228 14.5485 4.34001C14.5415 4.32038 14.5377 4.29853 14.527 4.28149C14.2432 3.84294 13.9598 3.40402 13.6735 2.96658C13.5948 2.8462 13.4718 2.79693 13.3329 2.79619C12.5556 2.79212 11.7805 2.75063 11.005 2.70137C10.3569 2.66026 9.70989 2.60321 9.06551 2.52913C7.97544 2.40431 6.8902 2.24134 5.81277 2.03058C4.27776 1.73019 2.75427 1.38461 1.26941 0.886791C1.07405 0.82123 0.880919 0.749374 0.686304 0.681221C0.62948 0.661219 0.570427 0.650846 0.524373 0.702332L0.524373 0.702702Z" fill="white"/>
</mask>
<g mask="url(#mask0_192_135073)">
<path d="M0.177001 0.292423C0.177001 0.292423 0.729275 4.30161 12.1469 20.1113L14.1205 20.0187C14.1205 20.0187 20.4136 11.0373 20.6468 11.0373C20.8801 11.0373 13.6763 2.4111 13.6763 2.4111L0.177001 0.292423Z" fill="#295F70"/>
</g>
</svg>
