<svg width="77" height="52" viewBox="0 0 77 52" fill="none" xmlns="http://www.w3.org/2000/svg">
<g id="oracle_mysql_logo.svg" clip-path="url(#clip0_192_123687)">
<g id="Group">
<g id="Group_2">
<g id="Group_3">
<path id="Vector" d="M18.4069 47.4028H15.4754C15.3739 42.415 15.092 37.7226 14.6185 33.3369H14.5959L10.131 47.4028H7.89858L3.45622 33.3369H3.43366C3.10669 37.5522 2.89246 42.2446 2.81354 47.4028H0.141357C0.310483 41.1311 0.750209 35.2457 1.43799 29.7466H5.06854L9.29668 42.7218H9.31923L13.5699 29.7466H17.0426C17.8206 36.1888 18.2716 42.0742 18.4069 47.4028Z" fill="#00758F"/>
<path id="Vector_2" d="M31.1251 34.382C29.93 40.915 28.3515 45.6529 26.4009 48.607C24.8788 50.8907 23.2101 52.0269 21.3948 52.0269C20.91 52.0269 20.3124 51.8791 19.6021 51.5837V50.0158C19.9516 50.0613 20.3575 50.0954 20.8198 50.0954C21.6654 50.0954 22.3532 49.8568 22.8718 49.3909C23.4919 48.8115 23.8076 48.1752 23.8076 47.4594C23.8076 46.9709 23.5596 45.971 23.086 44.4485L19.8727 34.382H22.7478L25.0592 41.9149C25.5778 43.6191 25.792 44.8235 25.7131 45.4938C26.9759 42.0967 27.8554 38.3927 28.3628 34.382H31.1251Z" fill="#00758F"/>
<path id="Vector_3" d="M43.9673 42.517C43.9673 44.0167 43.4261 45.2438 42.3324 46.2095C41.2388 47.1639 39.7843 47.6411 37.9465 47.6411C36.2327 47.6411 34.5752 47.0844 32.9629 45.9937L33.7183 44.4825C35.1051 45.1756 36.3567 45.5278 37.4842 45.5278C38.544 45.5278 39.3671 45.2892 39.9647 44.8234C40.5623 44.3576 40.9231 43.6986 40.9231 42.8578C40.9231 41.8125 40.2015 40.9149 38.871 40.1651C37.642 39.4834 35.1841 38.0631 35.1841 38.0631C33.8536 37.086 33.1884 36.0407 33.1884 34.3024C33.1884 32.8708 33.6845 31.7119 34.6767 30.837C35.6689 29.9508 36.9542 29.5191 38.5328 29.5191C40.1564 29.5191 41.6334 29.9508 42.9638 30.8257L42.2873 32.3368C41.1486 31.8482 40.0211 31.6096 38.9161 31.6096C38.0141 31.6096 37.3263 31.8255 36.8415 32.2686C36.3567 32.7004 36.0522 33.2571 36.0522 33.9388C36.0522 34.9841 36.7964 35.893 38.1607 36.6543C39.4009 37.336 41.9153 38.7789 41.9153 38.7789C43.2908 39.756 43.9673 40.8013 43.9673 42.517Z" fill="#F29111"/>
<path id="Vector_4" fill-rule="evenodd" clip-rule="evenodd" d="M49.2103 43.8804C48.5 42.7329 48.1504 40.8809 48.1504 38.3359C48.1504 33.8934 49.4922 31.6665 52.1756 31.6665C53.5737 31.6665 54.611 32.2005 55.265 33.2571C55.9753 34.4047 56.3248 36.2339 56.3248 38.7449C56.3248 43.2214 54.9831 45.4711 52.2996 45.4711C50.9015 45.4711 49.8642 44.9371 49.2103 43.8804ZM59.6397 47.8343L56.415 46.2323C56.6969 45.9937 56.9788 45.7437 57.2156 45.4483C58.5798 43.8236 59.2676 41.4263 59.2676 38.2563C59.2676 32.4164 56.9901 29.4964 52.4462 29.4964C50.2138 29.4964 48.4774 30.2349 47.2259 31.7233C45.8616 33.348 45.1738 35.734 45.1738 38.8926C45.1738 41.9943 45.7827 44.2667 46.9891 45.721C48.0941 47.0276 49.7628 47.6866 51.9952 47.6866C52.8296 47.6866 53.5963 47.5843 54.2841 47.3798L58.4784 49.834L59.6397 47.8343Z" fill="#F29111"/>
<path id="Vector_5" d="M70.1479 47.4028H61.8157V29.7466H64.6232V45.2327H70.1479V47.4028Z" fill="#F29111"/>
<path id="Vector_6" d="M72.1551 47.4028H72.6174V45.6077H73.2262V45.2441H71.5237V45.6077H72.1551V47.4028ZM75.6842 47.4028H76.1239V45.2441H75.4699L74.9287 46.7211L74.3424 45.2441H73.711V47.4028H74.1282V45.7554H74.1508L74.7596 47.4028H75.0753L75.6842 45.7554V47.4028Z" fill="#F29111"/>
<path id="Vector_7" fill-rule="evenodd" clip-rule="evenodd" d="M73.6657 23.8384C71.9745 23.793 70.6553 23.9634 69.5616 24.4406C69.2459 24.5656 68.7385 24.5656 68.6934 24.9746C68.8626 25.1451 68.8851 25.4177 69.0317 25.6563C69.2797 26.0881 69.7307 26.6562 70.1366 26.9516C70.5764 27.2924 71.0274 27.6333 71.4897 27.9287C72.3127 28.44 73.2485 28.7354 74.0491 29.2467C74.5114 29.5421 74.9849 29.9284 75.4472 30.2465C75.684 30.4169 75.8305 30.6896 76.1237 30.8032V30.7351C75.9771 30.5419 75.932 30.2692 75.7854 30.0533C75.5712 29.8375 75.357 29.6443 75.154 29.4398C74.5452 28.6104 73.7785 27.8832 72.9554 27.2811C72.2789 26.8152 70.7906 26.1676 70.52 25.3836C70.52 25.3836 70.4974 25.3609 70.4749 25.3382C70.9372 25.2928 71.4897 25.1223 71.9407 24.9974C72.6623 24.8042 73.3162 24.8497 74.0604 24.6565C74.3986 24.5656 74.7369 24.4633 75.0751 24.3611V24.1679C74.6918 23.7816 74.4212 23.2704 74.0153 22.9068C72.9328 21.9638 71.749 21.0548 70.52 20.2822C69.866 19.8505 69.0204 19.5778 68.3214 19.2142C68.0733 19.0892 67.6449 19.0211 67.4983 18.8052C67.1149 18.3394 66.9007 17.7145 66.6301 17.1577C66.0213 15.9875 65.4237 14.6808 64.8938 13.4424C64.5104 12.613 64.2849 11.7836 63.8113 11.011C61.6353 7.38658 59.2562 5.19376 55.6257 3.03503C54.8477 2.59192 53.9119 2.39877 52.9197 2.16017C52.3897 2.13745 51.8598 2.092 51.3299 2.08063C50.9916 1.93293 50.6534 1.52391 50.3602 1.33076C49.1538 0.558157 46.0419 -1.10066 45.1512 1.09216C44.5761 2.4783 45.9968 3.84172 46.4816 4.54615C46.8424 5.0347 47.3047 5.59143 47.564 6.14816C47.7106 6.51173 47.7557 6.89804 47.9023 7.28433C48.2405 8.22736 48.5562 9.27264 49.0072 10.1475C49.244 10.5906 49.4921 11.0678 49.7852 11.4655C49.9543 11.7041 50.2475 11.8063 50.3151 12.1926C50.022 12.6244 49.9994 13.2606 49.8303 13.7946C49.0636 16.2033 49.368 19.1915 50.4392 20.9639C50.7774 21.4979 51.5779 22.6682 52.6603 22.2251C53.6075 21.8388 53.4045 20.6231 53.6751 19.5551C53.7428 19.2937 53.6976 19.1233 53.8217 18.9529V18.9983C54.1148 19.5891 54.4193 20.1686 54.6899 20.7708C55.3438 21.816 56.4939 22.9068 57.441 23.6226C57.9483 24.0089 58.3542 24.6679 58.9856 24.9065V24.8383H58.9405C58.8165 24.6451 58.6248 24.5656 58.4557 24.4179C58.0724 24.0316 57.6552 23.5658 57.3508 23.134C56.46 21.941 55.6821 20.6117 54.983 19.2483C54.6448 18.5893 54.3516 17.8621 54.0697 17.2032C53.9457 16.9532 53.9457 16.5669 53.7315 16.4306C53.4158 16.8964 52.9535 17.3054 52.7167 17.8735C52.3108 18.7938 52.277 19.9186 52.1191 21.1003C52.0402 21.123 52.074 21.1003 52.0402 21.1457C51.3637 20.9753 51.1269 20.2708 50.8789 19.68C50.2475 18.1689 50.1347 15.7375 50.6872 13.9878C50.8338 13.5447 51.4765 12.1358 51.2171 11.7041C51.0931 11.295 50.6647 11.0678 50.4392 10.7383C50.1686 10.3293 49.8641 9.81801 49.6837 9.3749C49.1764 8.18192 48.917 6.85258 48.3758 5.6596C48.1165 5.10287 47.6768 4.52342 47.316 4.01214C46.9101 3.43269 46.4704 3.03503 46.1547 2.35332C46.0532 2.11472 45.9066 1.72843 46.0645 1.47847C46.1096 1.30804 46.1885 1.23987 46.3576 1.20578C46.6282 0.967184 47.4175 1.27395 47.6881 1.39893C48.4773 1.71706 49.1313 2.02383 49.7852 2.46694C50.0784 2.68281 50.3941 3.08047 50.7774 3.19409H51.2284C51.9049 3.3418 52.6716 3.23954 53.303 3.43269C54.4192 3.79626 55.4453 4.33027 56.3473 4.90972C59.1209 6.68216 61.4098 9.19311 62.9545 12.204C63.2138 12.6925 63.3153 13.147 63.552 13.6583C63.9918 14.7036 64.5442 15.7716 64.9952 16.7941C65.435 17.794 65.8634 18.8165 66.4948 19.6573C66.8105 20.1004 68.0846 20.339 68.6483 20.5776C69.0655 20.7708 69.7307 20.9412 70.1141 21.1684C70.8357 21.6115 71.5573 22.1228 72.2338 22.6227C72.5495 22.8841 73.6094 23.4181 73.6657 23.8384Z" fill="#00758F"/>
<path id="Vector_8" fill-rule="evenodd" clip-rule="evenodd" d="M52.0855 5.30742C51.7247 5.30742 51.4766 5.35287 51.2173 5.40968V5.45513H51.2624C51.4315 5.79598 51.7247 6.03457 51.9389 6.32998C52.108 6.67083 52.2546 7.01169 52.4237 7.35254C52.4463 7.32982 52.4688 7.30709 52.4688 7.30709C52.762 7.09122 52.9198 6.75036 52.9198 6.23908C52.7958 6.09138 52.7732 5.94368 52.6605 5.79598C52.5252 5.58011 52.2546 5.47785 52.0855 5.30742Z" fill="#00758F"/>
</g>
</g>
</g>
</g>
<defs>
<clipPath id="clip0_192_123687">
<rect width="76" height="52" fill="white" transform="translate(0.141357)"/>
</clipPath>
</defs>
</svg>
