<svg width="51" height="50" viewBox="0 0 51 50" fill="none" xmlns="http://www.w3.org/2000/svg">
<path d="M35.4578 2.77894C35.7884 3.08882 36.0871 3.42085 36.3771 3.76859C36.4175 3.81444 36.4579 3.8603 36.4995 3.90755C37.0201 4.55142 37.2857 5.51833 37.2887 6.33356C37.2896 6.4943 37.2896 6.4943 37.2905 6.65829C37.2907 6.77693 37.291 6.89558 37.2912 7.01423C37.2917 7.13932 37.2922 7.26441 37.2928 7.3895C37.2945 7.80053 37.2954 8.21156 37.2962 8.62258C37.2965 8.76452 37.2969 8.90646 37.2972 9.04839C37.2988 9.71607 37.2999 10.3837 37.3006 11.0514C37.3014 11.8193 37.3035 12.5872 37.3069 13.3551C37.3093 13.9502 37.3105 14.5453 37.3108 15.1404C37.311 15.495 37.3117 15.8495 37.3138 16.2041C37.3157 16.5388 37.316 16.8733 37.3152 17.208C37.3152 17.3296 37.3157 17.4513 37.3168 17.573C37.3319 19.2863 36.8784 21.0851 35.6616 22.3476C35.2725 22.7182 34.8731 23.0339 34.4145 23.3136C34.3381 23.3615 34.2618 23.4094 34.1832 23.4587C32.3373 24.4998 30.2135 24.4474 28.1635 24.4349C27.7837 24.4332 27.4038 24.4345 27.024 24.4356C26.3067 24.4371 25.5895 24.4364 24.8723 24.4346C23.5875 24.4315 22.3026 24.4312 21.0178 24.4334C20.5686 24.4341 20.1193 24.4334 19.6701 24.4316C19.3898 24.4306 19.1096 24.4307 18.8293 24.4311C18.7009 24.431 18.5725 24.4305 18.444 24.4296C16.5278 24.4159 14.8546 24.8793 13.4255 26.2225C11.8521 27.8536 11.4969 30.0589 11.4826 32.2364C11.4811 32.3854 11.4795 32.5343 11.4778 32.6833C11.4737 33.0721 11.4704 33.4608 11.4673 33.8496C11.4641 34.2477 11.4599 34.6457 11.4558 35.0437C11.4479 35.8223 11.441 36.6009 11.4347 37.3795C10.792 37.3872 10.1493 37.3929 9.50655 37.3965C9.20798 37.3982 8.90945 37.4005 8.6109 37.4042C8.32191 37.4078 8.03295 37.4097 7.74394 37.4106C7.58193 37.4114 7.41993 37.414 7.25793 37.4166C5.62482 37.417 4.29877 36.6776 3.12908 35.5804C2.60718 35.0428 2.23489 34.4302 1.86663 33.7813C1.82141 33.7044 1.77618 33.6276 1.72959 33.5484C0.924346 32.0747 0.560273 30.3566 0.312839 28.711C0.29 28.564 0.29 28.564 0.266699 28.4141C0.124851 27.4231 0.121597 26.4321 0.123467 25.4325C0.123725 25.1456 0.121803 24.8588 0.119734 24.5719C0.110371 21.2521 0.726064 17.8815 2.92975 15.2993C2.9755 15.2442 3.02125 15.1891 3.06839 15.1323C3.82067 14.3032 4.97411 13.6155 6.04755 13.3213C6.14222 13.2949 6.23688 13.2684 6.33442 13.2411C6.84724 13.1144 7.32332 13.0797 7.84868 13.0815C7.92324 13.0814 7.99779 13.0814 8.07461 13.0813C8.32398 13.0812 8.57334 13.0816 8.82271 13.082C9.00164 13.0821 9.18058 13.0821 9.35952 13.082C9.84507 13.082 10.3306 13.0825 10.8162 13.083C11.3237 13.0835 11.8312 13.0836 12.3387 13.0837C13.2451 13.0839 14.1514 13.0845 15.0577 13.0853C15.8804 13.086 16.703 13.0865 17.5256 13.0868C17.5797 13.0869 17.6338 13.0869 17.6896 13.0869C17.961 13.087 18.2324 13.0871 18.5038 13.0872C20.7543 13.0881 23.0048 13.0895 25.2553 13.0913C25.2283 12.5516 25.2013 12.0119 25.1735 11.4558C21.1794 11.4288 17.1854 11.4018 13.0703 11.374C13.0652 10.3384 13.0602 9.30274 13.0549 8.23573C13.0516 7.74738 13.0516 7.74738 13.0482 7.24916C13.0471 6.84796 13.0471 6.84796 13.0469 6.65943C13.0465 6.5293 13.0456 6.39917 13.0444 6.26905C13.0316 4.86914 13.2815 3.8993 14.2663 2.85369C14.7197 2.42017 15.222 2.10858 15.769 1.8059C15.8424 1.76321 15.9159 1.72052 15.9916 1.67653C17.3272 0.94821 18.8582 0.63779 20.3486 0.415671C20.4387 0.401953 20.4387 0.401953 20.5306 0.387959C25.1127 -0.294301 31.706 -0.391758 35.4578 2.77894Z" fill="#3773A4"/>
<path d="M39.4507 12.7522C39.5267 12.7517 39.6027 12.7512 39.681 12.7507C39.7632 12.7506 39.8455 12.7505 39.9303 12.7504C40.0158 12.7501 40.1013 12.7498 40.1894 12.7496C40.3711 12.7491 40.5528 12.749 40.7344 12.749C41.0081 12.7488 41.2818 12.7473 41.5555 12.7458C44.0371 12.7392 44.0371 12.7392 45.2092 13.173C45.2656 13.1934 45.322 13.2137 45.3801 13.2347C45.6627 13.3451 45.7725 13.4046 45.9452 13.6637C46.0787 13.7499 46.2154 13.8314 46.3541 13.909C47.0434 14.3187 47.4527 14.8093 47.9079 15.4628C47.9672 15.5392 48.0266 15.6157 48.0877 15.6944C48.4232 16.1279 48.6539 16.5241 48.8167 17.0489C48.8859 17.2693 48.8859 17.2693 49.0071 17.4913C49.1567 17.798 49.2529 18.1059 49.3492 18.4324C49.4355 18.8175 49.4355 18.8175 49.6252 19.1428C49.668 19.3573 49.7067 19.5712 49.7428 19.7868C49.7631 19.9059 49.7834 20.0249 49.8038 20.144C49.8137 20.2043 49.8236 20.2645 49.8338 20.3266C49.8566 20.4549 49.8821 20.5828 49.9118 20.7097C50.0849 21.4944 50.0625 22.2887 50.0644 23.088C50.0652 23.2495 50.0659 23.4109 50.0667 23.5724C50.068 23.9101 50.0687 24.2479 50.0689 24.5857C50.0693 25.0135 50.0724 25.4413 50.0761 25.8691C50.0786 26.2027 50.0792 26.5363 50.0793 26.8699C50.0796 27.0273 50.0806 27.1848 50.0823 27.3422C50.0932 28.4121 49.9598 29.3677 49.6758 30.3995C49.6086 30.6548 49.5543 30.9122 49.5015 31.1708C49.4421 31.4048 49.3275 31.605 49.2163 31.8185C49.1736 31.9406 49.1329 32.0633 49.0936 32.1865C48.854 32.9278 48.854 32.9278 48.61 33.1509C48.378 33.4006 48.2679 33.7261 48.1283 34.0339C47.9758 34.2956 47.8221 34.42 47.5807 34.599C47.4825 34.7055 47.3869 34.8145 47.2945 34.9261C47.0811 35.1768 46.8617 35.3798 46.5994 35.5803C46.5724 35.6343 46.5454 35.6883 46.5176 35.7439C46.4097 35.7439 46.3017 35.7439 46.1905 35.7439C46.1635 35.8248 46.1365 35.9058 46.1087 35.9892C45.9004 36.1298 45.9004 36.1298 45.6385 36.2754C45.5529 36.3235 45.4673 36.3716 45.3791 36.4211C45.296 36.4675 45.213 36.5139 45.1274 36.5616C45.0537 36.6061 44.98 36.6506 44.9041 36.6965C43.9448 37.2677 42.5467 37.0636 41.4685 37.0616C41.2895 37.0616 41.1105 37.0616 40.9315 37.0616C40.448 37.0617 39.9645 37.0612 39.481 37.0606C38.9748 37.0601 38.4686 37.06 37.9624 37.06C37.0049 37.0597 36.0474 37.059 35.09 37.0582C33.9995 37.0573 32.9089 37.0568 31.8184 37.0564C29.5762 37.0556 27.3339 37.0541 25.0917 37.0523C25.1187 37.5921 25.1456 38.1318 25.1734 38.6879C31.1645 38.7284 31.1645 38.7284 37.2767 38.7697C37.2842 40.3661 37.2842 40.3661 37.292 41.9948C37.2942 42.3297 37.2965 42.6645 37.2988 43.0095C37.2999 43.4215 37.2999 43.4215 37.3001 43.6149C37.3004 43.7487 37.3013 43.8825 37.3026 44.0163C37.3165 45.5835 36.8992 46.4007 35.8046 47.52C35.2638 47.9805 34.6618 48.3157 34.0055 48.5831C33.9081 48.6337 33.811 48.6848 33.7142 48.7364C32.9771 49.1064 32.2181 49.348 31.3995 49.4453C31.1353 49.4792 31.1353 49.4792 30.8507 49.5577C29.0809 50.0109 27.2422 50.0035 25.429 49.9989C25.2751 49.9985 25.2751 49.9985 25.1181 49.9982C21.9286 49.9871 21.9286 49.9871 20.6756 49.728C20.6033 49.7132 20.5309 49.6984 20.4563 49.6831C20.2021 49.6307 19.9482 49.5774 19.6943 49.5235C19.6112 49.5061 19.528 49.4886 19.4423 49.4706C19.3636 49.4535 19.2848 49.4364 19.2036 49.4188C19.0974 49.3959 19.0974 49.3959 18.989 49.3726C18.7985 49.3201 18.6425 49.2459 18.4676 49.1555C18.3335 49.1334 18.1988 49.1149 18.0638 49.0993C17.5655 49.017 17.1795 48.8065 16.7458 48.555C16.5318 48.4346 16.3239 48.3454 16.096 48.256C15.9801 48.1927 15.8658 48.1263 15.7536 48.0566C15.6985 48.023 15.6433 47.9894 15.5865 47.9547C15.4418 47.8471 15.4418 47.8471 15.2783 47.6017C15.1426 47.5189 15.0062 47.4372 14.8694 47.3564C14.3505 46.9152 13.9393 46.4179 13.6427 45.8026C13.6427 45.7486 13.6427 45.6947 13.6427 45.6391C13.5347 45.6121 13.4268 45.5851 13.3156 45.5573C13.3156 45.5033 13.3156 45.4493 13.3156 45.3937C13.2616 45.3937 13.2076 45.3937 13.152 45.3937C13.0775 45.0764 13.06 44.7821 13.0599 44.4565C13.0596 44.3497 13.0594 44.2428 13.0592 44.1328C13.0593 44.0149 13.0595 43.8971 13.0597 43.7793C13.0595 43.6547 13.0594 43.5301 13.0592 43.4056C13.0589 43.0674 13.059 42.7293 13.0593 42.3912C13.0595 42.0362 13.0593 41.6813 13.0591 41.3264C13.059 40.7296 13.0592 40.1327 13.0596 39.5359C13.06 38.8485 13.0599 38.1612 13.0594 37.4738C13.0591 36.8821 13.059 36.2903 13.0592 35.6986C13.0593 35.3459 13.0594 34.9932 13.0591 34.6406C13.0589 34.3081 13.059 33.9755 13.0595 33.643C13.0596 33.5219 13.0596 33.4008 13.0594 33.2798C13.0564 31.0927 13.0564 31.0927 13.3156 30.51C13.335 30.3894 13.352 30.2684 13.3667 30.1472C13.5335 29.2727 14.173 28.3557 14.7876 27.7296C14.8416 27.7296 14.8955 27.7296 14.9511 27.7296C14.9511 27.6756 14.9511 27.6216 14.9511 27.566C15.1556 27.4433 15.1556 27.4433 15.36 27.3207C15.4258 27.2498 15.4916 27.179 15.5594 27.106C15.799 26.8839 15.939 26.8524 16.2596 26.83C16.2596 26.776 16.2596 26.7221 16.2596 26.6665C16.5834 26.5855 16.5834 26.5855 16.9138 26.5029C16.9138 26.4489 16.9138 26.395 16.9138 26.3393C17.3763 26.1998 17.8388 26.0607 18.3041 25.9304C18.375 25.9084 18.375 25.9084 18.4473 25.8859C18.7038 25.834 18.9503 25.8373 19.212 25.8363C19.2705 25.8359 19.329 25.8356 19.3893 25.8352C19.5855 25.8342 19.7817 25.8337 19.9779 25.8332C20.1185 25.8325 20.2592 25.8318 20.3998 25.8311C20.7028 25.8296 21.0058 25.8284 21.3088 25.8274C21.7882 25.8257 22.2677 25.8235 22.7471 25.8211C23.7654 25.8162 24.7838 25.812 25.8021 25.8078C26.9001 25.8033 27.9981 25.7986 29.096 25.7933C29.5722 25.7909 30.0484 25.789 30.5246 25.7874C30.8216 25.7863 31.1185 25.7849 31.4155 25.7833C31.5527 25.7827 31.6899 25.7822 31.8272 25.7819C33.1369 25.7784 34.2236 25.6584 35.3989 25.0271C35.5593 24.9491 35.5593 24.9491 35.7229 24.9491C35.7229 24.8951 35.7229 24.8412 35.7229 24.7856C35.8903 24.6737 35.8903 24.6737 36.1113 24.5504C36.4103 24.3835 36.627 24.2096 36.8678 23.9678C36.9217 23.9678 36.9757 23.9678 37.0313 23.9678C37.0516 23.9205 37.0718 23.8733 37.0927 23.8247C37.1949 23.6407 37.1949 23.6407 37.3492 23.4927C37.7792 23.0468 38.0297 22.4122 38.258 21.8415C38.312 21.8415 38.3659 21.8415 38.4216 21.8415C38.4315 21.7547 38.4414 21.6678 38.4516 21.5783C38.4654 21.4616 38.4792 21.3449 38.4931 21.2282C38.4995 21.1713 38.506 21.1143 38.5126 21.0557C38.5194 20.9988 38.5263 20.9418 38.5334 20.8832C38.5424 20.8061 38.5424 20.8061 38.5515 20.7275C38.5851 20.5331 38.5851 20.5331 38.6674 20.2388C38.7585 19.8758 38.7737 19.5319 38.7747 19.159C38.7756 19.0903 38.7764 19.0216 38.7772 18.9508C38.7797 18.726 38.7811 18.5013 38.7825 18.2765C38.7841 18.1198 38.7857 17.963 38.7873 17.8063C38.7915 17.3954 38.7948 16.9846 38.7978 16.5737C38.8011 16.1538 38.8053 15.7339 38.8094 15.3139C38.8173 14.4913 38.8242 13.6686 38.8304 12.8459C39.0633 12.7683 39.2092 12.7534 39.4507 12.7522Z" fill="#FED343"/>
<circle cx="29.4053" cy="42.5001" r="1.78571" fill="white"/>
<circle cx="20.4769" cy="7.50007" r="1.78571" fill="white"/>
</svg>
