<svg width="141" height="36" viewBox="0 0 141 36" fill="none" xmlns="http://www.w3.org/2000/svg">
<g id="redis_labs_logo.svg" clip-path="url(#clip0_192_123700)">
<g id="Clip path group">
<mask id="mask0_192_123700" style="mask-type:luminance" maskUnits="userSpaceOnUse" x="0" y="2" width="38" height="34">
<g id="clip-path">
<path id="Vector" d="M37.5561 2.8042H0.141113V35.5002H37.5561V2.8042Z" fill="white"/>
</g>
</mask>
<g mask="url(#mask0_192_123700)">
<g id="Group">
<path id="Vector_2" d="M36.0861 28.0136C34.0911 29.0764 23.7467 33.4147 21.53 34.6044C19.3133 35.7941 18.1078 35.7623 16.3656 34.9137C14.6233 34.0651 3.64111 29.5126 1.65389 28.545C0.662224 28.0652 0.141113 27.6567 0.141113 27.2721V23.4136C0.141113 23.4136 14.4717 20.2412 16.7856 19.3886C19.0994 18.536 19.8967 18.5122 21.8683 19.2458C23.84 19.9794 35.6078 22.1486 37.5522 22.8743V26.6733C37.5522 27.0698 37.105 27.4664 36.0861 28.0097V28.0136Z" fill="#A32422"/>
<path id="Vector_3" d="M36.0859 24.1588C34.0909 25.2176 23.7465 29.5559 21.5298 30.7257C19.3132 31.8956 18.1076 31.8837 16.3654 31.039C14.6232 30.1943 3.64094 25.6538 1.65372 24.6902C-0.333504 23.7265 -0.372393 23.0563 1.57594 22.2791C3.52427 21.5018 14.4715 17.1239 16.7854 16.2752C19.0993 15.4266 19.8965 15.3989 21.8682 16.1365C23.8398 16.874 34.1182 21.0458 36.0626 21.7715C38.0071 22.4972 38.0848 23.096 36.0859 24.1508V24.1588Z" fill="#DC382C"/>
<path id="Vector_4" d="M36.0861 21.7279C34.0911 22.7867 23.7467 27.125 21.53 28.2949C19.3133 29.4647 18.1078 29.4528 16.3656 28.6082C14.6233 27.7635 3.64111 23.2269 1.65389 22.2593C0.662224 21.7755 0.141113 21.367 0.141113 20.9824V17.1279C0.141113 17.1279 14.4717 13.9554 16.7856 13.0989C19.0994 12.2423 19.8967 12.2225 21.8683 12.9601C23.84 13.6977 35.6078 15.8589 37.5522 16.5846V20.3876C37.5522 20.7841 37.105 21.1807 36.0861 21.7279Z" fill="#A32422"/>
<path id="Vector_5" d="M36.0859 17.8697C34.0909 18.9325 23.7465 23.2669 21.5298 24.4367C19.3132 25.6065 18.1076 25.5986 16.3654 24.75C14.6232 23.9014 3.64094 19.3687 1.65372 18.4011C-0.333504 17.4335 -0.372393 16.7713 1.57594 15.994C3.52427 15.2168 14.4715 10.8388 16.7854 9.99018C19.0993 9.14155 19.8965 9.11379 21.8682 9.84742C23.8398 10.581 34.1182 14.7766 36.0626 15.4825C38.0071 16.1883 38.0848 16.807 36.0859 17.8618V17.8697Z" fill="#DC382C"/>
<path id="Vector_6" d="M36.0861 15.2046C34.0911 16.2673 23.7467 20.6056 21.53 21.7755C19.3133 22.9453 18.1078 22.9334 16.3656 22.0848C14.6233 21.2362 3.64111 16.7035 1.65389 15.7359C0.662224 15.2561 0.141113 14.8477 0.141113 14.463V10.6045C0.141113 10.6045 14.4717 7.43207 16.7856 6.57948C19.0994 5.72688 19.8967 5.70309 21.8683 6.43672C23.84 7.17034 35.6078 9.3395 37.5522 10.0652V13.8682C37.5522 14.2647 37.105 14.6613 36.0861 15.2046Z" fill="#A32422"/>
<path id="Vector_7" d="M36.0859 11.3502C34.0909 12.3971 23.7465 16.7592 21.5298 17.9171C19.3132 19.0751 18.1076 19.0751 16.3654 18.2304C14.6232 17.3858 3.64094 12.8452 1.65372 11.8816C-0.333504 10.9179 -0.372393 10.2478 1.57594 9.4705C3.52427 8.69325 14.4715 4.31528 16.7854 3.46665C19.0993 2.61802 19.8965 2.59026 21.8682 3.32786C23.8398 4.06545 34.1182 8.23722 36.0626 8.96291C38.0071 9.68861 38.0848 10.2874 36.0859 11.3422V11.3502Z" fill="#DC382C"/>
</g>
</g>
</g>
<path id="Vector_8" d="M19.4337 5.86917L21.9031 5.04434L21.2343 6.67418L23.7465 7.63384L20.507 7.97885L19.7798 9.75938L18.6093 7.77264L14.8643 7.42764L17.6604 6.40056L16.8204 4.82227L19.4337 5.86917Z" fill="white"/>
<path id="Vector_9" d="M19.5897 16.2749L13.5386 13.7132L22.2069 12.3569L19.5897 16.2749Z" fill="white"/>
<path id="Vector_10" d="M11.201 8.62549C13.7599 8.62549 15.8327 9.44636 15.8327 10.4576C15.8327 11.4688 13.7521 12.2897 11.201 12.2897C8.64987 12.2897 6.56543 11.4688 6.56543 10.4576C6.56543 9.44636 8.6421 8.62549 11.201 8.62549Z" fill="white"/>
<path id="Vector_11" d="M27.5811 8.12158L32.7105 10.1876L27.5849 12.2537L27.5811 8.12158Z" fill="#741113"/>
<path id="Vector_12" d="M27.5811 8.12158L27.585 12.2537L27.0289 12.4758L21.9033 10.4097L27.5811 8.12158Z" fill="#AC2724"/>
<path id="Vector_13" d="M96.8735 1.11474C96.8859 0.956661 96.9561 0.809123 97.0704 0.701527C97.1846 0.593932 97.3344 0.53418 97.4899 0.53418C97.6454 0.53418 97.7952 0.593932 97.9095 0.701527C98.0237 0.809123 98.094 0.956661 98.1063 1.11474V17.8573C98.094 18.0154 98.0237 18.1629 97.9095 18.2705C97.7952 18.3781 97.6454 18.4379 97.4899 18.4379C97.3344 18.4379 97.1846 18.3781 97.0704 18.2705C96.9561 18.1629 96.8859 18.0154 96.8735 17.8573V1.11474Z" fill="#494C4D"/>
<path id="Vector_14" d="M112.686 6.50796V17.8574C112.673 18.0124 112.604 18.157 112.492 18.2625C112.38 18.368 112.233 18.4265 112.081 18.4265C111.928 18.4265 111.782 18.368 111.669 18.2625C111.557 18.157 111.488 18.0124 111.476 17.8574V15.9658C110.953 16.7253 110.26 17.3471 109.455 17.78C108.649 18.213 107.755 18.4448 106.845 18.4562C103.597 18.4562 101.011 15.6089 101.011 12.1668C101.011 8.72471 103.605 5.87744 106.845 5.87744C107.753 5.88476 108.646 6.11182 109.451 6.53995C110.256 6.96807 110.95 7.58503 111.476 8.34005V6.50796C111.488 6.35296 111.557 6.20833 111.669 6.10286C111.782 5.99739 111.928 5.93883 112.081 5.93883C112.233 5.93883 112.38 5.99739 112.492 6.10286C112.604 6.20833 112.673 6.35296 112.686 6.50796ZM111.476 12.1827C111.476 9.3592 109.388 7.09883 106.845 7.09883C104.301 7.09883 102.213 9.3592 102.213 12.1827C102.213 15.0062 104.325 17.2427 106.845 17.2427C109.365 17.2427 111.476 15.0062 111.476 12.1827Z" fill="#494C4D"/>
<path id="Vector_15" d="M116.287 12.4642V1.11474C116.299 0.956661 116.369 0.809123 116.483 0.701527C116.598 0.593932 116.747 0.53418 116.903 0.53418C117.059 0.53418 117.208 0.593932 117.323 0.701527C117.437 0.809123 117.507 0.956661 117.519 1.11474V8.35584C118.064 7.59606 118.776 6.97736 119.598 6.54961C120.42 6.12187 121.329 5.89703 122.252 5.89323C125.577 5.89323 128.222 8.71671 128.222 12.2104C128.233 13.0214 128.088 13.8268 127.795 14.5805C127.501 15.3343 127.064 16.0216 126.51 16.6032C125.956 17.1847 125.294 17.6491 124.564 17.9698C123.833 18.2905 123.048 18.4611 122.252 18.472C121.331 18.4734 120.422 18.2534 119.6 17.8296C118.777 17.4059 118.065 16.7904 117.519 16.0332V17.8573C117.507 18.0154 117.437 18.1629 117.323 18.2705C117.208 18.3781 117.059 18.4379 116.903 18.4379C116.747 18.4379 116.598 18.3781 116.483 18.2705C116.369 18.1629 116.299 18.0154 116.287 17.8573V12.4642ZM117.519 12.2104C117.494 12.8606 117.597 13.5094 117.823 14.118C118.049 14.7265 118.394 15.2821 118.836 15.7515C119.278 16.2209 119.808 16.5944 120.395 16.8495C120.982 17.1046 121.614 17.2361 122.252 17.2361C122.89 17.2361 123.522 17.1046 124.109 16.8495C124.696 16.5944 125.227 16.2209 125.669 15.7515C126.111 15.2821 126.455 14.7265 126.681 14.118C126.908 13.5094 127.011 12.8606 126.985 12.2104C126.985 9.41068 124.873 7.15032 122.252 7.15032C121.002 7.18076 119.812 7.70222 118.93 8.60589C118.049 9.50955 117.543 10.7256 117.519 12.0002V12.2104Z" fill="#494C4D"/>
<path id="Vector_16" d="M130.913 15.8548C130.963 15.7912 131.026 15.7385 131.096 15.7001C131.167 15.6616 131.245 15.6382 131.325 15.6312C131.405 15.6241 131.485 15.6336 131.562 15.6591C131.638 15.6846 131.708 15.7256 131.768 15.7795C132.624 16.4179 133.985 17.2428 135.548 17.2428C136.39 17.2614 137.212 16.9888 137.882 16.4695C138.15 16.3116 138.375 16.0884 138.537 15.8198C138.699 15.5513 138.793 15.2458 138.811 14.9309C138.788 14.34 138.558 13.9276 137.932 13.3883C137.403 12.9917 136.521 12.6705 135.311 12.4643L135.261 12.4405C134.152 12.2343 133.172 11.9765 132.468 11.465C132.07 11.2416 131.737 10.915 131.502 10.5181C131.267 10.1212 131.139 9.66811 131.131 9.2046C131.148 8.71527 131.279 8.23703 131.511 7.80854C131.743 7.38004 132.071 7.01333 132.468 6.73803C133.369 6.1531 134.423 5.85874 135.49 5.89336C137.073 5.89336 138.212 6.63889 139.165 7.25355C139.298 7.34899 139.389 7.49235 139.422 7.65443C139.455 7.81651 139.425 7.98513 139.34 8.12597C139.253 8.26186 139.116 8.35692 138.96 8.39036C138.804 8.4238 138.642 8.3929 138.508 8.30442C137.602 7.68976 136.696 7.04734 135.49 7.04734C134.655 7.01183 133.833 7.26474 133.157 7.76511C132.924 7.93073 132.732 8.14829 132.595 8.40119C132.457 8.65409 132.378 8.93565 132.363 9.22443C132.369 9.47707 132.437 9.72426 132.56 9.94371C132.682 10.1632 132.857 10.348 133.067 10.4815C133.834 10.9547 134.693 11.2524 135.583 11.3539H135.634C136.687 11.5048 137.704 11.853 138.632 12.381C139.051 12.6622 139.395 13.0432 139.637 13.491C139.878 13.9388 140.008 14.4398 140.017 14.9507C139.996 15.4582 139.857 15.9533 139.612 16.3952C139.366 16.8372 139.021 17.2133 138.605 17.4926C137.718 18.1603 136.639 18.5115 135.537 18.4919C133.863 18.4301 132.258 17.7976 130.979 16.6955C130.918 16.6465 130.868 16.5852 130.831 16.5154C130.794 16.4456 130.772 16.3688 130.766 16.2899C130.76 16.211 130.77 16.1316 130.795 16.0567C130.82 15.9819 130.86 15.9131 130.913 15.8548Z" fill="#494C4D"/>
<path id="Vector_17" d="M49.4717 7.53475C49.9122 7.04137 50.4558 6.65514 51.0623 6.40456C51.653 6.14578 52.2863 6.00316 52.9289 5.98421C53.1571 5.96376 53.387 5.99044 53.6048 6.06266C53.8226 6.13489 54.024 6.25117 54.1967 6.40456C54.3269 6.53128 54.429 6.68497 54.4961 6.85529C54.5632 7.02562 54.5937 7.20862 54.5856 7.39199C54.5893 7.76066 54.4495 8.11578 54.1967 8.37941C54.0751 8.51744 53.9255 8.62688 53.7583 8.70014C53.5911 8.7734 53.4103 8.80875 53.2284 8.80373C51.6339 8.94649 49.4211 10.5684 49.4211 12.7693V17.7659C49.4113 18.1371 49.2623 18.4904 49.0048 18.753C48.7472 19.0157 48.4008 19.1676 48.0367 19.1776C47.8506 19.1841 47.6655 19.1483 47.4947 19.0729C47.3238 18.9974 47.1716 18.8842 47.0489 18.7414C46.919 18.613 46.8154 18.4597 46.7439 18.2902C46.6725 18.1207 46.6347 17.9384 46.6328 17.754V7.32457C46.6347 7.14011 46.6725 6.95787 46.7439 6.78839C46.8154 6.6189 46.919 6.46553 47.0489 6.33715C47.3521 6.11525 47.7141 5.9922 48.0873 5.98421C48.2689 5.97843 48.4496 6.01303 48.6168 6.08562C48.784 6.15821 48.9338 6.26704 49.0556 6.40456C49.1905 6.52892 49.2976 6.68152 49.3694 6.85194C49.4412 7.02235 49.4761 7.20656 49.4717 7.39199V7.53475Z" fill="#494C4D"/>
<path id="Vector_18" d="M66.2521 12.1193C66.2535 12.4593 66.13 12.7875 65.9059 13.0393C65.6414 13.2913 65.299 13.4414 64.9376 13.4636H56.7709C56.8488 14.1256 57.1647 14.7346 57.6576 15.1728C58.29 15.8656 59.1549 16.2903 60.0804 16.3624C60.5491 16.4433 61.0288 16.4289 61.492 16.32C61.9552 16.2111 62.3927 16.0099 62.7793 15.7279C62.9149 15.5888 63.0769 15.4794 63.2555 15.4064C63.434 15.3335 63.6253 15.2985 63.8176 15.3036C63.9832 15.2956 64.1485 15.3229 64.3032 15.3837C64.4579 15.4444 64.5984 15.5374 64.7159 15.6566C64.8309 15.7643 64.9226 15.8951 64.9853 16.0409C65.0481 16.1866 65.0805 16.344 65.0805 16.5032C65.0805 16.6624 65.0481 16.8198 64.9853 16.9655C64.9226 17.1113 64.8309 17.2421 64.7159 17.3499C64.1127 17.9198 63.4051 18.3628 62.6337 18.6534C61.8622 18.944 61.0421 19.0764 60.2204 19.0431C59.3746 19.0624 58.5348 18.8952 57.7582 18.553C56.9817 18.2108 56.2868 17.7017 55.7209 17.0604C54.5489 15.7985 53.8829 14.1347 53.8543 12.3969C53.8373 11.5314 53.9941 10.6716 54.3151 9.87029C54.6361 9.06896 55.1146 8.3431 55.7209 7.73734C56.2736 7.12289 56.9481 6.63538 57.6998 6.3072C58.4514 5.97902 59.2629 5.81767 60.0804 5.83388C60.8753 5.80251 61.6677 5.94359 62.4051 6.2478C63.1425 6.55201 63.8082 7.01241 64.3582 7.59855C65.5304 8.74488 66.2264 10.3063 66.3026 11.9607V12.0995L66.2521 12.1193ZM60.0921 8.37976C59.2318 8.39398 58.4046 8.72013 57.7587 9.29977C57.2073 9.77377 56.8201 10.4161 56.6543 11.1319H63.9187C63.7149 10.4154 63.2737 9.7931 62.6704 9.37115C61.9419 8.77276 61.0459 8.42563 60.1115 8.37976" fill="#494C4D"/>
<path id="Vector_19" d="M79.2724 17.6234C79.2705 17.8079 79.2327 17.9901 79.1613 18.1596C79.0899 18.3291 78.9862 18.4825 78.8563 18.6109C78.731 18.744 78.5807 18.8502 78.4143 18.9231C78.248 18.996 78.069 19.0341 77.888 19.0352C77.5691 19.0224 77.2626 18.9057 77.0134 18.7023C76.7643 18.4989 76.5856 18.2195 76.5035 17.905C75.4762 18.6559 74.2402 19.0519 72.9763 19.0352C72.1494 19.0454 71.3292 18.8816 70.5671 18.5541C69.805 18.2266 69.1172 17.7424 68.5469 17.1317C67.9496 16.5223 67.4816 15.7943 67.1718 14.9927C66.8621 14.1911 66.7173 13.3332 66.7463 12.4722C66.7336 10.7413 67.379 9.07271 68.5469 7.81661C69.1131 7.19492 69.7983 6.69822 70.5601 6.35718C71.322 6.01615 72.1443 5.83803 72.9763 5.83383C74.2185 5.81749 75.4322 6.21423 76.4335 6.96401V2.03086C76.4286 1.84536 76.4633 1.66098 76.5351 1.49049C76.607 1.32 76.7143 1.16746 76.8497 1.04344C76.9756 0.910972 77.126 0.80527 77.2922 0.732439C77.4584 0.659608 77.6371 0.621093 77.818 0.619122C77.9999 0.614099 78.1807 0.649443 78.3479 0.722707C78.5151 0.795971 78.6647 0.905405 78.7863 1.04344C78.9162 1.17182 79.0199 1.32519 79.0913 1.49467C79.1627 1.66416 79.2005 1.8464 79.2024 2.03086V17.6234H79.2724ZM73.0502 16.2117C73.5103 16.2201 73.9664 16.1234 74.385 15.9285C74.8036 15.7336 75.174 15.4455 75.4691 15.0855C76.1346 14.3856 76.5067 13.449 76.5067 12.4742C76.5067 11.4993 76.1346 10.5627 75.4691 9.86283C75.1645 9.51403 74.7923 9.23348 74.3759 9.03894C73.9596 8.8444 73.5081 8.74011 73.0502 8.73265C72.5881 8.71635 72.1285 8.80999 71.708 9.00615C71.2875 9.20232 70.9175 9.49562 70.6274 9.86283C69.962 10.5627 69.5898 11.4993 69.5898 12.4742C69.5898 13.449 69.962 14.3856 70.6274 15.0855C70.928 15.4399 71.3001 15.724 71.7182 15.9184C72.1363 16.1128 72.5907 16.2128 73.0502 16.2117Z" fill="#494C4D"/>
<path id="Vector_20" d="M83.3632 2.03077V2.59784C83.3697 2.79717 83.3353 2.99568 83.2623 3.18071C83.1893 3.36574 83.0793 3.53323 82.9393 3.67251C82.8138 3.80096 82.6617 3.89929 82.4942 3.96033C82.3267 4.02138 82.148 4.04362 81.971 4.02544C81.7894 4.03123 81.6086 3.99663 81.4414 3.92404C81.2742 3.85145 81.1245 3.74262 81.0027 3.60509C80.8657 3.46725 80.758 3.30209 80.6864 3.11991C80.6148 2.93774 80.5808 2.74246 80.5866 2.54629V2.03077C80.5876 1.84617 80.625 1.66366 80.6965 1.49405C80.7679 1.32445 80.8721 1.17119 81.0027 1.04335C81.1286 0.910881 81.279 0.805179 81.4452 0.732348C81.6114 0.659517 81.7901 0.621002 81.971 0.619031C82.1528 0.614538 82.3335 0.650122 82.5006 0.723351C82.6677 0.796581 82.8174 0.905731 82.9393 1.04335C83.0761 1.16664 83.1849 1.31885 83.2581 1.48938C83.3313 1.65991 83.3672 1.84466 83.3632 2.03077ZM81.0299 6.33736C81.1553 6.20419 81.3056 6.09802 81.4719 6.02513C81.6382 5.95225 81.8172 5.91413 81.9982 5.91305C82.1802 5.90749 82.3612 5.94259 82.5285 6.01589C82.6957 6.08919 82.8453 6.19891 82.9666 6.33736C83.0992 6.47669 83.2027 6.64201 83.2709 6.82332C83.3391 7.00463 83.3705 7.19816 83.3632 7.3922V17.7026C83.3747 17.889 83.343 18.0755 83.2708 18.247C83.1985 18.4185 83.0876 18.5703 82.9471 18.6901C82.8212 18.8225 82.6708 18.9282 82.5046 19.0011C82.3384 19.0739 82.1597 19.1124 81.9788 19.1144C81.7969 19.1194 81.6161 19.0841 81.4489 19.0108C81.2817 18.9375 81.1321 18.8281 81.0104 18.6901C80.8798 18.5622 80.7757 18.409 80.7043 18.2394C80.6328 18.0698 80.5954 17.8872 80.5943 17.7026V7.3922C80.5887 7.19663 80.6227 7.00197 80.6943 6.82045C80.7659 6.63893 80.8735 6.47446 81.0104 6.33736" fill="#494C4D"/>
<path id="Vector_21" d="M93.1787 7.32455C93.4611 7.52462 93.6584 7.8265 93.7309 8.16922C93.7878 8.52813 93.7405 8.89618 93.5948 9.22802C93.3963 9.51534 93.0993 9.71628 92.7626 9.79113C92.4029 9.85939 92.0312 9.78415 91.7243 9.58095C90.7559 8.94647 89.9976 8.59353 89.3715 8.59353C88.8225 8.56087 88.2811 8.73597 87.8509 9.08526C87.5748 9.2994 87.4348 9.43819 87.4348 9.58095C87.4165 9.70334 87.4413 9.82839 87.5048 9.93389C87.5831 10.021 87.6768 10.0922 87.7809 10.1441C88.3449 10.5067 88.9868 10.7244 89.6515 10.7786C90.5127 10.9259 91.3501 11.1928 92.1404 11.5717C92.8381 11.8675 93.4214 12.3885 93.8009 13.0548C94.1401 13.6052 94.3306 14.2372 94.3531 14.8869C94.3501 15.4863 94.2036 16.076 93.9264 16.6046C93.6493 17.1333 93.2498 17.585 92.7626 17.9205C91.7949 18.6261 90.631 18.9972 89.4415 18.9793C87.8509 18.9793 86.3304 18.3448 84.8759 17.1472C84.6109 16.91 84.4384 16.5834 84.3898 16.2272C84.3661 15.9633 84.4188 15.6981 84.5413 15.4643C84.6638 15.2306 84.8508 15.0385 85.0792 14.912C85.3076 14.7854 85.5673 14.7299 85.8263 14.7522C86.0853 14.7745 86.3322 14.8737 86.5365 15.0376C87.2993 15.7793 88.3176 16.1852 89.3715 16.1677C89.9848 16.1892 90.5894 16.016 91.102 15.672C91.3781 15.3905 91.5881 15.1803 91.5881 14.9662C91.5881 14.752 91.5882 14.6846 91.5182 14.6132C91.5182 14.5419 91.3782 14.4031 91.172 14.3317C90.5403 13.9342 89.832 13.6799 89.0954 13.5862C88.272 13.4627 87.4759 13.1943 86.7426 12.7931C86.0706 12.4583 85.4976 11.9479 85.082 11.3139C84.8096 10.8186 84.6675 10.2599 84.6698 9.69199C84.6691 9.11895 84.8077 8.55466 85.073 8.04952C85.3383 7.54438 85.7222 7.11411 86.1904 6.79713C87.1277 6.14601 88.2373 5.80158 89.3715 5.80971C90.5381 5.88109 91.7943 6.37282 93.1787 7.29283" fill="#494C4D"/>
<path id="Vector_22" d="M52.1122 31.8796H51.1905V28.7389H47.5428V31.8796H46.6211V24.9756H47.5428V28.0568H51.1905V24.9756H52.1122V31.8796Z" fill="#494C4D"/>
<path id="Vector_23" d="M61.9473 28.4293C61.9522 28.9148 61.8705 29.3972 61.7062 29.8529C61.5541 30.2679 61.3228 30.648 61.0257 30.9712C60.7265 31.2846 60.3661 31.5305 59.9679 31.693C59.0918 32.0366 58.1218 32.0366 57.2457 31.693C56.8481 31.5314 56.4888 31.2854 56.1918 30.9712C55.8911 30.6478 55.6594 30.2643 55.5112 29.845C55.1896 28.9243 55.1896 27.9185 55.5112 26.9977C55.6603 26.5813 55.892 26.2006 56.1918 25.8795C56.4885 25.5629 56.8477 25.3142 57.2457 25.1498C58.1218 24.8062 59.0918 24.8062 59.9679 25.1498C60.3665 25.3151 60.7269 25.5636 61.0257 25.8795C61.3228 26.2027 61.5541 26.5828 61.7062 26.9977C61.8711 27.4561 61.9528 27.9412 61.9473 28.4293ZM61.0062 28.4293C61.0112 28.0416 60.9533 27.6557 60.8351 27.2872C60.7355 26.9714 60.5711 26.6808 60.3529 26.4346C60.1456 26.194 59.8877 26.0042 59.5984 25.8795C58.9611 25.6311 58.2563 25.6311 57.619 25.8795C57.3236 25.998 57.0579 26.1823 56.8412 26.4188C56.6218 26.6647 56.4561 26.9553 56.3551 27.2714C56.1271 28.015 56.1271 28.8119 56.3551 29.5555C56.4579 29.8708 56.6234 30.161 56.8412 30.4081C57.0592 30.6422 57.3246 30.8249 57.619 30.9435C58.2573 31.1867 58.9602 31.1867 59.5984 30.9435C59.8852 30.8233 60.1427 30.6406 60.3529 30.4081C60.5695 30.1608 60.7337 29.8706 60.8351 29.5555C60.9517 29.1921 61.0095 28.8117 61.0062 28.4293Z" fill="#494C4D"/>
<path id="Vector_24" d="M68.5349 29.6272C68.566 29.7144 68.601 29.7977 68.6321 29.8849C68.6632 29.7937 68.6943 29.7104 68.7293 29.6272C68.7643 29.5439 68.8032 29.4646 68.8499 29.3813L71.1405 25.1342C71.166 25.075 71.2115 25.0272 71.2688 24.9994C71.3293 24.981 71.3924 24.973 71.4555 24.9756H72.1321V31.8796H71.3271V26.8076C71.3271 26.7402 71.3271 26.6689 71.3271 26.5895C71.3271 26.5102 71.3271 26.4349 71.3271 26.3556L68.9938 30.6701C68.9652 30.7351 68.9188 30.7903 68.8602 30.829C68.8015 30.8677 68.7331 30.8883 68.6632 30.8882H68.5854C68.5155 30.8888 68.4469 30.8685 68.3881 30.8297C68.3293 30.7909 68.283 30.7354 68.2549 30.6701L65.8632 26.3397C65.8632 26.423 65.8632 26.5063 65.8827 26.5856C65.9021 26.6649 65.8827 26.7402 65.8827 26.8076V31.8796H65.0854V24.9756H65.7582C65.8226 24.9733 65.8869 24.9814 65.9488 24.9994C66.0044 25.0294 66.0493 25.0766 66.0771 25.1342L68.4105 29.3853C68.4566 29.4633 68.4982 29.5441 68.5349 29.6272Z" fill="#494C4D"/>
<path id="Vector_25" d="M79.8631 24.9756V25.737H76.612V28.0291H79.2448V28.7627H76.612V31.1182H79.8631V31.8796H75.6709V24.9756H79.8631Z" fill="#494C4D"/>
<path id="Vector_26" d="M93.0543 28.4293C93.0582 28.9122 92.9766 29.3918 92.8132 29.845C92.6625 30.2607 92.4311 30.6411 92.1326 30.9633C91.8341 31.2775 91.4736 31.5235 91.0748 31.685C90.1987 32.0286 89.2287 32.0286 88.3526 31.685C87.9555 31.5225 87.5964 31.2766 87.2987 30.9633C87.0003 30.6411 86.7688 30.2607 86.6182 29.845C86.2966 28.9243 86.2966 27.9185 86.6182 26.9977C86.7688 26.582 87.0003 26.2016 87.2987 25.8795C87.5961 25.5637 87.9551 25.3152 88.3526 25.1498C89.2287 24.8062 90.1987 24.8062 91.0748 25.1498C91.474 25.3141 91.8345 25.5628 92.1326 25.8795C92.4311 26.2016 92.6625 26.582 92.8132 26.9977C92.9781 27.4561 93.0598 27.9412 93.0543 28.4293ZM92.1132 28.4293C92.1181 28.0416 92.0603 27.6557 91.942 27.2872C91.8424 26.9714 91.678 26.6808 91.4598 26.4346C91.2526 26.194 90.9947 26.0042 90.7054 25.8795C90.068 25.6311 89.3633 25.6311 88.7259 25.8795C88.4376 26.0006 88.1787 26.1847 87.9676 26.4188C87.7495 26.6656 87.584 26.956 87.4815 27.2714C87.2585 28.0158 87.2585 28.8111 87.4815 29.5555C87.5859 29.8701 87.7512 30.16 87.9676 30.4081C88.1799 30.6398 88.4385 30.8224 88.7259 30.9435C89.3642 31.1867 90.0671 31.1867 90.7054 30.9435C90.9922 30.8233 91.2497 30.6406 91.4598 30.4081C91.6764 30.1608 91.8406 29.8706 91.942 29.5555C92.0586 29.1921 92.1164 28.8117 92.1132 28.4293Z" fill="#494C4D"/>
<path id="Vector_27" d="M100.37 24.9756V25.737H97.1184V28.152H99.8951V28.9134H97.1184V31.8796H96.1968V24.9756H100.37Z" fill="#494C4D"/>
<path id="Vector_28" d="M108.155 29.0005V31.8795H107.241V24.9755H109.155C109.53 24.9677 109.904 25.0131 110.267 25.1103C110.55 25.1869 110.815 25.3218 111.045 25.5068C111.241 25.6687 111.396 25.877 111.496 26.1136C111.676 26.5862 111.687 27.1086 111.527 27.5888C111.454 27.7981 111.343 27.9918 111.2 28.1598C111.051 28.334 110.873 28.4803 110.675 28.592C110.454 28.7156 110.217 28.8064 109.971 28.8617C110.092 28.9357 110.196 29.0359 110.275 29.1551L112.25 31.8953H111.437C111.364 31.9015 111.29 31.8862 111.224 31.851C111.159 31.8159 111.105 31.7625 111.068 31.6971L109.31 29.2305C109.265 29.1621 109.205 29.1051 109.135 29.0639C109.045 29.0269 108.948 29.0106 108.851 29.0164L108.155 29.0005ZM108.155 28.3184H109.112C109.347 28.3221 109.582 28.2886 109.808 28.2193C109.995 28.1634 110.168 28.0689 110.317 27.9417C110.453 27.825 110.56 27.6768 110.628 27.5094C110.7 27.335 110.736 27.1474 110.733 26.9582C110.746 26.7826 110.717 26.6065 110.649 26.4444C110.582 26.2824 110.477 26.1391 110.345 26.0263C109.992 25.7935 109.574 25.6835 109.155 25.713H108.155V28.3184Z" fill="#494C4D"/>
<path id="Vector_29" d="M119.297 24.9756V25.737H116.03V28.0291H118.659V28.7627H116.03V31.1182H119.281V31.8796H115.124V24.9756H119.297Z" fill="#494C4D"/>
<path id="Vector_30" d="M128.373 28.4294C128.379 28.9111 128.297 29.3897 128.132 29.8411C127.981 30.2484 127.749 30.6196 127.452 30.9316C127.151 31.2364 126.792 31.4752 126.398 31.6335C125.963 31.8012 125.501 31.8846 125.037 31.8794H122.505V24.9754H125.037C125.502 24.9696 125.964 25.0544 126.398 25.2252C126.793 25.3817 127.152 25.6208 127.452 25.9271C127.748 26.2401 127.98 26.6111 128.132 27.0176C128.297 27.4691 128.379 27.9477 128.373 28.4294ZM127.432 28.4294C127.437 28.0442 127.38 27.6609 127.261 27.2952C127.161 26.9806 126.997 26.6913 126.779 26.4466C126.571 26.2129 126.312 26.0311 126.024 25.9152C125.71 25.7895 125.374 25.7275 125.037 25.7328H123.419V31.122H125.029C125.367 31.1272 125.702 31.0653 126.017 30.9396C126.304 30.8237 126.562 30.6435 126.771 30.4122C126.988 30.1684 127.153 29.8805 127.253 29.5675C127.374 29.2009 127.435 28.8162 127.432 28.4294Z" fill="#494C4D"/>
<path id="Vector_31" d="M132.596 31.8796H131.679V24.9756H132.596V31.8796Z" fill="#494C4D"/>
<path id="Vector_32" d="M139.752 26.0539C139.729 26.0962 139.699 26.1338 139.663 26.1649C139.626 26.1901 139.582 26.2026 139.538 26.2006C139.469 26.1928 139.404 26.1638 139.352 26.1173C139.266 26.0516 139.177 25.992 139.083 25.9389C138.96 25.8645 138.83 25.8034 138.694 25.7565C138.516 25.697 138.33 25.6688 138.142 25.6732C137.957 25.669 137.773 25.6985 137.598 25.7604C137.455 25.8095 137.323 25.8862 137.209 25.9865C137.106 26.0813 137.026 26.1977 136.972 26.3275C136.917 26.4605 136.889 26.6035 136.89 26.7479C136.885 26.919 136.934 27.0874 137.03 27.2277C137.13 27.361 137.255 27.4718 137.399 27.5529C137.565 27.6487 137.739 27.7271 137.92 27.7868L138.515 27.9931C138.718 28.0644 138.916 28.1437 139.11 28.231C139.299 28.3145 139.473 28.4269 139.628 28.5641C139.783 28.7014 139.909 28.8702 139.997 29.0598C140.097 29.2879 140.144 29.5359 140.137 29.7855C140.139 30.0755 140.088 30.3634 139.985 30.6341C139.888 30.8929 139.738 31.128 139.546 31.3241C139.342 31.5288 139.099 31.687 138.83 31.7881C138.523 31.9051 138.198 31.963 137.87 31.9586C137.458 31.9634 137.05 31.8797 136.672 31.7127C136.323 31.5594 136.008 31.3354 135.747 31.0545L136.011 30.6143C136.037 30.5788 136.068 30.548 136.104 30.5231C136.14 30.4994 136.182 30.487 136.225 30.4874C136.31 30.4969 136.389 30.5345 136.45 30.5945C136.552 30.6806 136.658 30.76 136.769 30.8324C136.916 30.9281 137.071 31.0091 137.232 31.0743C137.446 31.1509 137.671 31.1872 137.897 31.1814C138.095 31.1839 138.292 31.1531 138.48 31.0902C138.64 31.0347 138.787 30.947 138.912 30.8324C139.029 30.7206 139.121 30.5856 139.184 30.4358C139.248 30.2719 139.28 30.0967 139.278 29.9203C139.285 29.7377 139.236 29.5573 139.138 29.4048C139.04 29.2692 138.915 29.1557 138.772 29.0717C138.609 28.9756 138.435 28.8984 138.255 28.8417L137.664 28.6553C137.462 28.5893 137.263 28.5126 137.069 28.4253C136.88 28.3416 136.705 28.2278 136.552 28.0882C136.395 27.9436 136.27 27.7664 136.186 27.5687C136.086 27.3255 136.038 27.0631 136.046 26.7994C136.046 26.5569 136.094 26.3169 136.186 26.0935C136.273 25.8658 136.405 25.6591 136.575 25.4868C136.764 25.3024 136.988 25.1582 137.232 25.0625C137.517 24.951 137.821 24.8971 138.127 24.9039C138.48 24.8988 138.83 24.9606 139.161 25.0863C139.466 25.2041 139.744 25.385 139.978 25.6177L139.752 26.0539Z" fill="#494C4D"/>
</g>
<defs>
<clipPath id="clip0_192_123700">
<rect width="140" height="35" fill="white" transform="translate(0.141113 0.5)"/>
</clipPath>
</defs>
</svg>
