<svg width="20" height="22" viewBox="0 0 20 22" fill="none" xmlns="http://www.w3.org/2000/svg">
<g id="OFF">
<path id="Vector" d="M0.0241287 0.702702C-0.0174683 0.749743 0.00333045 0.801228 0.0226434 0.851603C0.0378708 0.890865 0.0493839 0.931608 0.0646114 0.970869C0.518836 2.1417 1.01614 3.29438 1.5647 4.42484C2.31642 5.97421 3.15765 7.4747 4.08244 8.92777C4.33091 9.31854 4.59906 9.69709 4.8583 10.0812C5.00426 10.3257 5.13759 10.5794 5.30101 10.812C5.42394 10.9872 5.41057 11.112 5.28838 11.2865C3.33258 14.0711 1.72069 17.0462 0.376962 20.1683C0.247342 20.469 0.133322 20.7753 0.0642411 21.0961C0.00667379 21.3635 0.0207873 21.3746 0.285597 21.2869C2.78662 20.4583 5.34521 19.8775 7.95728 19.5352C9.57956 19.3226 11.2104 19.2152 12.846 19.1878C13.0083 19.1852 13.109 19.1285 13.1955 18.9945C13.4648 18.5774 13.7389 18.1633 14.0208 17.7547C15.0009 16.335 16.0843 14.9975 17.2605 13.7348C18.0862 12.8484 18.9597 12.011 19.8674 11.2087C20.0382 11.0579 20.0446 10.9542 19.883 10.8164C19.1242 10.1708 18.455 9.43484 17.7638 8.72146C16.989 7.92102 16.1861 7.14726 15.5268 6.23979C15.0555 5.59085 14.5426 4.97228 14.0483 4.34001C14.0412 4.32038 14.0375 4.29853 14.0267 4.28149C13.743 3.84294 13.4596 3.40402 13.1732 2.96658C13.0945 2.8462 12.9716 2.79693 12.8327 2.79619C12.0553 2.79212 11.2802 2.75063 10.5047 2.70137C9.85663 2.66026 9.20964 2.60321 8.56526 2.52913C7.4752 2.40431 6.38996 2.24134 5.31252 2.03058C3.77752 1.73019 2.25403 1.38461 0.769161 0.886791C0.573804 0.82123 0.380675 0.749374 0.18606 0.681221C0.129236 0.661219 0.0701826 0.650846 0.0241287 0.702332L0.0241287 0.702702Z" fill="#666666"/>
<g id="Clip path group">
<mask id="mask0_524_6365" style="mask-type:luminance" maskUnits="userSpaceOnUse" x="0" y="0" width="20" height="22">
<g id="clippath">
<path id="Vector_2" d="M0.0241287 0.702702C-0.0174683 0.749743 0.00333045 0.801228 0.0226434 0.851603C0.0378708 0.890865 0.0493839 0.931608 0.0646114 0.970869C0.518836 2.1417 1.01614 3.29438 1.5647 4.42484C2.31642 5.97421 3.15765 7.4747 4.08244 8.92777C4.33091 9.31854 4.59906 9.69709 4.8583 10.0812C5.00426 10.3257 5.13759 10.5794 5.30101 10.812C5.42394 10.9872 5.41057 11.112 5.28838 11.2865C3.33258 14.0711 1.72069 17.0462 0.376962 20.1683C0.247342 20.469 0.133322 20.7753 0.0642411 21.0961C0.00667379 21.3635 0.0207873 21.3746 0.285597 21.2869C2.78662 20.4583 5.34521 19.8775 7.95728 19.5352C9.57956 19.3226 11.2104 19.2152 12.846 19.1878C13.0083 19.1852 13.109 19.1285 13.1955 18.9945C13.4648 18.5774 13.7389 18.1633 14.0208 17.7547C15.0009 16.335 16.0843 14.9975 17.2605 13.7348C18.0862 12.8484 18.9597 12.011 19.8674 11.2087C20.0382 11.0579 20.0446 10.9542 19.883 10.8164C19.1242 10.1708 18.455 9.43484 17.7638 8.72146C16.989 7.92102 16.1861 7.14726 15.5268 6.23979C15.0555 5.59085 14.5426 4.97228 14.0483 4.34001C14.0412 4.32038 14.0375 4.29853 14.0267 4.28149C13.743 3.84294 13.4596 3.40402 13.1732 2.96658C13.0945 2.8462 12.9716 2.79693 12.8327 2.79619C12.0553 2.79212 11.2802 2.75063 10.5047 2.70137C9.85663 2.66026 9.20964 2.60321 8.56526 2.52913C7.4752 2.40431 6.38996 2.24134 5.31252 2.03058C3.77752 1.73019 2.25403 1.38461 0.769161 0.886791C0.573804 0.82123 0.380675 0.749374 0.18606 0.681221C0.129236 0.661219 0.0701826 0.650846 0.0241287 0.702332L0.0241287 0.702702Z" fill="white"/>
</g>
</mask>
<g mask="url(#mask0_524_6365)">
<g id="Group">
<path id="Vector_3" d="M-0.323243 0.292423C-0.323243 0.292423 0.22903 4.30161 11.6467 20.1113L13.6203 20.0187C13.6203 20.0187 19.9133 11.0373 20.1466 11.0373C20.3798 11.0373 13.1761 2.4111 13.1761 2.4111L-0.323243 0.292423Z" fill="#666666"/>
</g>
</g>
</g>
</g>
</svg>
