<svg width="1440" height="24" viewBox="0 0 1440 24" fill="none" xmlns="http://www.w3.org/2000/svg">
<path d="M665.524 1.7027C665.483 1.74974 665.503 1.80123 665.523 1.8516C665.538 1.89087 665.549 1.93161 665.565 1.97087C666.019 3.1417 666.516 4.29438 667.065 5.42484C667.816 6.97421 668.658 8.4747 669.582 9.92777C669.831 10.3185 670.099 10.6971 670.358 11.0812C670.504 11.3257 670.638 11.5794 670.801 11.812C670.924 11.9872 670.911 12.112 670.788 12.2865C668.833 15.0711 667.221 18.0462 665.877 21.1683C665.747 21.469 665.633 21.7753 665.564 22.0961C665.507 22.3635 665.521 22.3746 665.786 22.2869C668.287 21.4583 670.845 20.8775 673.457 20.5352C675.08 20.3226 676.71 20.2152 678.346 20.1878C678.508 20.1852 678.609 20.1285 678.696 19.9945C678.965 19.5774 679.239 19.1633 679.521 18.7547C680.501 17.335 681.584 15.9975 682.761 14.7348C683.586 13.8484 684.46 13.011 685.367 12.2087C685.538 12.0579 685.545 11.9542 685.383 11.8164C684.624 11.1708 683.955 10.4348 683.264 9.72146C682.489 8.92102 681.686 8.14726 681.027 7.23979C680.556 6.59085 680.043 5.97228 679.548 5.34001C679.541 5.32038 679.538 5.29853 679.527 5.28149C679.243 4.84294 678.96 4.40402 678.673 3.96658C678.595 3.8462 678.472 3.79693 678.333 3.79619C677.555 3.79212 676.78 3.75063 676.005 3.70137C675.357 3.66026 674.71 3.60321 674.065 3.52913C672.975 3.40431 671.89 3.24134 670.813 3.03058C669.278 2.73019 667.754 2.38461 666.269 1.88679C666.074 1.82123 665.881 1.74937 665.686 1.68122C665.629 1.66122 665.57 1.65085 665.524 1.70233L665.524 1.7027Z" fill="#295F70"/>
<mask id="mask0_192_135072" style="mask-type:luminance" maskUnits="userSpaceOnUse" x="665" y="1" width="21" height="22">
<path d="M665.524 1.7027C665.483 1.74974 665.504 1.80123 665.523 1.8516C665.538 1.89087 665.55 1.93161 665.565 1.97087C666.019 3.1417 666.516 4.29438 667.065 5.42484C667.817 6.97421 668.658 8.4747 669.583 9.92777C669.831 10.3185 670.099 10.6971 670.359 11.0812C670.505 11.3257 670.638 11.5794 670.801 11.812C670.924 11.9872 670.911 12.112 670.789 12.2865C668.833 15.0711 667.221 18.0462 665.877 21.1683C665.748 21.469 665.634 21.7753 665.564 22.0961C665.507 22.3635 665.521 22.3746 665.786 22.2869C668.287 21.4583 670.845 20.8775 673.458 20.5352C675.08 20.3226 676.711 20.2152 678.346 20.1878C678.509 20.1852 678.609 20.1285 678.696 19.9945C678.965 19.5774 679.239 19.1633 679.521 18.7547C680.501 17.335 681.585 15.9975 682.761 14.7348C683.586 13.8484 684.46 13.011 685.368 12.2087C685.538 12.0579 685.545 11.9542 685.383 11.8164C684.624 11.1708 683.955 10.4348 683.264 9.72146C682.489 8.92102 681.686 8.14726 681.027 7.23979C680.556 6.59085 680.043 5.97228 679.549 5.34001C679.541 5.32038 679.538 5.29853 679.527 5.28149C679.243 4.84294 678.96 4.40402 678.673 3.96658C678.595 3.8462 678.472 3.79693 678.333 3.79619C677.556 3.79212 676.78 3.75063 676.005 3.70137C675.357 3.66026 674.71 3.60321 674.066 3.52913C672.975 3.40431 671.89 3.24134 670.813 3.03058C669.278 2.73019 667.754 2.38461 666.269 1.88679C666.074 1.82123 665.881 1.74937 665.686 1.68122C665.629 1.66122 665.57 1.65085 665.524 1.70233L665.524 1.7027Z" fill="white"/>
</mask>
<g mask="url(#mask0_192_135072)">
<path d="M665.177 1.29242C665.177 1.29242 665.729 5.30161 677.147 21.1113L679.121 21.0187C679.121 21.0187 685.414 12.0373 685.647 12.0373C685.88 12.0373 678.676 3.4111 678.676 3.4111L665.177 1.29242Z" fill="#295F70"/>
</g>
<path d="M698.541 18.192C697.645 18.192 696.786 18.0747 695.965 17.84C695.143 17.5947 694.482 17.28 693.981 16.896L694.861 14.944C695.341 15.2853 695.906 15.568 696.557 15.792C697.218 16.0053 697.885 16.112 698.557 16.112C699.069 16.112 699.479 16.064 699.789 15.968C700.109 15.8613 700.343 15.7173 700.493 15.536C700.642 15.3547 700.717 15.1467 700.717 14.912C700.717 14.6133 700.599 14.3787 700.365 14.208C700.13 14.0267 699.821 13.8827 699.437 13.776C699.053 13.6587 698.626 13.552 698.157 13.456C697.698 13.3493 697.234 13.2213 696.765 13.072C696.306 12.9227 695.885 12.7307 695.501 12.496C695.117 12.2613 694.802 11.952 694.557 11.568C694.322 11.184 694.205 10.6933 694.205 10.096C694.205 9.456 694.375 8.87467 694.717 8.352C695.069 7.81867 695.591 7.39733 696.285 7.088C696.989 6.768 697.869 6.608 698.925 6.608C699.629 6.608 700.322 6.69333 701.005 6.864C701.687 7.024 702.29 7.26933 702.813 7.6L702.013 9.568C701.49 9.26933 700.967 9.05067 700.445 8.912C699.922 8.76267 699.41 8.688 698.909 8.688C698.407 8.688 697.997 8.74667 697.677 8.864C697.357 8.98133 697.127 9.136 696.989 9.328C696.85 9.50933 696.781 9.72267 696.781 9.968C696.781 10.256 696.898 10.4907 697.133 10.672C697.367 10.8427 697.677 10.9813 698.061 11.088C698.445 11.1947 698.866 11.3013 699.325 11.408C699.794 11.5147 700.258 11.6373 700.717 11.776C701.186 11.9147 701.613 12.1013 701.997 12.336C702.381 12.5707 702.69 12.88 702.925 13.264C703.17 13.648 703.293 14.1333 703.293 14.72C703.293 15.3493 703.117 15.9253 702.765 16.448C702.413 16.9707 701.885 17.392 701.181 17.712C700.487 18.032 699.607 18.192 698.541 18.192ZM710.76 18.128C709.779 18.128 708.915 17.936 708.168 17.552C707.432 17.168 706.861 16.6453 706.456 15.984C706.051 15.312 705.848 14.5493 705.848 13.696C705.848 12.832 706.045 12.0693 706.44 11.408C706.845 10.736 707.395 10.2133 708.088 9.84C708.781 9.456 709.565 9.264 710.44 9.264C711.283 9.264 712.04 9.44533 712.712 9.808C713.395 10.16 713.933 10.672 714.328 11.344C714.723 12.0053 714.92 12.8 714.92 13.728C714.92 13.824 714.915 13.936 714.904 14.064C714.893 14.1813 714.883 14.2933 714.872 14.4H707.88V12.944H713.56L712.6 13.376C712.6 12.928 712.509 12.5387 712.328 12.208C712.147 11.8773 711.896 11.6213 711.576 11.44C711.256 11.248 710.883 11.152 710.456 11.152C710.029 11.152 709.651 11.248 709.32 11.44C709 11.6213 708.749 11.8827 708.568 12.224C708.387 12.5547 708.296 12.9493 708.296 13.408V13.792C708.296 14.2613 708.397 14.6773 708.6 15.04C708.813 15.392 709.107 15.664 709.48 15.856C709.864 16.0373 710.312 16.128 710.824 16.128C711.283 16.128 711.683 16.0587 712.024 15.92C712.376 15.7813 712.696 15.5733 712.984 15.296L714.312 16.736C713.917 17.184 713.421 17.5307 712.824 17.776C712.227 18.0107 711.539 18.128 710.76 18.128ZM718.182 18V9.392H720.566V11.824L720.23 11.12C720.486 10.512 720.896 10.0533 721.462 9.744C722.027 9.424 722.715 9.264 723.526 9.264V11.568C723.419 11.5573 723.323 11.552 723.238 11.552C723.152 11.5413 723.062 11.536 722.966 11.536C722.283 11.536 721.728 11.7333 721.302 12.128C720.886 12.512 720.678 13.1147 720.678 13.936V18H718.182ZM729.243 18L725.627 9.392H728.203L731.211 16.8H729.931L733.051 9.392H735.451L731.819 18H729.243ZM738.069 18V9.392H740.565V18H738.069ZM739.317 8.192C738.859 8.192 738.485 8.05867 738.197 7.792C737.909 7.52533 737.765 7.19467 737.765 6.8C737.765 6.40533 737.909 6.07467 738.197 5.808C738.485 5.54133 738.859 5.408 739.317 5.408C739.776 5.408 740.149 5.536 740.437 5.792C740.725 6.03733 740.869 6.35733 740.869 6.752C740.869 7.168 740.725 7.51467 740.437 7.792C740.16 8.05867 739.787 8.192 739.317 8.192ZM748.642 18.128C747.714 18.128 746.887 17.9413 746.162 17.568C745.436 17.184 744.866 16.656 744.45 15.984C744.044 15.312 743.842 14.5493 743.842 13.696C743.842 12.832 744.044 12.0693 744.45 11.408C744.866 10.736 745.436 10.2133 746.162 9.84C746.887 9.456 747.714 9.264 748.642 9.264C749.548 9.264 750.338 9.456 751.01 9.84C751.682 10.2133 752.178 10.752 752.498 11.456L750.562 12.496C750.338 12.0907 750.055 11.792 749.714 11.6C749.383 11.408 749.02 11.312 748.626 11.312C748.199 11.312 747.815 11.408 747.474 11.6C747.132 11.792 746.86 12.064 746.658 12.416C746.466 12.768 746.37 13.1947 746.37 13.696C746.37 14.1973 746.466 14.624 746.658 14.976C746.86 15.328 747.132 15.6 747.474 15.792C747.815 15.984 748.199 16.08 748.626 16.08C749.02 16.08 749.383 15.9893 749.714 15.808C750.055 15.616 750.338 15.312 750.562 14.896L752.498 15.952C752.178 16.6453 751.682 17.184 751.01 17.568C750.338 17.9413 749.548 18.128 748.642 18.128ZM759.697 18.128C758.716 18.128 757.852 17.936 757.105 17.552C756.369 17.168 755.799 16.6453 755.393 15.984C754.988 15.312 754.785 14.5493 754.785 13.696C754.785 12.832 754.983 12.0693 755.377 11.408C755.783 10.736 756.332 10.2133 757.025 9.84C757.719 9.456 758.503 9.264 759.377 9.264C760.22 9.264 760.977 9.44533 761.649 9.808C762.332 10.16 762.871 10.672 763.265 11.344C763.66 12.0053 763.857 12.8 763.857 13.728C763.857 13.824 763.852 13.936 763.841 14.064C763.831 14.1813 763.82 14.2933 763.809 14.4H756.817V12.944H762.497L761.537 13.376C761.537 12.928 761.447 12.5387 761.265 12.208C761.084 11.8773 760.833 11.6213 760.513 11.44C760.193 11.248 759.82 11.152 759.393 11.152C758.967 11.152 758.588 11.248 758.257 11.44C757.937 11.6213 757.687 11.8827 757.505 12.224C757.324 12.5547 757.233 12.9493 757.233 13.408V13.792C757.233 14.2613 757.335 14.6773 757.537 15.04C757.751 15.392 758.044 15.664 758.417 15.856C758.801 16.0373 759.249 16.128 759.761 16.128C760.22 16.128 760.62 16.0587 760.961 15.92C761.313 15.7813 761.633 15.5733 761.921 15.296L763.249 16.736C762.855 17.184 762.359 17.5307 761.761 17.776C761.164 18.0107 760.476 18.128 759.697 18.128ZM770.015 18.128C769.279 18.128 768.57 18.0427 767.887 17.872C767.215 17.6907 766.682 17.4667 766.287 17.2L767.119 15.408C767.514 15.6533 767.978 15.856 768.511 16.016C769.055 16.1653 769.589 16.24 770.111 16.24C770.687 16.24 771.093 16.1707 771.327 16.032C771.573 15.8933 771.695 15.7013 771.695 15.456C771.695 15.2533 771.599 15.104 771.407 15.008C771.226 14.9013 770.981 14.8213 770.671 14.768C770.362 14.7147 770.021 14.6613 769.647 14.608C769.285 14.5547 768.917 14.4853 768.543 14.4C768.17 14.304 767.829 14.1653 767.519 13.984C767.21 13.8027 766.959 13.5573 766.767 13.248C766.586 12.9387 766.495 12.5387 766.495 12.048C766.495 11.504 766.65 11.024 766.959 10.608C767.279 10.192 767.738 9.86667 768.335 9.632C768.933 9.38667 769.647 9.264 770.479 9.264C771.066 9.264 771.663 9.328 772.271 9.456C772.879 9.584 773.386 9.77067 773.791 10.016L772.959 11.792C772.543 11.5467 772.122 11.3813 771.695 11.296C771.279 11.2 770.874 11.152 770.479 11.152C769.925 11.152 769.519 11.2267 769.263 11.376C769.007 11.5253 768.879 11.7173 768.879 11.952C768.879 12.1653 768.97 12.3253 769.151 12.432C769.343 12.5387 769.594 12.624 769.903 12.688C770.213 12.752 770.549 12.8107 770.911 12.864C771.285 12.9067 771.658 12.976 772.031 13.072C772.405 13.168 772.741 13.3067 773.039 13.488C773.349 13.6587 773.599 13.8987 773.791 14.208C773.983 14.5067 774.079 14.9013 774.079 15.392C774.079 15.9253 773.919 16.4 773.599 16.816C773.279 17.2213 772.815 17.5413 772.207 17.776C771.61 18.0107 770.879 18.128 770.015 18.128Z" fill="#295F70"/>
</svg>
