<svg width="63" height="136" viewBox="0 0 63 136" fill="none" xmlns="http://www.w3.org/2000/svg">
<path d="M17.9295 40.5991C18.4216 40.1383 18.941 39.7223 19.4833 39.3545C18.3503 40.0177 17.3392 40.9536 16.5108 42.1058C16.0855 42.7116 15.713 43.3696 15.3992 44.0692C16.0684 42.7399 16.925 41.5651 17.9295 40.5991Z" fill="#24346D"/>
<path d="M13.3584 52.3271C13.3584 52.3271 13.3584 52.7145 13.394 53.3642C13.394 53.1843 13.394 52.9906 13.4059 52.8114C13.394 52.6454 13.3703 52.4793 13.3584 52.3271Z" fill="#24346D"/>
<path d="M56.1043 6.81443e-06H34.6673C30.119 0.63579 25.3442 1.76966 21.9524 5.51716C19.834 7.96969 18.348 11.122 17.6764 14.5881C17.0192 18.0449 16.8581 21.6143 17.2003 25.1382C17.3228 26.8867 17.5771 28.6178 17.9602 30.3094C18.2439 31.5678 19.3891 33.545 18.7768 34.8554C18.6692 35.0567 18.535 35.2349 18.3796 35.3825C16.8123 37.0296 15.2153 38.5904 14.115 40.7475C12.8859 43.2065 12.2857 46.0562 12.391 48.9329C12.4168 50.1317 12.5002 51.3275 12.6406 52.5144C12.652 52.6943 12.6747 52.8603 12.686 53.0257C12.7454 49.9246 13.4523 46.8931 14.7397 44.2176C15.0483 43.5141 15.4212 42.8554 15.8514 42.2542C16.675 41.0959 17.6873 40.159 18.8238 39.5029C21.3417 37.7609 24.3022 36.9723 27.1379 36.6132C30.4307 36.1917 33.7468 36.1084 37.0512 36.3642C39.6939 36.5717 43.5505 36.461 45.7165 38.6043C46.3567 39.2791 46.8786 40.1046 47.2509 41.0312C47.6232 41.9579 47.8382 42.9665 47.8832 43.9969C47.8832 44.1629 47.9286 47.0111 47.9286 47.3293C47.9295 47.9241 47.8344 48.5133 47.6485 49.0632C47.4626 49.6131 47.1896 50.113 46.8451 50.5342C46.5006 50.9554 46.0915 51.2897 45.6409 51.518C45.1904 51.7464 44.7074 51.8642 44.2195 51.8648H23.1911V61.5715C29.021 62.5378 33.7431 63.5379 37.3576 64.5719C37.8002 64.6964 38.2309 64.8354 38.6509 64.9593C40.9547 65.6167 43.1778 66.6394 45.2636 68.0012C45.5509 67.7954 45.8729 67.6723 46.2051 67.6414C52.3526 66.383 57.0825 59.3453 58.9427 52.4176C59.4821 50.403 59.7689 48.3006 59.7933 46.1816C59.8777 41.598 58.713 37.1097 56.4815 33.4192C54.0317 29.5063 50.5837 27.57 46.6364 27.0864C44.2093 26.782 39.6382 26.8228 37.2327 26.3122C34.5559 25.7318 30.9604 24.1967 30.915 20.2423C30.9235 19.0195 31.3274 17.8501 32.0388 16.9881C32.7502 16.126 33.7118 15.6407 34.7148 15.6376C37.6186 15.6376 40.5332 15.7345 43.437 15.7207L55.8227 16.3426C56.7262 16.3876 57.6279 16.2096 58.4735 15.8191C59.3191 15.4287 60.0913 14.834 60.7437 14.0706C61.396 13.3073 61.9151 12.3911 62.2697 11.377C62.6244 10.363 62.8072 9.27202 62.8074 8.16966C62.8083 7.09632 62.6355 6.0333 62.299 5.04148C61.9624 4.04965 61.4687 3.1485 60.846 2.38963C60.2234 1.63076 59.4841 1.02907 58.6704 0.619024C57.8568 0.208976 56.9847 -0.00138018 56.1043 6.81443e-06Z" fill="#009DAA"/>
<path d="M51.422 86.9743C51.388 87.5132 51.3199 88.0666 51.2518 88.5917C51.148 89.6559 50.9813 90.7095 50.753 91.7443C50.7416 91.8102 50.7189 91.8689 50.7076 91.9519C50.6535 92.1871 50.6168 92.4361 50.5487 92.6845C49.4824 96.6804 47.2709 99.4324 44.4579 101.727C44.1645 101.915 43.8967 102.158 43.664 102.446C43.222 103.109 43.8229 103.607 44.0272 104.188C44.3436 104.943 44.6165 105.724 44.8438 106.525C45.101 107.556 45.2905 108.61 45.4107 109.677C46.2387 116.661 44.9573 124.417 40.8624 129.561C40.6014 129.89 40.3295 130.196 40.0571 130.515C35.611 135.423 29.4862 135.824 23.6792 136.004H7.08448C5.26462 135.984 3.52478 135.089 2.2436 133.514C0.962425 131.938 0.243618 129.809 0.243618 127.59C0.243618 125.372 0.962425 123.243 2.2436 121.667C3.52478 120.091 5.26462 119.196 7.08448 119.177H24.9827C25.4787 119.181 25.9705 119.065 26.4295 118.836C26.8885 118.607 27.3057 118.269 27.657 117.842C28.0083 117.415 28.2866 116.907 28.4759 116.348C28.6652 115.79 28.7617 115.19 28.7598 114.586C28.7641 114.002 28.6684 113.424 28.4789 112.889C28.2895 112.353 28.0104 111.871 27.6595 111.475C26.8429 110.576 25.6972 110.618 24.6536 110.548C17.6554 109.996 10.079 110.867 4.72547 104.271C4.54532 104.051 4.37526 103.83 4.21529 103.607C-2.53316 94.4265 -0.922654 74.252 10.045 70.6712C12.9034 69.7449 15.9088 69.7172 18.6536 68.5557L18.9601 68.7632C19.0509 68.8185 19.153 68.8739 19.2438 68.9431C19.2551 68.9431 19.2551 68.9569 19.2665 68.9569L19.5367 69.1229C19.6956 69.2198 19.8431 69.3028 20.0128 69.3865C20.1082 69.4456 20.2068 69.4964 20.3079 69.5387L20.7165 69.7462C20.83 69.8015 20.9548 69.8569 21.0683 69.9122C21.1981 69.9805 21.3307 70.0405 21.4655 70.0921C21.6017 70.1474 21.7358 70.2028 21.8855 70.272C22.2032 70.4103 22.5432 70.5487 22.8836 70.6732C23.0766 70.7391 23.2809 70.8116 23.496 70.8946C23.5868 70.9223 23.6776 70.9605 23.7662 70.9914C23.9137 71.0468 24.0613 71.1021 24.2196 71.1436C24.526 71.2543 24.8433 71.3511 25.1611 71.4342C25.5583 71.5448 25.9663 71.6694 26.3749 71.7636C30.0499 72.7591 34.9722 73.7684 41.1423 74.8331V83.2261C40.679 83.4812 40.1764 83.6133 39.668 83.6135H17.8484C17.7235 83.6135 17.5987 83.6135 17.4852 83.6274H17.4625C15.9088 83.8488 14.8311 85.314 14.3096 87.0705C14.2296 87.328 14.1652 87.5922 14.1167 87.8611C13.661 90.0567 13.7552 92.3684 14.3869 94.4983C14.4409 94.6505 14.489 94.8027 14.5458 94.9549C14.5912 95.0794 14.6366 95.1901 14.6933 95.3146C14.7728 95.4945 14.8635 95.6605 14.943 95.8417C14.9758 95.8997 15.0061 95.9597 15.0338 96.0215C15.0714 96.0735 15.1056 96.1289 15.1359 96.1875C15.2381 96.3536 15.3402 96.5058 15.4537 96.658C15.5218 96.7548 15.6012 96.8655 15.6699 96.9624C15.7947 97.1145 15.9196 97.2529 16.0444 97.4051C16.1238 97.4881 16.1919 97.5711 16.2714 97.6403C16.4303 97.7787 16.5778 97.917 16.7475 98.0415C16.8156 98.0969 16.8837 98.1661 16.9518 98.2214C17.1892 98.3927 17.4355 98.5452 17.689 98.678C19.6172 99.6735 21.772 99.7703 23.8137 100.157C26.0641 100.543 28.3351 100.724 30.6076 100.696C33.1718 100.727 35.7344 100.529 38.2748 100.103C39.9548 99.8742 41.6069 99.4054 43.1971 98.7063C44.003 98.4196 44.7819 98.0303 45.521 97.5448C45.782 97.3372 46.0425 97.1712 46.2922 96.9518C47.508 95.8639 48.5112 94.4615 49.23 92.8452C49.3662 92.5158 49.5002 92.195 49.6386 91.8774C50.2368 90.3151 50.6677 88.6654 50.9205 86.969C51.0113 86.4571 51.0567 85.9597 51.1475 85.4478L51.2837 84.7013C51.2829 84.6938 51.2835 84.6862 51.2855 84.679C51.2874 84.6718 51.2907 84.6652 51.295 84.6598C51.3655 84.418 51.4149 84.1677 51.4426 83.9133C51.4864 84.9332 51.4796 85.9554 51.422 86.9743Z" fill="#203B72"/>
<path d="M18.3704 68.8564C20.4282 70.1689 22.622 71.1363 24.8924 71.7323C22.6241 71.1276 20.4311 70.1606 18.3704 68.8564Z" fill="white"/>
<path d="M15.4532 97.1413C15.3747 97.0464 15.3021 96.9447 15.2358 96.8369C15.3043 96.9338 15.3842 97.0444 15.4532 97.1413Z" fill="white"/>
<path d="M14.9381 96.3703C14.867 96.2606 14.8022 96.145 14.7441 96.0244C14.7751 96.0814 14.8019 96.1416 14.824 96.2043C14.8648 96.2568 14.9029 96.3122 14.9381 96.3703Z" fill="white"/>
<path d="M16.5216 98.2139C16.5897 98.2772 16.6625 98.3328 16.739 98.3799C16.6586 98.3246 16.5901 98.2692 16.5216 98.2139Z" fill="white"/>
<path d="M14.342 95.1572C14.3875 95.2817 14.4444 95.3924 14.4899 95.517C14.4444 95.3924 14.3875 95.2679 14.342 95.1572Z" fill="white"/>
<path d="M39.0024 64.7067C38.5822 64.5684 38.1513 64.4432 37.7084 64.3193C38.1513 64.4439 38.5822 64.5684 39.0024 64.7067Z" fill="white"/>
<path d="M14.0535 87.6823V87.6552C14.0535 87.6516 14.0521 87.6481 14.0497 87.6456C14.0472 87.643 14.0439 87.6416 14.0404 87.6416C14.0402 87.6563 14.0448 87.6707 14.0535 87.6823Z" fill="white"/>
</svg>
