<svg width="41" height="40" viewBox="0 0 41 40" fill="none" xmlns="http://www.w3.org/2000/svg">
<g id="Logo.svg">
<g id="PRIMARY - GHOST">
<path id="Vector" d="M34.3363 27.2568C29.4875 24.9096 28.7147 21.2856 28.6803 21.0168C28.6387 20.6912 28.5915 20.4352 28.9507 20.104C29.2971 19.784 30.8339 18.8328 31.2603 18.5352C31.9651 18.0424 32.2755 17.5504 32.0467 16.9456C31.8867 16.5272 31.4971 16.3696 31.0867 16.3696C30.9573 16.37 30.8283 16.3845 30.7019 16.4128C29.9275 16.5808 29.1755 16.9688 28.7403 17.0736C28.688 17.0871 28.6343 17.0943 28.5803 17.0952C28.3483 17.0952 28.2603 16.992 28.2827 16.7128C28.3371 15.8664 28.4523 14.2144 28.3187 12.6712C28.1355 10.548 27.4507 9.496 26.6387 8.5656C26.2459 8.1144 24.4219 6.17599 20.9019 6.17599C17.3819 6.17599 15.5603 8.1144 15.1699 8.56C14.3555 9.4904 13.6715 10.5424 13.4899 12.6656C13.3563 14.2088 13.4763 15.86 13.5259 16.7072C13.5419 16.9728 13.4603 17.0896 13.2283 17.0896C13.1743 17.0887 13.1206 17.0814 13.0683 17.068C12.6339 16.9632 11.8819 16.5752 11.1075 16.4072C10.9812 16.3789 10.8522 16.3644 10.7227 16.364C10.3107 16.364 9.92274 16.524 9.76274 16.94C9.53394 17.5448 9.84274 18.0368 10.5499 18.5296C10.9763 18.8272 12.5131 19.7776 12.8595 20.0984C13.2179 20.4296 13.1715 20.6856 13.1299 21.0112C13.0955 21.284 12.3219 24.908 7.47394 27.2512C7.18994 27.3888 6.70674 27.68 7.55874 28.1504C8.89634 28.8896 9.78674 28.8104 10.4787 29.256C11.0659 29.6344 10.7187 30.4504 11.1459 30.7448C11.6707 31.1072 13.2219 30.7192 15.2259 31.3808C16.9059 31.9344 17.9267 33.4984 20.9059 33.4984C23.8851 33.4984 24.9355 31.9272 26.5859 31.3808C28.5859 30.7192 30.1403 31.1072 30.6659 30.7448C31.0923 30.4504 30.7459 29.6344 31.3331 29.256C32.0251 28.8104 32.9147 28.8896 34.2531 28.1504C35.1035 27.6856 34.6203 27.3944 34.3363 27.2568Z" fill="#5BA89C"/>
<path id="Vector_2" d="M36.4457 26.9808C36.2281 26.3888 35.8137 26.072 35.3417 25.8096C35.2529 25.7576 35.1713 25.716 35.1017 25.684C34.9609 25.6112 34.8169 25.5408 34.6737 25.4664C33.2025 24.6864 32.0537 23.7024 31.2569 22.536C31.0306 22.2076 30.8344 21.8596 30.6705 21.496C30.6025 21.3016 30.6057 21.1912 30.6545 21.0904C30.7029 21.0127 30.7669 20.946 30.8425 20.8944C31.0953 20.7272 31.3561 20.5576 31.5329 20.4432C31.8481 20.2392 32.0977 20.0776 32.2585 19.9632C32.8625 19.5408 33.2849 19.092 33.5489 18.5904C33.7331 18.2438 33.8405 17.8617 33.8639 17.4699C33.8872 17.0782 33.8259 16.686 33.6841 16.32C33.2841 15.2672 32.2897 14.6136 31.0849 14.6136C30.8308 14.6134 30.5774 14.6402 30.3289 14.6936C30.2625 14.708 30.1961 14.7232 30.1313 14.74C30.1425 14.02 30.1265 13.26 30.0625 12.512C29.8353 9.8824 28.9145 8.504 27.9545 7.4048C27.3398 6.71599 26.6157 6.13324 25.8113 5.68C24.3545 4.848 22.7025 4.4256 20.9017 4.4256C19.1009 4.4256 17.4569 4.848 15.9985 5.68C15.1922 6.13338 14.4666 6.7173 13.8513 7.408C12.8913 8.5072 11.9705 9.888 11.7433 12.5152C11.6793 13.2632 11.6633 14.0272 11.6737 14.7432C11.6089 14.7264 11.5433 14.7112 11.4769 14.6968C11.2285 14.6434 10.975 14.6166 10.7209 14.6168C9.51532 14.6168 8.51932 15.2704 8.12092 16.3232C7.97852 16.6893 7.9166 17.0818 7.93938 17.474C7.96215 17.8662 8.06909 18.2488 8.25292 18.596C8.51772 19.0976 8.94012 19.5464 9.54412 19.9688C9.70412 20.0808 9.95452 20.2424 10.2697 20.4488C10.4401 20.5592 10.6889 20.7208 10.9329 20.8824C11.0183 20.9376 11.0908 21.0104 11.1457 21.096C11.1969 21.2008 11.1985 21.3136 11.1225 21.5216C10.9609 21.8775 10.7678 22.2183 10.5457 22.54C9.76652 23.68 8.65132 24.6464 7.22732 25.42C6.47292 25.82 5.68892 26.0872 5.35772 26.9872C5.10812 27.6664 5.27132 28.4392 5.90572 29.0904C6.13855 29.3334 6.4086 29.5379 6.70572 29.696C7.32395 30.0358 7.98135 30.2988 8.66332 30.4792C8.80405 30.5155 8.93766 30.5753 9.05852 30.656C9.28972 30.8584 9.25692 31.1632 9.56492 31.6096C9.71953 31.8403 9.91598 32.04 10.1441 32.1984C10.7905 32.6448 11.5169 32.6728 12.2865 32.7024C12.9817 32.7288 13.7697 32.7592 14.6697 33.056C15.0425 33.1792 15.4297 33.4176 15.8785 33.696C16.9561 34.3584 18.4313 35.2648 20.9001 35.2648C23.3689 35.2648 24.8545 34.3536 25.9401 33.6888C26.3857 33.4152 26.7705 33.1792 27.1329 33.0592C28.0329 32.7616 28.8209 32.732 29.5161 32.7056C30.2857 32.676 31.0121 32.648 31.6585 32.2016C31.9287 32.0132 32.1538 31.7673 32.3177 31.4816C32.5393 31.1048 32.5337 30.8416 32.7417 30.6576C32.8551 30.5807 32.9806 30.5234 33.1129 30.488C33.8042 30.307 34.4706 30.0415 35.0969 29.6976C35.4126 29.5282 35.6967 29.3058 35.9369 29.04L35.9449 29.0304C36.5401 28.3936 36.6897 27.6432 36.4457 26.9808ZM34.2513 28.16C32.9129 28.8992 32.0233 28.82 31.3313 29.2656C30.7433 29.644 31.0913 30.46 30.6641 30.7544C30.1393 31.1168 28.5881 30.7288 26.5841 31.3904C24.9313 31.9368 23.8769 33.508 20.9041 33.508C17.9313 33.508 16.9017 31.94 15.2217 31.3864C13.2217 30.7248 11.6673 31.1128 11.1417 30.7504C10.7153 30.456 11.0617 29.64 10.4745 29.2616C9.78172 28.816 8.89212 28.8952 7.55452 28.16C6.70252 27.6896 7.18572 27.3984 7.46972 27.2608C12.3177 24.9136 13.0913 21.2896 13.1257 21.0208C13.1673 20.6952 13.2137 20.4392 12.8553 20.108C12.5089 19.788 10.9721 18.8368 10.5457 18.5392C9.84012 18.0464 9.52972 17.5544 9.75852 16.9496C9.91852 16.5312 10.3089 16.3736 10.7185 16.3736C10.848 16.374 10.977 16.3885 11.1033 16.4168C11.8777 16.5848 12.6297 16.9728 13.0641 17.0776C13.1164 17.091 13.1701 17.0983 13.2241 17.0992C13.4561 17.0992 13.5377 16.9824 13.5217 16.7168C13.4721 15.8696 13.3521 14.2184 13.4857 12.6752C13.6689 10.552 14.3529 9.5 15.1657 8.5696C15.5561 8.1224 17.3905 6.184 20.8985 6.184C24.4065 6.184 26.2457 8.1144 26.6361 8.56C27.4497 9.4904 28.1345 10.5424 28.3161 12.6656C28.4497 14.2088 28.3345 15.8608 28.2801 16.7072C28.2617 16.9864 28.3457 17.0896 28.5777 17.0896C28.6317 17.0887 28.6854 17.0815 28.7377 17.068C29.1729 16.9632 29.9249 16.5752 30.6993 16.4072C30.8256 16.3789 30.9547 16.3644 31.0841 16.364C31.4961 16.364 31.8841 16.524 32.0441 16.94C32.2729 17.5448 31.9641 18.0368 31.2577 18.5296C30.8313 18.8272 29.2945 19.7776 28.9481 20.0984C28.5889 20.4296 28.6361 20.6856 28.6777 21.0112C28.7121 21.284 29.4849 24.908 34.3337 27.2512C34.6201 27.3944 35.1033 27.6856 34.2513 28.16Z" fill="#5BA89C"/>
</g>
</g>
</svg>
