<svg width="25" height="24" viewBox="0 0 25 24" fill="none" xmlns="http://www.w3.org/2000/svg">
<g id="Frame 244">
<path id="Path 2520" d="M21.1337 20.4496H17.5422V14.8805C17.5422 13.5525 17.5182 11.8429 15.6742 11.8429C13.8036 11.8429 13.5174 13.2899 13.5174 14.7838V20.4492H9.92584V8.99689H13.3737V10.562H13.422C13.767 9.97782 14.2657 9.49726 14.8647 9.17149C15.4638 8.84572 16.1409 8.68693 16.8239 8.71203C20.464 8.71203 21.1352 11.0828 21.1352 14.167L21.1337 20.4496ZM5.87339 7.43144C5.46117 7.43151 5.05818 7.31055 4.71539 7.08385C4.3726 6.85715 4.10542 6.53489 3.9476 6.15783C3.78978 5.78077 3.74842 5.36584 3.82877 4.96551C3.90912 4.56517 4.10756 4.19743 4.39899 3.90876C4.69042 3.6201 5.06176 3.42348 5.46604 3.34378C5.87033 3.26408 6.28939 3.30488 6.67026 3.46101C7.05113 3.61713 7.37669 3.88158 7.60577 4.22091C7.83485 4.56025 7.95716 4.95922 7.95723 5.36738C7.95728 5.63839 7.90341 5.90675 7.79872 6.15715C7.69402 6.40754 7.54056 6.63507 7.34705 6.82674C7.15355 7.0184 6.9238 7.17045 6.67095 7.27421C6.4181 7.37796 6.14709 7.43139 5.87339 7.43144ZM7.66916 20.4496H4.07388V8.99689H7.66916V20.4496ZM22.9242 0.00163516H2.26913C1.80032 -0.00360329 1.34857 0.175663 1.01317 0.500042C0.677781 0.824421 0.48619 1.26737 0.480469 1.73156V22.2681C0.485995 22.7325 0.677472 23.1758 1.01285 23.5005C1.34823 23.8252 1.80009 24.0048 2.26913 23.9999H22.9242C23.3942 24.0057 23.8473 23.8266 24.184 23.5019C24.5207 23.1772 24.7135 22.7334 24.72 22.2681V1.73008C24.7133 1.26497 24.5204 0.821515 24.1837 0.497144C23.847 0.172773 23.394 -0.00598143 22.9242 0.000152822" fill="#5BA89C"/>
</g>
</svg>
