<svg width="37" height="24" viewBox="0 0 37 24" fill="none" xmlns="http://www.w3.org/2000/svg">
<g clip-path="url(#clip0_125_42417)">
<path d="M10.5572 2.55913e-05C11.5427 -0.0182339 12.5268 0.0825929 13.488 0.300307C14.2973 0.476634 15.0657 0.804751 15.7523 1.26721C16.3864 1.72708 16.8882 2.34533 17.2071 3.05989C17.5738 3.93857 17.7506 4.88451 17.7262 5.836C17.7678 6.88075 17.5005 7.91462 16.9574 8.80878C16.3861 9.65329 15.5964 10.3277 14.672 10.7606C15.9264 11.0981 17.019 11.8711 17.7533 12.9407C18.4582 14.0739 18.8125 15.3895 18.7718 16.7227C18.7951 17.7857 18.5749 18.8399 18.1279 19.8051C17.7148 20.647 17.1099 21.3808 16.3616 21.9476C15.5912 22.5082 14.7243 22.9229 13.8039 23.1712C12.8495 23.4347 11.8634 23.5671 10.8731 23.5646H0V2.55913e-05H10.5572ZM9.92981 9.53096C10.7041 9.56281 11.4663 9.33149 12.0918 8.87485C12.3913 8.60874 12.6243 8.27639 12.7722 7.90438C12.9201 7.53236 12.9787 7.13099 12.9434 6.73234C12.9634 6.26673 12.8705 5.80317 12.6725 5.38107C12.5046 5.045 12.2435 4.76411 11.9203 4.57181C11.5929 4.36014 11.2251 4.21852 10.84 4.15592C10.4223 4.07516 9.99718 4.03843 9.57173 4.04632H4.92579V9.55198H9.92981V9.53096ZM10.2006 19.5634C10.6689 19.5697 11.1362 19.5193 11.5923 19.4132C12.0091 19.3214 12.4044 19.1506 12.7568 18.9103C13.102 18.67 13.3809 18.3467 13.5677 17.9704C13.7843 17.4905 13.8838 16.9662 13.8581 16.4404C13.9051 15.9614 13.8415 15.4779 13.6722 15.0272C13.503 14.5764 13.2325 14.1703 12.8817 13.84C12.138 13.2934 11.2266 13.0226 10.3044 13.0743H4.92579V19.5634H10.2006Z" fill="#003540"/>
<path d="M25.7874 19.4763C26.1741 19.8339 26.6295 20.1093 27.1261 20.2858C27.6226 20.4624 28.15 20.5363 28.6761 20.5032C29.5101 20.5242 30.328 20.271 31.0036 19.7825C31.5532 19.4259 31.9695 18.8981 32.1876 18.2811H36.1159C35.6974 20.0375 34.6753 21.592 33.2273 22.6743C31.8382 23.5944 30.1966 24.0603 28.5302 24.0075C27.3408 24.0231 26.1605 23.8 25.0592 23.3514C24.0631 22.9368 23.1696 22.3101 22.4414 21.5152C21.7159 20.6822 21.1585 19.7171 20.8 18.673C20.3975 17.506 20.2005 16.2782 20.2177 15.0441C20.2104 13.8307 20.414 12.6252 20.8195 11.4813C21.3643 9.87193 22.406 8.47618 23.7951 7.49433C25.1841 6.51248 26.8492 5.995 28.5512 6.01614C29.8079 5.98993 31.0505 6.28341 32.1621 6.86894C33.1668 7.41876 34.0336 8.18876 34.6972 9.12105C35.376 10.0993 35.8625 11.1972 36.131 12.3566C36.4254 13.6015 36.5304 14.8835 36.4424 16.1596H24.7418C24.647 17.3586 25.0218 18.5475 25.7874 19.4763ZM30.9208 10.5144C30.5934 10.1875 30.1996 9.93453 29.7659 9.7724C29.3323 9.61027 28.8688 9.54278 28.4068 9.57447C27.7939 9.55115 27.1853 9.68667 26.6405 9.96784C26.2086 10.2051 25.8273 10.5244 25.5181 10.9077C25.2441 11.2671 25.04 11.6745 24.9163 12.1089C24.8048 12.4711 24.7352 12.8449 24.7087 13.2229H31.9559C31.8928 12.2374 31.5331 11.294 30.9239 10.5159L30.9208 10.5144Z" fill="#003540"/>
<path d="M32.8557 1.57349H23.7744V3.89016H32.8557V1.57349Z" fill="#003540"/>
</g>
<defs>
<clipPath id="clip0_125_42417">
<rect width="36.48" height="24" fill="white"/>
</clipPath>
</defs>
</svg>
