<svg width="37" height="24" viewBox="0 0 37 24" fill="none" xmlns="http://www.w3.org/2000/svg">
<g id="Symbol.svg" clip-path="url(#clip0_515_12758)">
<g id="Group">
<path id="Vector" d="M10.5572 1.03326e-05C11.5427 -0.0182492 12.5268 0.0825777 13.488 0.300292C14.2973 0.476619 15.0657 0.804735 15.7523 1.2672C16.3864 1.72707 16.8882 2.34531 17.2071 3.05988C17.5738 3.93856 17.7506 4.88449 17.7262 5.83598C17.7678 6.88073 17.5005 7.91461 16.9574 8.80877C16.3861 9.65328 15.5964 10.3277 14.672 10.7606C15.9264 11.0981 17.019 11.8711 17.7533 12.9406C18.4582 14.0739 18.8125 15.3895 18.7718 16.7227C18.7951 17.7857 18.5749 18.8399 18.1279 19.8051C17.7148 20.647 17.1099 21.3808 16.3616 21.9476C15.5912 22.5082 14.7243 22.9229 13.8039 23.1712C12.8495 23.4347 11.8634 23.5671 10.8731 23.5646H0V1.03326e-05H10.5572ZM9.92981 9.53095C10.7041 9.5628 11.4663 9.33148 12.0918 8.87483C12.3913 8.60872 12.6243 8.27638 12.7722 7.90436C12.9201 7.53235 12.9787 7.13098 12.9434 6.73232C12.9634 6.26671 12.8705 5.80316 12.6725 5.38106C12.5046 5.04498 12.2435 4.7641 11.9203 4.5718C11.5929 4.36012 11.2251 4.21851 10.84 4.15591C10.4223 4.07515 9.99718 4.03841 9.57173 4.0463H4.92579V9.55197H9.92981V9.53095ZM10.2006 19.5634C10.6689 19.5697 11.1362 19.5193 11.5923 19.4132C12.0091 19.3214 12.4044 19.1506 12.7568 18.9102C13.102 18.67 13.3809 18.3467 13.5677 17.9704C13.7843 17.4904 13.8838 16.9661 13.8581 16.4404C13.9051 15.9613 13.8415 15.4779 13.6722 15.0271C13.503 14.5764 13.2325 14.1703 12.8817 13.84C12.138 13.2934 11.2266 13.0226 10.3044 13.0743H4.92579V19.5634H10.2006Z" fill="#5BA89C"/>
<path id="Vector_2" d="M25.7876 19.4763C26.1742 19.8339 26.6296 20.1093 27.1262 20.2859C27.6228 20.4624 28.1501 20.5364 28.6762 20.5032C29.5103 20.5243 30.3281 20.271 31.0037 19.7826C31.5534 19.4259 31.9696 18.8981 32.1878 18.2812H36.1161C35.6975 20.0375 34.6754 21.592 33.2274 22.6743C31.8383 23.5944 30.1967 24.0603 28.5303 24.0075C27.3409 24.0231 26.1606 23.8 25.0594 23.3514C24.0632 22.9368 23.1698 22.3102 22.4415 21.5152C21.716 20.6822 21.1586 19.7171 20.8001 18.673C20.3976 17.506 20.2006 16.2782 20.2178 15.0441C20.2105 13.8307 20.4141 12.6252 20.8196 11.4813C21.3644 9.87194 22.4061 8.4762 23.7952 7.49435C25.1842 6.5125 26.8493 5.99502 28.5513 6.01616C29.808 5.98994 31.0506 6.28343 32.1622 6.86895C33.167 7.41877 34.0337 8.18878 34.6973 9.12106C35.3761 10.0993 35.8626 11.1973 36.1311 12.3566C36.4255 13.6015 36.5305 14.8836 36.4425 16.1597H24.7419C24.6471 17.3586 25.0219 18.5475 25.7876 19.4763ZM30.921 10.5144C30.5935 10.1875 30.1997 9.93455 29.7661 9.77242C29.3324 9.61029 28.8689 9.5428 28.4069 9.57449C27.794 9.55116 27.1855 9.68669 26.6406 9.96786C26.2087 10.2052 25.8274 10.5244 25.5182 10.9077C25.2443 11.2671 25.0401 11.6745 24.9164 12.1089C24.805 12.4711 24.7353 12.8449 24.7088 13.2229H31.9561C31.8929 12.2375 31.5332 11.294 30.924 10.5159L30.921 10.5144Z" fill="#5BA89C"/>
<path id="Vector_3" d="M32.8557 1.57347H23.7744V3.89014H32.8557V1.57347Z" fill="#5BA89C"/>
</g>
</g>
<defs>
<clipPath id="clip0_515_12758">
<rect width="36.48" height="24" fill="white"/>
</clipPath>
</defs>
</svg>
