<svg width="35" height="24" viewBox="0 0 35 24" fill="none" xmlns="http://www.w3.org/2000/svg">
<g id="Symbol.svg" clip-path="url(#clip0_515_12767)">
<g id="g10">
<g id="g12">
<path id="path14" d="M34.1872 3.74768C33.7941 2.27245 32.636 1.11077 31.1652 0.716516C28.4996 0 17.8106 0 17.8106 0C17.8106 0 7.12169 0 4.45601 0.716516C2.98536 1.11077 1.82705 2.27245 1.434 3.74768C0.719727 6.42141 0.719727 12 0.719727 12C0.719727 12 0.719727 17.5785 1.434 20.2525C1.82705 21.7275 2.98536 22.8892 4.45601 23.2836C7.12169 24 17.8106 24 17.8106 24C17.8106 24 28.4996 24 31.1652 23.2836C32.636 22.8892 33.7941 21.7275 34.1872 20.2525C34.9015 17.5785 34.9015 12 34.9015 12C34.9015 12 34.9015 6.42141 34.1872 3.74768Z" fill="#5BA89C"/>
<path id="path16" d="M14.3145 17.0649L23.2483 12.0002L14.3145 6.93507V17.0649Z" fill="white"/>
</g>
</g>
</g>
<defs>
<clipPath id="clip0_515_12767">
<rect width="34.1818" height="24" fill="white" transform="translate(0.719727)"/>
</clipPath>
</defs>
</svg>
