<svg width="25" height="24" viewBox="0 0 25 24" fill="none" xmlns="http://www.w3.org/2000/svg">
<g id="Symbol.svg" clip-path="url(#clip0_515_12763)">
<path id="Vector" d="M7.51057 0.0839862C6.23377 0.144226 5.36185 0.347986 4.59961 0.647506C3.81073 0.954946 3.14209 1.36751 2.47681 2.03519C1.81153 2.70287 1.40185 3.37199 1.09657 4.16207C0.801128 4.92599 0.600968 5.79863 0.544568 7.07615C0.488168 8.35367 0.475688 8.76431 0.481928 12.023C0.488168 15.2817 0.502568 15.6902 0.564488 16.9704C0.625448 18.2469 0.828488 19.1186 1.12801 19.8811C1.43593 20.67 1.84801 21.3384 2.51593 22.0039C3.18385 22.6694 3.85249 23.0781 4.64449 23.3839C5.40769 23.6789 6.28057 23.88 7.55785 23.9359C8.83513 23.9918 9.24625 24.0048 12.504 23.9985C15.7618 23.9923 16.1719 23.9779 17.4518 23.9172C18.7318 23.8565 19.5989 23.652 20.3616 23.3539C21.1505 23.0453 21.8194 22.6339 22.4844 21.9657C23.1494 21.2976 23.5589 20.628 23.8639 19.8374C24.1596 19.0742 24.3605 18.2013 24.4159 16.925C24.4718 15.6441 24.485 15.2352 24.4788 11.9769C24.4726 8.71871 24.4579 8.31023 24.3972 7.03055C24.3365 5.75087 24.1332 4.88183 23.8339 4.11887C23.5255 3.32999 23.1139 2.66207 22.4462 1.99607C21.7786 1.33007 21.1085 0.920866 20.3182 0.616546C19.5545 0.321106 18.6821 0.119746 17.4048 0.0645462C16.1275 0.00934617 15.7164 -0.00481383 12.4574 0.00142617C9.19849 0.00766617 8.79049 0.0215862 7.51057 0.0839862ZM7.65073 21.7771C6.48073 21.7262 5.84545 21.5318 5.42209 21.3691C4.86145 21.1531 4.46209 20.892 4.04017 20.4741C3.61825 20.0563 3.35905 19.6555 3.14017 19.0961C2.97577 18.6727 2.77777 18.0381 2.72305 16.8681C2.66353 15.6036 2.65105 15.2239 2.64409 12.0201C2.63713 8.81639 2.64937 8.43719 2.70481 7.17215C2.75473 6.00311 2.95033 5.36711 3.11281 4.94399C3.32881 4.38263 3.58897 3.98399 4.00777 3.56231C4.42657 3.14063 4.82617 2.88095 5.38609 2.66207C5.80897 2.49695 6.44353 2.30063 7.61305 2.24495C8.87857 2.18495 9.25777 2.17295 12.461 2.16599C15.6643 2.15903 16.0445 2.17103 17.3105 2.22671C18.4795 2.27759 19.1158 2.47127 19.5384 2.63471C20.0993 2.85071 20.4984 3.11015 20.9201 3.52967C21.3418 3.94919 21.6017 4.34735 21.8206 4.90847C21.9859 5.33015 22.1822 5.96447 22.2374 7.13471C22.2977 8.40023 22.3114 8.77967 22.3171 11.9827C22.3229 15.1857 22.3116 15.5661 22.2562 16.8307C22.205 18.0007 22.0111 18.6362 21.8482 19.0601C21.6322 19.6205 21.3718 20.0201 20.9527 20.4415C20.5337 20.8629 20.1346 21.1226 19.5744 21.3415C19.152 21.5064 18.5167 21.7032 17.3482 21.7589C16.0826 21.8184 15.7034 21.8309 12.499 21.8378C9.29449 21.8448 8.91649 21.8318 7.65097 21.7771M17.4334 5.58647C17.4338 5.87129 17.5188 6.14958 17.6774 6.38613C17.8361 6.62268 18.0613 6.80688 18.3246 6.91541C18.588 7.02395 18.8776 7.05196 19.1568 6.99589C19.4361 6.93982 19.6924 6.8022 19.8935 6.60043C20.0945 6.39866 20.2312 6.1418 20.2862 5.86235C20.3413 5.58289 20.3122 5.29339 20.2027 5.03045C20.0932 4.76752 19.9082 4.54296 19.671 4.38518C19.4339 4.22741 19.1553 4.1435 18.8705 4.14407C18.4887 4.14483 18.1228 4.29721 17.8533 4.5677C17.5838 4.83819 17.4327 5.20464 17.4334 5.58647ZM6.31897 12.012C6.32569 15.4152 9.08953 18.1677 12.492 18.1613C15.8945 18.1548 18.649 15.3912 18.6425 11.988C18.636 8.58479 15.8714 5.83151 12.4685 5.83823C9.06553 5.84495 6.31249 8.60927 6.31897 12.012ZM8.48041 12.0077C8.47884 11.2165 8.71191 10.4427 9.15015 9.78401C9.58838 9.12534 10.2121 8.6114 10.9424 8.3072C11.6727 8.003 12.4768 7.92219 13.2531 8.075C14.0293 8.22781 14.7428 8.60736 15.3034 9.16568C15.8639 9.72399 16.2463 10.436 16.4021 11.2116C16.558 11.9872 16.4804 12.7917 16.1791 13.5232C15.8778 14.2547 15.3663 14.8805 14.7094 15.3213C14.0525 15.7621 13.2795 15.9983 12.4884 15.9998C11.9631 16.0009 11.4427 15.8985 10.957 15.6985C10.4712 15.4985 10.0297 15.2047 9.65746 14.834C9.28527 14.4633 8.98976 14.0228 8.7878 13.5379C8.58584 13.053 8.48138 12.533 8.48041 12.0077Z" fill="#5BA89C"/>
</g>
<defs>
<clipPath id="clip0_515_12763">
<rect width="24" height="24" fill="white" transform="translate(0.480469)"/>
</clipPath>
</defs>
</svg>
