<svg width="25" height="24" viewBox="0 0 25 24" fill="none" xmlns="http://www.w3.org/2000/svg">
<g clip-path="url(#clip0_125_42422)">
<path d="M7.51008 0.0839862C6.23328 0.144226 5.36136 0.347986 4.59912 0.647506C3.81024 0.954946 3.1416 1.36751 2.47632 2.03519C1.81104 2.70287 1.40136 3.37199 1.09608 4.16207C0.80064 4.92599 0.60048 5.79863 0.54408 7.07615C0.48768 8.35367 0.4752 8.76431 0.48144 12.023C0.48768 15.2817 0.50208 15.6902 0.564 16.9704C0.62496 18.2469 0.828 19.1186 1.12752 19.8811C1.43544 20.67 1.84752 21.3384 2.51544 22.0039C3.18336 22.6694 3.852 23.0781 4.644 23.3839C5.4072 23.6789 6.28008 23.88 7.55736 23.9359C8.83464 23.9918 9.24576 24.0048 12.5035 23.9985C15.7613 23.9923 16.1714 23.9779 17.4514 23.9172C18.7313 23.8565 19.5984 23.652 20.3611 23.3539C21.15 23.0453 21.8189 22.6339 22.4839 21.9657C23.149 21.2976 23.5584 20.628 23.8634 19.8374C24.1591 19.0742 24.36 18.2013 24.4154 16.925C24.4714 15.6441 24.4846 15.2352 24.4783 11.9769C24.4721 8.71871 24.4574 8.31023 24.3967 7.03055C24.336 5.75087 24.1327 4.88183 23.8334 4.11887C23.525 3.32999 23.1134 2.66207 22.4458 1.99607C21.7781 1.33007 21.108 0.920866 20.3177 0.616546C19.554 0.321106 18.6816 0.119746 17.4043 0.0645462C16.127 0.00934617 15.7159 -0.00481383 12.457 0.00142617C9.198 0.00766617 8.79 0.0215862 7.51008 0.0839862ZM7.65024 21.7771C6.48024 21.7262 5.84496 21.5318 5.4216 21.3691C4.86096 21.1531 4.4616 20.892 4.03968 20.4741C3.61776 20.0563 3.35856 19.6555 3.13968 19.0961C2.97528 18.6727 2.77728 18.0381 2.72256 16.8681C2.66304 15.6036 2.65056 15.2239 2.6436 12.0201C2.63664 8.81639 2.64888 8.43719 2.70432 7.17215C2.75424 6.00311 2.94984 5.36711 3.11232 4.94399C3.32832 4.38263 3.58848 3.98399 4.00728 3.56231C4.42608 3.14063 4.82568 2.88095 5.3856 2.66207C5.80848 2.49695 6.44304 2.30063 7.61256 2.24495C8.87808 2.18495 9.25728 2.17295 12.4606 2.16599C15.6638 2.15903 16.044 2.17103 17.31 2.22671C18.479 2.27759 19.1153 2.47127 19.5379 2.63471C20.0988 2.85071 20.4979 3.11015 20.9196 3.52967C21.3413 3.94919 21.6012 4.34735 21.8201 4.90847C21.9854 5.33015 22.1818 5.96447 22.237 7.13471C22.2972 8.40023 22.3109 8.77967 22.3166 11.9827C22.3224 15.1857 22.3111 15.5661 22.2557 16.8307C22.2046 18.0007 22.0106 18.6362 21.8477 19.0601C21.6317 19.6205 21.3713 20.0201 20.9522 20.4415C20.5332 20.8629 20.1341 21.1226 19.5739 21.3415C19.1515 21.5064 18.5162 21.7032 17.3477 21.7589C16.0822 21.8184 15.703 21.8309 12.4985 21.8378C9.294 21.8448 8.916 21.8318 7.65048 21.7771M17.4329 5.58647C17.4334 5.87129 17.5183 6.14958 17.6769 6.38613C17.8356 6.62268 18.0608 6.80688 18.3241 6.91541C18.5875 7.02395 18.8771 7.05196 19.1563 6.99589C19.4356 6.93982 19.6919 6.8022 19.893 6.60043C20.094 6.39866 20.2307 6.1418 20.2857 5.86235C20.3408 5.58289 20.3117 5.29339 20.2022 5.03045C20.0927 4.76752 19.9077 4.54296 19.6706 4.38518C19.4334 4.22741 19.1548 4.1435 18.87 4.14407C18.4882 4.14483 18.1223 4.29721 17.8528 4.5677C17.5833 4.83819 17.4322 5.20464 17.4329 5.58647ZM6.31848 12.012C6.3252 15.4152 9.08904 18.1677 12.4915 18.1613C15.894 18.1548 18.6485 15.3912 18.642 11.988C18.6355 8.58479 15.871 5.83151 12.468 5.83823C9.06504 5.84495 6.312 8.60927 6.31848 12.012ZM8.47992 12.0077C8.47835 11.2165 8.71143 10.4427 9.14966 9.78401C9.58789 9.12534 10.2116 8.6114 10.9419 8.3072C11.6722 8.003 12.4764 7.92219 13.2526 8.075C14.0288 8.22781 14.7423 8.60736 15.3029 9.16568C15.8634 9.72399 16.2458 10.436 16.4017 11.2116C16.5575 11.9872 16.4799 12.7917 16.1786 13.5232C15.8773 14.2547 15.3658 14.8805 14.7089 15.3213C14.052 15.7621 13.2791 15.9983 12.4879 15.9998C11.9626 16.0009 11.4422 15.8985 10.9565 15.6985C10.4707 15.4985 10.0292 15.2047 9.65697 14.834C9.28478 14.4633 8.98927 14.0228 8.78731 13.5379C8.58535 13.053 8.4809 12.533 8.47992 12.0077Z" fill="#003540"/>
</g>
<defs>
<clipPath id="clip0_125_42422">
<rect width="24" height="24" fill="white" transform="translate(0.47998)"/>
</clipPath>
</defs>
</svg>
