<svg width="25" height="16" viewBox="0 0 25 16" fill="none" xmlns="http://www.w3.org/2000/svg">
<g id="Symbol.svg" clip-path="url(#clip0_515_12949)">
<g id="Group">
<path id="Vector" d="M7.53813 -6.43193e-05C8.19512 -0.0122373 8.85118 0.0549806 9.49199 0.200123C10.0315 0.317675 10.5438 0.536419 11.0015 0.844728C11.4243 1.15131 11.7588 1.56347 11.9714 2.03985C12.2158 2.62563 12.3337 3.25626 12.3175 3.89058C12.3452 4.58708 12.167 5.27633 11.8049 5.87244C11.4241 6.43545 10.8976 6.88508 10.2814 7.17366C11.1176 7.39865 11.846 7.91399 12.3355 8.62702C12.8055 9.38253 13.0417 10.2596 13.0146 11.1484C13.0301 11.857 12.8832 12.5599 12.5853 13.2033C12.3099 13.7646 11.9066 14.2538 11.4077 14.6317C10.8942 15.0054 10.3162 15.2819 9.70262 15.4474C9.06631 15.6231 8.40897 15.7113 7.74876 15.7097H0.5V-6.43193e-05H7.53813ZM7.11987 6.35389C7.63608 6.37513 8.14423 6.22091 8.5612 5.91648C8.76089 5.73908 8.91623 5.51751 9.0148 5.26951C9.11338 5.02149 9.15245 4.75391 9.1289 4.48814C9.14226 4.17774 9.08033 3.8687 8.94836 3.5873C8.83641 3.36325 8.66234 3.17599 8.44685 3.04779C8.22859 2.90668 7.98337 2.81227 7.72669 2.77053C7.44819 2.71669 7.16479 2.6922 6.88115 2.69746H3.78386V6.36791H7.11987V6.35389ZM7.30041 13.0422C7.61259 13.0464 7.92413 13.0128 8.2282 12.9421C8.50607 12.8808 8.7696 12.767 9.00453 12.6068C9.23468 12.4466 9.42062 12.2311 9.54515 11.9802C9.68954 11.6602 9.75588 11.3107 9.73873 10.9602C9.77004 10.6408 9.72765 10.3185 9.61481 10.018C9.50198 9.71752 9.32169 9.44679 9.08778 9.22659C8.59199 8.86217 7.9844 8.68165 7.36962 8.71611H3.78386V13.0422H7.30041Z" fill="#5BA89C"/>
<path id="Vector_2" d="M17.6914 12.9843C17.9491 13.2227 18.2527 13.4063 18.5838 13.524C18.9149 13.6417 19.2664 13.691 19.6172 13.6689C20.1732 13.6829 20.7184 13.5141 21.1688 13.1884C21.5352 12.9507 21.8127 12.5988 21.9582 12.1875H24.577C24.298 13.3584 23.6166 14.3947 22.6513 15.1163C21.7252 15.7297 20.6308 16.0403 19.5199 16.0051C18.727 16.0155 17.9401 15.8667 17.2059 15.5677C16.5418 15.2913 15.9462 14.8735 15.4607 14.3435C14.977 13.7882 14.6054 13.1448 14.3664 12.4487C14.0981 11.6707 13.9668 10.8522 13.9782 10.0295C13.9733 9.22055 14.1091 8.41689 14.3794 7.65426C14.7426 6.58137 15.4371 5.65087 16.3631 4.9963C17.2892 4.34174 18.3992 3.99675 19.5339 4.01084C20.3717 3.99337 21.2001 4.18902 21.9411 4.57937C22.611 4.94592 23.1888 5.45926 23.6312 6.08078C24.0837 6.73295 24.4081 7.46491 24.5871 8.2378C24.7834 9.06775 24.8533 9.92244 24.7947 10.7732H16.9943C16.9311 11.5725 17.181 12.3651 17.6914 12.9843ZM21.1137 7.00965C20.8954 6.79177 20.6328 6.6231 20.3437 6.51502C20.0546 6.40693 19.7456 6.36194 19.4376 6.38306C19.029 6.36751 18.6233 6.45786 18.2601 6.64531C17.9721 6.80351 17.7179 7.01636 17.5118 7.2719C17.3292 7.51148 17.1931 7.78308 17.1106 8.07265C17.0363 8.31415 16.9899 8.56333 16.9722 8.81535H21.8037C21.7616 8.15838 21.5218 7.52939 21.1157 7.01065L21.1137 7.00965Z" fill="#5BA89C"/>
<path id="Vector_3" d="M22.4038 1.04883H16.3496V2.59328H22.4038V1.04883Z" fill="#5BA89C"/>
</g>
</g>
<defs>
<clipPath id="clip0_515_12949">
<rect width="24.32" height="16" fill="white" transform="translate(0.5)"/>
</clipPath>
</defs>
</svg>
