<svg width="35" height="24" viewBox="0 0 35 24" fill="none" xmlns="http://www.w3.org/2000/svg">
<g clip-path="url(#clip0_125_42426)">
<path d="M34.187 3.74768C33.7939 2.27245 32.6358 1.11077 31.165 0.716516C28.4994 0 17.8104 0 17.8104 0C17.8104 0 7.12145 0 4.45577 0.716516C2.98512 1.11077 1.82681 2.27245 1.43375 3.74768C0.719482 6.42141 0.719482 12 0.719482 12C0.719482 12 0.719482 17.5785 1.43375 20.2525C1.82681 21.7275 2.98512 22.8892 4.45577 23.2836C7.12145 24 17.8104 24 17.8104 24C17.8104 24 28.4994 24 31.165 23.2836C32.6358 22.8892 33.7939 21.7275 34.187 20.2525C34.9013 17.5785 34.9013 12 34.9013 12C34.9013 12 34.9013 6.42141 34.187 3.74768Z" fill="#003540"/>
<path d="M14.3146 17.0649L23.2485 12.0002L14.3146 6.93504V17.0649Z" fill="white"/>
</g>
<defs>
<clipPath id="clip0_125_42426">
<rect width="34.1818" height="24" fill="white" transform="translate(0.719482)"/>
</clipPath>
</defs>
</svg>
