<svg width="195" height="24" viewBox="0 0 195 24" fill="none" xmlns="http://www.w3.org/2000/svg">
<g clip-path="url(#clip0_162_111652)">
<path fill-rule="evenodd" clip-rule="evenodd" d="M20.2028 0C14.8695 0 11.5472 2.66341 10.2066 7.99024C12.2175 5.32683 14.549 4.33171 17.2301 4.97561C18.7456 5.3561 19.853 6.46829 21.0479 7.66829C23.0005 9.68781 25.2737 12 30.2281 12C35.5613 12 38.9128 9.33659 40.2534 4.00976C38.2425 6.67317 35.911 7.66829 33.259 6.99512C31.7435 6.61463 30.6361 5.50244 29.4412 4.30244C27.4595 2.31219 25.1863 0 20.2028 0ZM10.2066 12C4.84421 12 1.52187 14.6634 0.181274 19.9902C2.19217 17.3268 4.52364 16.3317 7.20483 16.9756C8.72028 17.3561 9.82773 18.4683 11.0226 19.6683C12.9752 21.6878 15.2484 24 20.2028 24C25.536 24 28.8875 21.3366 30.2281 16.0098C28.2172 18.6732 25.8857 19.6683 23.2045 18.9951C21.6891 18.6146 20.5816 17.5024 19.3868 16.3024C17.4341 14.3122 15.161 12 10.2066 12Z" fill="#38BDF8"/>
<path fill-rule="evenodd" clip-rule="evenodd" d="M60.2749 10.0975H56.7777V16.8585C56.7777 18.6731 57.9726 18.6439 60.2749 18.5268V21.2487C55.5828 21.8048 53.7177 20.517 53.7177 16.8585V10.0975H51.1239V7.17069H53.7177V3.39508L56.7777 2.48776V7.17069H60.2749V10.0975ZM73.6226 7.19995H76.6535V21.278H73.6226V19.2585C72.5443 20.7512 70.8831 21.6585 68.6974 21.6585C64.8504 21.6585 61.6738 18.4097 61.6738 14.2536C61.6738 10.0682 64.8504 6.84873 68.6974 6.84873C70.8831 6.84873 72.5734 7.75605 73.6226 9.21947V7.19995ZM69.1636 18.7317C71.6991 18.7317 73.6226 16.8292 73.6226 14.2243C73.6226 11.5902 71.6991 9.71703 69.1636 9.71703C66.6282 9.71703 64.7047 11.6195 64.7047 14.2243C64.7047 16.8292 66.6282 18.7317 69.1636 18.7317ZM81.7244 5.06337C80.6461 5.06337 79.7718 4.15605 79.7718 3.13166C79.7718 2.04873 80.6461 1.19995 81.7244 1.19995C82.8027 1.19995 83.677 2.078 83.677 3.13166C83.677 4.18532 82.8027 5.06337 81.7244 5.06337ZM80.209 21.2487V7.19995H83.2399V21.278H80.209V21.2487ZM86.7662 21.2487V0.702393H89.7972V21.2487H86.7662ZM109.586 7.19995H112.791L108.361 21.278H105.389L102.445 11.7951L99.4728 21.278H96.471L92.0412 7.19995H95.247L97.9864 16.917L100.959 7.19995H103.873L106.817 16.917L109.586 7.19995ZM116.58 5.06337C115.502 5.06337 114.627 4.15605 114.627 3.13166C114.627 2.04873 115.502 1.19995 116.58 1.19995C117.658 1.19995 118.533 2.078 118.533 3.13166C118.533 4.18532 117.658 5.06337 116.58 5.06337ZM115.064 21.2487V7.19995H118.095V21.278H115.064V21.2487ZM129.053 6.81947C132.201 6.81947 134.474 8.95605 134.474 12.6146V21.2487H131.443V12.9365C131.443 10.8 130.219 9.65849 128.296 9.65849C126.285 9.65849 124.711 10.8292 124.711 13.7268V21.278H121.651V7.19995H124.711V8.98532C125.585 7.5219 127.13 6.81947 129.053 6.81947ZM148.9 1.55117H151.96V21.2487H148.9V19.2292C147.822 20.7219 146.16 21.6292 143.975 21.6292C140.157 21.6292 136.951 18.3804 136.951 14.2243C136.951 10.039 140.128 6.81947 143.975 6.81947C146.16 6.81947 147.851 7.72678 148.9 9.1902V1.55117ZM144.441 18.7317C146.976 18.7317 148.9 16.8292 148.9 14.2243C148.9 11.5902 146.976 9.71703 144.441 9.71703C141.906 9.71703 139.982 11.6195 139.982 14.2243C139.982 16.8292 141.906 18.7317 144.441 18.7317ZM162.131 21.6292C157.876 21.6292 154.67 18.3804 154.67 14.2243C154.67 10.039 157.847 6.81947 162.131 6.81947C164.9 6.81947 167.289 8.25361 168.426 10.4487L165.803 11.9707C165.191 10.6536 163.792 9.80483 162.102 9.80483C159.625 9.80483 157.73 11.678 157.73 14.2243C157.73 16.7707 159.625 18.6439 162.102 18.6439C163.792 18.6439 165.162 17.7658 165.861 16.478L168.484 17.9707C167.289 20.1951 164.9 21.6292 162.131 21.6292ZM173.497 11.0634C173.497 13.639 181.074 12.0878 181.074 17.2975C181.074 20.1073 178.626 21.6292 175.566 21.6292C172.739 21.6292 170.728 20.3707 169.825 18.3219L172.448 16.8C172.885 18.0585 174.021 18.8195 175.566 18.8195C176.907 18.8195 177.956 18.3804 177.956 17.239C177.956 14.7219 170.379 16.1561 170.379 11.0926C170.379 8.45849 172.652 6.7902 175.537 6.7902C177.839 6.7902 179.763 7.87312 180.754 9.71703L178.189 11.1512C177.694 10.039 176.703 9.54142 175.537 9.54142C174.459 9.57068 173.497 10.0682 173.497 11.0634ZM186.495 11.0634C186.495 13.639 194.072 12.0878 194.072 17.2975C194.072 20.1073 191.624 21.6292 188.564 21.6292C185.737 21.6292 183.726 20.3707 182.823 18.3219L185.446 16.8C185.883 18.0585 187.019 18.8195 188.564 18.8195C189.905 18.8195 190.954 18.3804 190.954 17.239C190.954 14.7219 183.377 16.1561 183.377 11.0926C183.377 8.45849 185.65 6.7902 188.535 6.7902C190.837 6.7902 192.761 7.87312 193.752 9.71703L191.187 11.1512C190.692 10.039 189.701 9.54142 188.535 9.54142C187.457 9.57068 186.495 10.0682 186.495 11.0634Z" fill="black"/>
</g>
<defs>
<clipPath id="clip0_162_111652">
<rect width="193.92" height="24" fill="white" transform="translate(0.181274)"/>
</clipPath>
</defs>
</svg>
