<?xml version="1.0" encoding="UTF-8"?>
<svg xmlns="http://www.w3.org/2000/svg" xmlns:xlink="http://www.w3.org/1999/xlink" id="Group_2768" data-name="Group 2768" width="110" height="49.731" viewBox="0 0 110 49.731">
  <defs>
    <clipPath id="clip-path">
      <path id="Path_3508" data-name="Path 3508" d="M0-11.782H110V-61.513H0Z" transform="translate(0 61.513)" fill="#fff"></path>
    </clipPath>
  </defs>
  <g id="Group_1391" data-name="Group 1391" transform="translate(36.681 9.08)">
    <path id="Path_3509" data-name="Path 3509" d="M-1.015-2.759-5.3-14.407h2.419L.178-5.519l3.06-8.888H5.52L1.233-2.759Z" transform="translate(5.3 14.407)" fill="#fff"></path>
  </g>
  <g id="Group_1392" data-name="Group 1392" transform="translate(46.603 9.08)">
    <path id="Path_3510" data-name="Path 3510" d="M0-2.759,4.374-14.407H6.622L11-2.759H8.576l-1-2.952H3.285l-1,2.952ZM3.89-7.527H6.949L5.423-12.049Z" transform="translate(0 14.407)" fill="#fff"></path>
  </g>
  <g id="Group_1393" data-name="Group 1393" transform="translate(58.965 9.08)">
    <path id="Path_3511" data-name="Path 3511" d="M0-2.759V-14.407H2.179v9.692h5.69v1.956Z" transform="translate(0 14.407)" fill="#fff"></path>
  </g>
  <g id="Group_1395" data-name="Group 1395" clip-path="url(#clip-path)">
    <g id="Group_1394" data-name="Group 1394" transform="translate(68.266 9.079)">
      <path id="Path_3512" data-name="Path 3512" d="M0-1.742V-9.094H2.178v6.967a3.559,3.559,0,0,0,.554,2.1A2.259,2.259,0,0,0,4.7.756a2.259,2.259,0,0,0,1.98-.777,3.61,3.61,0,0,0,.544-2.1V-9.094h2.18v7.352A4.933,4.933,0,0,1,8.853.6a4.124,4.124,0,0,1-1.6,1.658,4.982,4.982,0,0,1-2.55.61,4.985,4.985,0,0,1-2.551-.61A4.127,4.127,0,0,1,.553.6,4.933,4.933,0,0,1,0-1.742" transform="translate(0.001 9.094)" fill="#fff"></path>
    </g>
  </g>
  <g id="Group_1396" data-name="Group 1396" transform="translate(80.007 9.08)">
    <path id="Path_3514" data-name="Path 3514" d="M0-2.759V-14.407H7.469v1.938H2.179v2.742h3.89v1.956H2.179v3.038H7.867v1.974Z" transform="translate(0 14.407)" fill="#fff"></path>
  </g>
  <g id="Group_1397" data-name="Group 1397" transform="translate(37.732 25.255)">
    <path id="Path_3515" data-name="Path 3515" d="M0-2.759V-14.407H7.469v1.938H2.179v2.742h3.89v1.956H2.179v3.038H7.867v1.974Z" transform="translate(0 14.407)" fill="#fff"></path>
  </g>
  <g id="Group_1398" data-name="Group 1398" transform="translate(46.532 25.255)">
    <path id="Path_3516" data-name="Path 3516" d="M0-2.759,3.839-8.784.156-14.407H2.783l2.4,3.807L7.5-14.407H9.877L6.328-8.837l3.959,6.078H7.661L5-7,2.373-2.759Z" transform="translate(0 14.407)" fill="#fff"></path>
  </g>
  <g id="Group_1400" data-name="Group 1400" clip-path="url(#clip-path)">
    <g id="Group_1399" data-name="Group 1399" transform="translate(58.22 25.252)">
      <path id="Path_3517" data-name="Path 3517" d="M0-2.76V-14.408H3.7a4.684,4.684,0,0,1,1.989.366,3.282,3.282,0,0,1,1.219.932,3.456,3.456,0,0,1,.614,1.186,4.291,4.291,0,0,1,.169,1.143A3.826,3.826,0,0,1,7.353-9.1a3.17,3.17,0,0,1-.9,1.147A3.866,3.866,0,0,1,5.2-7.3a4.633,4.633,0,0,1-1.356.209H2.092V-2.76ZM2.092-8.942H3.666a1.785,1.785,0,0,0,1.313-.5,1.708,1.708,0,0,0,.5-1.266,1.8,1.8,0,0,0-.519-1.336,1.768,1.768,0,0,0-1.3-.515H2.092Z" transform="translate(0 14.41)" fill="#fff"></path>
    </g>
  </g>
  <g id="Group_1401" data-name="Group 1401" transform="translate(67.868 25.255)">
    <path id="Path_3519" data-name="Path 3519" d="M0-2.759V-14.407H7.468v1.938H2.178v2.742h3.89v1.956H2.178v3.038H7.867v1.974Z" transform="translate(0 14.407)" fill="#fff"></path>
  </g>
  <g id="Group_1403" data-name="Group 1403" clip-path="url(#clip-path)">
    <g id="Group_1402" data-name="Group 1402" transform="translate(77.689 25.253)">
      <path id="Path_3520" data-name="Path 3520" d="M0-2.76V-14.407H3.82a4.613,4.613,0,0,1,1.851.331A3.464,3.464,0,0,1,6.9-13.22a3.42,3.42,0,0,1,.682,1.126A3.413,3.413,0,0,1,7.8-10.933a3.854,3.854,0,0,1-.484,1.949A3.468,3.468,0,0,1,5.862-7.628L8.525-2.755H6.067l-2.333-4.6H2.091V-2.76ZM2.091-9.169H3.838a1.682,1.682,0,0,0,1.288-.487,1.672,1.672,0,0,0,.458-1.186A1.631,1.631,0,0,0,5.1-12.064a1.734,1.734,0,0,0-1.263-.472H2.091Z" transform="translate(0 14.409)" fill="#fff"></path>
    </g>
  </g>
  <g id="Group_1404" data-name="Group 1404" transform="translate(86.663 25.255)">
    <path id="Path_3522" data-name="Path 3522" d="M-.926-2.759v-9.71H-4.834v-1.938H5.16v1.938H1.253v9.71Z" transform="translate(4.834 14.407)" fill="#fff"></path>
  </g>
  <g id="Group_1410" data-name="Group 1410" clip-path="url(#clip-path)">
    <g id="Group_1405" data-name="Group 1405" transform="translate(97.158 24.936)">
      <path id="Path_3523" data-name="Path 3523" d="M0-2.392,1.525-3.806c.2.209.424.436.692.678a3.753,3.753,0,0,0,.947.63,2.955,2.955,0,0,0,1.279.262,2.091,2.091,0,0,0,1.513-.479,1.525,1.525,0,0,0,.492-1.126,1.344,1.344,0,0,0-.6-1.169,6.067,6.067,0,0,0-2.162-.715,4.291,4.291,0,0,1-1.736-.717A3.235,3.235,0,0,1,.932-7.657,3.4,3.4,0,0,1,.593-9.133a3.234,3.234,0,0,1,.44-1.65,3.246,3.246,0,0,1,1.332-1.231A4.746,4.746,0,0,1,4.6-12.486a5.44,5.44,0,0,1,1.574.2,4.327,4.327,0,0,1,1.1.489,3.407,3.407,0,0,1,.682.559q.242.27.346.393L6.864-9.482q-.1-.1-.406-.366a3.291,3.291,0,0,0-.78-.48,2.748,2.748,0,0,0-1.148-.22,1.773,1.773,0,0,0-1.323.436,1.271,1.271,0,0,0-.424.873,1.228,1.228,0,0,0,.493,1,4.94,4.94,0,0,0,1.91.69,6.252,6.252,0,0,1,1.686.62A3.419,3.419,0,0,1,8.143-5.739,3.565,3.565,0,0,1,8.627-3.79a3.247,3.247,0,0,1-.535,1.827A3.729,3.729,0,0,1,6.61-.68a4.7,4.7,0,0,1-2.132.469A5.39,5.39,0,0,1,2.464-.558,5.414,5.414,0,0,1,.976-1.423,7.092,7.092,0,0,1,0-2.392" transform="translate(0 12.489)" fill="#fff"></path>
    </g>
    <g id="Group_1406" data-name="Group 1406" transform="translate(28.396)">
      <path id="Path_3524" data-name="Path 3524" d="M-2.993,0H-15.286l-.339,2.084c3.757,0,4.269.77,3.417,3.549-.169.526-.363,1.113-.574,1.736h3.975l1.124-3.051C-6.915,2.234-6.231,2.08-3.67,2.08Z" transform="translate(15.625)" fill="#fff"></path>
    </g>
    <g id="Group_1407" data-name="Group 1407">
      <path id="Path_3525" data-name="Path 3525" d="M-6.517-4.227c-1.926,5.254-3.664,9.851-3.664,9.851-.683-1.619-9.794-27.692-9.794-27.692H-34.024v2.247c2.81.091,3.159.817,3.876,2.613L-18.218,14.8h8.525L-2.676-4.227Z" transform="translate(34.024 22.068)" fill="#fff"></path>
    </g>
    <g id="Group_1408" data-name="Group 1408" transform="translate(107.606 25.611)">
      <path id="Path_3526" data-name="Path 3526" d="M-.335-.42a.014.014,0,0,1,0-.008l-.314-.653A.636.636,0,0,0-.436-1.3a.576.576,0,0,0,.079-.3A.579.579,0,0,0-.4-1.829a.593.593,0,0,0-.125-.186.645.645,0,0,0-.185-.129A.593.593,0,0,0-.937-2.2h-.754c-.037,0-.057.02-.057.062V-.42c0,.035.019.052.057.052h.228c.037,0,.056-.017.056-.052v-.585h.43L-.7-.412a.052.052,0,0,0,.047.038h.269c.038,0,.057-.014.057-.043l0,0m-.431-1a.236.236,0,0,1-.179.075H-1.4v-.517h.459a.241.241,0,0,1,.1.023.254.254,0,0,1,.079.058.265.265,0,0,1,.051.085A.265.265,0,0,1-.7-1.607a.265.265,0,0,1-.069.186" transform="translate(1.748 2.2)" fill="#fff"></path>
    </g>
    <g id="Group_1409" data-name="Group 1409" transform="translate(106.406 24.734)">
      <path id="Path_3527" data-name="Path 3527" d="M-.424-.848a1.8,1.8,0,0,1-1.8-1.8,1.8,1.8,0,0,1,1.8-1.8,1.8,1.8,0,0,1,1.8,1.8,1.8,1.8,0,0,1-1.8,1.8m0-3.39A1.589,1.589,0,0,0-2.013-2.649,1.589,1.589,0,0,0-.424-1.062,1.589,1.589,0,0,0,1.161-2.649,1.588,1.588,0,0,0-.424-4.238" transform="translate(2.223 4.447)" fill="#fff"></path>
    </g>
  </g>
</svg>
