<svg width="437" height="186" viewBox="0 0 437 186" fill="none" xmlns="http://www.w3.org/2000/svg">
<g clip-path="url(#clip0_167_158687)">
<path d="M18 0C17.4696 0 16.9609 0.210714 16.5858 0.585786C16.2107 0.960859 16 1.46957 16 2V30C16 31.104 16.896 32 18 32H46C46.5304 32 47.0391 31.7893 47.4142 31.4142C47.7893 31.0391 48 30.5304 48 30V2C48 1.46957 47.7893 0.960859 47.4142 0.585786C47.0391 0.210714 46.5304 0 46 0L18 0ZM41.944 10C42.344 10 42.672 10.3253 42.672 10.728V16.2453C42.6714 16.3891 42.6283 16.5294 42.5481 16.6487C42.4679 16.7679 42.3542 16.8608 42.2213 16.9156C42.0884 16.9703 41.9423 16.9845 41.8014 16.9564C41.6604 16.9282 41.531 16.8589 41.4293 16.7573L39.6107 14.9413L34.2773 20.2747C34.1535 20.3988 34.0063 20.4973 33.8444 20.5646C33.6824 20.6318 33.5087 20.6664 33.3333 20.6664C33.158 20.6664 32.9843 20.6318 32.8223 20.5646C32.6603 20.4973 32.5132 20.3988 32.3893 20.2747L29.3333 17.2213L23.6107 22.944C23.3603 23.1944 23.0207 23.335 22.6667 23.335C22.3126 23.335 21.973 23.1944 21.7227 22.944C21.4723 22.6936 21.3316 22.3541 21.3316 22C21.3316 21.6459 21.4723 21.3064 21.7227 21.056L28.3893 14.3893C28.5132 14.2652 28.6603 14.1666 28.8223 14.0994C28.9843 14.0322 29.158 13.9976 29.3333 13.9976C29.5087 13.9976 29.6824 14.0322 29.8444 14.0994C30.0063 14.1666 30.1535 14.2652 30.2773 14.3893L33.3333 17.448L37.7253 13.056L35.912 11.2427C35.8102 11.1409 35.7409 11.0112 35.7129 10.87C35.6848 10.7288 35.6992 10.5824 35.7543 10.4494C35.8094 10.3164 35.9026 10.2028 36.0223 10.1228C36.142 10.0428 36.2827 10 36.4267 10H41.944Z" fill="#003540"/>
</g>
<path d="M26.104 79.288C24.776 79.288 23.552 79.08 22.432 78.664C21.328 78.232 20.36 77.624 19.528 76.84C18.712 76.056 18.072 75.136 17.608 74.08C17.16 73.024 16.936 71.864 16.936 70.6C16.936 69.336 17.16 68.176 17.608 67.12C18.072 66.064 18.72 65.144 19.552 64.36C20.384 63.576 21.36 62.976 22.48 62.56C23.6 62.128 24.832 61.912 26.176 61.912C27.664 61.912 29 62.16 30.184 62.656C31.384 63.152 32.392 63.872 33.208 64.816L30.712 67.12C30.104 66.48 29.44 66.008 28.72 65.704C28 65.384 27.216 65.224 26.368 65.224C25.552 65.224 24.808 65.352 24.136 65.608C23.464 65.864 22.88 66.232 22.384 66.712C21.904 67.192 21.528 67.76 21.256 68.416C21 69.072 20.872 69.8 20.872 70.6C20.872 71.384 21 72.104 21.256 72.76C21.528 73.416 21.904 73.992 22.384 74.488C22.88 74.968 23.456 75.336 24.112 75.592C24.784 75.848 25.52 75.976 26.32 75.976C27.088 75.976 27.832 75.856 28.552 75.616C29.288 75.36 30 74.936 30.688 74.344L32.896 77.152C31.984 77.84 30.92 78.368 29.704 78.736C28.504 79.104 27.304 79.288 26.104 79.288ZM29.344 76.648V70.336H32.896V77.152L29.344 76.648ZM36.7236 79V66.088H40.2996V69.736L39.7956 68.68C40.1796 67.768 40.7956 67.08 41.6436 66.616C42.4916 66.136 43.5236 65.896 44.7396 65.896V69.352C44.5796 69.336 44.4356 69.328 44.3076 69.328C44.1796 69.312 44.0436 69.304 43.8996 69.304C42.8756 69.304 42.0436 69.6 41.4036 70.192C40.7796 70.768 40.4676 71.672 40.4676 72.904V79H36.7236ZM53.4961 79.192C52.1201 79.192 50.8961 78.904 49.8241 78.328C48.7681 77.752 47.9281 76.968 47.3041 75.976C46.6961 74.968 46.3921 73.824 46.3921 72.544C46.3921 71.248 46.6961 70.104 47.3041 69.112C47.9281 68.104 48.7681 67.32 49.8241 66.76C50.8961 66.184 52.1201 65.896 53.4961 65.896C54.8561 65.896 56.0721 66.184 57.1441 66.76C58.2161 67.32 59.0561 68.096 59.6641 69.088C60.2721 70.08 60.5761 71.232 60.5761 72.544C60.5761 73.824 60.2721 74.968 59.6641 75.976C59.0561 76.968 58.2161 77.752 57.1441 78.328C56.0721 78.904 54.8561 79.192 53.4961 79.192ZM53.4961 76.12C54.1201 76.12 54.6801 75.976 55.1761 75.688C55.6721 75.4 56.0641 74.992 56.3521 74.464C56.6401 73.92 56.7841 73.28 56.7841 72.544C56.7841 71.792 56.6401 71.152 56.3521 70.624C56.0641 70.096 55.6721 69.688 55.1761 69.4C54.6801 69.112 54.1201 68.968 53.4961 68.968C52.8721 68.968 52.3121 69.112 51.8161 69.4C51.3201 69.688 50.9201 70.096 50.6161 70.624C50.3281 71.152 50.1841 71.792 50.1841 72.544C50.1841 73.28 50.3281 73.92 50.6161 74.464C50.9201 74.992 51.3201 75.4 51.8161 75.688C52.3121 75.976 52.8721 76.12 53.4961 76.12ZM66.1591 79L61.5031 66.088H65.0311L68.8951 77.2H67.2151L71.2471 66.088H74.4151L78.3271 77.2H76.6471L80.6311 66.088H83.9431L79.2631 79H75.6391L72.2071 69.472H73.3111L69.7591 79H66.1591ZM91.7952 79.192C90.2752 79.192 89.0912 78.808 88.2432 78.04C87.3952 77.256 86.9712 76.096 86.9712 74.56V63.232H90.7152V74.512C90.7152 75.056 90.8592 75.48 91.1472 75.784C91.4352 76.072 91.8272 76.216 92.3232 76.216C92.9152 76.216 93.4192 76.056 93.8352 75.736L94.8432 78.376C94.4592 78.648 93.9952 78.856 93.4512 79C92.9232 79.128 92.3712 79.192 91.7952 79.192ZM84.9792 69.256V66.376H93.9312V69.256H84.9792ZM105.273 65.896C106.297 65.896 107.209 66.104 108.009 66.52C108.825 66.92 109.465 67.544 109.929 68.392C110.393 69.224 110.625 70.296 110.625 71.608V79H106.881V72.184C106.881 71.144 106.649 70.376 106.185 69.88C105.737 69.384 105.097 69.136 104.265 69.136C103.673 69.136 103.137 69.264 102.657 69.52C102.193 69.76 101.825 70.136 101.553 70.648C101.297 71.16 101.169 71.816 101.169 72.616V79H97.4249V61.192H101.169V69.664L100.329 68.584C100.793 67.72 101.457 67.056 102.321 66.592C103.185 66.128 104.169 65.896 105.273 65.896ZM129.696 79V76.48L129.456 75.928V71.416C129.456 70.616 129.208 69.992 128.712 69.544C128.232 69.096 127.488 68.872 126.48 68.872C125.792 68.872 125.112 68.984 124.44 69.208C123.784 69.416 123.224 69.704 122.76 70.072L121.416 67.456C122.12 66.96 122.968 66.576 123.96 66.304C124.952 66.032 125.96 65.896 126.984 65.896C128.952 65.896 130.48 66.36 131.568 67.288C132.656 68.216 133.2 69.664 133.2 71.632V79H129.696ZM125.76 79.192C124.752 79.192 123.888 79.024 123.168 78.688C122.448 78.336 121.896 77.864 121.512 77.272C121.128 76.68 120.936 76.016 120.936 75.28C120.936 74.512 121.12 73.84 121.488 73.264C121.872 72.688 122.472 72.24 123.288 71.92C124.104 71.584 125.168 71.416 126.48 71.416H129.912V73.6H126.888C126.008 73.6 125.4 73.744 125.064 74.032C124.744 74.32 124.584 74.68 124.584 75.112C124.584 75.592 124.768 75.976 125.136 76.264C125.52 76.536 126.04 76.672 126.696 76.672C127.32 76.672 127.88 76.528 128.376 76.24C128.872 75.936 129.232 75.496 129.456 74.92L130.032 76.648C129.76 77.48 129.264 78.112 128.544 78.544C127.824 78.976 126.896 79.192 125.76 79.192ZM144.916 65.896C145.94 65.896 146.852 66.104 147.652 66.52C148.468 66.92 149.108 67.544 149.572 68.392C150.036 69.224 150.268 70.296 150.268 71.608V79H146.524V72.184C146.524 71.144 146.292 70.376 145.828 69.88C145.38 69.384 144.74 69.136 143.908 69.136C143.316 69.136 142.78 69.264 142.3 69.52C141.836 69.76 141.468 70.136 141.196 70.648C140.94 71.16 140.812 71.816 140.812 72.616V79H137.068V66.088H140.644V69.664L139.972 68.584C140.436 67.72 141.1 67.056 141.964 66.592C142.828 66.128 143.812 65.896 144.916 65.896ZM159.78 79.192C158.564 79.192 157.468 78.92 156.492 78.376C155.516 77.816 154.74 77.04 154.164 76.048C153.604 75.056 153.324 73.888 153.324 72.544C153.324 71.184 153.604 70.008 154.164 69.016C154.74 68.024 155.516 67.256 156.492 66.712C157.468 66.168 158.564 65.896 159.78 65.896C160.868 65.896 161.82 66.136 162.636 66.616C163.452 67.096 164.084 67.824 164.532 68.8C164.98 69.776 165.204 71.024 165.204 72.544C165.204 74.048 164.988 75.296 164.556 76.288C164.124 77.264 163.5 77.992 162.684 78.472C161.884 78.952 160.916 79.192 159.78 79.192ZM160.428 76.12C161.036 76.12 161.588 75.976 162.084 75.688C162.58 75.4 162.972 74.992 163.26 74.464C163.564 73.92 163.716 73.28 163.716 72.544C163.716 71.792 163.564 71.152 163.26 70.624C162.972 70.096 162.58 69.688 162.084 69.4C161.588 69.112 161.036 68.968 160.428 68.968C159.804 68.968 159.244 69.112 158.748 69.4C158.252 69.688 157.852 70.096 157.548 70.624C157.26 71.152 157.116 71.792 157.116 72.544C157.116 73.28 157.26 73.92 157.548 74.464C157.852 74.992 158.252 75.4 158.748 75.688C159.244 75.976 159.804 76.12 160.428 76.12ZM163.812 79V76.36L163.884 72.52L163.644 68.704V61.192H167.388V79H163.812ZM186.914 79.288C185.618 79.288 184.41 79.08 183.29 78.664C182.186 78.232 181.226 77.624 180.41 76.84C179.594 76.056 178.954 75.136 178.49 74.08C178.042 73.024 177.818 71.864 177.818 70.6C177.818 69.336 178.042 68.176 178.49 67.12C178.954 66.064 179.594 65.144 180.41 64.36C181.242 63.576 182.21 62.976 183.314 62.56C184.418 62.128 185.626 61.912 186.938 61.912C188.394 61.912 189.706 62.168 190.874 62.68C192.058 63.176 193.05 63.912 193.85 64.888L191.354 67.192C190.778 66.536 190.138 66.048 189.434 65.728C188.73 65.392 187.962 65.224 187.13 65.224C186.346 65.224 185.626 65.352 184.97 65.608C184.314 65.864 183.746 66.232 183.266 66.712C182.786 67.192 182.41 67.76 182.138 68.416C181.882 69.072 181.754 69.8 181.754 70.6C181.754 71.4 181.882 72.128 182.138 72.784C182.41 73.44 182.786 74.008 183.266 74.488C183.746 74.968 184.314 75.336 184.97 75.592C185.626 75.848 186.346 75.976 187.13 75.976C187.962 75.976 188.73 75.816 189.434 75.496C190.138 75.16 190.778 74.656 191.354 73.984L193.85 76.288C193.05 77.264 192.058 78.008 190.874 78.52C189.706 79.032 188.386 79.288 186.914 79.288ZM204.541 79V76.48L204.301 75.928V71.416C204.301 70.616 204.053 69.992 203.557 69.544C203.077 69.096 202.333 68.872 201.325 68.872C200.637 68.872 199.957 68.984 199.285 69.208C198.629 69.416 198.069 69.704 197.605 70.072L196.261 67.456C196.965 66.96 197.813 66.576 198.805 66.304C199.797 66.032 200.805 65.896 201.829 65.896C203.797 65.896 205.325 66.36 206.413 67.288C207.501 68.216 208.045 69.664 208.045 71.632V79H204.541ZM200.605 79.192C199.597 79.192 198.733 79.024 198.013 78.688C197.293 78.336 196.741 77.864 196.357 77.272C195.973 76.68 195.781 76.016 195.781 75.28C195.781 74.512 195.965 73.84 196.333 73.264C196.717 72.688 197.317 72.24 198.133 71.92C198.949 71.584 200.013 71.416 201.325 71.416H204.757V73.6H201.733C200.853 73.6 200.245 73.744 199.909 74.032C199.589 74.32 199.429 74.68 199.429 75.112C199.429 75.592 199.613 75.976 199.981 76.264C200.365 76.536 200.885 76.672 201.541 76.672C202.165 76.672 202.725 76.528 203.221 76.24C203.717 75.936 204.077 75.496 204.301 74.92L204.877 76.648C204.605 77.48 204.109 78.112 203.389 78.544C202.669 78.976 201.741 79.192 200.605 79.192ZM211.913 79V66.088H215.489V69.736L214.985 68.68C215.369 67.768 215.985 67.08 216.833 66.616C217.681 66.136 218.713 65.896 219.929 65.896V69.352C219.769 69.336 219.625 69.328 219.497 69.328C219.369 69.312 219.233 69.304 219.089 69.304C218.065 69.304 217.233 69.6 216.593 70.192C215.969 70.768 215.657 71.672 215.657 72.904V79H211.913ZM228.95 79.192C227.478 79.192 226.182 78.904 225.062 78.328C223.958 77.752 223.102 76.968 222.494 75.976C221.886 74.968 221.582 73.824 221.582 72.544C221.582 71.248 221.878 70.104 222.47 69.112C223.078 68.104 223.902 67.32 224.942 66.76C225.982 66.184 227.158 65.896 228.47 65.896C229.734 65.896 230.87 66.168 231.878 66.712C232.902 67.24 233.71 68.008 234.302 69.016C234.894 70.008 235.19 71.2 235.19 72.592C235.19 72.736 235.182 72.904 235.166 73.096C235.15 73.272 235.134 73.44 235.118 73.6H224.63V71.416H233.15L231.71 72.064C231.71 71.392 231.574 70.808 231.302 70.312C231.03 69.816 230.654 69.432 230.174 69.16C229.694 68.872 229.134 68.728 228.494 68.728C227.854 68.728 227.286 68.872 226.79 69.16C226.31 69.432 225.934 69.824 225.662 70.336C225.39 70.832 225.254 71.424 225.254 72.112V72.688C225.254 73.392 225.406 74.016 225.71 74.56C226.03 75.088 226.47 75.496 227.03 75.784C227.606 76.056 228.278 76.192 229.046 76.192C229.734 76.192 230.334 76.088 230.846 75.88C231.374 75.672 231.854 75.36 232.286 74.944L234.278 77.104C233.686 77.776 232.942 78.296 232.046 78.664C231.15 79.016 230.118 79.192 228.95 79.192ZM244.57 79.192C243.098 79.192 241.802 78.904 240.682 78.328C239.578 77.752 238.722 76.968 238.114 75.976C237.506 74.968 237.202 73.824 237.202 72.544C237.202 71.248 237.498 70.104 238.09 69.112C238.698 68.104 239.522 67.32 240.562 66.76C241.602 66.184 242.778 65.896 244.09 65.896C245.354 65.896 246.49 66.168 247.498 66.712C248.522 67.24 249.33 68.008 249.922 69.016C250.514 70.008 250.81 71.2 250.81 72.592C250.81 72.736 250.802 72.904 250.786 73.096C250.77 73.272 250.754 73.44 250.738 73.6H240.25V71.416H248.77L247.33 72.064C247.33 71.392 247.194 70.808 246.922 70.312C246.65 69.816 246.274 69.432 245.794 69.16C245.314 68.872 244.754 68.728 244.114 68.728C243.474 68.728 242.906 68.872 242.41 69.16C241.93 69.432 241.554 69.824 241.282 70.336C241.01 70.832 240.874 71.424 240.874 72.112V72.688C240.874 73.392 241.026 74.016 241.33 74.56C241.65 75.088 242.09 75.496 242.65 75.784C243.226 76.056 243.898 76.192 244.666 76.192C245.354 76.192 245.954 76.088 246.466 75.88C246.994 75.672 247.474 75.36 247.906 74.944L249.898 77.104C249.306 77.776 248.562 78.296 247.666 78.664C246.77 79.016 245.738 79.192 244.57 79.192ZM253.783 79V66.088H257.359V69.736L256.855 68.68C257.239 67.768 257.855 67.08 258.703 66.616C259.551 66.136 260.583 65.896 261.799 65.896V69.352C261.639 69.336 261.495 69.328 261.367 69.328C261.239 69.312 261.103 69.304 260.959 69.304C259.935 69.304 259.103 69.6 258.463 70.192C257.839 70.768 257.527 71.672 257.527 72.904V79H253.783ZM17.992 108V91.2H25.264C26.768 91.2 28.064 91.448 29.152 91.944C30.24 92.424 31.08 93.12 31.672 94.032C32.264 94.944 32.56 96.032 32.56 97.296C32.56 98.544 32.264 99.624 31.672 100.536C31.08 101.448 30.24 102.152 29.152 102.648C28.064 103.128 26.768 103.368 25.264 103.368H20.152L21.88 101.616V108H17.992ZM21.88 102.048L20.152 100.2H25.048C26.248 100.2 27.144 99.944 27.736 99.432C28.328 98.92 28.624 98.208 28.624 97.296C28.624 96.368 28.328 95.648 27.736 95.136C27.144 94.624 26.248 94.368 25.048 94.368H20.152L21.88 92.52V102.048ZM43.3546 108V105.48L43.1146 104.928V100.416C43.1146 99.616 42.8666 98.992 42.3706 98.544C41.8906 98.096 41.1466 97.872 40.1386 97.872C39.4506 97.872 38.7706 97.984 38.0986 98.208C37.4426 98.416 36.8826 98.704 36.4186 99.072L35.0746 96.456C35.7786 95.96 36.6266 95.576 37.6186 95.304C38.6106 95.032 39.6186 94.896 40.6426 94.896C42.6106 94.896 44.1386 95.36 45.2266 96.288C46.3146 97.216 46.8586 98.664 46.8586 100.632V108H43.3546ZM39.4186 108.192C38.4106 108.192 37.5466 108.024 36.8266 107.688C36.1066 107.336 35.5546 106.864 35.1706 106.272C34.7866 105.68 34.5946 105.016 34.5946 104.28C34.5946 103.512 34.7786 102.84 35.1466 102.264C35.5306 101.688 36.1306 101.24 36.9466 100.92C37.7626 100.584 38.8266 100.416 40.1386 100.416H43.5706V102.6H40.5466C39.6666 102.6 39.0586 102.744 38.7226 103.032C38.4026 103.32 38.2426 103.68 38.2426 104.112C38.2426 104.592 38.4266 104.976 38.7946 105.264C39.1786 105.536 39.6986 105.672 40.3546 105.672C40.9786 105.672 41.5386 105.528 42.0346 105.24C42.5306 104.936 42.8906 104.496 43.1146 103.92L43.6906 105.648C43.4186 106.48 42.9226 107.112 42.2026 107.544C41.4826 107.976 40.5546 108.192 39.4186 108.192ZM56.0071 108.192C54.4871 108.192 53.3031 107.808 52.4551 107.04C51.6071 106.256 51.1831 105.096 51.1831 103.56V92.232H54.9271V103.512C54.9271 104.056 55.0711 104.48 55.3591 104.784C55.6471 105.072 56.0391 105.216 56.5351 105.216C57.1271 105.216 57.6311 105.056 58.0471 104.736L59.0551 107.376C58.6711 107.648 58.2071 107.856 57.6631 108C57.1351 108.128 56.5831 108.192 56.0071 108.192ZM49.1911 98.256V95.376H58.1431V98.256H49.1911ZM69.4847 94.896C70.5087 94.896 71.4207 95.104 72.2207 95.52C73.0367 95.92 73.6767 96.544 74.1407 97.392C74.6047 98.224 74.8367 99.296 74.8367 100.608V108H71.0927V101.184C71.0927 100.144 70.8607 99.376 70.3967 98.88C69.9487 98.384 69.3087 98.136 68.4767 98.136C67.8847 98.136 67.3487 98.264 66.8687 98.52C66.4047 98.76 66.0367 99.136 65.7647 99.648C65.5087 100.16 65.3807 100.816 65.3807 101.616V108H61.6367V90.192H65.3807V98.664L64.5407 97.584C65.0047 96.72 65.6687 96.056 66.5327 95.592C67.3967 95.128 68.3807 94.896 69.4847 94.896Z" fill="#333333"/>
<path d="M16.032 142L21.152 130.8H22.32L27.44 142H26.192L21.488 131.488H21.968L17.264 142H16.032ZM18.048 139.008L18.4 138.048H24.912L25.264 139.008H18.048ZM29.6127 142V130.8H30.5887L35.7088 139.536H35.1968L40.2688 130.8H41.2448V142H40.1088V132.576H40.3808L35.7088 140.576H35.1487L30.4447 132.576H30.7487V142H29.6127ZM48.302 142.096C47.47 142.096 46.67 141.963 45.902 141.696C45.1447 141.419 44.558 141.067 44.142 140.64L44.606 139.728C45.0007 140.112 45.5287 140.437 46.19 140.704C46.862 140.96 47.566 141.088 48.302 141.088C49.006 141.088 49.5767 141.003 50.014 140.832C50.462 140.651 50.7873 140.411 50.99 140.112C51.2033 139.813 51.31 139.483 51.31 139.12C51.31 138.683 51.182 138.331 50.926 138.064C50.6807 137.797 50.3553 137.589 49.95 137.44C49.5447 137.28 49.0967 137.141 48.606 137.024C48.1153 136.907 47.6247 136.784 47.134 136.656C46.6433 136.517 46.19 136.336 45.774 136.112C45.3687 135.888 45.038 135.595 44.782 135.232C44.5367 134.859 44.414 134.373 44.414 133.776C44.414 133.221 44.558 132.715 44.846 132.256C45.1447 131.787 45.598 131.413 46.206 131.136C46.814 130.848 47.5927 130.704 48.542 130.704C49.1713 130.704 49.7953 130.795 50.414 130.976C51.0327 131.147 51.566 131.387 52.014 131.696L51.614 132.64C51.134 132.32 50.622 132.085 50.078 131.936C49.5447 131.787 49.0273 131.712 48.526 131.712C47.854 131.712 47.2993 131.803 46.862 131.984C46.4247 132.165 46.0993 132.411 45.886 132.72C45.6833 133.019 45.582 133.36 45.582 133.744C45.582 134.181 45.7047 134.533 45.95 134.8C46.206 135.067 46.5367 135.275 46.942 135.424C47.358 135.573 47.8113 135.707 48.302 135.824C48.7927 135.941 49.278 136.069 49.758 136.208C50.2487 136.347 50.6967 136.528 51.102 136.752C51.518 136.965 51.8487 137.253 52.094 137.616C52.35 137.979 52.478 138.453 52.478 139.04C52.478 139.584 52.3287 140.091 52.03 140.56C51.7313 141.019 51.2727 141.392 50.654 141.68C50.046 141.957 49.262 142.096 48.302 142.096ZM63.1332 142.08C62.3012 142.08 61.5546 141.899 60.8932 141.536C60.2426 141.163 59.7306 140.656 59.3572 140.016C58.9839 139.365 58.7972 138.624 58.7972 137.792C58.7972 136.949 58.9839 136.208 59.3572 135.568C59.7306 134.928 60.2426 134.427 60.8932 134.064C61.5546 133.701 62.3012 133.52 63.1332 133.52C63.8479 133.52 64.4932 133.659 65.0692 133.936C65.6452 134.213 66.0986 134.629 66.4292 135.184L65.5812 135.76C65.2932 135.333 64.9359 135.019 64.5092 134.816C64.0826 134.613 63.6186 134.512 63.1172 134.512C62.5199 134.512 61.9812 134.651 61.5012 134.928C61.0212 135.195 60.6426 135.573 60.3652 136.064C60.0879 136.555 59.9492 137.131 59.9492 137.792C59.9492 138.453 60.0879 139.029 60.3652 139.52C60.6426 140.011 61.0212 140.395 61.5012 140.672C61.9812 140.939 62.5199 141.072 63.1172 141.072C63.6186 141.072 64.0826 140.971 64.5092 140.768C64.9359 140.565 65.2932 140.256 65.5812 139.84L66.4292 140.416C66.0986 140.96 65.6452 141.376 65.0692 141.664C64.4932 141.941 63.8479 142.08 63.1332 142.08ZM74.2449 142V140.144L74.1969 139.84V136.736C74.1969 136.021 73.9942 135.472 73.5889 135.088C73.1942 134.704 72.6022 134.512 71.8129 134.512C71.2689 134.512 70.7515 134.603 70.2609 134.784C69.7702 134.965 69.3542 135.205 69.0129 135.504L68.5009 134.656C68.9275 134.293 69.4395 134.016 70.0369 133.824C70.6342 133.621 71.2635 133.52 71.9249 133.52C73.0129 133.52 73.8502 133.792 74.4369 134.336C75.0342 134.869 75.3329 135.685 75.3329 136.784V142H74.2449ZM71.3489 142.08C70.7195 142.08 70.1702 141.979 69.7009 141.776C69.2422 141.563 68.8902 141.275 68.6449 140.912C68.3995 140.539 68.2769 140.112 68.2769 139.632C68.2769 139.195 68.3782 138.8 68.5809 138.448C68.7942 138.085 69.1355 137.797 69.6049 137.584C70.0849 137.36 70.7249 137.248 71.5249 137.248H74.4209V138.096H71.5569C70.7462 138.096 70.1809 138.24 69.8609 138.528C69.5515 138.816 69.3969 139.173 69.3969 139.6C69.3969 140.08 69.5835 140.464 69.9569 140.752C70.3302 141.04 70.8529 141.184 71.5249 141.184C72.1649 141.184 72.7142 141.04 73.1729 140.752C73.6422 140.453 73.9835 140.027 74.1969 139.472L74.4529 140.256C74.2395 140.811 73.8662 141.253 73.3329 141.584C72.8102 141.915 72.1489 142.08 71.3489 142.08ZM78.7384 142V133.6H79.8264V135.888L79.7144 135.488C79.949 134.848 80.3437 134.363 80.8984 134.032C81.453 133.691 82.141 133.52 82.9624 133.52V134.624C82.9197 134.624 82.877 134.624 82.8344 134.624C82.7917 134.613 82.749 134.608 82.7064 134.608C81.821 134.608 81.1277 134.88 80.6264 135.424C80.125 135.957 79.8744 136.72 79.8744 137.712V142H78.7384ZM88.8451 142.08C87.9705 142.08 87.2025 141.899 86.5411 141.536C85.8798 141.163 85.3625 140.656 84.9891 140.016C84.6158 139.365 84.4291 138.624 84.4291 137.792C84.4291 136.96 84.6051 136.224 84.9571 135.584C85.3198 134.944 85.8105 134.443 86.4291 134.08C87.0585 133.707 87.7625 133.52 88.5411 133.52C89.3305 133.52 90.0291 133.701 90.6371 134.064C91.2558 134.416 91.7411 134.917 92.0931 135.568C92.4451 136.208 92.6211 136.949 92.6211 137.792C92.6211 137.845 92.6158 137.904 92.6051 137.968C92.6051 138.021 92.6051 138.08 92.6051 138.144H85.2931V137.296H91.9971L91.5491 137.632C91.5491 137.024 91.4158 136.485 91.1491 136.016C90.8931 135.536 90.5411 135.163 90.0931 134.896C89.6451 134.629 89.1278 134.496 88.5411 134.496C87.9651 134.496 87.4478 134.629 86.9891 134.896C86.5305 135.163 86.1731 135.536 85.9171 136.016C85.6611 136.496 85.5331 137.045 85.5331 137.664V137.84C85.5331 138.48 85.6718 139.045 85.9491 139.536C86.2371 140.016 86.6318 140.395 87.1331 140.672C87.6451 140.939 88.2265 141.072 88.8771 141.072C89.3891 141.072 89.8638 140.981 90.3011 140.8C90.7491 140.619 91.1331 140.341 91.4531 139.968L92.0931 140.704C91.7198 141.152 91.2505 141.493 90.6851 141.728C90.1305 141.963 89.5171 142.08 88.8451 142.08ZM95.4454 142V132.544C95.4454 131.797 95.664 131.195 96.1014 130.736C96.5387 130.277 97.168 130.048 97.9894 130.048C98.3094 130.048 98.6187 130.091 98.9174 130.176C99.216 130.261 99.4667 130.395 99.6694 130.576L99.2854 131.424C99.1254 131.285 98.9387 131.184 98.7254 131.12C98.512 131.045 98.2827 131.008 98.0374 131.008C97.5574 131.008 97.1894 131.141 96.9334 131.408C96.6774 131.675 96.5494 132.069 96.5494 132.592V133.872L96.5814 134.4V142H95.4454ZM93.9414 134.544V133.6H99.1414V134.544H93.9414ZM104.467 142.08C103.753 142.08 103.129 141.947 102.595 141.68C102.062 141.413 101.646 141.013 101.347 140.48C101.059 139.947 100.915 139.28 100.915 138.48V133.6H102.051V138.352C102.051 139.248 102.27 139.925 102.707 140.384C103.155 140.832 103.779 141.056 104.579 141.056C105.166 141.056 105.673 140.939 106.099 140.704C106.537 140.459 106.867 140.107 107.091 139.648C107.326 139.189 107.443 138.64 107.443 138V133.6H108.579V142H107.491V139.696L107.667 140.112C107.401 140.731 106.985 141.216 106.419 141.568C105.865 141.909 105.214 142.08 104.467 142.08ZM112.065 142V130.128H113.201V142H112.065ZM116.682 142V130.128H117.818V142H116.682ZM121.363 145.184C120.968 145.184 120.59 145.12 120.227 144.992C119.875 144.864 119.571 144.672 119.315 144.416L119.843 143.568C120.056 143.771 120.286 143.925 120.531 144.032C120.787 144.149 121.07 144.208 121.379 144.208C121.752 144.208 122.072 144.101 122.339 143.888C122.616 143.685 122.878 143.323 123.123 142.8L123.667 141.568L123.795 141.392L127.251 133.6H128.371L124.163 143.008C123.928 143.552 123.667 143.984 123.379 144.304C123.102 144.624 122.798 144.848 122.467 144.976C122.136 145.115 121.768 145.184 121.363 145.184ZM123.603 142.24L119.731 133.6H120.915L124.339 141.312L123.603 142.24ZM137.054 142.08C136.361 142.08 135.705 141.984 135.086 141.792C134.468 141.589 133.982 141.339 133.63 141.04L134.142 140.144C134.484 140.4 134.921 140.624 135.454 140.816C135.988 140.997 136.548 141.088 137.134 141.088C137.934 141.088 138.51 140.965 138.862 140.72C139.214 140.464 139.39 140.128 139.39 139.712C139.39 139.403 139.289 139.163 139.086 138.992C138.894 138.811 138.638 138.677 138.318 138.592C137.998 138.496 137.641 138.416 137.246 138.352C136.852 138.288 136.457 138.213 136.062 138.128C135.678 138.043 135.326 137.92 135.006 137.76C134.686 137.589 134.425 137.36 134.222 137.072C134.03 136.784 133.934 136.4 133.934 135.92C133.934 135.461 134.062 135.051 134.318 134.688C134.574 134.325 134.948 134.043 135.438 133.84C135.94 133.627 136.548 133.52 137.262 133.52C137.806 133.52 138.35 133.595 138.894 133.744C139.438 133.883 139.886 134.069 140.238 134.304L139.742 135.216C139.369 134.96 138.969 134.779 138.542 134.672C138.116 134.555 137.689 134.496 137.262 134.496C136.505 134.496 135.945 134.629 135.582 134.896C135.23 135.152 135.054 135.483 135.054 135.888C135.054 136.208 135.15 136.459 135.342 136.64C135.545 136.821 135.806 136.965 136.126 137.072C136.457 137.168 136.814 137.248 137.198 137.312C137.593 137.376 137.982 137.456 138.366 137.552C138.761 137.637 139.118 137.76 139.438 137.92C139.769 138.069 140.03 138.288 140.222 138.576C140.425 138.853 140.526 139.221 140.526 139.68C140.526 140.171 140.388 140.597 140.11 140.96C139.844 141.312 139.449 141.589 138.926 141.792C138.414 141.984 137.79 142.08 137.054 142.08ZM146.499 142.08C145.624 142.08 144.856 141.899 144.195 141.536C143.534 141.163 143.016 140.656 142.643 140.016C142.27 139.365 142.083 138.624 142.083 137.792C142.083 136.96 142.259 136.224 142.611 135.584C142.974 134.944 143.464 134.443 144.083 134.08C144.712 133.707 145.416 133.52 146.195 133.52C146.984 133.52 147.683 133.701 148.291 134.064C148.91 134.416 149.395 134.917 149.747 135.568C150.099 136.208 150.275 136.949 150.275 137.792C150.275 137.845 150.27 137.904 150.259 137.968C150.259 138.021 150.259 138.08 150.259 138.144H142.947V137.296H149.651L149.203 137.632C149.203 137.024 149.07 136.485 148.803 136.016C148.547 135.536 148.195 135.163 147.747 134.896C147.299 134.629 146.782 134.496 146.195 134.496C145.619 134.496 145.102 134.629 144.643 134.896C144.184 135.163 143.827 135.536 143.571 136.016C143.315 136.496 143.187 137.045 143.187 137.664V137.84C143.187 138.48 143.326 139.045 143.603 139.536C143.891 140.016 144.286 140.395 144.787 140.672C145.299 140.939 145.88 141.072 146.531 141.072C147.043 141.072 147.518 140.981 147.955 140.8C148.403 140.619 148.787 140.341 149.107 139.968L149.747 140.704C149.374 141.152 148.904 141.493 148.339 141.728C147.784 141.963 147.171 142.08 146.499 142.08ZM152.907 142V130.128H154.043V142H152.907ZM161.092 142.08C160.217 142.08 159.449 141.899 158.788 141.536C158.127 141.163 157.609 140.656 157.236 140.016C156.863 139.365 156.676 138.624 156.676 137.792C156.676 136.96 156.852 136.224 157.204 135.584C157.567 134.944 158.057 134.443 158.676 134.08C159.305 133.707 160.009 133.52 160.788 133.52C161.577 133.52 162.276 133.701 162.884 134.064C163.503 134.416 163.988 134.917 164.34 135.568C164.692 136.208 164.868 136.949 164.868 137.792C164.868 137.845 164.863 137.904 164.852 137.968C164.852 138.021 164.852 138.08 164.852 138.144H157.54V137.296H164.244L163.796 137.632C163.796 137.024 163.663 136.485 163.396 136.016C163.14 135.536 162.788 135.163 162.34 134.896C161.892 134.629 161.375 134.496 160.788 134.496C160.212 134.496 159.695 134.629 159.236 134.896C158.777 135.163 158.42 135.536 158.164 136.016C157.908 136.496 157.78 137.045 157.78 137.664V137.84C157.78 138.48 157.919 139.045 158.196 139.536C158.484 140.016 158.879 140.395 159.38 140.672C159.892 140.939 160.473 141.072 161.124 141.072C161.636 141.072 162.111 140.981 162.548 140.8C162.996 140.619 163.38 140.341 163.7 139.968L164.34 140.704C163.967 141.152 163.497 141.493 162.932 141.728C162.377 141.963 161.764 142.08 161.092 142.08ZM170.988 142.08C170.156 142.08 169.41 141.899 168.748 141.536C168.098 141.163 167.586 140.656 167.212 140.016C166.839 139.365 166.652 138.624 166.652 137.792C166.652 136.949 166.839 136.208 167.212 135.568C167.586 134.928 168.098 134.427 168.748 134.064C169.41 133.701 170.156 133.52 170.988 133.52C171.703 133.52 172.348 133.659 172.924 133.936C173.5 134.213 173.954 134.629 174.284 135.184L173.436 135.76C173.148 135.333 172.791 135.019 172.364 134.816C171.938 134.613 171.474 134.512 170.972 134.512C170.375 134.512 169.836 134.651 169.356 134.928C168.876 135.195 168.498 135.573 168.22 136.064C167.943 136.555 167.804 137.131 167.804 137.792C167.804 138.453 167.943 139.029 168.22 139.52C168.498 140.011 168.876 140.395 169.356 140.672C169.836 140.939 170.375 141.072 170.972 141.072C171.474 141.072 171.938 140.971 172.364 140.768C172.791 140.565 173.148 140.256 173.436 139.84L174.284 140.416C173.954 140.96 173.5 141.376 172.924 141.664C172.348 141.941 171.703 142.08 170.988 142.08ZM179.586 142.08C178.796 142.08 178.188 141.867 177.762 141.44C177.335 141.013 177.122 140.411 177.122 139.632V131.744H178.258V139.568C178.258 140.059 178.38 140.437 178.626 140.704C178.882 140.971 179.244 141.104 179.714 141.104C180.215 141.104 180.631 140.96 180.962 140.672L181.362 141.488C181.138 141.691 180.866 141.84 180.546 141.936C180.236 142.032 179.916 142.08 179.586 142.08ZM175.618 134.544V133.6H180.818V134.544H175.618ZM186.006 142.08C185.312 142.08 184.656 141.984 184.038 141.792C183.419 141.589 182.934 141.339 182.582 141.04L183.094 140.144C183.435 140.4 183.872 140.624 184.406 140.816C184.939 140.997 185.499 141.088 186.086 141.088C186.886 141.088 187.462 140.965 187.814 140.72C188.166 140.464 188.342 140.128 188.342 139.712C188.342 139.403 188.24 139.163 188.038 138.992C187.846 138.811 187.59 138.677 187.27 138.592C186.95 138.496 186.592 138.416 186.198 138.352C185.803 138.288 185.408 138.213 185.014 138.128C184.63 138.043 184.278 137.92 183.958 137.76C183.638 137.589 183.376 137.36 183.174 137.072C182.982 136.784 182.886 136.4 182.886 135.92C182.886 135.461 183.014 135.051 183.27 134.688C183.526 134.325 183.899 134.043 184.39 133.84C184.891 133.627 185.499 133.52 186.214 133.52C186.758 133.52 187.302 133.595 187.846 133.744C188.39 133.883 188.838 134.069 189.19 134.304L188.694 135.216C188.32 134.96 187.92 134.779 187.494 134.672C187.067 134.555 186.64 134.496 186.214 134.496C185.456 134.496 184.896 134.629 184.534 134.896C184.182 135.152 184.006 135.483 184.006 135.888C184.006 136.208 184.102 136.459 184.294 136.64C184.496 136.821 184.758 136.965 185.078 137.072C185.408 137.168 185.766 137.248 186.15 137.312C186.544 137.376 186.934 137.456 187.318 137.552C187.712 137.637 188.07 137.76 188.39 137.92C188.72 138.069 188.982 138.288 189.174 138.576C189.376 138.853 189.478 139.221 189.478 139.68C189.478 140.171 189.339 140.597 189.062 140.96C188.795 141.312 188.4 141.589 187.878 141.792C187.366 141.984 186.742 142.08 186.006 142.08ZM199.046 142.08C198.256 142.08 197.648 141.867 197.222 141.44C196.795 141.013 196.582 140.411 196.582 139.632V131.744H197.718V139.568C197.718 140.059 197.84 140.437 198.086 140.704C198.342 140.971 198.704 141.104 199.174 141.104C199.675 141.104 200.091 140.96 200.422 140.672L200.822 141.488C200.598 141.691 200.326 141.84 200.006 141.936C199.696 142.032 199.376 142.08 199.046 142.08ZM195.078 134.544V133.6H200.278V134.544H195.078ZM207.498 133.52C208.18 133.52 208.778 133.653 209.29 133.92C209.812 134.176 210.218 134.571 210.506 135.104C210.804 135.637 210.954 136.309 210.954 137.12V142H209.818V137.232C209.818 136.347 209.594 135.68 209.146 135.232C208.708 134.773 208.09 134.544 207.29 134.544C206.692 134.544 206.17 134.667 205.722 134.912C205.284 135.147 204.943 135.493 204.698 135.952C204.463 136.4 204.346 136.944 204.346 137.584V142H203.21V130.128H204.346V135.904L204.122 135.472C204.388 134.864 204.815 134.389 205.402 134.048C205.988 133.696 206.687 133.52 207.498 133.52ZM217.91 142.08C217.035 142.08 216.267 141.899 215.606 141.536C214.945 141.163 214.427 140.656 214.054 140.016C213.681 139.365 213.494 138.624 213.494 137.792C213.494 136.96 213.67 136.224 214.022 135.584C214.385 134.944 214.875 134.443 215.494 134.08C216.123 133.707 216.827 133.52 217.606 133.52C218.395 133.52 219.094 133.701 219.702 134.064C220.321 134.416 220.806 134.917 221.158 135.568C221.51 136.208 221.686 136.949 221.686 137.792C221.686 137.845 221.681 137.904 221.67 137.968C221.67 138.021 221.67 138.08 221.67 138.144H214.358V137.296H221.062L220.614 137.632C220.614 137.024 220.481 136.485 220.214 136.016C219.958 135.536 219.606 135.163 219.158 134.896C218.71 134.629 218.193 134.496 217.606 134.496C217.03 134.496 216.513 134.629 216.054 134.896C215.595 135.163 215.238 135.536 214.982 136.016C214.726 136.496 214.598 137.045 214.598 137.664V137.84C214.598 138.48 214.737 139.045 215.014 139.536C215.302 140.016 215.697 140.395 216.198 140.672C216.71 140.939 217.291 141.072 217.942 141.072C218.454 141.072 218.929 140.981 219.366 140.8C219.814 140.619 220.198 140.341 220.518 139.968L221.158 140.704C220.785 141.152 220.315 141.493 219.75 141.728C219.195 141.963 218.582 142.08 217.91 142.08ZM231.242 142V131.824H227.306V130.8H236.362V131.824H232.426V142H231.242ZM240.882 142.08C240.072 142.08 239.341 141.899 238.69 141.536C238.05 141.163 237.544 140.656 237.17 140.016C236.797 139.365 236.61 138.624 236.61 137.792C236.61 136.949 236.797 136.208 237.17 135.568C237.544 134.928 238.05 134.427 238.69 134.064C239.33 133.701 240.061 133.52 240.882 133.52C241.714 133.52 242.45 133.701 243.09 134.064C243.741 134.427 244.248 134.928 244.61 135.568C244.984 136.208 245.17 136.949 245.17 137.792C245.17 138.624 244.984 139.365 244.61 140.016C244.248 140.656 243.741 141.163 243.09 141.536C242.44 141.899 241.704 142.08 240.882 142.08ZM240.882 141.072C241.49 141.072 242.029 140.939 242.498 140.672C242.968 140.395 243.336 140.011 243.602 139.52C243.88 139.019 244.018 138.443 244.018 137.792C244.018 137.131 243.88 136.555 243.602 136.064C243.336 135.573 242.968 135.195 242.498 134.928C242.029 134.651 241.496 134.512 240.898 134.512C240.301 134.512 239.768 134.651 239.298 134.928C238.829 135.195 238.456 135.573 238.178 136.064C237.901 136.555 237.762 137.131 237.762 137.792C237.762 138.443 237.901 139.019 238.178 139.52C238.456 140.011 238.829 140.395 239.298 140.672C239.768 140.939 240.296 141.072 240.882 141.072ZM252.146 142.08C251.42 142.08 250.764 141.915 250.178 141.584C249.591 141.243 249.122 140.757 248.77 140.128C248.428 139.488 248.258 138.709 248.258 137.792C248.258 136.875 248.428 136.101 248.77 135.472C249.111 134.832 249.575 134.347 250.162 134.016C250.748 133.685 251.41 133.52 252.146 133.52C252.946 133.52 253.66 133.701 254.29 134.064C254.93 134.416 255.431 134.917 255.794 135.568C256.156 136.208 256.338 136.949 256.338 137.792C256.338 138.645 256.156 139.392 255.794 140.032C255.431 140.672 254.93 141.173 254.29 141.536C253.66 141.899 252.946 142.08 252.146 142.08ZM247.81 145.104V133.6H248.898V136.128L248.786 137.808L248.946 139.504V145.104H247.81ZM252.066 141.072C252.663 141.072 253.196 140.939 253.666 140.672C254.135 140.395 254.508 140.011 254.786 139.52C255.063 139.019 255.202 138.443 255.202 137.792C255.202 137.141 255.063 136.571 254.786 136.08C254.508 135.589 254.135 135.205 253.666 134.928C253.196 134.651 252.663 134.512 252.066 134.512C251.468 134.512 250.93 134.651 250.45 134.928C249.98 135.205 249.607 135.589 249.33 136.08C249.063 136.571 248.93 137.141 248.93 137.792C248.93 138.443 249.063 139.019 249.33 139.52C249.607 140.011 249.98 140.395 250.45 140.672C250.93 140.939 251.468 141.072 252.066 141.072ZM262.521 142V141.184L267.177 136.624C267.604 136.208 267.924 135.845 268.137 135.536C268.35 135.216 268.494 134.917 268.569 134.64C268.644 134.363 268.681 134.101 268.681 133.856C268.681 133.205 268.457 132.693 268.009 132.32C267.572 131.947 266.921 131.76 266.057 131.76C265.396 131.76 264.809 131.861 264.297 132.064C263.796 132.267 263.364 132.581 263.001 133.008L262.185 132.304C262.622 131.792 263.182 131.397 263.865 131.12C264.548 130.843 265.31 130.704 266.153 130.704C266.91 130.704 267.566 130.827 268.121 131.072C268.676 131.307 269.102 131.653 269.401 132.112C269.71 132.571 269.865 133.109 269.865 133.728C269.865 134.091 269.812 134.448 269.705 134.8C269.609 135.152 269.428 135.525 269.161 135.92C268.905 136.304 268.526 136.741 268.025 137.232L263.753 141.424L263.433 140.976H270.377V142H262.521ZM273.803 142L281.451 130.8H282.395L274.747 142H273.803ZM274.667 136.8C274.166 136.8 273.723 136.677 273.339 136.432C272.955 136.176 272.656 135.819 272.443 135.36C272.24 134.901 272.139 134.368 272.139 133.76C272.139 133.152 272.24 132.619 272.443 132.16C272.656 131.701 272.955 131.349 273.339 131.104C273.723 130.848 274.166 130.72 274.667 130.72C275.168 130.72 275.606 130.848 275.979 131.104C276.363 131.349 276.662 131.701 276.875 132.16C277.088 132.619 277.195 133.152 277.195 133.76C277.195 134.368 277.088 134.901 276.875 135.36C276.662 135.819 276.363 136.176 275.979 136.432C275.606 136.677 275.168 136.8 274.667 136.8ZM274.667 136.08C275.19 136.08 275.606 135.877 275.915 135.472C276.235 135.056 276.395 134.485 276.395 133.76C276.395 133.035 276.235 132.469 275.915 132.064C275.606 131.648 275.19 131.44 274.667 131.44C274.134 131.44 273.712 131.648 273.403 132.064C273.094 132.469 272.939 133.035 272.939 133.76C272.939 134.485 273.094 135.056 273.403 135.472C273.712 135.877 274.134 136.08 274.667 136.08ZM281.531 142.08C281.04 142.08 280.603 141.957 280.219 141.712C279.835 141.456 279.536 141.099 279.323 140.64C279.11 140.181 279.003 139.648 279.003 139.04C279.003 138.432 279.11 137.899 279.323 137.44C279.536 136.981 279.835 136.629 280.219 136.384C280.603 136.128 281.04 136 281.531 136C282.043 136 282.486 136.128 282.859 136.384C283.243 136.629 283.536 136.981 283.739 137.44C283.952 137.899 284.059 138.432 284.059 139.04C284.059 139.648 283.952 140.181 283.739 140.64C283.536 141.099 283.243 141.456 282.859 141.712C282.486 141.957 282.043 142.08 281.531 142.08ZM281.531 141.36C282.054 141.36 282.47 141.157 282.779 140.752C283.099 140.336 283.259 139.765 283.259 139.04C283.259 138.315 283.099 137.749 282.779 137.344C282.47 136.928 282.054 136.72 281.531 136.72C281.008 136.72 280.587 136.928 280.267 137.344C279.958 137.749 279.803 138.315 279.803 139.04C279.803 139.765 279.958 140.336 280.267 140.752C280.587 141.157 281.008 141.36 281.531 141.36ZM294.568 142.08C293.757 142.08 293.027 141.899 292.376 141.536C291.736 141.163 291.229 140.656 290.856 140.016C290.483 139.365 290.296 138.624 290.296 137.792C290.296 136.949 290.483 136.208 290.856 135.568C291.229 134.928 291.736 134.427 292.376 134.064C293.016 133.701 293.747 133.52 294.568 133.52C295.4 133.52 296.136 133.701 296.776 134.064C297.427 134.427 297.933 134.928 298.296 135.568C298.669 136.208 298.856 136.949 298.856 137.792C298.856 138.624 298.669 139.365 298.296 140.016C297.933 140.656 297.427 141.163 296.776 141.536C296.125 141.899 295.389 142.08 294.568 142.08ZM294.568 141.072C295.176 141.072 295.715 140.939 296.184 140.672C296.653 140.395 297.021 140.011 297.288 139.52C297.565 139.019 297.704 138.443 297.704 137.792C297.704 137.131 297.565 136.555 297.288 136.064C297.021 135.573 296.653 135.195 296.184 134.928C295.715 134.651 295.181 134.512 294.584 134.512C293.987 134.512 293.453 134.651 292.984 134.928C292.515 135.195 292.141 135.573 291.864 136.064C291.587 136.555 291.448 137.131 291.448 137.792C291.448 138.443 291.587 139.019 291.864 139.52C292.141 140.011 292.515 140.395 292.984 140.672C293.453 140.939 293.981 141.072 294.568 141.072ZM301.687 142V132.544C301.687 131.797 301.906 131.195 302.343 130.736C302.781 130.277 303.41 130.048 304.231 130.048C304.551 130.048 304.861 130.091 305.159 130.176C305.458 130.261 305.709 130.395 305.911 130.576L305.527 131.424C305.367 131.285 305.181 131.184 304.967 131.12C304.754 131.045 304.525 131.008 304.279 131.008C303.799 131.008 303.431 131.141 303.175 131.408C302.919 131.675 302.791 132.069 302.791 132.592V133.872L302.823 134.4V142H301.687ZM300.183 134.544V133.6H305.383V134.544H300.183ZM314.401 142.08C313.611 142.08 313.003 141.867 312.577 141.44C312.15 141.013 311.937 140.411 311.937 139.632V131.744H313.073V139.568C313.073 140.059 313.195 140.437 313.441 140.704C313.697 140.971 314.059 141.104 314.529 141.104C315.03 141.104 315.446 140.96 315.777 140.672L316.177 141.488C315.953 141.691 315.681 141.84 315.361 141.936C315.051 142.032 314.731 142.08 314.401 142.08ZM310.433 134.544V133.6H315.633V134.544H310.433ZM321.836 142.08C320.961 142.08 320.193 141.899 319.532 141.536C318.87 141.163 318.353 140.656 317.98 140.016C317.606 139.365 317.42 138.624 317.42 137.792C317.42 136.96 317.596 136.224 317.948 135.584C318.31 134.944 318.801 134.443 319.42 134.08C320.049 133.707 320.753 133.52 321.532 133.52C322.321 133.52 323.02 133.701 323.628 134.064C324.246 134.416 324.732 134.917 325.084 135.568C325.436 136.208 325.612 136.949 325.612 137.792C325.612 137.845 325.606 137.904 325.596 137.968C325.596 138.021 325.596 138.08 325.596 138.144H318.284V137.296H324.988L324.54 137.632C324.54 137.024 324.406 136.485 324.14 136.016C323.884 135.536 323.532 135.163 323.084 134.896C322.636 134.629 322.118 134.496 321.532 134.496C320.956 134.496 320.438 134.629 319.98 134.896C319.521 135.163 319.164 135.536 318.908 136.016C318.652 136.496 318.524 137.045 318.524 137.664V137.84C318.524 138.48 318.662 139.045 318.94 139.536C319.228 140.016 319.622 140.395 320.124 140.672C320.636 140.939 321.217 141.072 321.868 141.072C322.38 141.072 322.854 140.981 323.292 140.8C323.74 140.619 324.124 140.341 324.444 139.968L325.084 140.704C324.71 141.152 324.241 141.493 323.676 141.728C323.121 141.963 322.508 142.08 321.836 142.08ZM331.732 142.08C330.9 142.08 330.153 141.899 329.492 141.536C328.841 141.163 328.329 140.656 327.956 140.016C327.583 139.365 327.396 138.624 327.396 137.792C327.396 136.949 327.583 136.208 327.956 135.568C328.329 134.928 328.841 134.427 329.492 134.064C330.153 133.701 330.9 133.52 331.732 133.52C332.447 133.52 333.092 133.659 333.668 133.936C334.244 134.213 334.697 134.629 335.028 135.184L334.18 135.76C333.892 135.333 333.535 135.019 333.108 134.816C332.681 134.613 332.217 134.512 331.716 134.512C331.119 134.512 330.58 134.651 330.1 134.928C329.62 135.195 329.241 135.573 328.964 136.064C328.687 136.555 328.548 137.131 328.548 137.792C328.548 138.453 328.687 139.029 328.964 139.52C329.241 140.011 329.62 140.395 330.1 140.672C330.58 140.939 331.119 141.072 331.716 141.072C332.217 141.072 332.681 140.971 333.108 140.768C333.535 140.565 333.892 140.256 334.18 139.84L335.028 140.416C334.697 140.96 334.244 141.376 333.668 141.664C333.092 141.941 332.447 142.08 331.732 142.08ZM341.743 133.52C342.425 133.52 343.023 133.653 343.535 133.92C344.057 134.176 344.463 134.571 344.751 135.104C345.049 135.637 345.199 136.309 345.199 137.12V142H344.063V137.232C344.063 136.347 343.839 135.68 343.391 135.232C342.953 134.773 342.335 134.544 341.535 134.544C340.937 134.544 340.415 134.667 339.967 134.912C339.529 135.147 339.188 135.493 338.943 135.952C338.708 136.4 338.591 136.944 338.591 137.584V142H337.455V130.128H338.591V135.904L338.367 135.472C338.633 134.864 339.06 134.389 339.647 134.048C340.233 133.696 340.932 133.52 341.743 133.52ZM355.751 142.08C354.961 142.08 354.353 141.867 353.927 141.44C353.5 141.013 353.287 140.411 353.287 139.632V131.744H354.423V139.568C354.423 140.059 354.545 140.437 354.791 140.704C355.047 140.971 355.409 141.104 355.879 141.104C356.38 141.104 356.796 140.96 357.127 140.672L357.527 141.488C357.303 141.691 357.031 141.84 356.711 141.936C356.401 142.032 356.081 142.08 355.751 142.08ZM351.783 134.544V133.6H356.983V134.544H351.783ZM365.179 142V140.144L365.131 139.84V136.736C365.131 136.021 364.928 135.472 364.523 135.088C364.128 134.704 363.536 134.512 362.747 134.512C362.203 134.512 361.685 134.603 361.195 134.784C360.704 134.965 360.288 135.205 359.947 135.504L359.435 134.656C359.861 134.293 360.373 134.016 360.971 133.824C361.568 133.621 362.197 133.52 362.859 133.52C363.947 133.52 364.784 133.792 365.371 134.336C365.968 134.869 366.267 135.685 366.267 136.784V142H365.179ZM362.283 142.08C361.653 142.08 361.104 141.979 360.635 141.776C360.176 141.563 359.824 141.275 359.579 140.912C359.333 140.539 359.211 140.112 359.211 139.632C359.211 139.195 359.312 138.8 359.515 138.448C359.728 138.085 360.069 137.797 360.539 137.584C361.019 137.36 361.659 137.248 362.459 137.248H365.355V138.096H362.491C361.68 138.096 361.115 138.24 360.795 138.528C360.485 138.816 360.331 139.173 360.331 139.6C360.331 140.08 360.517 140.464 360.891 140.752C361.264 141.04 361.787 141.184 362.459 141.184C363.099 141.184 363.648 141.04 364.107 140.752C364.576 140.453 364.917 140.027 365.131 139.472L365.387 140.256C365.173 140.811 364.8 141.253 364.267 141.584C363.744 141.915 363.083 142.08 362.283 142.08ZM369.672 142V130.128H370.808V142H369.672ZM377.857 142.08C376.982 142.08 376.214 141.899 375.553 141.536C374.892 141.163 374.374 140.656 374.001 140.016C373.628 139.365 373.441 138.624 373.441 137.792C373.441 136.96 373.617 136.224 373.969 135.584C374.332 134.944 374.822 134.443 375.441 134.08C376.07 133.707 376.774 133.52 377.553 133.52C378.342 133.52 379.041 133.701 379.649 134.064C380.268 134.416 380.753 134.917 381.105 135.568C381.457 136.208 381.633 136.949 381.633 137.792C381.633 137.845 381.628 137.904 381.617 137.968C381.617 138.021 381.617 138.08 381.617 138.144H374.305V137.296H381.009L380.561 137.632C380.561 137.024 380.428 136.485 380.161 136.016C379.905 135.536 379.553 135.163 379.105 134.896C378.657 134.629 378.14 134.496 377.553 134.496C376.977 134.496 376.46 134.629 376.001 134.896C375.542 135.163 375.185 135.536 374.929 136.016C374.673 136.496 374.545 137.045 374.545 137.664V137.84C374.545 138.48 374.684 139.045 374.961 139.536C375.249 140.016 375.644 140.395 376.145 140.672C376.657 140.939 377.238 141.072 377.889 141.072C378.401 141.072 378.876 140.981 379.313 140.8C379.761 140.619 380.145 140.341 380.465 139.968L381.105 140.704C380.732 141.152 380.262 141.493 379.697 141.728C379.142 141.963 378.529 142.08 377.857 142.08ZM388.553 133.52C389.236 133.52 389.833 133.653 390.345 133.92C390.868 134.176 391.273 134.571 391.561 135.104C391.86 135.637 392.009 136.309 392.009 137.12V142H390.873V137.232C390.873 136.347 390.649 135.68 390.201 135.232C389.764 134.773 389.145 134.544 388.345 134.544C387.748 134.544 387.225 134.667 386.777 134.912C386.34 135.147 385.999 135.493 385.753 135.952C385.519 136.4 385.401 136.944 385.401 137.584V142H384.265V133.6H385.353V135.904L385.177 135.472C385.444 134.864 385.871 134.389 386.457 134.048C387.044 133.696 387.743 133.52 388.553 133.52ZM398.054 142.08C397.264 142.08 396.656 141.867 396.23 141.44C395.803 141.013 395.59 140.411 395.59 139.632V131.744H396.726V139.568C396.726 140.059 396.848 140.437 397.094 140.704C397.35 140.971 397.712 141.104 398.182 141.104C398.683 141.104 399.099 140.96 399.43 140.672L399.83 141.488C399.606 141.691 399.334 141.84 399.014 141.936C398.704 142.032 398.384 142.08 398.054 142.08ZM394.086 134.544V133.6H399.286V134.544H394.086ZM404.474 142.08C403.78 142.08 403.124 141.984 402.506 141.792C401.887 141.589 401.402 141.339 401.05 141.04L401.562 140.144C401.903 140.4 402.34 140.624 402.874 140.816C403.407 140.997 403.967 141.088 404.554 141.088C405.354 141.088 405.93 140.965 406.282 140.72C406.634 140.464 406.81 140.128 406.81 139.712C406.81 139.403 406.708 139.163 406.506 138.992C406.314 138.811 406.058 138.677 405.738 138.592C405.418 138.496 405.06 138.416 404.666 138.352C404.271 138.288 403.876 138.213 403.482 138.128C403.098 138.043 402.746 137.92 402.426 137.76C402.106 137.589 401.844 137.36 401.642 137.072C401.45 136.784 401.354 136.4 401.354 135.92C401.354 135.461 401.482 135.051 401.738 134.688C401.994 134.325 402.367 134.043 402.858 133.84C403.359 133.627 403.967 133.52 404.682 133.52C405.226 133.52 405.77 133.595 406.314 133.744C406.858 133.883 407.306 134.069 407.658 134.304L407.162 135.216C406.788 134.96 406.388 134.779 405.962 134.672C405.535 134.555 405.108 134.496 404.682 134.496C403.924 134.496 403.364 134.629 403.002 134.896C402.65 135.152 402.474 135.483 402.474 135.888C402.474 136.208 402.57 136.459 402.762 136.64C402.964 136.821 403.226 136.965 403.546 137.072C403.876 137.168 404.234 137.248 404.618 137.312C405.012 137.376 405.402 137.456 405.786 137.552C406.18 137.637 406.538 137.76 406.858 137.92C407.188 138.069 407.45 138.288 407.642 138.576C407.844 138.853 407.946 139.221 407.946 139.68C407.946 140.171 407.807 140.597 407.53 140.96C407.263 141.312 406.868 141.589 406.346 141.792C405.834 141.984 405.21 142.08 404.474 142.08ZM22.848 162V160.144L22.8 159.84V156.736C22.8 156.021 22.5973 155.472 22.192 155.088C21.7973 154.704 21.2053 154.512 20.416 154.512C19.872 154.512 19.3547 154.603 18.864 154.784C18.3733 154.965 17.9573 155.205 17.616 155.504L17.104 154.656C17.5307 154.293 18.0427 154.016 18.64 153.824C19.2373 153.621 19.8667 153.52 20.528 153.52C21.616 153.52 22.4533 153.792 23.04 154.336C23.6373 154.869 23.936 155.685 23.936 156.784V162H22.848ZM19.952 162.08C19.3227 162.08 18.7733 161.979 18.304 161.776C17.8453 161.563 17.4933 161.275 17.248 160.912C17.0027 160.539 16.88 160.112 16.88 159.632C16.88 159.195 16.9813 158.8 17.184 158.448C17.3973 158.085 17.7387 157.797 18.208 157.584C18.688 157.36 19.328 157.248 20.128 157.248H23.024V158.096H20.16C19.3493 158.096 18.784 158.24 18.464 158.528C18.1547 158.816 18 159.173 18 159.6C18 160.08 18.1867 160.464 18.56 160.752C18.9333 161.04 19.456 161.184 20.128 161.184C20.768 161.184 21.3173 161.04 21.776 160.752C22.2453 160.453 22.5867 160.027 22.8 159.472L23.056 160.256C22.8427 160.811 22.4693 161.253 21.936 161.584C21.4133 161.915 20.752 162.08 19.952 162.08ZM31.6295 153.52C32.3122 153.52 32.9095 153.653 33.4215 153.92C33.9442 154.176 34.3495 154.571 34.6375 155.104C34.9362 155.637 35.0855 156.309 35.0855 157.12V162H33.9495V157.232C33.9495 156.347 33.7255 155.68 33.2775 155.232C32.8402 154.773 32.2215 154.544 31.4215 154.544C30.8242 154.544 30.3015 154.667 29.8535 154.912C29.4162 155.147 29.0748 155.493 28.8295 155.952C28.5948 156.4 28.4775 156.944 28.4775 157.584V162H27.3415V153.6H28.4295V155.904L28.2535 155.472C28.5202 154.864 28.9468 154.389 29.5335 154.048C30.1202 153.696 30.8188 153.52 31.6295 153.52ZM41.818 162.08C41.018 162.08 40.298 161.899 39.658 161.536C39.0287 161.173 38.5327 160.672 38.17 160.032C37.8073 159.381 37.626 158.635 37.626 157.792C37.626 156.939 37.8073 156.192 38.17 155.552C38.5327 154.912 39.0287 154.416 39.658 154.064C40.298 153.701 41.018 153.52 41.818 153.52C42.554 153.52 43.21 153.685 43.786 154.016C44.3727 154.347 44.8367 154.832 45.178 155.472C45.53 156.101 45.706 156.875 45.706 157.792C45.706 158.699 45.5353 159.472 45.194 160.112C44.8527 160.752 44.3887 161.243 43.802 161.584C43.226 161.915 42.5647 162.08 41.818 162.08ZM41.898 161.072C42.4953 161.072 43.0287 160.939 43.498 160.672C43.978 160.395 44.3513 160.011 44.618 159.52C44.8953 159.019 45.034 158.443 45.034 157.792C45.034 157.131 44.8953 156.555 44.618 156.064C44.3513 155.573 43.978 155.195 43.498 154.928C43.0287 154.651 42.4953 154.512 41.898 154.512C41.3113 154.512 40.7833 154.651 40.314 154.928C39.8447 155.195 39.4713 155.573 39.194 156.064C38.9167 156.555 38.778 157.131 38.778 157.792C38.778 158.443 38.9167 159.019 39.194 159.52C39.4713 160.011 39.8447 160.395 40.314 160.672C40.7833 160.939 41.3113 161.072 41.898 161.072ZM45.066 162V159.472L45.178 157.776L45.018 156.08V150.128H46.154V162H45.066ZM57.5692 162.08C56.7586 162.08 56.0279 161.899 55.3772 161.536C54.7372 161.163 54.2306 160.656 53.8572 160.016C53.4839 159.365 53.2972 158.624 53.2972 157.792C53.2972 156.949 53.4839 156.208 53.8572 155.568C54.2306 154.928 54.7372 154.427 55.3772 154.064C56.0172 153.701 56.7479 153.52 57.5692 153.52C58.4012 153.52 59.1372 153.701 59.7772 154.064C60.4279 154.427 60.9346 154.928 61.2972 155.568C61.6706 156.208 61.8572 156.949 61.8572 157.792C61.8572 158.624 61.6706 159.365 61.2972 160.016C60.9346 160.656 60.4279 161.163 59.7772 161.536C59.1266 161.899 58.3906 162.08 57.5692 162.08ZM57.5692 161.072C58.1772 161.072 58.7159 160.939 59.1852 160.672C59.6546 160.395 60.0226 160.011 60.2892 159.52C60.5666 159.019 60.7052 158.443 60.7052 157.792C60.7052 157.131 60.5666 156.555 60.2892 156.064C60.0226 155.573 59.6546 155.195 59.1852 154.928C58.7159 154.651 58.1826 154.512 57.5852 154.512C56.9879 154.512 56.4546 154.651 55.9852 154.928C55.5159 155.195 55.1426 155.573 54.8652 156.064C54.5879 156.555 54.4492 157.131 54.4492 157.792C54.4492 158.443 54.5879 159.019 54.8652 159.52C55.1426 160.011 55.5159 160.395 55.9852 160.672C56.4546 160.939 56.9826 161.072 57.5692 161.072ZM64.6885 162V152.544C64.6885 151.797 64.9072 151.195 65.3445 150.736C65.7818 150.277 66.4112 150.048 67.2325 150.048C67.5525 150.048 67.8618 150.091 68.1605 150.176C68.4592 150.261 68.7098 150.395 68.9125 150.576L68.5285 151.424C68.3685 151.285 68.1818 151.184 67.9685 151.12C67.7552 151.045 67.5258 151.008 67.2805 151.008C66.8005 151.008 66.4325 151.141 66.1765 151.408C65.9205 151.675 65.7925 152.069 65.7925 152.592V153.872L65.8245 154.4V162H64.6885ZM63.1845 154.544V153.6H68.3845V154.544H63.1845ZM70.4616 162V152.544C70.4616 151.797 70.6803 151.195 71.1176 150.736C71.555 150.277 72.1843 150.048 73.0056 150.048C73.3256 150.048 73.635 150.091 73.9336 150.176C74.2323 150.261 74.483 150.395 74.6856 150.576L74.3016 151.424C74.1416 151.285 73.955 151.184 73.7416 151.12C73.5283 151.045 73.299 151.008 73.0536 151.008C72.5736 151.008 72.2056 151.141 71.9496 151.408C71.6936 151.675 71.5656 152.069 71.5656 152.592V153.872L71.5976 154.4V162H70.4616ZM68.9576 154.544V153.6H74.1576V154.544H68.9576ZM79.4389 162.08C78.5642 162.08 77.7962 161.899 77.1349 161.536C76.4735 161.163 75.9562 160.656 75.5829 160.016C75.2095 159.365 75.0229 158.624 75.0229 157.792C75.0229 156.96 75.1989 156.224 75.5509 155.584C75.9135 154.944 76.4042 154.443 77.0229 154.08C77.6522 153.707 78.3562 153.52 79.1349 153.52C79.9242 153.52 80.6229 153.701 81.2309 154.064C81.8495 154.416 82.3349 154.917 82.6869 155.568C83.0389 156.208 83.2149 156.949 83.2149 157.792C83.2149 157.845 83.2095 157.904 83.1989 157.968C83.1989 158.021 83.1989 158.08 83.1989 158.144H75.8869V157.296H82.5909L82.1429 157.632C82.1429 157.024 82.0095 156.485 81.7429 156.016C81.4869 155.536 81.1349 155.163 80.6869 154.896C80.2389 154.629 79.7215 154.496 79.1349 154.496C78.5589 154.496 78.0415 154.629 77.5829 154.896C77.1242 155.163 76.7669 155.536 76.5109 156.016C76.2549 156.496 76.1269 157.045 76.1269 157.664V157.84C76.1269 158.48 76.2655 159.045 76.5429 159.536C76.8309 160.016 77.2255 160.395 77.7269 160.672C78.2389 160.939 78.8202 161.072 79.4709 161.072C79.9829 161.072 80.4575 160.981 80.8949 160.8C81.3429 160.619 81.7269 160.341 82.0469 159.968L82.6869 160.704C82.3135 161.152 81.8442 161.493 81.2789 161.728C80.7242 161.963 80.1109 162.08 79.4389 162.08ZM85.8471 162V153.6H86.9351V155.888L86.8231 155.488C87.0578 154.848 87.4525 154.363 88.0071 154.032C88.5618 153.691 89.2498 153.52 90.0711 153.52V154.624C90.0285 154.624 89.9858 154.624 89.9431 154.624C89.9005 154.613 89.8578 154.608 89.8151 154.608C88.9298 154.608 88.2365 154.88 87.7351 155.424C87.2338 155.957 86.9831 156.72 86.9831 157.712V162H85.8471ZM94.8137 162.08C94.1204 162.08 93.4644 161.984 92.8457 161.792C92.2271 161.589 91.7417 161.339 91.3897 161.04L91.9017 160.144C92.2431 160.4 92.6804 160.624 93.2137 160.816C93.7471 160.997 94.3071 161.088 94.8937 161.088C95.6937 161.088 96.2697 160.965 96.6217 160.72C96.9737 160.464 97.1497 160.128 97.1497 159.712C97.1497 159.403 97.0484 159.163 96.8457 158.992C96.6537 158.811 96.3977 158.677 96.0777 158.592C95.7577 158.496 95.4004 158.416 95.0057 158.352C94.6111 158.288 94.2164 158.213 93.8217 158.128C93.4377 158.043 93.0857 157.92 92.7657 157.76C92.4457 157.589 92.1844 157.36 91.9817 157.072C91.7897 156.784 91.6937 156.4 91.6937 155.92C91.6937 155.461 91.8217 155.051 92.0777 154.688C92.3337 154.325 92.7071 154.043 93.1977 153.84C93.6991 153.627 94.3071 153.52 95.0217 153.52C95.5657 153.52 96.1097 153.595 96.6537 153.744C97.1977 153.883 97.6457 154.069 97.9977 154.304L97.5017 155.216C97.1284 154.96 96.7284 154.779 96.3017 154.672C95.8751 154.555 95.4484 154.496 95.0217 154.496C94.2644 154.496 93.7044 154.629 93.3417 154.896C92.9897 155.152 92.8137 155.483 92.8137 155.888C92.8137 156.208 92.9097 156.459 93.1017 156.64C93.3044 156.821 93.5657 156.965 93.8857 157.072C94.2164 157.168 94.5737 157.248 94.9577 157.312C95.3524 157.376 95.7417 157.456 96.1257 157.552C96.5204 157.637 96.8777 157.76 97.1977 157.92C97.5284 158.069 97.7897 158.288 97.9817 158.576C98.1844 158.853 98.2857 159.221 98.2857 159.68C98.2857 160.171 98.1471 160.597 97.8697 160.96C97.6031 161.312 97.2084 161.589 96.6857 161.792C96.1737 161.984 95.5497 162.08 94.8137 162.08ZM107.854 162.08C107.064 162.08 106.456 161.867 106.03 161.44C105.603 161.013 105.39 160.411 105.39 159.632V151.744H106.526V159.568C106.526 160.059 106.648 160.437 106.894 160.704C107.15 160.971 107.512 161.104 107.982 161.104C108.483 161.104 108.899 160.96 109.23 160.672L109.63 161.488C109.406 161.691 109.134 161.84 108.814 161.936C108.504 162.032 108.184 162.08 107.854 162.08ZM103.886 154.544V153.6H109.086V154.544H103.886ZM116.306 153.52C116.988 153.52 117.586 153.653 118.098 153.92C118.62 154.176 119.026 154.571 119.314 155.104C119.612 155.637 119.762 156.309 119.762 157.12V162H118.626V157.232C118.626 156.347 118.402 155.68 117.954 155.232C117.516 154.773 116.898 154.544 116.098 154.544C115.5 154.544 114.978 154.667 114.53 154.912C114.092 155.147 113.751 155.493 113.506 155.952C113.271 156.4 113.154 156.944 113.154 157.584V162H112.018V150.128H113.154V155.904L112.93 155.472C113.196 154.864 113.623 154.389 114.21 154.048C114.796 153.696 115.495 153.52 116.306 153.52ZM126.718 162.08C125.844 162.08 125.076 161.899 124.414 161.536C123.753 161.163 123.236 160.656 122.862 160.016C122.489 159.365 122.302 158.624 122.302 157.792C122.302 156.96 122.478 156.224 122.83 155.584C123.193 154.944 123.684 154.443 124.302 154.08C124.932 153.707 125.636 153.52 126.414 153.52C127.204 153.52 127.902 153.701 128.51 154.064C129.129 154.416 129.614 154.917 129.966 155.568C130.318 156.208 130.494 156.949 130.494 157.792C130.494 157.845 130.489 157.904 130.478 157.968C130.478 158.021 130.478 158.08 130.478 158.144H123.166V157.296H129.87L129.422 157.632C129.422 157.024 129.289 156.485 129.022 156.016C128.766 155.536 128.414 155.163 127.966 154.896C127.518 154.629 127.001 154.496 126.414 154.496C125.838 154.496 125.321 154.629 124.862 154.896C124.404 155.163 124.046 155.536 123.79 156.016C123.534 156.496 123.406 157.045 123.406 157.664V157.84C123.406 158.48 123.545 159.045 123.822 159.536C124.11 160.016 124.505 160.395 125.006 160.672C125.518 160.939 126.1 161.072 126.75 161.072C127.262 161.072 127.737 160.981 128.174 160.8C128.622 160.619 129.006 160.341 129.326 159.968L129.966 160.704C129.593 161.152 129.124 161.493 128.558 161.728C128.004 161.963 127.39 162.08 126.718 162.08ZM143.623 153.52C144.305 153.52 144.897 153.653 145.399 153.92C145.911 154.176 146.305 154.571 146.583 155.104C146.871 155.637 147.015 156.309 147.015 157.12V162H145.879V157.232C145.879 156.347 145.665 155.68 145.239 155.232C144.823 154.773 144.231 154.544 143.463 154.544C142.887 154.544 142.385 154.667 141.959 154.912C141.543 155.147 141.217 155.493 140.983 155.952C140.759 156.4 140.647 156.944 140.647 157.584V162H139.511V157.232C139.511 156.347 139.297 155.68 138.871 155.232C138.444 154.773 137.847 154.544 137.079 154.544C136.513 154.544 136.017 154.667 135.591 154.912C135.164 155.147 134.833 155.493 134.599 155.952C134.375 156.4 134.263 156.944 134.263 157.584V162H133.127V153.6H134.215V155.872L134.039 155.472C134.295 154.864 134.705 154.389 135.271 154.048C135.847 153.696 136.524 153.52 137.303 153.52C138.124 153.52 138.823 153.728 139.399 154.144C139.975 154.549 140.348 155.163 140.519 155.984L140.071 155.808C140.316 155.125 140.748 154.576 141.367 154.16C141.996 153.733 142.748 153.52 143.623 153.52ZM156.635 162L153.467 153.6H154.555L157.435 161.392H156.939L159.899 153.6H160.875L163.803 161.392H163.307L166.235 153.6H167.275L164.091 162H163.019L160.203 154.672H160.539L157.707 162H156.635ZM173.593 153.52C174.276 153.52 174.873 153.653 175.385 153.92C175.908 154.176 176.313 154.571 176.601 155.104C176.9 155.637 177.049 156.309 177.049 157.12V162H175.913V157.232C175.913 156.347 175.689 155.68 175.241 155.232C174.804 154.773 174.185 154.544 173.385 154.544C172.788 154.544 172.265 154.667 171.817 154.912C171.38 155.147 171.039 155.493 170.793 155.952C170.559 156.4 170.441 156.944 170.441 157.584V162H169.305V150.128H170.441V155.904L170.217 155.472C170.484 154.864 170.911 154.389 171.497 154.048C172.084 153.696 172.783 153.52 173.593 153.52ZM185.702 162V160.144L185.654 159.84V156.736C185.654 156.021 185.451 155.472 185.046 155.088C184.651 154.704 184.059 154.512 183.27 154.512C182.726 154.512 182.208 154.603 181.718 154.784C181.227 154.965 180.811 155.205 180.47 155.504L179.958 154.656C180.384 154.293 180.896 154.016 181.494 153.824C182.091 153.621 182.72 153.52 183.382 153.52C184.47 153.52 185.307 153.792 185.894 154.336C186.491 154.869 186.79 155.685 186.79 156.784V162H185.702ZM182.806 162.08C182.176 162.08 181.627 161.979 181.158 161.776C180.699 161.563 180.347 161.275 180.102 160.912C179.856 160.539 179.734 160.112 179.734 159.632C179.734 159.195 179.835 158.8 180.038 158.448C180.251 158.085 180.592 157.797 181.062 157.584C181.542 157.36 182.182 157.248 182.982 157.248H185.878V158.096H183.014C182.203 158.096 181.638 158.24 181.318 158.528C181.008 158.816 180.854 159.173 180.854 159.6C180.854 160.08 181.04 160.464 181.414 160.752C181.787 161.04 182.31 161.184 182.982 161.184C183.622 161.184 184.171 161.04 184.63 160.752C185.099 160.453 185.44 160.027 185.654 159.472L185.91 160.256C185.696 160.811 185.323 161.253 184.79 161.584C184.267 161.915 183.606 162.08 182.806 162.08ZM192.851 162.08C192.062 162.08 191.454 161.867 191.027 161.44C190.601 161.013 190.387 160.411 190.387 159.632V151.744H191.523V159.568C191.523 160.059 191.646 160.437 191.891 160.704C192.147 160.971 192.51 161.104 192.979 161.104C193.481 161.104 193.897 160.96 194.227 160.672L194.627 161.488C194.403 161.691 194.131 161.84 193.811 161.936C193.502 162.032 193.182 162.08 192.851 162.08ZM188.883 154.544V153.6H194.083V154.544H188.883ZM200.286 162.08C199.412 162.08 198.644 161.899 197.982 161.536C197.321 161.163 196.804 160.656 196.43 160.016C196.057 159.365 195.87 158.624 195.87 157.792C195.87 156.96 196.046 156.224 196.398 155.584C196.761 154.944 197.252 154.443 197.87 154.08C198.5 153.707 199.204 153.52 199.982 153.52C200.772 153.52 201.47 153.701 202.078 154.064C202.697 154.416 203.182 154.917 203.534 155.568C203.886 156.208 204.062 156.949 204.062 157.792C204.062 157.845 204.057 157.904 204.046 157.968C204.046 158.021 204.046 158.08 204.046 158.144H196.734V157.296H203.438L202.99 157.632C202.99 157.024 202.857 156.485 202.59 156.016C202.334 155.536 201.982 155.163 201.534 154.896C201.086 154.629 200.569 154.496 199.982 154.496C199.406 154.496 198.889 154.629 198.43 154.896C197.972 155.163 197.614 155.536 197.358 156.016C197.102 156.496 196.974 157.045 196.974 157.664V157.84C196.974 158.48 197.113 159.045 197.39 159.536C197.678 160.016 198.073 160.395 198.574 160.672C199.086 160.939 199.668 161.072 200.318 161.072C200.83 161.072 201.305 160.981 201.742 160.8C202.19 160.619 202.574 160.341 202.894 159.968L203.534 160.704C203.161 161.152 202.692 161.493 202.126 161.728C201.572 161.963 200.958 162.08 200.286 162.08ZM208.698 162L204.97 153.6H206.154L209.578 161.392H209.018L212.49 153.6H213.61L209.866 162H208.698ZM218.864 162.08C217.989 162.08 217.221 161.899 216.56 161.536C215.899 161.163 215.381 160.656 215.008 160.016C214.635 159.365 214.448 158.624 214.448 157.792C214.448 156.96 214.624 156.224 214.976 155.584C215.339 154.944 215.829 154.443 216.448 154.08C217.077 153.707 217.781 153.52 218.56 153.52C219.349 153.52 220.048 153.701 220.656 154.064C221.275 154.416 221.76 154.917 222.112 155.568C222.464 156.208 222.64 156.949 222.64 157.792C222.64 157.845 222.635 157.904 222.624 157.968C222.624 158.021 222.624 158.08 222.624 158.144H215.312V157.296H222.016L221.568 157.632C221.568 157.024 221.435 156.485 221.168 156.016C220.912 155.536 220.56 155.163 220.112 154.896C219.664 154.629 219.147 154.496 218.56 154.496C217.984 154.496 217.467 154.629 217.008 154.896C216.549 155.163 216.192 155.536 215.936 156.016C215.68 156.496 215.552 157.045 215.552 157.664V157.84C215.552 158.48 215.691 159.045 215.968 159.536C216.256 160.016 216.651 160.395 217.152 160.672C217.664 160.939 218.245 161.072 218.896 161.072C219.408 161.072 219.883 160.981 220.32 160.8C220.768 160.619 221.152 160.341 221.472 159.968L222.112 160.704C221.739 161.152 221.269 161.493 220.704 161.728C220.149 161.963 219.536 162.08 218.864 162.08ZM225.272 162V153.6H226.36V155.888L226.248 155.488C226.483 154.848 226.877 154.363 227.432 154.032C227.987 153.691 228.675 153.52 229.496 153.52V154.624C229.453 154.624 229.411 154.624 229.368 154.624C229.325 154.613 229.283 154.608 229.24 154.608C228.355 154.608 227.661 154.88 227.16 155.424C226.659 155.957 226.408 156.72 226.408 157.712V162H225.272ZM236.522 162V153.6H237.658V162H236.522ZM237.098 151.744C236.863 151.744 236.666 151.664 236.506 151.504C236.346 151.344 236.266 151.152 236.266 150.928C236.266 150.704 236.346 150.517 236.506 150.368C236.666 150.208 236.863 150.128 237.098 150.128C237.332 150.128 237.53 150.203 237.69 150.352C237.85 150.501 237.93 150.688 237.93 150.912C237.93 151.147 237.85 151.344 237.69 151.504C237.54 151.664 237.343 151.744 237.098 151.744ZM243.394 162.08C242.701 162.08 242.045 161.984 241.426 161.792C240.808 161.589 240.322 161.339 239.97 161.04L240.482 160.144C240.824 160.4 241.261 160.624 241.794 160.816C242.328 160.997 242.888 161.088 243.474 161.088C244.274 161.088 244.85 160.965 245.202 160.72C245.554 160.464 245.73 160.128 245.73 159.712C245.73 159.403 245.629 159.163 245.426 158.992C245.234 158.811 244.978 158.677 244.658 158.592C244.338 158.496 243.981 158.416 243.586 158.352C243.192 158.288 242.797 158.213 242.402 158.128C242.018 158.043 241.666 157.92 241.346 157.76C241.026 157.589 240.765 157.36 240.562 157.072C240.37 156.784 240.274 156.4 240.274 155.92C240.274 155.461 240.402 155.051 240.658 154.688C240.914 154.325 241.288 154.043 241.778 153.84C242.28 153.627 242.888 153.52 243.602 153.52C244.146 153.52 244.69 153.595 245.234 153.744C245.778 153.883 246.226 154.069 246.578 154.304L246.082 155.216C245.709 154.96 245.309 154.779 244.882 154.672C244.456 154.555 244.029 154.496 243.602 154.496C242.845 154.496 242.285 154.629 241.922 154.896C241.57 155.152 241.394 155.483 241.394 155.888C241.394 156.208 241.49 156.459 241.682 156.64C241.885 156.821 242.146 156.965 242.466 157.072C242.797 157.168 243.154 157.248 243.538 157.312C243.933 157.376 244.322 157.456 244.706 157.552C245.101 157.637 245.458 157.76 245.778 157.92C246.109 158.069 246.37 158.288 246.562 158.576C246.765 158.853 246.866 159.221 246.866 159.68C246.866 160.171 246.728 160.597 246.45 160.96C246.184 161.312 245.789 161.589 245.266 161.792C244.754 161.984 244.13 162.08 243.394 162.08ZM258.066 153.52C258.749 153.52 259.346 153.653 259.858 153.92C260.381 154.176 260.786 154.571 261.074 155.104C261.373 155.637 261.522 156.309 261.522 157.12V162H260.386V157.232C260.386 156.347 260.162 155.68 259.714 155.232C259.277 154.773 258.658 154.544 257.858 154.544C257.261 154.544 256.738 154.667 256.29 154.912C255.853 155.147 255.512 155.493 255.266 155.952C255.032 156.4 254.914 156.944 254.914 157.584V162H253.778V153.6H254.866V155.904L254.69 155.472C254.957 154.864 255.384 154.389 255.97 154.048C256.557 153.696 257.256 153.52 258.066 153.52ZM268.479 162.08C267.604 162.08 266.836 161.899 266.175 161.536C265.514 161.163 264.996 160.656 264.623 160.016C264.25 159.365 264.063 158.624 264.063 157.792C264.063 156.96 264.239 156.224 264.591 155.584C264.954 154.944 265.444 154.443 266.063 154.08C266.692 153.707 267.396 153.52 268.175 153.52C268.964 153.52 269.663 153.701 270.271 154.064C270.89 154.416 271.375 154.917 271.727 155.568C272.079 156.208 272.255 156.949 272.255 157.792C272.255 157.845 272.25 157.904 272.239 157.968C272.239 158.021 272.239 158.08 272.239 158.144H264.927V157.296H271.631L271.183 157.632C271.183 157.024 271.05 156.485 270.783 156.016C270.527 155.536 270.175 155.163 269.727 154.896C269.279 154.629 268.762 154.496 268.175 154.496C267.599 154.496 267.082 154.629 266.623 154.896C266.164 155.163 265.807 155.536 265.551 156.016C265.295 156.496 265.167 157.045 265.167 157.664V157.84C265.167 158.48 265.306 159.045 265.583 159.536C265.871 160.016 266.266 160.395 266.767 160.672C267.279 160.939 267.86 161.072 268.511 161.072C269.023 161.072 269.498 160.981 269.935 160.8C270.383 160.619 270.767 160.341 271.087 159.968L271.727 160.704C271.354 161.152 270.884 161.493 270.319 161.728C269.764 161.963 269.151 162.08 268.479 162.08ZM278.455 162.08C277.58 162.08 276.812 161.899 276.151 161.536C275.49 161.163 274.972 160.656 274.599 160.016C274.226 159.365 274.039 158.624 274.039 157.792C274.039 156.96 274.215 156.224 274.567 155.584C274.93 154.944 275.42 154.443 276.039 154.08C276.668 153.707 277.372 153.52 278.151 153.52C278.94 153.52 279.639 153.701 280.247 154.064C280.866 154.416 281.351 154.917 281.703 155.568C282.055 156.208 282.231 156.949 282.231 157.792C282.231 157.845 282.226 157.904 282.215 157.968C282.215 158.021 282.215 158.08 282.215 158.144H274.903V157.296H281.607L281.159 157.632C281.159 157.024 281.026 156.485 280.759 156.016C280.503 155.536 280.151 155.163 279.703 154.896C279.255 154.629 278.738 154.496 278.151 154.496C277.575 154.496 277.058 154.629 276.599 154.896C276.14 155.163 275.783 155.536 275.527 156.016C275.271 156.496 275.143 157.045 275.143 157.664V157.84C275.143 158.48 275.282 159.045 275.559 159.536C275.847 160.016 276.242 160.395 276.743 160.672C277.255 160.939 277.836 161.072 278.487 161.072C278.999 161.072 279.474 160.981 279.911 160.8C280.359 160.619 280.743 160.341 281.063 159.968L281.703 160.704C281.33 161.152 280.86 161.493 280.295 161.728C279.74 161.963 279.127 162.08 278.455 162.08ZM288.207 162.08C287.407 162.08 286.687 161.899 286.047 161.536C285.418 161.173 284.922 160.672 284.559 160.032C284.197 159.381 284.015 158.635 284.015 157.792C284.015 156.939 284.197 156.192 284.559 155.552C284.922 154.912 285.418 154.416 286.047 154.064C286.687 153.701 287.407 153.52 288.207 153.52C288.943 153.52 289.599 153.685 290.175 154.016C290.762 154.347 291.226 154.832 291.567 155.472C291.919 156.101 292.095 156.875 292.095 157.792C292.095 158.699 291.925 159.472 291.583 160.112C291.242 160.752 290.778 161.243 290.191 161.584C289.615 161.915 288.954 162.08 288.207 162.08ZM288.287 161.072C288.885 161.072 289.418 160.939 289.887 160.672C290.367 160.395 290.741 160.011 291.007 159.52C291.285 159.019 291.423 158.443 291.423 157.792C291.423 157.131 291.285 156.555 291.007 156.064C290.741 155.573 290.367 155.195 289.887 154.928C289.418 154.651 288.885 154.512 288.287 154.512C287.701 154.512 287.173 154.651 286.703 154.928C286.234 155.195 285.861 155.573 285.583 156.064C285.306 156.555 285.167 157.131 285.167 157.792C285.167 158.443 285.306 159.019 285.583 159.52C285.861 160.011 286.234 160.395 286.703 160.672C287.173 160.939 287.701 161.072 288.287 161.072ZM291.455 162V159.472L291.567 157.776L291.407 156.08V150.128H292.543V162H291.455ZM299.595 162.08C298.72 162.08 297.952 161.899 297.291 161.536C296.63 161.163 296.112 160.656 295.739 160.016C295.366 159.365 295.179 158.624 295.179 157.792C295.179 156.96 295.355 156.224 295.707 155.584C296.07 154.944 296.56 154.443 297.179 154.08C297.808 153.707 298.512 153.52 299.291 153.52C300.08 153.52 300.779 153.701 301.387 154.064C302.006 154.416 302.491 154.917 302.843 155.568C303.195 156.208 303.371 156.949 303.371 157.792C303.371 157.845 303.366 157.904 303.355 157.968C303.355 158.021 303.355 158.08 303.355 158.144H296.043V157.296H302.747L302.299 157.632C302.299 157.024 302.166 156.485 301.899 156.016C301.643 155.536 301.291 155.163 300.843 154.896C300.395 154.629 299.878 154.496 299.291 154.496C298.715 154.496 298.198 154.629 297.739 154.896C297.28 155.163 296.923 155.536 296.667 156.016C296.411 156.496 296.283 157.045 296.283 157.664V157.84C296.283 158.48 296.422 159.045 296.699 159.536C296.987 160.016 297.382 160.395 297.883 160.672C298.395 160.939 298.976 161.072 299.627 161.072C300.139 161.072 300.614 160.981 301.051 160.8C301.499 160.619 301.883 160.341 302.203 159.968L302.843 160.704C302.47 161.152 302 161.493 301.435 161.728C300.88 161.963 300.267 162.08 299.595 162.08ZM309.347 162.08C308.547 162.08 307.827 161.899 307.187 161.536C306.558 161.173 306.062 160.672 305.699 160.032C305.337 159.381 305.155 158.635 305.155 157.792C305.155 156.939 305.337 156.192 305.699 155.552C306.062 154.912 306.558 154.416 307.187 154.064C307.827 153.701 308.547 153.52 309.347 153.52C310.083 153.52 310.739 153.685 311.315 154.016C311.902 154.347 312.366 154.832 312.707 155.472C313.059 156.101 313.235 156.875 313.235 157.792C313.235 158.699 313.065 159.472 312.723 160.112C312.382 160.752 311.918 161.243 311.331 161.584C310.755 161.915 310.094 162.08 309.347 162.08ZM309.427 161.072C310.025 161.072 310.558 160.939 311.027 160.672C311.507 160.395 311.881 160.011 312.147 159.52C312.425 159.019 312.563 158.443 312.563 157.792C312.563 157.131 312.425 156.555 312.147 156.064C311.881 155.573 311.507 155.195 311.027 154.928C310.558 154.651 310.025 154.512 309.427 154.512C308.841 154.512 308.313 154.651 307.843 154.928C307.374 155.195 307.001 155.573 306.723 156.064C306.446 156.555 306.307 157.131 306.307 157.792C306.307 158.443 306.446 159.019 306.723 159.52C307.001 160.011 307.374 160.395 307.843 160.672C308.313 160.939 308.841 161.072 309.427 161.072ZM312.595 162V159.472L312.707 157.776L312.547 156.08V150.128H313.683V162H312.595ZM321.867 162V152.544C321.867 151.797 322.085 151.195 322.523 150.736C322.96 150.277 323.589 150.048 324.411 150.048C324.731 150.048 325.04 150.091 325.339 150.176C325.637 150.261 325.888 150.395 326.091 150.576L325.707 151.424C325.547 151.285 325.36 151.184 325.147 151.12C324.933 151.045 324.704 151.008 324.459 151.008C323.979 151.008 323.611 151.141 323.355 151.408C323.099 151.675 322.971 152.069 322.971 152.592V153.872L323.003 154.4V162H321.867ZM320.363 154.544V153.6H325.563V154.544H320.363ZM330.7 162.08C329.889 162.08 329.159 161.899 328.508 161.536C327.868 161.163 327.361 160.656 326.988 160.016C326.615 159.365 326.428 158.624 326.428 157.792C326.428 156.949 326.615 156.208 326.988 155.568C327.361 154.928 327.868 154.427 328.508 154.064C329.148 153.701 329.879 153.52 330.7 153.52C331.532 153.52 332.268 153.701 332.908 154.064C333.559 154.427 334.065 154.928 334.428 155.568C334.801 156.208 334.988 156.949 334.988 157.792C334.988 158.624 334.801 159.365 334.428 160.016C334.065 160.656 333.559 161.163 332.908 161.536C332.257 161.899 331.521 162.08 330.7 162.08ZM330.7 161.072C331.308 161.072 331.847 160.939 332.316 160.672C332.785 160.395 333.153 160.011 333.42 159.52C333.697 159.019 333.836 158.443 333.836 157.792C333.836 157.131 333.697 156.555 333.42 156.064C333.153 155.573 332.785 155.195 332.316 154.928C331.847 154.651 331.313 154.512 330.716 154.512C330.119 154.512 329.585 154.651 329.116 154.928C328.647 155.195 328.273 155.573 327.996 156.064C327.719 156.555 327.58 157.131 327.58 157.792C327.58 158.443 327.719 159.019 327.996 159.52C328.273 160.011 328.647 160.395 329.116 160.672C329.585 160.939 330.113 161.072 330.7 161.072ZM337.627 162V153.6H338.715V155.888L338.603 155.488C338.838 154.848 339.232 154.363 339.787 154.032C340.342 153.691 341.03 153.52 341.851 153.52V154.624C341.808 154.624 341.766 154.624 341.723 154.624C341.68 154.613 341.638 154.608 341.595 154.608C340.71 154.608 340.016 154.88 339.515 155.424C339.014 155.957 338.763 156.72 338.763 157.712V162H337.627ZM351.533 162.08C350.743 162.08 350.135 161.867 349.709 161.44C349.282 161.013 349.069 160.411 349.069 159.632V151.744H350.205V159.568C350.205 160.059 350.327 160.437 350.573 160.704C350.829 160.971 351.191 161.104 351.661 161.104C352.162 161.104 352.578 160.96 352.909 160.672L353.309 161.488C353.085 161.691 352.813 161.84 352.493 161.936C352.183 162.032 351.863 162.08 351.533 162.08ZM347.565 154.544V153.6H352.765V154.544H347.565ZM359.984 153.52C360.667 153.52 361.264 153.653 361.776 153.92C362.299 154.176 362.704 154.571 362.992 155.104C363.291 155.637 363.44 156.309 363.44 157.12V162H362.304V157.232C362.304 156.347 362.08 155.68 361.632 155.232C361.195 154.773 360.576 154.544 359.776 154.544C359.179 154.544 358.656 154.667 358.208 154.912C357.771 155.147 357.43 155.493 357.184 155.952C356.95 156.4 356.832 156.944 356.832 157.584V162H355.696V150.128H356.832V155.904L356.608 155.472C356.875 154.864 357.302 154.389 357.888 154.048C358.475 153.696 359.174 153.52 359.984 153.52ZM370.397 162.08C369.522 162.08 368.754 161.899 368.093 161.536C367.432 161.163 366.914 160.656 366.541 160.016C366.168 159.365 365.981 158.624 365.981 157.792C365.981 156.96 366.157 156.224 366.509 155.584C366.872 154.944 367.362 154.443 367.981 154.08C368.61 153.707 369.314 153.52 370.093 153.52C370.882 153.52 371.581 153.701 372.189 154.064C372.808 154.416 373.293 154.917 373.645 155.568C373.997 156.208 374.173 156.949 374.173 157.792C374.173 157.845 374.168 157.904 374.157 157.968C374.157 158.021 374.157 158.08 374.157 158.144H366.845V157.296H373.549L373.101 157.632C373.101 157.024 372.968 156.485 372.701 156.016C372.445 155.536 372.093 155.163 371.645 154.896C371.197 154.629 370.68 154.496 370.093 154.496C369.517 154.496 369 154.629 368.541 154.896C368.082 155.163 367.725 155.536 367.469 156.016C367.213 156.496 367.085 157.045 367.085 157.664V157.84C367.085 158.48 367.224 159.045 367.501 159.536C367.789 160.016 368.184 160.395 368.685 160.672C369.197 160.939 369.778 161.072 370.429 161.072C370.941 161.072 371.416 160.981 371.853 160.8C372.301 160.619 372.685 160.341 373.005 159.968L373.645 160.704C373.272 161.152 372.802 161.493 372.237 161.728C371.682 161.963 371.069 162.08 370.397 162.08ZM387.301 153.52C387.984 153.52 388.576 153.653 389.077 153.92C389.589 154.176 389.984 154.571 390.261 155.104C390.549 155.637 390.693 156.309 390.693 157.12V162H389.557V157.232C389.557 156.347 389.344 155.68 388.917 155.232C388.501 154.773 387.909 154.544 387.141 154.544C386.565 154.544 386.064 154.667 385.637 154.912C385.221 155.147 384.896 155.493 384.661 155.952C384.437 156.4 384.325 156.944 384.325 157.584V162H383.189V157.232C383.189 156.347 382.976 155.68 382.549 155.232C382.123 154.773 381.525 154.544 380.757 154.544C380.192 154.544 379.696 154.667 379.269 154.912C378.843 155.147 378.512 155.493 378.277 155.952C378.053 156.4 377.941 156.944 377.941 157.584V162H376.805V153.6H377.893V155.872L377.717 155.472C377.973 154.864 378.384 154.389 378.949 154.048C379.525 153.696 380.203 153.52 380.981 153.52C381.803 153.52 382.501 153.728 383.077 154.144C383.653 154.549 384.027 155.163 384.197 155.984L383.749 155.808C383.995 155.125 384.427 154.576 385.045 154.16C385.675 153.733 386.427 153.52 387.301 153.52ZM401.257 162.08C400.468 162.08 399.86 161.867 399.433 161.44C399.007 161.013 398.793 160.411 398.793 159.632V151.744H399.929V159.568C399.929 160.059 400.052 160.437 400.297 160.704C400.553 160.971 400.916 161.104 401.385 161.104C401.887 161.104 402.303 160.96 402.633 160.672L403.033 161.488C402.809 161.691 402.537 161.84 402.217 161.936C401.908 162.032 401.588 162.08 401.257 162.08ZM397.289 154.544V153.6H402.489V154.544H397.289ZM408.549 162.08C407.738 162.08 407.007 161.899 406.357 161.536C405.717 161.163 405.21 160.656 404.837 160.016C404.463 159.365 404.277 158.624 404.277 157.792C404.277 156.949 404.463 156.208 404.837 155.568C405.21 154.928 405.717 154.427 406.357 154.064C406.997 153.701 407.727 153.52 408.549 153.52C409.381 153.52 410.117 153.701 410.757 154.064C411.407 154.427 411.914 154.928 412.277 155.568C412.65 156.208 412.837 156.949 412.837 157.792C412.837 158.624 412.65 159.365 412.277 160.016C411.914 160.656 411.407 161.163 410.757 161.536C410.106 161.899 409.37 162.08 408.549 162.08ZM408.549 161.072C409.157 161.072 409.695 160.939 410.165 160.672C410.634 160.395 411.002 160.011 411.269 159.52C411.546 159.019 411.685 158.443 411.685 157.792C411.685 157.131 411.546 156.555 411.269 156.064C411.002 155.573 410.634 155.195 410.165 154.928C409.695 154.651 409.162 154.512 408.565 154.512C407.967 154.512 407.434 154.651 406.965 154.928C406.495 155.195 406.122 155.573 405.845 156.064C405.567 156.555 405.429 157.131 405.429 157.792C405.429 158.443 405.567 159.019 405.845 159.52C406.122 160.011 406.495 160.395 406.965 160.672C407.434 160.939 407.962 161.072 408.549 161.072ZM21.168 185.184C20.4 185.184 19.664 185.072 18.96 184.848C18.256 184.624 17.6853 184.304 17.248 183.888L17.824 183.024C18.2187 183.376 18.704 183.653 19.28 183.856C19.8667 184.069 20.4853 184.176 21.136 184.176C22.2027 184.176 22.9867 183.925 23.488 183.424C23.9893 182.933 24.24 182.165 24.24 181.12V179.024L24.4 177.584L24.288 176.144V173.6H25.376V180.976C25.376 182.427 25.0187 183.488 24.304 184.16C23.6 184.843 22.5547 185.184 21.168 185.184ZM20.96 181.68C20.16 181.68 19.44 181.509 18.8 181.168C18.16 180.816 17.6533 180.331 17.28 179.712C16.9173 179.093 16.736 178.384 16.736 177.584C16.736 176.784 16.9173 176.08 17.28 175.472C17.6533 174.853 18.16 174.373 18.8 174.032C19.44 173.691 20.16 173.52 20.96 173.52C21.7067 173.52 22.3787 173.675 22.976 173.984C23.5733 174.293 24.048 174.752 24.4 175.36C24.752 175.968 24.928 176.709 24.928 177.584C24.928 178.459 24.752 179.2 24.4 179.808C24.048 180.416 23.5733 180.88 22.976 181.2C22.3787 181.52 21.7067 181.68 20.96 181.68ZM21.072 180.672C21.6907 180.672 22.24 180.544 22.72 180.288C23.2 180.021 23.5787 179.659 23.856 179.2C24.1333 178.731 24.272 178.192 24.272 177.584C24.272 176.976 24.1333 176.443 23.856 175.984C23.5787 175.525 23.2 175.168 22.72 174.912C22.24 174.645 21.6907 174.512 21.072 174.512C20.464 174.512 19.9147 174.645 19.424 174.912C18.944 175.168 18.5653 175.525 18.288 175.984C18.0213 176.443 17.888 176.976 17.888 177.584C17.888 178.192 18.0213 178.731 18.288 179.2C18.5653 179.659 18.944 180.021 19.424 180.288C19.9147 180.544 20.464 180.672 21.072 180.672ZM28.8571 182V173.6H29.9451V175.888L29.8331 175.488C30.0678 174.848 30.4625 174.363 31.0171 174.032C31.5718 173.691 32.2598 173.52 33.0811 173.52V174.624C33.0385 174.624 32.9958 174.624 32.9531 174.624C32.9105 174.613 32.8678 174.608 32.8251 174.608C31.9398 174.608 31.2465 174.88 30.7451 175.424C30.2438 175.957 29.9931 176.72 29.9931 177.712V182H28.8571ZM38.8199 182.08C38.0092 182.08 37.2785 181.899 36.6279 181.536C35.9879 181.163 35.4812 180.656 35.1079 180.016C34.7345 179.365 34.5479 178.624 34.5479 177.792C34.5479 176.949 34.7345 176.208 35.1079 175.568C35.4812 174.928 35.9879 174.427 36.6279 174.064C37.2679 173.701 37.9985 173.52 38.8199 173.52C39.6519 173.52 40.3879 173.701 41.0279 174.064C41.6785 174.427 42.1852 174.928 42.5479 175.568C42.9212 176.208 43.1079 176.949 43.1079 177.792C43.1079 178.624 42.9212 179.365 42.5479 180.016C42.1852 180.656 41.6785 181.163 41.0279 181.536C40.3772 181.899 39.6412 182.08 38.8199 182.08ZM38.8199 181.072C39.4279 181.072 39.9665 180.939 40.4359 180.672C40.9052 180.395 41.2732 180.011 41.5399 179.52C41.8172 179.019 41.9559 178.443 41.9559 177.792C41.9559 177.131 41.8172 176.555 41.5399 176.064C41.2732 175.573 40.9052 175.195 40.4359 174.928C39.9665 174.651 39.4332 174.512 38.8359 174.512C38.2385 174.512 37.7052 174.651 37.2359 174.928C36.7665 175.195 36.3932 175.573 36.1159 176.064C35.8385 176.555 35.6999 177.131 35.6999 177.792C35.6999 178.443 35.8385 179.019 36.1159 179.52C36.3932 180.011 36.7665 180.395 37.2359 180.672C37.7052 180.939 38.2332 181.072 38.8199 181.072ZM47.2247 182L44.0567 173.6H45.1447L48.0247 181.392H47.5287L50.4887 173.6H51.4647L54.3927 181.392H53.8967L56.8247 173.6H57.8647L54.6807 182H53.6087L50.7927 174.672H51.1287L48.2967 182H47.2247ZM59.4604 182.08C59.2257 182.08 59.023 181.995 58.8524 181.824C58.6924 181.653 58.6124 181.445 58.6124 181.2C58.6124 180.944 58.6924 180.736 58.8524 180.576C59.023 180.416 59.2257 180.336 59.4604 180.336C59.695 180.336 59.8924 180.416 60.0524 180.576C60.223 180.736 60.3084 180.944 60.3084 181.2C60.3084 181.445 60.223 181.653 60.0524 181.824C59.8924 181.995 59.695 182.08 59.4604 182.08Z" fill="#666666"/>
<defs>
<clipPath id="clip0_167_158687">
<rect width="32" height="32" fill="white" transform="translate(16)"/>
</clipPath>
</defs>
</svg>
