<svg width="32" height="32" viewBox="0 0 32 32" fill="none" xmlns="http://www.w3.org/2000/svg">
<path d="M14.453 20C14.453 20.3542 14.328 20.6562 14.078 20.9062L11.0624 23.9219C10.8124 24.1719 10.5051 24.2969 10.1405 24.2969C9.77593 24.2969 9.46864 24.1771 9.21864 23.9375C8.96864 23.6979 8.84364 23.3906 8.84364 23.0156C8.84364 22.651 8.96864 22.3438 9.21864 22.0938L12.2343 19.0781C12.4843 18.8281 12.7916 18.7031 13.1561 18.7031C13.5207 18.7031 13.828 18.8281 14.078 19.0781C14.328 19.3281 14.453 19.6354 14.453 20ZM11.2499 18.375C11.2499 18.7396 11.1249 19.0469 10.8749 19.2969L8.64052 21.5156C8.39052 21.7656 8.08843 21.8906 7.73427 21.8906C7.36968 21.8906 7.06239 21.7708 6.81239 21.5312C6.56239 21.2917 6.43739 20.9844 6.43739 20.6094C6.43739 20.2448 6.56239 19.9375 6.81239 19.6875L9.03114 17.4531C9.14573 17.3385 9.28635 17.25 9.45302 17.1875C9.61968 17.125 9.78635 17.0885 9.95302 17.0781C10.3176 17.0781 10.6249 17.2031 10.8749 17.4531C11.1249 17.7031 11.2499 18.0104 11.2499 18.375ZM16.6405 22.6406C16.6405 22.9844 16.5103 23.2865 16.2499 23.5469L13.4686 26.3281C13.2186 26.5781 12.9114 26.7031 12.5468 26.7031C12.1822 26.7031 11.8749 26.5833 11.6249 26.3438C11.3749 26.1042 11.2499 25.7969 11.2499 25.4219C11.2499 25.0573 11.3749 24.75 11.6249 24.5L14.4218 21.7188C14.6822 21.4583 14.9843 21.3281 15.328 21.3281C15.6822 21.3281 15.9895 21.4531 16.2499 21.7031C16.5103 21.9531 16.6405 22.2656 16.6405 22.6406ZM14.953 29.125C14.5884 29.125 14.2811 29 14.0311 28.75C13.7811 28.5 13.6561 28.1927 13.6561 27.8281C13.6561 27.4635 13.7811 27.1562 14.0311 26.9062L16.1405 24.8125C16.4009 24.5521 16.7082 24.4219 17.0624 24.4219C17.427 24.4219 17.7343 24.5521 17.9843 24.8125C18.2343 25.0729 18.3593 25.3854 18.3593 25.75C18.3593 25.9167 18.3228 26.0781 18.2499 26.2344C18.177 26.3906 18.0832 26.526 17.9686 26.6406L15.8749 28.75C15.6249 29 15.3176 29.125 14.953 29.125ZM29.9999 11.1094C29.9999 12.026 29.8801 12.8281 29.6405 13.5156C29.4009 14.2031 29.078 14.8438 28.6718 15.4375C28.2655 16.0312 27.7968 16.5938 27.2655 17.125C26.7343 17.6562 26.1718 18.2292 25.578 18.8438L16.3593 9.57812L11.7186 14.1875C11.4061 14.4792 11.0416 14.625 10.6249 14.625C10.1978 14.625 9.83843 14.4792 9.54677 14.1875C9.2551 13.8958 9.10406 13.5312 9.09364 13.0938C9.09364 12.6667 9.24468 12.3021 9.54677 12L16.2343 5.34375C17.0051 4.58333 17.8801 4.00521 18.8593 3.60938C19.8384 3.21354 20.8697 3.01042 21.953 3C23.0676 3 24.1145 3.21354 25.0936 3.64062C26.0728 4.06771 26.9218 4.65104 27.6405 5.39062C28.3593 6.13021 28.9322 6.98958 29.3593 7.96875C29.7864 8.94792 29.9999 9.99479 29.9999 11.1094ZM25.7499 20.5469C25.7499 20.9115 25.6249 21.2188 25.3749 21.4688C25.1249 21.7188 24.8176 21.8438 24.453 21.8438C24.0989 21.8438 23.7968 21.7188 23.5468 21.4688L18.7499 16.6562C18.677 16.5833 18.578 16.5469 18.453 16.5469C18.3384 16.5469 18.2395 16.5833 18.1561 16.6562C18.0728 16.7292 18.0311 16.8281 18.0311 16.9531C18.0311 17.0573 18.0728 17.151 18.1561 17.2344L23.4061 22.4844C23.6666 22.7448 23.7968 23.0521 23.7968 23.4062C23.7968 23.7708 23.6718 24.0781 23.4218 24.3281C23.1718 24.5781 22.8593 24.7031 22.4843 24.7031C22.1301 24.7031 21.828 24.5781 21.578 24.3281L16.328 19.0781C16.2551 19.0052 16.1561 18.9688 16.0311 18.9688C15.9166 18.9688 15.8228 19.0052 15.7499 19.0781C15.677 19.151 15.6353 19.25 15.6249 19.375C15.6249 19.4792 15.6666 19.5729 15.7499 19.6562L20.9999 24.9062C21.2499 25.1562 21.3749 25.4635 21.3749 25.8281C21.3749 26.1927 21.2499 26.5 20.9999 26.75C20.7499 27 20.4426 27.125 20.078 27.125C19.8072 27.125 19.5884 27.0677 19.4218 26.9531C19.2551 26.8385 19.0832 26.6823 18.9061 26.4844C19.0103 26.2656 19.0624 26.0104 19.0624 25.7188C19.0624 25.4375 19.0103 25.1771 18.9061 24.9375C18.802 24.6979 18.6561 24.4844 18.4686 24.2969C18.2811 24.1094 18.0624 23.9688 17.8124 23.875C17.5624 23.7812 17.2968 23.7292 17.0155 23.7188C17.2239 23.3958 17.328 23.0365 17.328 22.6406C17.328 22.3594 17.2759 22.099 17.1718 21.8594C17.0676 21.6198 16.927 21.4062 16.7499 21.2188C16.5728 21.0312 16.3593 20.8854 16.1093 20.7812C15.8593 20.6771 15.6041 20.625 15.3436 20.625H15.203C15.1614 20.625 15.1093 20.6354 15.0468 20.6562C15.078 20.5417 15.1041 20.4323 15.1249 20.3281C15.1457 20.224 15.1561 20.1094 15.1561 19.9844C15.1561 19.7135 15.1041 19.4583 14.9999 19.2188C14.8957 18.9792 14.7551 18.7656 14.578 18.5781C14.4009 18.3906 14.1874 18.2448 13.9374 18.1406C13.6874 18.0365 13.427 17.9844 13.1561 17.9844C12.9374 17.9844 12.7291 18.0208 12.5311 18.0938C12.3332 18.1667 12.1405 18.2656 11.953 18.3906C11.953 18.1094 11.9009 17.849 11.7968 17.6094C11.6926 17.3698 11.552 17.1562 11.3749 16.9688C11.1978 16.7812 10.9895 16.6354 10.7499 16.5312C10.5103 16.4271 10.2447 16.375 9.95302 16.375C9.6926 16.375 9.43739 16.4219 9.18739 16.5156C8.93739 16.6094 8.71864 16.7552 8.53114 16.9531L6.54677 18.9531C5.92177 18.3177 5.33323 17.7292 4.78114 17.1875C4.22906 16.6458 3.74989 16.0729 3.34364 15.4688C2.93739 14.8646 2.60927 14.2083 2.35927 13.5C2.10927 12.7917 1.98948 11.9583 1.99989 11C1.99989 9.89583 2.21343 8.85938 2.64052 7.89062C3.0676 6.92188 3.65093 6.07812 4.39052 5.35938C5.1301 4.64062 5.98948 4.06771 6.96864 3.64062C7.94781 3.21354 8.98427 3 10.078 3C11.0884 3 12.0572 3.17708 12.9843 3.53125C13.9114 3.88542 14.7499 4.40625 15.4999 5.09375L9.04677 11.5C8.83843 11.7083 8.67698 11.9479 8.56239 12.2188C8.44781 12.4896 8.38531 12.7812 8.37489 13.0938C8.37489 13.4062 8.43218 13.6979 8.54677 13.9688C8.66135 14.2396 8.82281 14.474 9.03114 14.6719C9.23948 14.8698 9.47906 15.0312 9.74989 15.1562C10.0207 15.2812 10.3124 15.3438 10.6249 15.3438C10.927 15.3438 11.2134 15.2865 11.4843 15.1719C11.7551 15.0573 11.9999 14.8958 12.2186 14.6875L16.3593 10.5625L25.3749 19.625C25.6249 19.875 25.7499 20.1823 25.7499 20.5469ZM16.6405 28.9688L18.3749 27.2344C18.4582 27.4219 18.4999 27.6094 18.4999 27.7969C18.4999 28.1615 18.3749 28.4688 18.1249 28.7188C17.8749 28.9688 17.5676 29.0938 17.203 29.0938C17.0155 29.0938 16.828 29.0521 16.6405 28.9688Z" fill="#003540"/>
</svg>
