<svg width="32" height="32" viewBox="0 0 32 32" fill="none" xmlns="http://www.w3.org/2000/svg">
<path d="M15.44 6.36793C16.3667 4.00793 16.8293 2.8266 17.7987 2.68127C18.7667 2.5346 19.5987 3.52127 21.2653 5.49327L21.6947 6.0026C22.168 6.5626 22.4053 6.8426 22.7267 7.0026C23.048 7.1626 23.4187 7.18527 24.16 7.22927L24.8333 7.26793C27.44 7.41993 28.744 7.49727 29.196 8.34793C29.6493 9.20127 28.9507 10.2653 27.5533 12.3919L27.1933 12.9426C26.7947 13.5466 26.5973 13.8493 26.5427 14.1946C26.488 14.5399 26.5867 14.8879 26.7827 15.5853L26.9587 16.2213C27.644 18.6773 27.9853 19.9039 27.296 20.5759C26.608 21.2493 25.344 20.9199 22.816 20.2626L22.1613 20.0933C21.4427 19.9066 21.084 19.8133 20.728 19.8666C20.372 19.9199 20.064 20.1133 19.4427 20.5013L18.8787 20.8546C16.6947 22.2199 15.6027 22.9026 14.7253 22.4653C13.8467 22.0293 13.764 20.7626 13.5973 18.2293L13.5547 17.5733C13.508 16.8533 13.484 16.4933 13.3187 16.1813C13.152 15.8693 12.864 15.6399 12.2853 15.1813L11.7587 14.7653C9.72533 13.1533 8.70799 12.3466 8.85466 11.4053C9.00132 10.4639 10.2147 10.0093 12.6387 9.09993L13.2667 8.86527C13.956 8.6066 14.3013 8.4786 14.5533 8.23193C14.8067 7.98527 14.9373 7.64927 15.2 6.9786L15.44 6.36793ZM7.07999 12.7906C3.83066 15.8933 1.69999 21.0746 3.10799 29.3333C4.36532 25.8626 7.80932 22.9866 11.8827 21.2706C11.7413 20.4799 11.6773 19.5146 11.6107 18.4973L11.5587 17.7039C11.5463 17.5127 11.5321 17.3216 11.516 17.1306L11.4013 17.0359L11.044 16.7493L10.4107 16.2479C9.48532 15.5146 8.62399 14.8346 8.03332 14.2053C7.69599 13.8466 7.31866 13.3733 7.07999 12.7906Z" fill="#003540"/>
<path d="M13.7959 20.5641L13.7759 20.4121L13.8505 20.5468L13.7959 20.5641Z" fill="#003540"/>
</svg>
