<svg width="32" height="32" viewBox="0 0 32 32" fill="none" xmlns="http://www.w3.org/2000/svg">
<path fill-rule="evenodd" clip-rule="evenodd" d="M12.7841 14.4314C12.7094 14.4771 12.6444 14.5371 12.5929 14.608C12.5414 14.6789 12.5044 14.7592 12.484 14.8444C12.4635 14.9296 12.4601 15.018 12.4738 15.1045C12.4876 15.1911 12.5183 15.274 12.5641 15.3487C13.1768 16.3474 13.6974 17.3387 14.0441 18.2394C14.1076 18.4044 14.234 18.5375 14.3956 18.6093C14.5572 18.6811 14.7407 18.6858 14.9058 18.6224C15.0708 18.5589 15.2039 18.4324 15.2757 18.2708C15.3475 18.1093 15.3522 17.9257 15.2888 17.7607C14.9034 16.758 14.3381 15.6907 13.7008 14.6514C13.6084 14.5006 13.4599 14.3928 13.288 14.3515C13.1161 14.3103 12.9348 14.339 12.7841 14.4314ZM19.7268 13.7954C19.8694 13.8997 19.9648 14.0564 19.9919 14.2311C20.019 14.4057 19.9757 14.584 19.8714 14.7267C19.1001 15.782 18.4208 17.1934 17.9428 18.2707C17.9072 18.3507 17.8563 18.4229 17.7928 18.4833C17.7293 18.5436 17.6546 18.5908 17.5729 18.6223C17.4912 18.6537 17.4041 18.6688 17.3166 18.6666C17.229 18.6643 17.1428 18.6449 17.0628 18.6094C16.9827 18.5738 16.9105 18.5229 16.8502 18.4594C16.7899 18.3959 16.7426 18.3212 16.7112 18.2395C16.6797 18.1578 16.6647 18.0707 16.6669 17.9831C16.6691 17.8956 16.6886 17.8094 16.7241 17.7294C17.2068 16.6427 17.9334 15.1187 18.7954 13.94C18.8998 13.7974 19.0565 13.702 19.2312 13.6749C19.4058 13.6478 19.5841 13.6911 19.7268 13.7954Z" fill="#003540"/>
<path fill-rule="evenodd" clip-rule="evenodd" d="M18.16 8.02467C19.7213 6.23933 28.07 4 28.07 4C28.07 4 26.6507 12.93 25.402 14.358C24.472 15.422 21.5087 14.7573 20.0567 14.3487C21.142 12.684 22.4 11.058 23.506 9.76733C23.6188 9.63284 23.6741 9.45927 23.6597 9.28431C23.6454 9.10934 23.5626 8.94709 23.4293 8.8328C23.2961 8.71851 23.1231 8.66139 22.948 8.67384C22.7729 8.6863 22.6097 8.76733 22.494 8.89933C21.3787 10.2007 20.086 11.866 18.954 13.5973C18.318 12.4133 16.9253 9.43667 18.16 8.02467ZM7.33333 20H4V28H7.33333V26.638C8.01333 26.61 9.01733 26.574 9.36467 26.588C10.556 26.6367 11.4447 26.9207 12.3447 27.208C13.1833 27.4753 14.0307 27.746 15.1393 27.8307C15.418 27.852 15.6893 27.8793 15.9527 27.9053C16.9013 28.0013 17.7433 28.0867 18.4393 27.8307C19.3273 27.504 24.4033 25.0193 25.038 24.3653C25.6727 23.712 25.3553 21.9467 23.388 22.2733C22.4173 22.4347 21.2927 22.8987 20.272 23.3193C19.2247 23.7507 18.2873 24.1373 17.7407 24.104C16.662 24.0387 13.8073 23.516 13.8073 23.516L17.0853 23.556C17.0853 23.556 17.5487 23.58 18.1853 23.1233C18.822 22.6667 19.3907 21.358 18.4387 21.358C17.4867 21.358 16.472 21.0313 16.472 21.0313L12.4107 20.116C12.4107 20.116 11.0147 19.8547 10.444 20.116C9.97333 20.3313 8.012 21.034 7.33333 21.276V20ZM5.91867 6.44667C5.91867 6.44667 12.8087 8.29467 14.0967 9.76733C15.092 10.9053 14.0193 13.2753 13.4793 14.2953C12.7716 13.1839 12.0075 12.1094 11.19 11.076C11.1358 11.0073 11.0685 10.9499 10.9921 10.9072C10.9157 10.8644 10.8316 10.8372 10.7447 10.8269C10.6577 10.8167 10.5696 10.8236 10.4854 10.8475C10.4011 10.8713 10.3224 10.9114 10.2537 10.9657C10.1849 11.0199 10.1276 11.0871 10.0848 11.1636C10.0421 11.24 10.0148 11.324 10.0046 11.411C9.99433 11.4979 10.0013 11.586 10.0251 11.6703C10.0489 11.7545 10.0891 11.8333 10.1433 11.902C10.9379 12.9065 11.6802 13.9512 12.3673 15.032C11.122 15.3693 8.854 15.834 8.12067 14.9947C7.09 13.816 5.91867 6.446 5.91867 6.446" fill="#003540"/>
</svg>
