<svg width="32" height="32" viewBox="0 0 32 32" fill="none" xmlns="http://www.w3.org/2000/svg">
<path d="M26.5002 11.9997C26.0503 11.9972 25.6041 12.0821 25.1865 12.2497L21.3752 7.49218C21.6885 7.04096 21.8912 6.52232 21.9669 5.97824C22.0425 5.43416 21.9891 4.87991 21.8108 4.36032C21.6326 3.84073 21.3345 3.37039 20.9408 2.98735C20.547 2.60431 20.0687 2.31933 19.5444 2.15546C19.02 1.99159 18.4645 1.95343 17.9227 2.04407C17.3809 2.1347 16.8681 2.35159 16.4257 2.67719C15.9833 3.00279 15.6237 3.42795 15.3761 3.91829C15.1284 4.40862 14.9997 4.95036 15.0002 5.49968C15.0003 5.62242 15.0065 5.74508 15.019 5.86718L9.21024 8.28718C8.86033 7.858 8.41358 7.51797 7.90669 7.29502C7.39981 7.07208 6.84726 6.97258 6.29445 7.00472C5.74163 7.03686 5.20433 7.1997 4.72669 7.47988C4.24906 7.76005 3.84471 8.14956 3.54689 8.61639C3.24906 9.08323 3.06625 9.61407 3.01349 10.1653C2.96072 10.7165 3.0395 11.2724 3.24335 11.7873C3.44719 12.3021 3.7703 12.7613 4.18611 13.127C4.60192 13.4927 5.09856 13.7545 5.63524 13.8909L5.86649 19.6884C5.33659 19.8694 4.85784 20.1748 4.47042 20.5791C4.08301 20.9833 3.79824 21.4747 3.64004 22.0118C3.48183 22.5489 3.45481 23.1162 3.56123 23.6659C3.66765 24.2156 3.90441 24.7318 4.25163 25.1711C4.59886 25.6103 5.04641 25.9599 5.5567 26.1904C6.067 26.4209 6.62515 26.5256 7.18429 26.4957C7.74343 26.4658 8.28723 26.3022 8.77005 26.0186C9.25286 25.735 9.66058 25.3397 9.95899 24.8659L16.0002 26.5584C16.0087 27.1214 16.1529 27.674 16.4205 28.1693C16.6881 28.6646 17.0712 29.0881 17.5374 29.4038C18.0036 29.7195 18.5391 29.918 19.0984 29.9826C19.6576 30.0472 20.2243 29.9759 20.7501 29.7748C21.276 29.5737 21.7456 29.2486 22.119 28.8273C22.4925 28.406 22.7588 27.9008 22.8953 27.3546C23.0319 26.8084 23.0347 26.2374 22.9034 25.6899C22.7722 25.1424 22.5108 24.6346 22.1415 24.2097L25.5427 18.8659C26.0241 19.003 26.5294 19.0352 27.0243 18.9604C27.5192 18.8855 27.9923 18.7054 28.4117 18.4322C28.831 18.159 29.1869 17.7989 29.4553 17.3765C29.7237 16.954 29.8984 16.4788 29.9675 15.9831C30.0366 15.4873 29.9986 14.9825 29.8561 14.5027C29.7135 14.0229 29.4697 13.5793 29.141 13.2018C28.8124 12.8242 28.4066 12.5215 27.9511 12.3142C27.4955 12.1068 27.0008 11.9996 26.5002 11.9997ZM8.89899 13.0447L14.2152 16.1247L9.03274 20.1522C8.68056 19.9003 8.28469 19.7159 7.86524 19.6084L7.63399 13.8109C8.10543 13.6485 8.53672 13.3873 8.89899 13.0447ZM18.6965 8.99968C19.0803 8.97872 19.4579 8.89424 19.814 8.74968L23.6252 13.5072C23.3823 13.8563 23.2052 14.2469 23.1027 14.6597L17.2815 14.9372L18.6965 8.99968ZM10.2615 21.7309L15.5002 17.6572L17.4927 23.6359C17.1133 23.9035 16.7905 24.2433 16.5427 24.6359L10.5002 22.9409C10.4929 22.5266 10.4121 22.117 10.2615 21.7309ZM19.5002 22.9997H19.389L17.3665 16.9334L23.1977 16.6559C23.345 17.0691 23.569 17.4508 23.8577 17.7809L20.4565 23.1247C20.145 23.0391 19.8232 22.997 19.5002 22.9997ZM15.7902 7.71218C16.0589 8.03978 16.384 8.31665 16.7502 8.52968L15.3377 14.4609L9.90399 11.3147C9.96792 11.0477 10.0002 10.7742 10.0002 10.4997C10.0002 10.3769 9.99396 10.2543 9.98149 10.1322L15.7902 7.71218Z" fill="#003540"/>
</svg>
